<?xml version="1.0" encoding="utf-8"?>
<!-- Generator: Adobe Illustrator 16.0.0, SVG Export Plug-In . SVG Version: 6.00 Build 0)  -->
<!DOCTYPE svg PUBLIC "-//W3C//DTD SVG 1.1//EN" "http://www.w3.org/Graphics/SVG/1.1/DTD/svg11.dtd">
<svg version="1.1" id="Layer_1" xmlns="http://www.w3.org/2000/svg" xmlns:xlink="http://www.w3.org/1999/xlink" x="0px" y="0px"
	 width="263px" height="122.619px" viewBox="0 0 263 122.619" enable-background="new 0 0 263 122.619" xml:space="preserve">
<g>
	<defs>
		<rect id="SVGID_1_" y="73.756" width="263" height="48.863"/>
	</defs>
	<clipPath id="SVGID_2_">
		<use xlink:href="#SVGID_1_"  overflow="visible"/>
	</clipPath>
	<path clip-path="url(#SVGID_2_)" fill-rule="evenodd" clip-rule="evenodd" fill="#1A1628" d="M35.13,78.824
		c0,0.845-0.432,1.612-1.295,2.303c-0.864,0.691-1.719,1.037-2.562,1.037c-0.576,0-1.229-0.22-1.959-0.662
		c-0.729-0.442-1.094-0.931-1.094-1.468c0-0.461,0.24-0.951,0.721-1.468c0.479-0.519,0.95-0.778,1.41-0.778
		c0.922,0,1.382,0.317,1.382,0.951c0,0.24-0.115,0.556-0.345,0.95c-0.346-0.653-0.73-0.979-1.152-0.979
		c-0.308,0-0.461,0.346-0.461,1.037c0,0.384,0.154,0.778,0.461,1.181c0.307,0.403,0.652,0.605,1.037,0.605
		c0.46,0,0.864-0.518,1.209-1.555c0.306-0.883,0.46-1.613,0.46-2.188c0-0.806-0.268-1.536-0.806-2.188
		c-0.538-0.653-1.209-0.979-2.016-0.979c-1.343,0-2.361,1.132-3.052,3.398c-0.5,1.613-0.749,3.302-0.749,5.068
		c0,8.178,0.806,17.181,2.419,27.01c1.19,0,2.668-0.384,4.435-1.151l0.403,1.382c-2.333,0.422-5.788,1.266-10.366,2.534
		l-0.115-1.729l4.261-0.863c-0.845-4.108-1.382-6.796-1.622-8.063c-0.538-2.917-0.921-5.625-1.152-8.12
		c-1.344,0.422-3.082,1.976-5.202,4.665c-1.037,1.306-2.899,3.647-5.596,7.026c-2.006,2.418-3.764,3.628-5.261,3.628v1.152
		c1.267,0,2.957-0.345,5.068-1.037v1.498c-1.689,0.384-3.378,0.595-5.068,0.633v0.058c0,0.077-0.346,0.077-1.036,0H7.199v-0.058
		v0.058c-0.959,0.039-2.477,0.192-4.55,0.461v-1.431l4.55-0.182c-1.267-10.078-2.112-17.882-2.535-23.392
		c-0.114-1.689-0.537-4.185-1.266-7.477H2.535c-0.73,0-1.575-0.058-2.535-0.163V78.42h2.88c4.031,0,7.006-0.21,8.926-0.633v1.383
		c-1.036,0.115-2.496,0.288-4.377,0.518c0.269,4.723,0.634,13.514,1.094,26.376v1.555c0.115,0,0.288-0.019,0.519-0.057
		c1.391-0.193,3.858-2.582,7.4-7.17c3.542-4.589,6.104-7.132,7.688-7.631c-0.691-5.26-1.036-8.907-1.036-10.942
		c0-2.227,0.595-4.088,1.784-5.585c1.307-1.651,3.034-2.477,5.184-2.477c1.382,0,2.572,0.5,3.57,1.497
		C34.631,76.251,35.13,77.442,35.13,78.824 M263,111.235c-0.614,0.192-1.997,0.403-4.147,0.634
		c-1.688,0.153-3.109,0.499-4.261,1.036c0.077-2.073,0.336-5.835,0.778-11.287c0.316-2.995,0.652-6.661,1.007-11
		c-1.507,2.227-3.244,5.394-5.211,9.503c-2.275,4.799-3.897,8.023-4.867,9.675l4.031,0.23l-0.23,1.209
		c-1.919-0.269-3.475-0.403-4.665-0.403s-2.879,0.154-5.068,0.461l-0.115-1.21l4.088-0.518c0.077-1.152,0.116-2.381,0.116-3.686
		c0-1.42-0.048-3.561-0.144-6.421c-0.096-2.861-0.144-5.001-0.144-6.422c0-1.574,0.038-3.09,0.116-4.549
		c-0.845,0.307-1.421,0.46-1.728,0.46c-1.075,0-1.555,0.019-1.439,0.058c-0.308-0.039-0.672-0.211-1.095-0.518
		c0.269,2.649,0.403,4.549,0.403,5.701c0,6.105-1.401,10.961-4.204,14.57c-1.805,2.343-3.878,3.513-6.22,3.513
		c-1.421,0-2.553-0.652-3.398-1.958c-0.729-1.113-1.094-2.419-1.094-3.916c0-1.498,0.442-2.755,1.324-3.773
		c0.883-1.018,2.055-1.526,3.514-1.526c0.882,0,1.574,0.441,2.073,1.325c0.422,0.729,0.633,1.574,0.633,2.534
		c0,0.807-0.277,1.613-0.834,2.419c-0.557,0.807-1.219,1.209-1.987,1.209c-1.229,0-1.843-0.71-1.843-2.131
		c0-0.768,0.326-1.152,0.979-1.152c0.268,0,0.537,0.115,0.806,0.346c-0.307,0.422-0.46,0.749-0.46,0.979
		c0,0.461,0.365,0.691,1.094,0.691c0.883,0,1.324-0.441,1.324-1.324c0-0.614-0.269-1.239-0.806-1.872
		c-0.538-0.634-1.113-0.951-1.728-0.951c-0.768,0-1.458,0.336-2.073,1.008c-0.614,0.671-0.921,1.392-0.921,2.16
		c0,1.113,0.432,2.063,1.296,2.85c0.863,0.787,1.853,1.181,2.966,1.181c2.188,0,4.032-1.287,5.528-3.858
		c1.075-1.843,1.863-4.108,2.361-6.795c0.23-1.268,0.346-3.014,0.346-5.241c0-2.957-0.173-5.645-0.519-8.062
		c0.346,0.076,0.816,0.326,1.411,0.748c0.595,0.422,1.124,0.634,1.584,0.634c1.881,0,4.127-0.461,6.738-1.382
		c-0.499,2.84-0.806,4.625-0.921,5.356c-0.422,2.802-0.729,5.624-0.921,8.465l-0.23,3.571c-0.077,0.384-0.172,1.132-0.288,2.246
		l-0.058,0.576l0.979-1.958c0,0.192,0.211-0.153,0.633-1.036c0.23-0.346,0.46-0.71,0.691-1.095c1.306-2.764,2.803-5.605,4.492-8.523
		c0.461-0.844,1.805-2.918,4.031-6.22l4.205-0.461c-0.691,3.11-1.824,8.504-3.398,16.183c-0.153,0.729-0.403,1.881-0.749,3.455
		c-0.268,1.19-0.403,2.016-0.403,2.477c0,0.308,0.039,0.557,0.116,0.749c0.575-0.115,1.382-0.153,2.419-0.115
		c2.495,0.039,3.762,0.058,3.801,0.058C262.904,110.563,263,110.928,263,111.235 M232.134,81.251c0,2.517-1.652,7.03-4.958,13.542
		c-3.799,7.499-6.191,13.271-7.178,17.316c-1.677,7.005-4.563,10.509-8.658,10.509c-1.381,0-2.615-0.321-3.7-0.963
		c-1.332-0.74-1.998-1.752-1.998-3.034s0.666-2.318,1.998-3.108c1.135-0.69,2.393-1.036,3.774-1.036
		c0.691,0,1.295,0.235,1.813,0.703c0.519,0.469,0.777,1.047,0.777,1.739c0,0.592-0.358,1.135-1.073,1.629
		c-0.715,0.492-1.394,0.74-2.035,0.74c-0.542,0-0.813-0.248-0.813-0.74c0.395,0,0.752-0.21,1.073-0.629
		c0.321-0.42,0.481-0.852,0.481-1.295c0-0.791-0.296-1.185-0.888-1.185c-1.973,0-2.96,0.788-2.96,2.368
		c0,1.035,0.382,1.948,1.147,2.738c0.765,0.789,1.665,1.184,2.701,1.184c2.171,0,4.342-3.157,6.512-9.472
		c0.838-2.417,1.604-4.588,2.293-6.513c-3.946-11.1-7.794-18.994-11.544-23.681c-0.986,0.296-2.516,0.79-4.588,1.481l-0.37-1.259
		c2.269-0.493,5.205-1.603,8.806-3.33c2.122,2.763,4.169,7.622,6.143,14.578l2.738,9.62l5.106-10.286
		c2.318-4.687,3.478-8.239,3.478-10.656c0-2.319-1.184-3.479-3.552-3.479c-1.184,0-1.776,0.469-1.776,1.407
		c0,1.282,0.345,1.923,1.036,1.923c0.444,0,0.962-0.123,1.554-0.37c0.148,0.148,0.222,0.346,0.222,0.592
		c0,0.346-0.185,0.704-0.555,1.073c-0.37,0.37-0.728,0.555-1.073,0.555c-0.642,0-1.234-0.346-1.776-1.036
		c-0.542-0.691-0.814-1.356-0.814-1.999c0-0.986,0.407-1.973,1.221-2.96c0.814-0.986,1.689-1.479,2.627-1.479
		c1.233,0,2.343,0.493,3.33,1.479C231.641,78.907,232.134,80.018,232.134,81.251 M59.796,109.529l-0.235,1.233
		c-1.958-0.274-3.543-0.411-4.757-0.411c-1.213,0-2.937,0.157-5.167,0.47l-0.118-1.233l4.169-0.529
		c0.078-1.174,0.118-2.427,0.118-3.758c0-1.449-0.049-3.621-0.147-6.518c-0.097-2.898-0.146-5.07-0.146-6.519
		c0-1.644,0.039-3.191,0.117-4.639c-0.861,0.313-1.448,0.47-1.762,0.47h-1.409c-0.313,0-0.705-0.177-1.174-0.529
		c0.274,2.702,0.411,4.639,0.411,5.813c0,6.226-1.429,11.198-4.287,14.916c-1.839,2.388-3.954,3.583-6.342,3.583
		c-1.449,0-2.604-0.666-3.464-1.997c-0.744-1.175-1.116-2.525-1.116-4.052c0-1.526,0.45-2.809,1.351-3.846
		c0.9-1.038,2.094-1.557,3.582-1.557c0.9,0,1.585,0.421,2.055,1.263c0.47,0.841,0.705,1.752,0.705,2.731
		c0,0.822-0.274,1.604-0.823,2.349c-0.587,0.861-1.272,1.292-2.055,1.292c-1.253,0-1.879-0.705-1.879-2.114
		c0-0.783,0.333-1.174,0.998-1.174c0.274,0,0.548,0.118,0.822,0.352c-0.313,0.391-0.47,0.724-0.47,0.999
		c0,0.43,0.373,0.646,1.116,0.646c0.901,0,1.351-0.431,1.351-1.292c0-0.666-0.264-1.321-0.792-1.967
		c-0.528-0.646-1.126-0.969-1.791-0.969c-0.783,0-1.488,0.343-2.114,1.028c-0.626,0.685-0.939,1.419-0.939,2.202
		c0,1.135,0.44,2.104,1.321,2.907s1.889,1.204,3.024,1.204c2.271,0,4.15-1.312,5.637-3.935c1.096-1.84,1.899-4.149,2.408-6.929
		c0.235-1.292,0.352-3.054,0.352-5.286c0-3.014-0.176-5.754-0.528-8.221c0.352,0.04,0.822,0.284,1.409,0.734
		c0.587,0.45,1.136,0.675,1.644,0.675c1.918,0,4.209-0.47,6.871-1.409c-0.509,2.74-0.823,4.561-0.94,5.461
		c-0.431,2.819-0.744,5.696-0.939,8.633l-0.235,3.64c-0.039,0.431-0.137,1.155-0.294,2.173c-0.156,1.018-0.235,1.801-0.235,2.349
		c0,0.548,0.059,1.057,0.176,1.526L59.796,109.529z"/>
	<path clip-path="url(#SVGID_2_)" fill-rule="evenodd" clip-rule="evenodd" fill="#DD2417" d="M182.222,109.756
		c1.958,0.577,3.533,1.171,4.722,1.786l0.576-6.047c2.16,3.109,4.742,4.665,7.746,4.665c2.505,0,4.656-0.94,6.47-2.822
		c1.813-1.882,2.715-4.07,2.715-6.565c0-2.458-1.018-4.694-3.052-6.709s-3.051-3.753-3.051-5.212c0-1.805,0.787-2.707,2.361-2.707
		c0.652,0,1.267,0.172,1.842,0.518c0.691,0.384,1.037,0.883,1.037,1.497c0,0.384-0.163,0.729-0.489,1.037
		c-0.326,0.307-0.681,0.46-1.066,0.46c-0.652,0-0.978-0.191-0.978-0.575c0-0.422,0.364-0.691,1.094-0.807
		c-0.345-0.423-0.634-0.633-0.863-0.633c-0.807,0-1.209,0.479-1.209,1.44c0,0.575,0.229,1.094,0.691,1.555
		c0.46,0.46,0.979,0.691,1.555,0.691c0.537,0,1.026-0.259,1.468-0.777c0.441-0.519,0.662-1.047,0.662-1.584
		c0-0.998-0.364-2.006-1.094-3.023s-1.574-1.525-2.534-1.525c-1.076,0-1.901,0.412-2.476,1.238
		c-0.576,0.825-0.864,1.795-0.864,2.908c0,1.574,0.412,3.071,1.229,4.493c1.872,3.263,2.802,5.758,2.802,7.486
		c0,2.419-0.556,4.377-1.679,5.874c-1.268,1.728-3.062,2.592-5.376,2.592c-2.62,0-4.875-1.747-6.767-5.24
		c0.653-5.414,1.556-10.75,2.707-16.011l2.707,0.173l-0.116-1.094c-2.994-0.077-5.815-0.538-8.465-1.382l-0.23,0.979l2.591,0.749
		c0,5.721-0.307,13.227-0.921,22.518c-1.229-0.269-2.361-0.653-3.398-1.151L182.222,109.756z M58.148,106.526l0.235,1.234
		c1.958-0.274,3.543-0.412,4.757-0.412c1.213,0,2.936,0.157,5.167,0.47l0.118-1.233l-4.169-0.529
		c-0.079-1.174-0.118-2.427-0.118-3.758c0-1.449,0.049-3.621,0.146-6.518c0.098-2.897,0.147-5.07,0.147-6.518
		c0-1.645-0.04-3.191-0.118-4.64c0.861,0.313,1.449,0.47,1.761,0.47h1.41c0.313,0,0.705-0.177,1.175-0.529
		c-0.274,2.702-0.411,4.639-0.411,5.813c0,6.225,1.429,11.197,4.286,14.916c1.84,2.388,3.955,3.583,6.343,3.583
		c1.449,0,2.604-0.666,3.464-1.997c0.744-1.174,1.116-2.525,1.116-4.051c0-1.527-0.45-2.81-1.351-3.847
		c-0.9-1.038-2.094-1.556-3.582-1.556c-0.901,0-1.586,0.421-2.056,1.263s-0.705,1.752-0.705,2.73c0,0.822,0.274,1.605,0.822,2.349
		c0.588,0.861,1.272,1.292,2.056,1.292c1.252,0,1.879-0.705,1.879-2.114c0-0.783-0.333-1.175-0.998-1.175
		c-0.274,0-0.548,0.117-0.822,0.352c0.313,0.392,0.47,0.725,0.47,0.999c0,0.431-0.373,0.646-1.116,0.646
		c-0.901,0-1.351-0.431-1.351-1.292c0-0.666,0.265-1.321,0.793-1.967s1.125-0.969,1.791-0.969c0.783,0,1.487,0.343,2.114,1.027
		c0.626,0.685,0.939,1.419,0.939,2.202c0,1.136-0.44,2.104-1.321,2.907c-0.881,0.802-1.889,1.204-3.025,1.204
		c-2.271,0-4.149-1.311-5.637-3.934c-1.097-1.84-1.899-4.15-2.408-6.93c-0.235-1.292-0.353-3.053-0.353-5.285
		c0-3.015,0.176-5.755,0.528-8.222c-0.352,0.039-0.822,0.284-1.409,0.734c-0.587,0.45-1.135,0.675-1.645,0.675
		c-1.918,0-4.208-0.47-6.871-1.41c0.509,2.741,0.822,4.561,0.939,5.461c0.431,2.819,0.744,5.697,0.939,8.632l0.235,3.641
		c0.04,0.431,0.138,1.155,0.294,2.173c0.156,1.018,0.235,1.801,0.235,2.349c0,0.548-0.06,1.057-0.177,1.526L58.148,106.526z
		 M157.588,97.848c0,2.765,1.267,5.145,3.801,7.141c2.381,1.921,4.972,2.88,7.775,2.88c1.843,0,3.686-0.959,5.529-2.88
		c0.345,4.07,0.518,7.315,0.518,9.733c0,1.536-0.058,2.86-0.173,3.973c-1.114-0.076-2.323-0.383-3.629-0.922l-0.172,1.499
		c1.843,0.423,3.302,0.633,4.376,0.633c0.691,0,2.169,0.077,4.436,0.231l-0.058-1.096c-2.113-0.153-3.437-0.23-3.974-0.23
		c0.653-4.875,0.979-10.807,0.979-17.795c0-6.066-0.269-10.596-0.807-13.591c0.807,0.125,2.342,0.547,4.607,1.268l0.172-1.133
		c-3.11-0.671-5.989-1.545-8.639-2.611c1.498,4.761,2.247,10.846,2.247,18.256c-1.651,2.342-3.744,3.513-6.277,3.513
		c-2.073,0-3.82-1.017-5.24-3.052c-1.268-1.805-1.901-3.801-1.901-5.989c0-2.112,0.441-4.032,1.324-5.76
		c1.076-2.15,2.553-3.224,4.434-3.224c1.076,0,1.958,0.383,2.649,1.152c0.691,0.768,1.037,1.708,1.037,2.822
		c0,0.537-0.153,1.036-0.46,1.497c-0.346,0.576-0.769,0.864-1.268,0.864c-1.037,0-1.555-0.633-1.555-1.901
		c0-0.921,0.48-1.382,1.441-1.382c0-0.614-0.365-0.922-1.095-0.922c-0.346,0-0.777,0.26-1.295,0.778
		c-0.519,0.518-0.778,0.95-0.778,1.295c0,0.768,0.432,1.45,1.296,2.045c0.864,0.595,1.699,0.893,2.505,0.893
		c2.074,0,3.11-1.114,3.11-3.34c0-1.036-0.624-2.064-1.872-3.082c-1.248-1.017-2.409-1.526-3.484-1.526
		c-2.918,0-5.241,0.922-6.969,2.764C158.452,92.492,157.588,94.891,157.588,97.848 M152.475,109.802h-1.037l0.058-3.398
		c-0.077,0.038-1.747,0.538-5.01,1.497c-1.881,0.538-3.244,0.807-4.089,0.807c-1.152,0-2.103-0.346-2.851-1.037
		c-0.749-0.691-1.123-1.613-1.123-2.764c0-1.229,0.595-2.246,1.785-3.053c1.076-0.691,2.266-1.036,3.571-1.036
		c0.154,0,1.248-0.326,3.283-0.979c2.228-0.73,3.494-1.132,3.802-1.209c0.23-0.537,0.345-1.363,0.345-2.477
		c0-1.459-0.173-3.052-0.519-4.779c-0.115-0.346-0.25-0.883-0.403-1.613c0-0.5-0.019-0.883-0.057-1.151
		c-0.27-1.997-1.268-2.995-2.995-2.995c-4.032,0-6.047,2.496-6.047,7.487c0,1.574,0.672,2.361,2.016,2.361
		c0.768,0,1.44-0.327,2.015-0.979c0.576-0.653,0.865-1.363,0.865-2.131c0-0.422-0.202-0.787-0.605-1.093
		c-0.403-0.308-0.834-0.461-1.295-0.461c-0.499,0-0.749,0.307-0.749,0.921c0,0.422,0.173,0.633,0.519,0.633
		c0.307,0,0.576-0.057,0.806-0.172c-0.115,0.691-0.519,1.037-1.21,1.037c-0.845,0-1.267-0.48-1.267-1.439
		c0-0.5,0.212-0.96,0.634-1.382c0.422-0.422,0.883-0.634,1.382-0.634c2.303,0,3.455,0.653,3.455,1.958
		c0,1.037-0.528,2.035-1.584,2.995c-1.056,0.959-2.121,1.439-3.196,1.439c-0.999,0-1.843-0.278-2.534-0.834
		c-0.69-0.557-1.036-1.315-1.036-2.275c0-2.073,0.903-4.098,2.707-6.075c1.804-1.978,3.743-2.966,5.817-2.966
		c1.766,0,3.244,0.72,4.434,2.16c1.19,1.439,1.786,3.062,1.786,4.866c0,2.034-0.48,4.991-1.44,8.869
		c-0.346,1.382-0.519,2.841-0.519,4.376C152.186,106.231,152.282,108.075,152.475,109.802 M150.517,99.493
		c-0.538,0.038-1.594,0.404-3.168,1.094c-0.614,0.346-1.536,0.73-2.765,1.152c-0.614,0.114-1.181,0.518-1.699,1.209
		c-0.518,0.69-0.777,1.362-0.777,2.015c0,0.5,0.183,0.979,0.547,1.44c0.365,0.46,0.778,0.69,1.238,0.69
		c0.999,0,2.169-0.172,3.513-0.518c2.073-0.537,3.302-0.998,3.687-1.382L150.517,99.493z M119.575,103.337
		c0,1.162,0.749,2.64,2.246,4.454c1.498,1.814,2.995,2.727,4.492,2.727h0.749h1.152c0.422-0.038,0.672-0.058,0.748-0.058
		c1.229,0,2.4-0.269,3.513-0.806c0.46-0.269,1.536-0.864,3.225-1.786l-2.131-1.094c-2.495,2.035-4.953,3.034-7.372,2.995
		c-0.883-0.038-1.824-0.796-2.822-2.284c-0.883-1.325-1.325-2.505-1.325-3.532c0-1.747,0.864-3.042,2.592-3.878
		c1.306-0.682,2.937-1.027,4.895-1.027l0.288-0.681c-2.342,0.039-3.589,0.039-3.743,0c-0.154-0.038-0.48-0.192-0.979-0.461
		c-1.535-0.844-2.303-2.188-2.303-4.031c0-1.536,0.538-3.052,1.612-4.549c1.421-1.958,3.207-2.937,5.356-2.937
		c1.113,0,2.112,0.364,2.995,1.094c0.883,0.73,1.325,1.632,1.325,2.707c0,0.883-0.259,1.631-0.778,2.247
		c-0.518,0.614-1.219,0.92-2.103,0.92c-1.266,0-1.9-0.672-1.9-2.016c0-0.345,0.116-0.7,0.346-1.064
		c0.23-0.365,0.499-0.548,0.807-0.548c0.538,0,0.806,0.211,0.806,0.633c0,0.192-0.076,0.557-0.23,1.094h0.289
		c0.269,0,0.557-0.115,0.864-0.346c0.307-0.229,0.461-0.479,0.461-0.749c0-0.883-0.633-1.324-1.901-1.324
		c-0.691,0-1.324,0.25-1.9,0.749c-0.577,0.499-0.865,1.074-0.865,1.728c0,0.883,0.423,1.574,1.268,2.073
		c0.691,0.46,1.517,0.691,2.476,0.691c1.076,0,2.092-0.451,3.052-1.354c0.96-0.902,1.44-1.891,1.44-2.965
		c0-1.267-0.769-2.361-2.304-3.283c-1.344-0.768-2.707-1.151-4.089-1.151c-3.033,0-5.74,1.17-8.121,3.513h0.058
		c-0.96,1.2-1.44,2.678-1.44,4.454c0,2.784,1.459,4.406,4.377,4.866c-1.459,0.191-2.678,0.72-3.657,1.565
		C120.064,100.774,119.575,101.907,119.575,103.337 M84.742,98.356c0,2.918,0.959,5.663,2.879,8.235
		c2.073,2.764,4.531,4.146,7.372,4.146c3.033,0,5.634-1.171,7.803-3.513c2.169-2.342,3.254-5.03,3.254-8.063
		c0.077,0,0.134,0.019,0.173,0.058l2.533,0.403c0.653,0.115,1.172-0.039,1.555-0.461l0.461,10.366c-1.92,0-3.744-0.115-5.472-0.346
		v1.44c4.684,0,7.967,0.21,9.848,0.633v-1.44l-3.283-0.058c0-3.839,0.116-7.602,0.346-11.288l2.303,0.404l0.058-0.173l-0.23-0.058
		c-0.269-0.038-0.615-0.221-1.037-0.547c-0.422-0.326-0.768-0.508-1.037-0.546c0.154-3.034,0.404-6.009,0.75-8.927h2.82v-0.979
		h-3.627c-1.191,0-2.803-0.327-4.838-0.979v1.209l2.246,0.575l0.577,8.754l-0.46-0.116h-0.23c-0.46,0-0.845,0.23-1.152,0.691
		c-0.422,0.614-0.71,0.959-0.864,1.036c-0.308-0.269-0.73-0.614-1.267-1.036l-0.289-0.058c-0.306-2.112-1.305-4.127-2.994-6.046
		c-2.073-2.381-4.531-3.898-7.372-4.55l-0.288,0.634c2.304,0.422,4.146,1.746,5.528,3.973c1.306,2.035,1.958,4.281,1.958,6.738
		c0,2.958-0.537,5.472-1.613,7.545c-1.382,2.611-3.417,3.916-6.105,3.916c-2.111,0-3.877-1.325-5.297-3.974
		c-1.191-2.227-1.786-4.492-1.786-6.796c0-2.342,0.518-4.454,1.555-6.335c1.229-2.265,2.918-3.397,5.068-3.397
		c0.999,0,1.833,0.374,2.505,1.123c0.672,0.748,1.008,1.622,1.008,2.62c0,0.537-0.202,1.037-0.604,1.497
		c-0.403,0.461-0.874,0.691-1.412,0.691c-0.498,0-1.026-0.192-1.583-0.576c-0.557-0.384-0.835-0.806-0.835-1.267
		c0-0.806,0.461-1.209,1.382-1.209c0.385,0,0.577,0.211,0.577,0.633c0,0.192-0.211,0.384-0.633,0.576
		c0.229,0.383,0.518,0.576,0.864,0.576c0.614,0,0.921-0.365,0.921-1.094c0-0.96-0.595-1.441-1.785-1.441
		c-0.5,0-0.97,0.192-1.412,0.577c-0.441,0.384-0.662,0.826-0.662,1.324c0,2.381,1.094,3.571,3.283,3.571
		c0.844,0,1.497-0.442,1.957-1.324c0.384-0.691,0.576-1.498,0.576-2.419c0-1.228-0.499-2.352-1.497-3.37
		c-0.999-1.017-2.112-1.525-3.34-1.525c-2.496,0-4.646,1.026-6.451,3.08C85.644,93.528,84.742,95.823,84.742,98.356"/>
</g>
<g>
	<defs>
		<rect id="SVGID_3_" x="77.543" width="100" height="66.046"/>
	</defs>
	<clipPath id="SVGID_4_">
		<use xlink:href="#SVGID_3_"  overflow="visible"/>
	</clipPath>
	<path clip-path="url(#SVGID_4_)" fill-rule="evenodd" clip-rule="evenodd" fill="#1A1628" d="M128.438,3.824
		c-3.04,0-7.354-0.392-12.944-1.177l-0.294,3.089l10.443,1.324c0.197,2.942,0.294,6.08,0.294,9.414
		c0,3.628-0.122,9.071-0.368,16.328c-0.245,7.257-0.368,12.7-0.368,16.328c0,4.119,0.098,7.992,0.294,11.621
		c-2.158-0.784-3.629-1.177-4.413-1.177h-3.53c-0.784,0-1.765,0.441-2.942,1.324c0.687-6.766,1.03-11.621,1.03-14.562
		c0-15.593-3.58-28.046-10.738-37.363C100.293,2.991,94.998,0,89.017,0c-3.629,0-6.522,1.667-8.679,5.001
		c-1.863,2.942-2.794,6.325-2.794,10.149c0,3.824,1.127,7.036,3.382,9.634c2.256,2.6,5.248,3.898,8.973,3.898
		c2.256,0,3.972-1.054,5.148-3.163c1.177-2.108,1.766-4.388,1.766-6.84c0-2.059-0.687-4.02-2.06-5.884
		c-1.471-2.157-3.188-3.236-5.148-3.236c-3.138,0-4.707,1.765-4.707,5.295c0,1.962,0.833,2.942,2.5,2.942
		c0.687,0,1.374-0.293,2.06-0.882c-0.785-0.981-1.177-1.814-1.177-2.501c0-1.079,0.932-1.618,2.795-1.618
		c2.255,0,3.383,1.079,3.383,3.236c0,1.667-0.662,3.309-1.986,4.927c-1.324,1.619-2.819,2.428-4.486,2.428
		c-1.961,0-3.726-0.858-5.295-2.575c-1.569-1.716-2.354-3.555-2.354-5.516c0-2.844,1.104-5.271,3.31-7.281
		c2.207-2.011,4.731-3.016,7.575-3.016c5.688,0,10.395,3.285,14.122,9.855c2.746,4.609,4.756,10.395,6.031,17.357
		c0.588,3.236,0.883,7.649,0.883,13.239c0,7.551-0.441,14.416-1.324,20.593c0.883-0.098,2.06-0.711,3.531-1.838
		c1.471-1.128,2.844-1.692,4.119-1.692c4.805,0,10.542,1.177,17.21,3.53c-1.275-6.865-2.06-11.424-2.354-13.68
		c-1.079-7.061-1.863-14.268-2.354-21.624l-0.588-9.12c-0.098-1.079-0.343-2.893-0.736-5.442c-0.392-2.55-0.588-4.511-0.588-5.884
		c0-1.373,0.147-2.648,0.441-3.824L128.438,3.824z"/>
	<path clip-path="url(#SVGID_4_)" fill-rule="evenodd" clip-rule="evenodd" fill="#DD2417" d="M126.648,3.824
		c3.04,0,7.354-0.392,12.944-1.177l0.294,3.089l-10.444,1.324c-0.196,2.942-0.294,6.08-0.294,9.414
		c0,3.629,0.123,9.071,0.368,16.328s0.368,12.7,0.368,16.328c0,4.119-0.098,7.992-0.294,11.621c2.157-0.785,3.628-1.177,4.413-1.177
		h3.531c0.784,0,1.765,0.441,2.941,1.324c-0.686-6.766-1.029-11.621-1.029-14.562c0-15.592,3.58-28.046,10.738-37.362
		C154.792,2.991,160.088,0,166.07,0c3.628,0,6.521,1.667,8.679,5.001c1.863,2.942,2.794,6.325,2.794,10.149
		c0,3.825-1.127,7.036-3.383,9.635c-2.256,2.599-5.247,3.898-8.973,3.898c-2.255,0-3.971-1.054-5.148-3.163s-1.766-4.389-1.766-6.84
		c0-2.06,0.687-4.021,2.06-5.884c1.471-2.158,3.187-3.236,5.148-3.236c3.138,0,4.708,1.765,4.708,5.295
		c0,1.962-0.834,2.942-2.501,2.942c-0.687,0-1.373-0.294-2.059-0.882c0.784-0.98,1.177-1.814,1.177-2.5
		c0-1.079-0.932-1.618-2.795-1.618c-2.255,0-3.382,1.079-3.382,3.236c0,1.667,0.662,3.31,1.985,4.927
		c1.324,1.619,2.819,2.428,4.487,2.428c1.96,0,3.726-0.858,5.295-2.575c1.569-1.716,2.354-3.555,2.354-5.516
		c0-2.844-1.104-5.271-3.31-7.281c-2.207-2.011-4.731-3.016-7.575-3.016c-5.688,0-10.395,3.285-14.121,9.855
		c-2.746,4.609-4.756,10.395-6.031,17.357c-0.588,3.236-0.882,7.649-0.882,13.238c0,7.551,0.441,14.416,1.324,20.594
		c-0.883-0.098-2.06-0.711-3.531-1.838c-1.471-1.128-2.844-1.692-4.119-1.692c-4.805,0-10.541,1.177-17.21,3.531
		c1.275-6.865,2.06-11.425,2.354-13.68c1.079-7.06,1.863-14.268,2.354-21.623l0.588-9.12c0.098-1.079,0.343-2.893,0.736-5.442
		c0.392-2.55,0.588-4.511,0.588-5.884c0-1.373-0.147-2.648-0.441-3.825L126.648,3.824z"/>
</g>
</svg>
