<?xml version="1.0" encoding="iso-8859-1"?>
<!-- Generator: Adobe Illustrator 16.0.0, SVG Export Plug-In . SVG Version: 6.00 Build 0)  -->
<!DOCTYPE svg PUBLIC "-//W3C//DTD SVG 1.1//EN" "http://www.w3.org/Graphics/SVG/1.1/DTD/svg11.dtd">
<svg version="1.1" id="Layer_1" xmlns="http://www.w3.org/2000/svg" xmlns:xlink="http://www.w3.org/1999/xlink" x="0px" y="0px"
	 width="344px" height="41px" viewBox="0 0 344 41" style="enable-background:new 0 0 344 41;" xml:space="preserve">
<g fill="#ffffff" style="enable-background:new    ;">
	<polygon id="SVGID_3_" points="60.271,1.33 47.699,40.719 55.337,40.719 64.948,8.752 67.863,8.752 77.586,40.719 85.45,40.719 
						72.823,1.33 				"/>
	<polygon id="SVGID_7_" points="177.266,1.33 170.744,17.286 169.224,17.286 162.702,1.33 150.101,1.33 150.101,40.719 
						157.323,40.719 157.323,9.536 158.942,9.536 166.25,27.339 173.495,27.339 180.801,9.536 182.42,9.536 182.42,40.719 
						189.642,40.719 189.642,1.33 				"/>
	<polygon id="SVGID_11_" points="284.691,1.33 284.691,16.894 266.339,16.894 266.339,1.33 258.556,1.33 258.556,40.719 
						266.339,40.719 266.339,23.979 284.691,23.979 284.691,40.719 292.477,40.719 292.477,1.33 				"/>
	<polygon id="SVGID_15_" points="310.473,1.33 310.473,8.079 322.951,8.079 322.951,40.719 330.734,40.719 330.734,8.079 
						343.211,8.079 343.211,1.33 				"/>
	<path id="SVGID_19_" d="M16.164,40.863C7.461,40.863,1.157,36.271,0,29.137l7.804,0.259c1.456,2.571,4.184,4.742,8.416,4.742
						c5.821,0,9.658-3.735,10.264-9.99l0.031-0.321H11.807v-6.56h14.665l-0.044-0.332c-0.802-5.992-4.481-9.43-10.097-9.43
						c-3.952,0-7.023,2.127-8.557,4.451H0.464C2.001,5.051,8.004,0.779,16.22,0.779c11.4,0,18.481,7.679,18.481,20.042
						C34.701,33.183,27.597,40.863,16.164,40.863"/>
	<polygon id="SVGID_37_" points="218.38,33.856 218.38,23.867 237.221,23.867 237.221,17.389 210.597,17.389 210.597,40.719 
										238.822,40.719 238.822,33.856 								"/>
	<polygon id="SVGID_23_" points="110.03,33.856 110.03,23.867 128.871,23.867 128.871,17.389 102.247,17.389 102.247,40.719 
						130.473,40.719 130.473,33.856 				"/>
	<rect id="SVGID_41_" x="210.597" y="1.33" width="27.274" height="6.801"/>	
	<rect id="SVGID_33_" x="102.247" y="1.33" width="27.275" height="6.801"/>
</g>
</svg>
