<?xml version="1.0" encoding="utf-8"?>
<!-- Generator: Adobe Illustrator 16.0.0, SVG Export Plug-In . SVG Version: 6.00 Build 0)  -->
<!DOCTYPE svg PUBLIC "-//W3C//DTD SVG 1.1//EN" "http://www.w3.org/Graphics/SVG/1.1/DTD/svg11.dtd">
<svg version="1.1" id="Layer_1" xmlns="http://www.w3.org/2000/svg" xmlns:xlink="http://www.w3.org/1999/xlink" x="0px" y="0px"
	 width="52px" height="86px" viewBox="0 0 52 86" enable-background="new 0 0 52 86" xml:space="preserve">
<g>
	<defs>
		<rect id="SVGID_1_" width="52" height="86"/>
	</defs>
	<clipPath id="SVGID_2_">
		<use xlink:href="#SVGID_1_"  overflow="visible"/>
	</clipPath>
	<path fill="#008aff" clip-path="url(#SVGID_2_)" d="M6,0C2.693,0,0,2.693,0,6v74c0,3.308,2.693,6,6,6h40c3.307,0,6-2.692,6-6V6
		c0-3.307-2.693-6-6-6H6z M6,2h40c2.233,0,4,1.766,4,4v4H2V6C2,3.767,3.767,2,6,2 M2,12h48v58H2V12z M2,72h48v8c0,2.233-1.767,4-4,4
		H6c-2.233,0-4-1.767-4-4V72z M19,77c-0.552,0-1,0.447-1,1s0.448,1,1,1h14c0.553,0,1-0.447,1-1s-0.447-1-1-1H19z"/>
</g>
</svg>
