<?xml version="1.0" encoding="utf-8"?>
<!-- Generator: Adobe Illustrator 16.0.0, SVG Export Plug-In . SVG Version: 6.00 Build 0)  -->
<!DOCTYPE svg PUBLIC "-//W3C//DTD SVG 1.1//EN" "http://www.w3.org/Graphics/SVG/1.1/DTD/svg11.dtd">
<svg version="1.1" id="Layer_1" xmlns="http://www.w3.org/2000/svg" xmlns:xlink="http://www.w3.org/1999/xlink" x="0px" y="0px"
	 width="41px" height="41px" viewBox="0 0 41 41" enable-background="new 0 0 41 41" xml:space="preserve">
<g fill="#008aff">
	<path id="SVGID_1_" d="M20.516,39.89c10.686,0,19.377-8.691,19.377-19.376c0-10.682-8.691-19.373-19.377-19.373
			c-10.682,0-19.375,8.691-19.375,19.373C1.141,31.199,9.834,39.89,20.516,39.89 M20.516,40.889
			c-11.25,0-20.373-9.121-20.373-20.375c0-11.251,9.123-20.375,20.373-20.375c11.254,0,20.375,9.124,20.375,20.375
			C40.891,31.768,31.77,40.889,20.516,40.889L20.516,40.889L20.516,40.889z"/>
	<path id="SVGID_3_" d="M11.641,22.14c-0.965,0-1.748-0.782-1.748-1.75c0-0.966,0.783-1.75,1.748-1.75
			c0.969,0,1.75,0.784,1.75,1.75C13.391,21.358,12.609,22.14,11.641,22.14L11.641,22.14z M20.641,22.14
			c-0.965,0-1.75-0.782-1.75-1.75c0-0.966,0.785-1.75,1.75-1.75c0.969,0,1.752,0.784,1.752,1.75
			C22.393,21.358,21.609,22.14,20.641,22.14L20.641,22.14z M29.643,22.14c-0.969,0-1.75-0.782-1.75-1.75
			c0-0.966,0.781-1.75,1.75-1.75c0.965,0,1.75,0.784,1.75,1.75C31.393,21.358,30.607,22.14,29.643,22.14L29.643,22.14z"/>
	
</g>
</svg>
