<?xml version="1.0" encoding="utf-8"?>
<!-- Generator: Adobe Illustrator 16.0.0, SVG Export Plug-In . SVG Version: 6.00 Build 0)  -->
<!DOCTYPE svg PUBLIC "-//W3C//DTD SVG 1.1//EN" "http://www.w3.org/Graphics/SVG/1.1/DTD/svg11.dtd">
<svg version="1.1" id="Layer_1" xmlns="http://www.w3.org/2000/svg" xmlns:xlink="http://www.w3.org/1999/xlink" x="0px" y="0px"
	 width="64.625px" height="84.5px" viewBox="0 0 64.625 84.5" enable-background="new 0 0 64.625 84.5" xml:space="preserve">
<path fill="transparent" stroke="#008aff" stroke-width="2" stroke-miterlimit="10" d="M32.21,1.029
	c-0.064,0.015-0.127,0.036-0.188,0.062l-30,11.001c-0.394,0.144-0.655,0.518-0.656,0.937v35c0,7.441,4.193,13.674,10.031,19.25
	c5.838,5.574,13.362,10.576,20.375,15.562c0.354,0.26,0.835,0.26,1.188,0c7.013-4.986,14.536-9.988,20.375-15.562
	c5.839-5.576,10.031-11.809,10.031-19.25v-35c-0.001-0.419-0.262-0.793-0.656-0.937l-30-11.001
	C32.551,1.028,32.379,1.007,32.21,1.029"/>
</svg>
