<?xml version="1.0" encoding="iso-8859-1"?>
<!-- Generator: Adobe Illustrator 16.0.0, SVG Export Plug-In . SVG Version: 6.00 Build 0)  -->
<!DOCTYPE svg PUBLIC "-//W3C//DTD SVG 1.1//EN" "http://www.w3.org/Graphics/SVG/1.1/DTD/svg11.dtd">
<svg version="1.1" id="Layer_1" xmlns="http://www.w3.org/2000/svg" xmlns:xlink="http://www.w3.org/1999/xlink" x="0px" y="0px"
	 width="75.302px" height="64.941px" viewBox="0 0 75.302 64.941" style="enable-background:new 0 0 75.302 64.941;"
	 xml:space="preserve">
<polygon style="fill:#FFDD00;" points="52.55,64.941 28.616,48.109 3.763,42.566 0,21.638 24.184,0 69.05,10.006 75.302,44.635 "/>
<path d="M53.597,42.342V24.403c2.064-0.459,3.615-2.299,3.615-4.499c0-2.545-2.07-4.615-4.615-4.615
	c-2.544,0-4.615,2.07-4.615,4.615c0,0.819,0.233,1.578,0.609,2.246l-5.381,4.818c-0.756-0.544-1.678-0.873-2.678-0.873
	c-1.837,0-3.415,1.086-4.157,2.644l-15.659-3.498c0,0,0-0.004,0-0.007c0-2.544-2.07-4.614-4.615-4.614
	c-2.544,0-4.615,2.07-4.615,4.614c0,2.545,2.071,4.616,4.615,4.616c1.844,0,3.427-1.094,4.165-2.661l15.652,3.496
	c0,0.009-0.003,0.017-0.003,0.025c0,2.544,2.071,4.615,4.617,4.615c2.543,0,4.613-2.07,4.613-4.615c0-0.819-0.232-1.578-0.607-2.246
	l5.379-4.818c0.496,0.357,1.063,0.62,1.68,0.757v17.939c-2.064,0.459-3.615,2.299-3.615,4.498c0,2.545,2.071,4.615,4.615,4.615
	c2.545,0,4.615-2.07,4.615-4.615C57.212,44.641,55.662,42.801,53.597,42.342 M16.102,27.85c-1.444,0-2.615-1.171-2.615-2.616
	c0-1.444,1.171-2.614,2.615-2.614s2.615,1.17,2.615,2.614C18.717,26.679,17.546,27.85,16.102,27.85 M40.533,33.324
	c-1.445,0-2.617-1.17-2.617-2.615c0-1.444,1.171-2.615,2.617-2.615c1.443,0,2.613,1.171,2.613,2.615
	C43.146,32.154,41.976,33.324,40.533,33.324 M49.982,19.904c0-1.444,1.172-2.615,2.615-2.615s2.615,1.171,2.615,2.615
	c0,1.444-1.172,2.615-2.615,2.615S49.982,21.348,49.982,19.904 M52.597,49.455c-1.443,0-2.615-1.17-2.615-2.615
	c0-1.443,1.172-2.613,2.615-2.613s2.615,1.17,2.615,2.613C55.212,48.285,54.041,49.455,52.597,49.455"/>
</svg>
