<?xml version="1.0" encoding="iso-8859-1"?>
<!-- Generator: Adobe Illustrator 16.0.0, SVG Export Plug-In . SVG Version: 6.00 Build 0)  -->
<!DOCTYPE svg PUBLIC "-//W3C//DTD SVG 1.1//EN" "http://www.w3.org/Graphics/SVG/1.1/DTD/svg11.dtd">
<svg version="1.1" id="Layer_1" xmlns="http://www.w3.org/2000/svg" xmlns:xlink="http://www.w3.org/1999/xlink" x="0px" y="0px"
	 width="177.238px" height="64.941px" viewBox="0 0 177.238 64.941" style="enable-background:new 0 0 177.238 64.941;"
	 xml:space="preserve">
<g fill="#fff">
	<defs>
		<rect id="SVGID_1_" width="177.238" height="64.941"/>
	</defs>
	<clipPath id="SVGID_2_">
		<use xlink:href="#SVGID_1_"  style="overflow:visible;"/>
	</clipPath>
	<path style="clip-path:url(#SVGID_2_);" d="M100.479,17.913v8.542h-1.425v-7.398h-2.769v2.816c0,1.608-0.226,2.773-0.673,3.497
		c-0.447,0.724-1.165,1.085-2.15,1.085h-0.281v-1.144h0.235c0.54,0,0.916-0.257,1.129-0.774c0.213-0.516,0.319-1.405,0.319-2.667
		v-3.957H100.479z"/>
	<path style="clip-path:url(#SVGID_2_);" d="M106.975,24.461h-3.345l-0.681,1.995h-1.443l3.139-8.542h1.35l3.104,8.542h-1.45
		L106.975,24.461z M104.04,23.27h2.529l-1.238-3.649h-0.035L104.04,23.27z"/>
	<path style="clip-path:url(#SVGID_2_);" d="M115.389,19.057h-3.938v2.024h1.809c0.945,0,1.688,0.246,2.229,0.737
		c0.54,0.491,0.811,1.136,0.811,1.933c0,0.802-0.271,1.454-0.813,1.954c-0.542,0.501-1.284,0.751-2.226,0.751h-3.27v-8.542h5.399
		V19.057z M111.45,22.226v3.086h1.809c0.527,0,0.928-0.152,1.201-0.457c0.274-0.304,0.411-0.677,0.411-1.118
		c0-0.426-0.137-0.784-0.411-1.075c-0.273-0.291-0.674-0.436-1.201-0.436H111.45z"/>
	<path style="clip-path:url(#SVGID_2_);" d="M124.306,22.953c0,1.044-0.328,1.91-0.983,2.596c-0.655,0.687-1.504,1.03-2.548,1.03
		c-1.026,0-1.858-0.343-2.497-1.03c-0.64-0.686-0.959-1.552-0.959-2.596v-1.537c0-1.04,0.319-1.905,0.959-2.594
		c0.639-0.688,1.469-1.032,2.49-1.032c1.044,0,1.895,0.344,2.553,1.032c0.656,0.689,0.985,1.554,0.985,2.594V22.953z
		 M122.886,21.404c0-0.712-0.19-1.296-0.571-1.754c-0.383-0.458-0.897-0.686-1.547-0.686c-0.626,0-1.12,0.228-1.484,0.686
		s-0.545,1.042-0.545,1.754v1.549c0,0.72,0.181,1.309,0.545,1.769s0.86,0.689,1.491,0.689c0.652,0,1.168-0.228,1.546-0.686
		c0.377-0.458,0.565-1.048,0.565-1.772V21.404z"/>
	<path style="clip-path:url(#SVGID_2_);" d="M127.274,23.217v3.239h-1.426v-8.543h3.339c0.942,0,1.681,0.244,2.215,0.731
		c0.533,0.487,0.801,1.127,0.801,1.921c0,0.802-0.268,1.445-0.801,1.927c-0.534,0.484-1.272,0.725-2.215,0.725H127.274z
		 M127.274,22.073h1.913c0.527,0,0.925-0.141,1.191-0.422c0.265-0.282,0.398-0.64,0.398-1.074s-0.134-0.796-0.398-1.086
		c-0.267-0.289-0.664-0.434-1.191-0.434h-1.913V22.073z"/>
	<path style="clip-path:url(#SVGID_2_);" d="M137.226,24.461h-3.345l-0.681,1.995h-1.443l3.139-8.542h1.35l3.104,8.542h-1.45
		L137.226,24.461z M134.291,23.27h2.529l-1.238-3.649h-0.035L134.291,23.27z"/>
	<polygon style="clip-path:url(#SVGID_2_);" points="146.178,19.057 143.597,19.057 143.597,26.456 142.171,26.456 142.171,19.057 
		139.589,19.057 139.589,17.913 146.178,17.913 	"/>
	<path style="clip-path:url(#SVGID_2_);" d="M153.776,22.953c0,1.044-0.328,1.91-0.982,2.596c-0.656,0.687-1.505,1.03-2.549,1.03
		c-1.026,0-1.858-0.343-2.497-1.03c-0.64-0.686-0.959-1.552-0.959-2.596v-1.537c0-1.04,0.319-1.905,0.959-2.594
		c0.639-0.688,1.469-1.032,2.49-1.032c1.044,0,1.895,0.344,2.553,1.032c0.656,0.689,0.985,1.554,0.985,2.594V22.953z
		 M152.356,21.404c0-0.712-0.19-1.296-0.571-1.754c-0.383-0.458-0.897-0.686-1.547-0.686c-0.626,0-1.12,0.228-1.484,0.686
		s-0.545,1.042-0.545,1.754v1.549c0,0.72,0.181,1.309,0.545,1.769s0.86,0.689,1.491,0.689c0.652,0,1.168-0.228,1.546-0.686
		c0.377-0.458,0.565-1.048,0.565-1.772V21.404z"/>
	<path style="clip-path:url(#SVGID_2_);" d="M156.744,23.217v3.239h-1.425v-8.543h3.338c0.942,0,1.682,0.244,2.215,0.731
		c0.534,0.487,0.802,1.127,0.802,1.921c0,0.802-0.268,1.445-0.802,1.927c-0.533,0.484-1.272,0.725-2.215,0.725H156.744z
		 M156.744,22.073h1.913c0.528,0,0.925-0.141,1.191-0.422c0.266-0.282,0.398-0.64,0.398-1.074s-0.133-0.796-0.398-1.086
		c-0.267-0.289-0.663-0.434-1.191-0.434h-1.913V22.073z"/>
	<polygon style="clip-path:url(#SVGID_2_);" points="168.297,17.913 169.723,17.913 169.723,26.455 168.297,26.455 168.297,20.342 
		168.262,20.331 164.479,26.455 163.052,26.455 163.052,17.913 164.479,17.913 164.479,24.021 164.513,24.032 	"/>
	<path style="clip-path:url(#SVGID_2_);" d="M172.445,26.456h-1.525l1.924-3.637c-0.501-0.223-0.88-0.527-1.137-0.912
		c-0.26-0.386-0.389-0.85-0.389-1.394c0-0.829,0.273-1.47,0.818-1.921c0.546-0.452,1.3-0.678,2.262-0.678h2.84v8.542h-1.426v-3.221
		h-1.701L172.445,26.456z M175.812,19.057h-1.414c-0.547,0-0.961,0.13-1.24,0.39c-0.28,0.26-0.42,0.627-0.42,1.1
		s0.143,0.855,0.429,1.144c0.286,0.29,0.696,0.434,1.231,0.434h1.414V19.057z"/>
	<path style="clip-path:url(#SVGID_2_);" d="M96.524,32.788l0.288,0.833h0.035l1.771-4.693h1.572l-2.944,7.029
		c-0.239,0.539-0.51,0.947-0.811,1.223s-0.757,0.413-1.367,0.413c-0.098,0-0.211-0.004-0.34-0.011
		c-0.129-0.008-0.218-0.017-0.264-0.024l0.011-1.132c0.039,0.008,0.118,0.013,0.239,0.017c0.119,0.005,0.209,0.007,0.271,0.007
		c0.293,0,0.51-0.069,0.646-0.207c0.137-0.139,0.266-0.35,0.387-0.635l0.183-0.402l-2.922-6.277h1.561L96.524,32.788z"/>
	<polygon style="clip-path:url(#SVGID_2_);" points="103.26,28.928 105.718,35.499 105.753,35.499 108.218,28.928 110.066,28.928 
		110.066,37.47 108.64,37.47 108.64,34.56 108.78,30.858 108.745,30.852 106.211,37.47 105.255,37.47 102.732,30.87 102.696,30.876 
		102.837,34.56 102.837,37.47 101.412,37.47 101.412,28.928 	"/>
	<polygon style="clip-path:url(#SVGID_2_);" points="118.608,37.47 117.188,37.47 117.188,33.828 113.363,33.828 113.363,37.47 
		111.938,37.47 111.938,28.928 113.363,28.928 113.363,32.683 117.188,32.683 117.188,28.928 118.608,28.928 	"/>
	<path style="clip-path:url(#SVGID_2_);" d="M127.14,33.967c0,1.044-0.328,1.91-0.982,2.598c-0.656,0.685-1.505,1.028-2.55,1.028
		c-1.025,0-1.857-0.344-2.496-1.028c-0.64-0.688-0.959-1.554-0.959-2.598v-1.537c0-1.04,0.319-1.905,0.959-2.594
		c0.639-0.688,1.469-1.032,2.49-1.032c1.044,0,1.895,0.344,2.553,1.032c0.656,0.689,0.985,1.554,0.985,2.594V33.967z M125.72,32.419
		c0-0.712-0.19-1.296-0.572-1.754s-0.896-0.687-1.546-0.687c-0.626,0-1.121,0.229-1.483,0.687c-0.365,0.458-0.546,1.042-0.546,1.754
		v1.548c0,0.721,0.181,1.31,0.546,1.77c0.362,0.46,0.859,0.688,1.489,0.688c0.653,0,1.169-0.228,1.547-0.686
		c0.377-0.458,0.565-1.048,0.565-1.772V32.419z"/>
	<polygon style="clip-path:url(#SVGID_2_);" points="134.08,30.072 130.107,30.072 130.107,37.47 128.684,37.47 128.684,28.928 
		134.08,28.928 	"/>
	<path style="clip-path:url(#SVGID_2_);" d="M141.619,33.967c0,1.044-0.327,1.91-0.982,2.598c-0.655,0.685-1.504,1.028-2.55,1.028
		c-1.024,0-1.856-0.344-2.495-1.028c-0.641-0.688-0.959-1.554-0.959-2.598v-1.537c0-1.04,0.318-1.905,0.959-2.594
		c0.639-0.688,1.469-1.032,2.489-1.032c1.045,0,1.896,0.344,2.554,1.032c0.656,0.689,0.984,1.554,0.984,2.594V33.967z
		 M140.199,32.419c0-0.712-0.189-1.296-0.572-1.754c-0.381-0.458-0.896-0.687-1.546-0.687c-0.626,0-1.12,0.229-1.484,0.687
		c-0.363,0.458-0.545,1.042-0.545,1.754v1.548c0,0.721,0.182,1.31,0.545,1.77c0.364,0.46,0.86,0.688,1.49,0.688
		c0.653,0,1.17-0.228,1.547-0.686c0.378-0.458,0.565-1.048,0.565-1.772V32.419z"/>
	<path style="clip-path:url(#SVGID_2_);" d="M93.844,48.485v-8.542h2.839c0.947,0,1.688,0.194,2.218,0.583
		c0.532,0.39,0.799,0.971,0.799,1.746c0,0.387-0.112,0.732-0.334,1.039c-0.224,0.305-0.533,0.531-0.928,0.68
		c0.508,0.113,0.899,0.358,1.173,0.734c0.274,0.375,0.411,0.811,0.411,1.308c0,0.802-0.263,1.411-0.786,1.827
		c-0.524,0.417-1.247,0.625-2.171,0.625H93.844z M95.269,43.54h1.573c0.442,0,0.791-0.105,1.047-0.314s0.385-0.505,0.385-0.89
		c0-0.422-0.136-0.735-0.404-0.94c-0.271-0.206-0.666-0.309-1.187-0.309h-1.414V43.54z M95.269,44.601v2.74h1.796
		c0.493,0,0.872-0.112,1.139-0.338c0.266-0.224,0.398-0.548,0.398-0.974c0-0.453-0.11-0.805-0.334-1.054
		c-0.224-0.25-0.57-0.375-1.045-0.375H95.269z"/>
	<path style="clip-path:url(#SVGID_2_);" d="M108.2,44.982c0,1.044-0.327,1.91-0.982,2.597s-1.504,1.029-2.549,1.029
		c-1.025,0-1.857-0.343-2.496-1.029c-0.641-0.687-0.959-1.553-0.959-2.597v-1.536c0-1.04,0.318-1.905,0.959-2.594
		c0.639-0.688,1.469-1.033,2.489-1.033c1.045,0,1.896,0.345,2.554,1.033c0.656,0.688,0.984,1.554,0.984,2.594V44.982z
		 M106.78,43.433c0-0.712-0.189-1.296-0.571-1.754s-0.897-0.686-1.547-0.686c-0.626,0-1.119,0.228-1.484,0.686
		c-0.363,0.458-0.545,1.042-0.545,1.754v1.549c0,0.721,0.182,1.31,0.545,1.77c0.365,0.46,0.86,0.688,1.491,0.688
		c0.652,0,1.169-0.228,1.546-0.686c0.378-0.458,0.565-1.048,0.565-1.772V43.433z"/>
	<polygon style="clip-path:url(#SVGID_2_);" points="116.092,44.759 115.142,44.759 115.142,48.486 113.722,48.486 113.722,44.759 
		112.73,44.759 110.588,48.486 108.817,48.486 111.58,43.939 109.01,39.943 110.724,39.943 112.794,43.534 113.722,43.534 
		113.722,39.943 115.142,39.943 115.142,43.534 116.033,43.534 118.086,39.943 119.8,39.943 117.247,43.932 119.993,48.486 
		118.222,48.486 	"/>
	<path style="clip-path:url(#SVGID_2_);" d="M128.882,50.586h-1.291v-2.102h-5.721v2.106h-1.266l-0.159-3.25h0.698
		c0.301-0.297,0.57-0.748,0.81-1.353c0.238-0.603,0.373-1.453,0.405-2.552l0.216-3.495h5.346v7.399h1.098L128.882,50.586z
		 M123.795,43.437c-0.035,0.887-0.143,1.652-0.322,2.295c-0.181,0.644-0.415,1.18-0.703,1.609h3.725v-6.255h-2.564L123.795,43.437z"
		/>
	<polygon style="clip-path:url(#SVGID_2_);" points="135.371,44.642 131.633,44.642 131.633,47.341 135.97,47.341 135.97,48.485 
		130.208,48.485 130.208,39.942 135.929,39.942 135.929,41.086 131.633,41.086 131.633,43.498 135.371,43.498 	"/>
	<polygon style="clip-path:url(#SVGID_2_);" points="143.843,48.485 142.423,48.485 142.423,44.841 138.598,44.841 138.598,48.485 
		137.172,48.485 137.172,39.942 138.598,39.942 138.598,43.697 142.423,43.697 142.423,39.942 143.843,39.942 	"/>
	<polygon style="clip-path:url(#SVGID_2_);" points="150.931,39.943 152.356,39.943 152.356,48.486 150.931,48.486 150.931,42.372 
		150.896,42.36 147.111,48.486 145.685,48.486 145.685,39.943 147.111,39.943 147.111,46.049 147.146,46.062 	"/>
	<path style="clip-path:url(#SVGID_2_);" d="M155.078,48.485h-1.525l1.925-3.638c-0.501-0.223-0.88-0.526-1.138-0.911
		c-0.259-0.387-0.388-0.851-0.388-1.395c0-0.829,0.272-1.47,0.818-1.921c0.545-0.452,1.3-0.678,2.262-0.678h2.84v8.542h-1.426
		v-3.222h-1.702L155.078,48.485z M158.446,41.086h-1.414c-0.548,0-0.962,0.13-1.241,0.391c-0.279,0.26-0.419,0.627-0.419,1.1
		s0.143,0.854,0.429,1.144c0.285,0.29,0.695,0.435,1.231,0.435h1.414V41.086z"/>
	<polygon style="clip-path:url(#SVGID_2_);fill:#ffffff;" points="52.551,64.941 28.617,48.109 3.764,42.566 0,21.638 24.185,0 
		69.051,10.006 75.303,44.634 	"/>
	<path fill="#000000" style="clip-path:url(#SVGID_2_);" d="M53.598,42.341V24.403c2.064-0.459,3.615-2.299,3.615-4.499
		c0-2.545-2.07-4.615-4.615-4.615c-2.544,0-4.615,2.07-4.615,4.615c0,0.819,0.233,1.578,0.609,2.246l-5.38,4.818
		c-0.757-0.544-1.678-0.873-2.679-0.873c-1.837,0-3.414,1.086-4.156,2.644l-15.659-3.498c0,0,0-0.004,0-0.007
		c0-2.544-2.07-4.614-4.615-4.614c-2.544,0-4.615,2.07-4.615,4.614c0,2.545,2.071,4.616,4.615,4.616
		c1.844,0,3.427-1.094,4.165-2.661l15.652,3.496c0,0.009-0.003,0.017-0.003,0.025c0,2.544,2.071,4.615,4.616,4.615
		c2.544,0,4.614-2.071,4.614-4.615c0-0.819-0.232-1.578-0.608-2.246l5.38-4.818c0.496,0.357,1.063,0.62,1.679,0.757v17.938
		c-2.064,0.459-3.615,2.299-3.615,4.499c0,2.545,2.071,4.615,4.615,4.615c2.545,0,4.615-2.07,4.615-4.615
		C57.212,44.64,55.662,42.8,53.598,42.341 M16.103,27.85c-1.444,0-2.615-1.171-2.615-2.616c0-1.444,1.171-2.614,2.615-2.614
		s2.615,1.17,2.615,2.614C18.718,26.679,17.546,27.85,16.103,27.85 M40.533,33.325c-1.445,0-2.616-1.171-2.616-2.615
		c0-1.444,1.171-2.615,2.616-2.615c1.444,0,2.614,1.171,2.614,2.615C43.146,32.154,41.977,33.325,40.533,33.325 M49.982,19.904
		c0-1.444,1.171-2.615,2.615-2.615s2.615,1.171,2.615,2.615c0,1.444-1.171,2.615-2.615,2.615S49.982,21.348,49.982,19.904
		 M52.598,49.456c-1.444,0-2.615-1.171-2.615-2.615c0-1.443,1.171-2.614,2.615-2.614s2.615,1.171,2.615,2.614
		C55.212,48.285,54.042,49.456,52.598,49.456"/>
</g>
</svg>
