<?xml version="1.0" encoding="utf-8"?>
<!-- Generator: Adobe Illustrator 16.0.0, SVG Export Plug-In . SVG Version: 6.00 Build 0)  -->
<!DOCTYPE svg PUBLIC "-//W3C//DTD SVG 1.1//EN" "http://www.w3.org/Graphics/SVG/1.1/DTD/svg11.dtd">
<svg version="1.1" id="Layer_1" xmlns="http://www.w3.org/2000/svg" xmlns:xlink="http://www.w3.org/1999/xlink" x="0px" y="0px"
	 width="62px" height="82.017px" viewBox="0 0 62 82.017" enable-background="new 0 0 62 82.017" xml:space="preserve">
<g fill="#ffffff">
	<defs>
		<rect id="SVGID_1_" y="0" width="62" height="82.016"/>
	</defs>
	<clipPath id="SVGID_2_">
		<use xlink:href="#SVGID_1_"  overflow="visible"/>
	</clipPath>
	<path clip-path="url(#SVGID_2_)" d="M30.844,0.009c-0.064,0.015-0.127,0.036-0.187,0.062l-30,11.001
		C0.263,11.216,0.001,11.59,0,12.009v35c0,7.442,4.193,13.675,10.032,19.25c5.838,5.575,13.362,10.576,20.375,15.562
		c0.353,0.261,0.834,0.261,1.187,0c7.013-4.986,14.536-9.987,20.375-15.562S62,54.451,62,47.009v-35
		c-0.001-0.419-0.262-0.793-0.656-0.937l-30-11.001C31.185,0.008,31.013-0.013,30.844,0.009"/>
</g>
</svg>
