<?xml version="1.0" encoding="UTF-8"?>
<svg width="256px" height="152px" viewBox="0 0 256 152" version="1.1" xmlns="http://www.w3.org/2000/svg" xmlns:xlink="http://www.w3.org/1999/xlink">
    <!-- Generator: sketchtool 41.2 (35397) - http://www.bohemiancoding.com/sketch -->
    <title>25D551A7-55ED-4BD0-B905-F789348BBD65</title>
    <desc>Created with sketchtool.</desc>
    <defs>
        <polygon id="path-1" points="156.71157 37.202575 156.71157 0.402991736 0.0516067847 0.402991736 0.0516067847 37.202575 156.71157 37.202575"></polygon>
        <polygon id="path-3" points="0 98.0019669 161.397521 98.0019669 161.397521 0.669421488 0 0.669421488"></polygon>
    </defs>
    <g id="Home" stroke="none" stroke-width="1" fill="none" fill-rule="evenodd">
        <g id="Home/typical_page_1440" transform="translate(-592.000000, 0.000000)">
            <g id="header">
                <g id="Group-2" transform="translate(592.000000, 0.000000)">
                    <path d="M0,0 L256,0 L256,147.993031 C256,150.206019 254.214986,151.776873 252.028854,151.503607 L128,136 L3.97114563,151.503607 C1.77794246,151.777757 0,150.213836 0,147.993031 L0,0 Z" id="Rectangle-3" fill="#FCC91C"></path>
                    <g id="Page-1" transform="translate(52.000000, 18.000000)">
                        <g id="Group-3" transform="translate(4.685950, 0.266430)">
                            <mask id="mask-2" fill="white">
                                <use xlink:href="#path-1"></use>
                            </mask>
                            <g id="Clip-2"></g>
                            <path d="M8.62194793,16.9094529 C6.86404711,17.313114 7.02604711,18.0374281 8.18883223,18.132486 C9.57788182,18.5220893 10.0980223,19.4010397 9.01489835,19.6098992 C7.40828678,19.6982628 7.44376612,20.3824116 7.79052645,20.7311802 C8.50412975,21.7962298 0.15108843,19.2075769 2.19282397,17.4657421 C3.4245595,16.3042959 6.75426198,14.9500562 8.36020413,15.079924 C9.96882397,15.2091223 10.7975678,16.3531636 8.62194793,16.9094529 M92.7140058,21.2593537 C93.479824,18.9311058 95.2557992,14.295362 95.2557992,14.295362 C95.9935017,11.9758165 98.3907,11.1818826 99.1518322,12.5388 C99.912295,13.8923702 99.8279479,16.1382793 99.7871132,17.4081719 C99.7415926,18.6767256 99.6077083,20.3007421 99.4758322,20.6582132 C98.9931793,20.9038909 98.1477,22.5419653 99.2870554,23.0172545 C100.877601,23.4577339 101.001444,22.335114 101.048303,21.504362 C101.218336,20.9112545 103.570683,19.198205 104.273576,18.7624116 C104.976469,18.332643 106.720312,18.1311471 107.255849,19.4485686 C107.528973,19.6982628 107.174849,21.8564777 104.614312,22.7842959 C102.877163,23.5916182 100.718948,24.1405438 99.1518322,24.6914777 C97.5840471,25.2397339 96.8664273,26.4272876 95.4231545,25.3689322 C93.9859066,24.3105769 91.9542124,23.5916182 92.7140058,21.2593537 M156.705345,19.1158661 C156.655138,18.8072628 156.367287,18.5970645 156.058683,18.6459322 L148.684336,19.8127339 L148.557816,19.1285851 L156.058683,17.940362 C156.371303,17.8921636 156.581502,17.6076595 156.533303,17.2977174 C156.480419,16.989114 156.19056,16.776238 155.884634,16.8264446 L148.350295,18.0146678 L148.210386,17.2642463 L155.77351,16.0720066 C156.082113,16.0238083 156.29365,15.7366264 156.244783,15.4280231 C156.199262,15.1160727 155.906055,14.905205 155.60013,14.9547421 L148.004874,16.1556843 L147.874336,15.4139653 L155.548584,14.2023124 C155.858526,14.1521058 156.068725,13.8622463 156.019857,13.5556512 C155.968981,13.2450397 155.683807,13.0381884 155.376543,13.0850479 L147.668155,14.3007174 L147.662799,14.295362 L146.57365,14.4674033 L146.57365,14.4740975 C144.721361,14.9500562 145.356642,17.2508579 143.496989,17.6002959 C138.029824,18.6251802 133.999907,19.3749322 130.72108,19.9747339 C130.672212,19.8522298 130.61665,19.7317339 130.567783,19.6098992 C130.081113,18.4725521 128.664617,19.3702463 126.808312,20.6890066 C124.974097,21.026395 123.336022,21.3269653 121.703303,21.623519 C119.837626,22.5178661 120.189072,23.6639157 121.981113,23.8018165 C122.174576,23.7636595 122.367369,23.7194777 122.560163,23.6773041 C116.920956,26.5169901 111.24627,27.8210231 103.485667,26.3683785 C103.371865,27.3356926 95.2102785,29.4329901 94.7744851,29.4463785 C91.8497826,30.6647256 88.7992289,31.0590149 87.1450884,31.1868744 C85.1810058,31.113238 84.2913446,30.6915025 83.1934934,30.3280066 C82.1840058,30.1298579 83.2470471,31.0657091 85.2151463,31.5851802 C81.9577413,33.0779901 80.1221876,32.2385355 79.0678488,32.2974446 C78.4807661,29.1083207 80.1549893,25.7183702 81.6551628,23.307114 C83.1526587,20.9005438 88.1659562,14.8536595 88.3152372,14.7652959 C88.4899562,14.7311554 88.713543,14.6648826 88.9371298,14.5945934 L88.9371298,14.5885686 L88.943824,14.5919157 C89.4084025,14.4412959 89.8589231,14.2739405 89.8589231,14.2739405 C88.4939727,20.5223207 88.862824,22.5305851 89.2216339,24.6265438 C89.450576,26.078519 89.8241132,27.6195273 90.1347248,27.8411058 C90.3194851,27.971643 90.3857579,27.0605603 90.3509479,25.8850562 C90.5089314,25.8763537 90.6669149,25.9044694 90.8235595,26.0999405 C91.4862868,27.0384694 96.6287826,27.7219488 103.485667,26.3114777 C104.33784,25.8495769 106.157328,24.8487917 107.152088,24.1619653 C108.484237,23.2582463 110.046667,22.5084942 110.372006,22.079395 C110.699353,21.6516347 112.77389,16.5044529 112.619254,14.295362 C112.656072,13.1238744 113.488832,4.98237025 113.181568,4.64565124 C110.410163,5.70534545 108.230526,8.08580826 108.326923,9.53376694 C107.534998,8.28596529 104.659832,7.2363124 103.964303,7.28049421 L100.9827,0.402857851 C100.9827,0.402857851 94.2094934,5.35055207 97.461543,8.02288264 C95.8837165,9.74530413 93.3459397,11.0520149 93.3459397,11.0520149 L92.3103446,12.6164529 C92.3103446,12.6164529 91.280105,13.4994198 89.9553198,14.1695107 C91.8926256,11.6959983 91.280105,8.86501488 89.2671545,5.58418017 C87.7254769,8.44327934 87.289014,10.1442793 87.9196091,12.2355521 C86.956981,11.5078909 85.4635017,11.2930066 84.071105,11.4416182 C84.9246174,13.6808331 86.9027579,14.5243041 88.0434521,14.8389322 C87.6652289,14.9018579 87.289014,14.9252876 86.9302041,14.8744116 C84.1039066,13.6587421 78.0817909,11.3626264 71.1345347,10.5586512 C67.4219231,9.85441983 65.4183446,10.3846017 63.1342785,12.1692793 C60.8428488,13.9633289 60.6547413,15.1528909 58.6290719,14.4848083 C56.6034025,13.8100314 54.9606421,13.1627008 54.8488488,14.235114 C54.7397331,15.3001636 54.5248488,16.0780314 56.065857,16.4361719 C57.604857,16.7963207 60.4753364,17.2106926 62.3182537,15.761395 C64.1591628,14.3120975 67.678981,13.5442711 67.8255843,13.5817587 C70.6338074,13.6480314 74.1931215,16.3277256 76.0755347,17.9196099 C72.3020058,18.8166347 68.4367661,19.8790066 65.0668983,20.0925521 C60.4237909,20.3951306 58.5139314,17.4530231 51.1154851,17.5902545 C49.8388983,17.6110066 48.7825512,17.6920066 47.8774934,17.8178579 L45.2734438,16.9583207 C37.6540884,14.034957 39.0531793,7.73904793 27.490262,8.68627934 C15.9239975,9.62079174 15.766014,11.3847174 7.92106364,13.9151306 C0.0720966942,16.4482215 -3.11501901,18.2462876 4.0444438,21.026395 C11.2025678,23.8125273 13.9813364,20.775362 19.7383612,22.911486 C24.7610306,24.7731471 34.6202702,22.7608661 40.4790471,21.5291306 C40.1443364,21.7607504 39.789543,21.9957174 39.3945843,22.2380479 C35.2682702,24.7577504 34.2567744,25.0261884 32.755262,25.2631636 C31.2570967,25.4967917 27.0825843,26.4065355 24.3794603,25.805395 C20.4874438,26.1186843 21.8497165,28.9115107 23.632386,28.3190727 C25.5382289,27.5807008 28.1094769,27.0913537 32.2304355,27.8913124 C34.9683694,27.971643 36.6399149,26.9079322 40.6048983,27.2486678 C44.6254438,27.600114 45.2754521,28.7039901 44.7974851,28.9476595 C44.3242041,29.1919983 39.7366587,29.5421058 37.7565099,29.4283041 C35.7763612,29.3098165 35.0841793,29.2482298 32.7914107,29.8580727 C30.5019893,30.4766182 29.2300884,31.0375934 26.6427744,30.5904198 C25.2671132,29.9732132 24.3841463,30.239643 24.3647331,31.0456264 C24.4028901,31.9714364 25.3849314,32.9052793 27.3275926,32.4835438 C29.7837,32.4313289 29.3224686,32.1936843 35.1859314,31.5289488 C41.0507331,30.870238 42.214857,35.3540231 48.7651463,36.8869983 C54.3380802,37.9085355 57.7755595,36.1707174 64.9624686,35.6197835 C73.4279727,36.651362 82.054138,35.2054116 86.9094521,33.5459157 C95.9540058,30.4578744 99.8875264,32.8343207 105.103659,32.1300893 C115.526551,31.5818331 121.506493,27.741362 125.199692,25.3816512 C127.151055,25.1486926 128.842683,24.0561967 130.004799,23.375395 C130.796055,22.9201884 131.1147,22.4174529 131.184989,21.8812463 C134.512014,21.2191884 138.550634,20.438643 143.94684,19.4264777 C145.491865,19.1366182 145.414212,21.4561636 147.710998,21.1094033 L147.710998,21.1007008 L148.889849,20.9360231 L148.88851,20.9212959 L156.233402,19.7618579 C156.542006,19.7156678 156.752204,19.4264777 156.705345,19.1158661" id="Fill-1" fill="#221F20" mask="url(#mask-2)"></path>
                        </g>
                        <path d="M93.1200769,16.0226702 C92.9239364,15.9356455 92.6528207,16.481224 92.462705,16.7329264 C90.6619612,19.1207529 89.7535562,21.9343314 90.8313248,26.1188851 C90.8915727,26.3571992 91.0234488,26.8672983 91.0843661,26.8465463 C91.2262835,26.8184306 91.1385893,26.3451496 91.1385893,26.0894306 C91.1278785,22.0876289 92.083143,18.8027777 92.6715645,17.1586785 C92.9875314,16.2877612 93.3168868,16.1110339 93.1200769,16.0226702" id="Fill-4" fill="#221F20"></path>
                        <path d="M5.21994793,79.0934207 C4.37246033,78.9662306 3.51760909,79.0110818 2.71831983,79.3049579 C1.74096446,79.6048587 1.18668347,80.3251562 0.936989256,81.2596686 C1.35939421,81.8126107 1.86614628,82.1961893 2.50611322,82.2771893 C2.97136116,82.364214 3.43794793,82.4030405 3.90855124,82.4478917 C4.37246033,82.4960901 4.62617107,82.2771893 4.88456777,81.8989661 C5.43416281,81.0501397 5.47901405,80.1149579 5.43416281,79.1369331 C5.35182397,79.1369331 5.30228678,79.0934207 5.21994793,79.0934207 M11.2079231,78.0759 C12.143105,78.3302802 13.0347744,78.6288421 13.8842702,78.9662306 C15.3690471,79.5620157 18.5106421,81.6010736 19.9960884,81.8989661 C20.972105,82.0683298 21.526386,81.7289331 22.2875182,81.1786686 C22.5860802,81.0039496 22.8377826,80.8379331 23.179857,80.7529165 C23.179857,80.8379331 23.2200223,80.8780983 23.2200223,80.8780983 C22.5860802,81.6010736 22.1616669,82.4478917 21.4855512,83.0838421 C21.3556835,83.2592306 21.1856504,83.383743 21.0136091,83.4660818 C20.5001628,83.8074868 18.2107413,84.6141397 16.7701463,84.2339083 C15.0704851,83.7653132 13.4150058,83.1266851 11.8458818,82.364214 C11.2079231,82.0261562 10.5746504,81.6479331 9.93468347,81.3045198 C9.76465041,81.2148174 9.59528678,81.0876273 9.38308017,81.0039496 C9.08719587,81.4745529 8.78997273,81.8989661 8.53559256,82.364214 C8.32003884,82.7457843 8.02214628,83.0021727 7.55756777,83.1708669 C7.38619587,83.2592306 7.17465868,83.383743 6.96312149,83.4660818 C5.21994793,84.0618669 3.47811322,84.4039413 1.74096446,83.383743 C1.18668347,83.0838421 0.84862562,82.5770901 0.423542975,82.1533463 C-0.209729752,81.4745529 -0.000200826446,80.7529165 0.207319835,80.0292719 C0.341204132,79.7313793 0.639766116,79.4301397 0.886782645,79.222619 C1.86614628,78.417305 2.92650992,77.9922223 4.1595843,77.9072058 C4.62617107,77.8657017 5.05259256,77.8241975 5.60151818,77.7780074 C5.60151818,77.4794455 5.68988182,77.1835612 5.64636942,76.8823215 C5.64636942,75.7001231 5.56135289,74.5112306 5.60151818,73.2748091 C5.64636942,71.8362223 5.73406364,70.3501066 5.81640248,68.9081727 C5.94024545,67.4233959 6.1129562,65.8904207 6.32449339,64.4049744 C6.66589835,61.8564868 7.1318157,59.3541893 7.94047686,56.9328917 C8.32003884,55.656305 8.82879917,54.4299248 9.59528678,53.2805281 C10.2760884,52.2188256 11.034543,51.2495033 12.1832702,50.6081975 C12.905576,50.2266273 13.5863777,49.7593711 14.3053364,49.2901066 C14.9406174,48.8697099 15.6649314,48.8697099 16.388576,48.8181645 C17.3639231,48.7371645 18.2107413,49.1234207 19.0622455,49.4614785 C19.6138488,49.6710074 20.1226091,49.8899083 20.5497,50.3089661 C20.6768901,50.4381645 20.8475926,50.6081975 20.9312702,50.7728752 C21.1856504,51.2495033 21.0584603,51.4978587 20.5932124,51.6678917 C20.4646835,51.7154207 20.2953198,51.7154207 20.2504686,51.6257182 C20.0784273,51.4181975 19.8240471,51.4583628 19.5703364,51.3720074 C18.7643529,51.201305 17.9992041,51.0332802 17.1952289,50.9040818 C16.5579397,50.8204041 15.9233281,50.6925446 15.3268736,50.7728752 C14.9406174,50.7728752 14.5637331,51.1182967 14.2665099,51.3720074 C13.5421959,51.9229413 12.905576,52.6050818 12.5648405,53.4927347 C12.3546421,54.0055116 12.1832702,54.5551066 12.0560802,55.1080488 C11.6309975,56.7635281 11.333105,58.4591727 11.2079231,60.1588339 C11.1229066,61.3919083 10.9113694,62.6243132 10.8290306,63.8506934 C10.7848488,64.4919992 10.7848488,65.1279496 10.7848488,65.7244041 C10.7848488,66.0176107 10.7406669,66.2746686 10.7406669,66.5718917 C10.6971545,66.697743 10.6576587,66.8289496 10.6576587,66.9949661 C10.6134769,67.7621231 10.6134769,68.5647595 10.5746504,69.3332554 C10.5746504,69.4992719 10.5257826,69.6746603 10.4862868,69.8406769 C10.2312372,70.8140157 10.3597661,71.7927099 10.2760884,72.7714041 C10.2312372,73.4475198 10.1910719,74.1698256 10.2312372,74.8928008 C10.2760884,75.5729331 10.143543,76.2503876 10.1027083,76.9318587 C10.1027083,77.1835612 10.0612041,77.4794455 10.0612041,77.8241975 C10.4862868,77.9072058 10.8712041,77.9467017 11.2079231,78.0759" id="Fill-6" fill="#221F20"></path>
                        <path d="M27.8161364,79.8609124 C28.0290124,79.5208463 28.2847314,79.2229537 28.4922521,78.8815488 C28.709814,78.584995 28.8785083,78.2891107 29.0465331,77.992557 C29.2172355,77.7334909 29.3444256,77.438276 29.511781,77.1838959 C29.5988058,76.9723587 29.7239876,76.8050033 29.8551942,76.632962 C29.9797066,76.3357388 30.1517479,76.0813587 30.3177645,75.8276479 C30.8312107,74.9326314 31.3834835,74.0871521 31.9344174,73.1948132 C32.739062,71.836557 33.4225413,70.3926149 34.3101942,69.0792099 C34.3570537,68.9915157 34.3570537,68.9085074 34.3965496,68.8201438 C34.4802273,68.6501107 34.5625661,68.4358959 34.6944421,68.2236893 C34.9079876,67.8046314 35.2032025,67.3788793 35.3303926,66.8687802 C35.6282851,66.7804165 35.9255083,66.7375736 36.2254091,66.7804165 C36.2635661,66.9076066 36.2254091,67.0374744 36.1370455,67.1231603 C35.966343,67.2938628 35.9255083,67.5060694 36.0105248,67.7624579 C36.0105248,67.8869702 36.0105248,67.9706479 35.9255083,68.1005157 C35.8860124,68.1868711 35.8860124,68.2692099 35.8860124,68.3113835 C35.8384835,68.3937223 35.8384835,68.482086 35.7989876,68.5209124 C35.7119628,68.6501107 35.6691198,68.7773008 35.7119628,68.9466645 C35.7534669,69.0290033 35.7119628,69.1588711 35.6282851,69.2452264 C35.5887893,69.3764331 35.4575826,69.4989372 35.4575826,69.6247884 C35.3745744,70.140243 35.0786901,70.476962 34.7774504,70.856524 C34.7774504,70.9013752 34.7392934,70.9428793 34.6944421,71.031243 C34.3570537,71.7066893 33.9279545,72.3011355 33.5477231,72.9852843 C33.4225413,73.2369868 33.2089959,73.3641769 33.1253182,73.5763835 C32.9954504,73.8695901 32.870938,74.1253091 32.739062,74.3837058 C31.9344174,75.9126645 31.1291033,77.3954331 30.2340868,78.8420529 C30.1959298,78.9264 30.108905,78.9658959 30.0680702,79.0107471 C29.9797066,79.1372678 29.8973678,79.2229537 29.810343,79.3052926 C29.4729545,79.6480364 29.1743926,79.9459289 28.8785083,80.2853256 C28.709814,80.414524 28.577938,80.5792017 28.4145992,80.7063917 C28.1555331,81.0042843 27.8984752,81.2600033 27.5999132,81.5572264 C27.4794174,81.685086 27.3040289,81.7701025 27.0918223,81.812276 C26.7966074,81.8531107 26.5000537,81.8993008 26.2108636,81.812276 C26.0783182,81.7701025 25.9491198,81.7701025 25.8641033,81.7701025 C25.3955083,81.8531107 25.0581198,81.6482678 24.7193926,81.3918793 C24.2106322,80.9607719 23.8692273,80.414524 23.7427066,79.7765653 C23.5699959,79.0107471 23.4869876,78.2435901 23.5311694,77.4791107 C23.5311694,77.3130942 23.5311694,77.1417223 23.5699959,76.931524 C23.6148471,76.1683835 23.6550124,75.4039041 23.6978554,74.6795901 C23.7427066,74.296681 23.7427066,73.9592926 23.7815331,73.6212347 C23.7815331,73.3641769 23.8297314,73.1077884 23.8692273,72.8962512 L23.8692273,72.6438793 C23.7815331,72.6860529 23.6978554,72.7309041 23.6550124,72.7710694 C23.4869876,72.9852843 23.3597975,73.2369868 23.189095,73.4886893 C23.1442438,73.5342099 23.1067562,73.5763835 23.0598967,73.6212347 C22.7205,73.9592926 22.4654504,74.3837058 22.2104008,74.8101273 C22.0892355,75.0203256 21.9171942,75.1870116 21.7853182,75.4039041 C21.6587975,75.5257388 21.573781,75.6556066 21.4492686,75.7874826 C21.1915413,76.1683835 20.8561612,76.4227636 20.4712438,76.7179785 C20.1746901,76.9723587 19.7957975,77.0975405 19.4510455,77.3130942 C19.4095413,77.3519207 19.3700455,77.3954331 19.2830207,77.3954331 C18.9864669,77.3954331 18.6892438,77.438276 18.3926901,77.438276 C18.3090124,77.4791107 18.2206488,77.4791107 18.1383099,77.438276 C17.9220868,77.3130942 17.6723926,77.3130942 17.3724917,77.3130942 C17.075938,77.3130942 16.8195496,77.1838959 16.5651694,77.0567058 C16.2692851,76.8826562 15.9740702,76.7179785 15.840186,76.4227636 C15.8013595,76.291557 15.7176818,76.2500529 15.6293182,76.1683835 C15.2470785,75.6154413 15.0415661,75.0203256 14.8273512,74.3837058 C14.6559793,73.7457471 14.6104587,73.0682926 14.4913017,72.4316727 L14.4913017,72.0420694 L14.4913017,70.775524 C14.4913017,70.2232512 14.526781,69.7144909 14.6559793,69.2037223 C14.6954752,68.9085074 14.7450124,68.6072678 14.7450124,68.353557 C14.7450124,67.8869702 14.8273512,67.4632264 14.9090207,66.9946314 C14.9090207,66.7804165 15.0415661,66.571557 15.0837397,66.3613587 C15.1205579,66.1009537 15.1647397,65.8499207 15.2470785,65.5955405 C15.4191198,64.6637058 15.6293182,63.7686893 15.9278802,62.8790281 C15.9740702,62.6634744 16.0169132,62.4526066 16.0557397,62.2383917 C16.1394174,61.8561521 16.2264421,61.4752512 16.3134669,61.0963587 C16.3937975,60.8372926 16.4801529,60.5849207 16.5651694,60.3713752 C16.6923595,60.1163256 16.7807231,59.904119 16.9045661,59.6517471 C16.9494174,59.4810446 17.075938,59.3960281 17.2868058,59.3960281 C17.5846983,59.3960281 17.8812521,59.3960281 18.1383099,59.524557 C18.1784752,59.6517471 18.2628223,59.7789372 18.3090124,59.904119 C18.2628223,59.946962 18.2628223,60.0761603 18.2206488,60.1163256 C18.0981446,60.2897058 18.1383099,60.4584 18.2206488,60.6311107 C18.2206488,60.6672595 18.2206488,60.6672595 18.2628223,60.7127802 C18.8130868,61.225557 18.3090124,61.9391603 18.3926901,62.5797967 C18.3926901,62.7940116 18.5587066,63.0008628 18.6015496,63.2177554 C18.7294091,63.8122017 18.5587066,64.4916645 18.6470702,65.0827636 C18.8130868,66.571557 18.9041281,68.0616893 18.7742603,69.5424496 C18.7294091,70.3055901 18.4750289,71.0754248 18.4750289,71.8760529 C18.5192107,72.2154496 18.6015496,72.5990281 18.6015496,72.9852843 C18.6015496,73.319995 18.5587066,73.6607306 18.6015496,73.9592926 C18.6892438,74.2518298 18.8130868,74.5510612 18.8130868,74.8482843 L18.8130868,75.0203256 C18.8565992,75.2740364 18.9041281,75.5257388 19.1103099,75.6997884 C19.1511446,75.7439702 19.199343,75.8276479 19.2830207,75.9126645 C19.3700455,75.8698215 19.4095413,75.8276479 19.4945579,75.7874826 C19.7957975,75.5257388 20.0434835,75.2740364 20.3018802,74.9781521 C21.0650207,73.9974496 21.8281612,73.0682926 22.5109711,72.0420694 C22.6368223,71.8760529 22.7640124,71.666524 22.8905331,71.4944826 C23.3597975,70.856524 23.7815331,70.2232512 24.1236074,69.5424496 C24.2501281,69.3764331 24.289624,69.2037223 24.289624,69.0290033 C24.3779876,68.482086 24.4630041,67.8869702 24.5426653,67.3346975 C24.6752107,66.6980777 24.8017314,66.0634661 25.0172851,65.424838 C25.2281529,64.8297223 25.355343,64.1937719 25.4778471,63.5551438 C25.6124008,63.0497306 25.7375826,62.5362843 25.8641033,62.0281934 C25.9491198,61.817995 25.9899545,61.6446149 26.0314587,61.3915736 C26.4123595,61.263714 26.7966074,61.225557 27.2203512,61.3460529 C27.3923926,61.3915736 27.5999132,61.4357554 27.7759711,61.5214413 C28.0290124,61.566962 28.1950289,61.7343174 28.1950289,62.0281934 C28.1950289,62.3254165 28.2452355,62.6246479 28.3697479,62.9198628 C28.4145992,63.0008628 28.4145992,63.1334083 28.4145992,63.2177554 C28.4520868,63.7258463 28.4922521,64.2774496 28.4922521,64.789557 C28.4520868,65.4703587 28.7486405,66.017276 28.7934917,66.6579124 C28.8785083,67.5475736 28.709814,68.5209124 28.577938,69.4152595 C28.5391116,69.8818463 28.5391116,70.3504413 28.4145992,70.813681 C28.2847314,71.2401025 28.0290124,71.666524 27.9855,72.1331107 C27.8984752,72.7710694 27.8576405,73.4478545 27.8161364,74.0871521 C27.7364752,74.7605901 27.6882769,75.4494248 27.6882769,76.1195157 C27.6882769,76.4227636 27.7759711,76.8050033 27.7364752,77.0975405 C27.6882769,77.5266397 27.4794174,77.8660364 27.5182438,78.2891107 C27.5590785,78.6285074 27.5182438,78.9658959 27.5182438,79.2651273 C27.5182438,79.5208463 27.5590785,79.731714 27.6467727,80.0296066 C27.7364752,79.9459289 27.7759711,79.8957223 27.8161364,79.8609124" id="Fill-8" fill="#221F20"></path>
                        <path d="M48.4139678,71.5774909 C48.0357446,73.5763835 47.9493893,75.6154413 47.8221992,77.6089785 C47.7753397,77.992557 47.734505,78.3306149 47.7753397,78.7121851 C47.7753397,78.7965322 47.734505,78.9264 47.6950091,79.0107471 C47.6950091,79.1827884 47.6950091,79.2229537 47.8643727,79.429805 C47.909224,79.3963339 47.9493893,79.3521521 47.9915628,79.3052926 C48.0725628,79.2229537 48.1187529,79.1372678 48.2057777,79.0535901 C48.714538,78.2435901 49.2634636,77.4791107 49.6905545,76.6751355 C50.3258355,75.5732678 50.8787777,74.4620281 51.4317198,73.3641769 C51.6840917,72.8962512 51.9779678,72.4316727 52.2771992,72.0085983 C52.619943,71.5406727 52.8696372,70.983714 53.1715463,70.476962 C53.4239182,70.0512099 53.6374636,69.5832843 53.890505,69.1588711 C54.0625463,68.8616479 54.2339182,68.6072678 54.3999347,68.3113835 C54.5311413,68.0616893 54.6978273,67.8046314 54.8297033,67.5475736 C54.9522074,67.2938628 55.0793975,67.0374744 55.2059182,66.8286149 C55.3371248,66.6579124 55.505819,66.6123917 55.761538,66.738243 C55.6751826,66.9076066 55.6336785,67.0796479 55.505819,67.2490116 C55.3371248,67.5060694 55.3371248,67.8046314 55.2909347,68.1005157 L55.2909347,68.3113835 C55.2501,68.6501107 55.1664223,68.9915157 54.994381,69.3329207 C54.7855215,69.8403421 54.6978273,70.3926149 54.3999347,70.813681 C54.1890669,71.2401025 53.9788686,71.666524 53.7258273,72.0420694 C53.0450256,73.1948132 52.5335876,74.3837058 51.8956289,75.5257388 C51.217505,76.8478463 50.6243975,78.2034248 49.6905545,79.3963339 C48.7547033,80.4968628 47.1380504,81.5572264 45.6090917,81.2600033 C45.1036785,81.130805 44.7622736,80.7954248 44.553414,80.3248215 C44.4242157,79.9894413 44.2568603,79.6480364 44.2146868,79.2651273 C44.0426455,78.3306149 43.9596372,77.3519207 43.9596372,76.4227636 L43.9596372,75.3175488 C44.0426455,73.7002264 44.2568603,72.1752843 44.596257,70.6048215 C44.7180917,69.9715488 44.8104719,69.3329207 44.932976,68.6922843 C45.0601661,67.8869702 45.1920421,67.0374744 45.3138769,66.2321603 C45.4437446,65.5955405 45.5709347,64.956243 45.6532736,64.3223008 C45.7838107,63.5551438 45.9103314,62.8335074 45.9103314,62.0676893 L45.9103314,61.8568215 C45.7001331,61.9391603 45.5294306,62.0281934 45.3533727,62.154714 C45.2757198,62.1982264 45.231538,62.2825736 45.1920421,62.3649124 C45.0601661,62.4954496 45.018662,62.6634744 44.932976,62.7940116 C44.8526455,62.9198628 44.8104719,63.0008628 44.7180917,63.0892264 C44.0828107,63.4748132 43.7467612,64.3644744 43.3631826,65.0004248 C42.8497364,65.7675818 42.2579678,66.5307223 41.7063645,67.2938628 C41.1982736,68.016838 40.8167033,68.8201438 40.4351331,69.5832843 C40.0957364,70.3055901 39.6251331,71.031243 39.3734306,71.7488628 C39.3734306,71.7488628 39.3734306,71.7923752 39.3265711,71.7923752 C39.0741992,72.0949537 39.0306868,72.471838 38.9068438,72.8554165 C38.8646702,73.1077884 38.7401579,73.3641769 38.6082818,73.5763835 C38.4810917,73.8307636 38.3110587,74.0429702 38.4395876,74.339524 C38.4395876,74.4238711 38.3933975,74.5115653 38.3539017,74.5945736 C38.2287198,74.8924661 38.0566785,75.1870116 37.8873149,75.5257388 C37.7996207,75.6997884 37.7172818,75.7439702 37.5057446,75.6997884 C37.2908603,75.6154413 37.1643397,75.6556066 36.994976,75.7874826 C36.9528025,75.8276479 36.8657777,75.9126645 36.824943,75.9126645 C36.4855463,75.8698215 36.2298273,76.0418628 35.9741083,76.1683835 C35.5108686,76.3785818 35.1299678,76.291557 34.7042157,76.1683835 C34.4846455,76.1195157 34.4043149,75.9534992 34.321976,75.7439702 C34.2777942,75.5732678 34.2777942,75.4039041 34.2336124,75.230524 C34.1907694,74.8101273 34.1499347,74.4238711 34.1499347,73.9974496 C34.1499347,73.8695901 34.1499347,73.7002264 34.1084306,73.5763835 C34.1084306,73.4478545 34.1499347,73.319995 34.1084306,73.1948132 C34.023414,72.471838 34.023414,71.7488628 34.023414,71.031243 C34.023414,70.9013752 34.023414,70.775524 33.9845876,70.646995 C33.9383975,70.1784 33.9383975,69.6743256 33.9383975,69.1588711 L33.9383975,68.1400116 C33.896224,67.4237306 33.896224,66.738243 33.896224,66.017276 C33.896224,65.7675818 33.896224,65.5526975 33.8513727,65.2989868 L33.8513727,65.0004248 C33.9383975,63.8510281 34.023414,62.6634744 34.1084306,61.4752512 C34.1499347,60.7971273 34.2336124,60.0761603 34.321976,59.3960281 C34.3614719,59.098805 34.4451496,58.800243 34.5321744,58.501681 C34.5763562,58.2914826 34.7423727,58.1669702 34.9565876,58.1194413 C35.5108686,58.0371025 35.9741083,58.0772678 36.4855463,58.3343256 C36.5277198,58.3343256 36.5712322,58.3798463 36.5712322,58.4193421 C36.7004306,58.6308793 36.9086207,58.7179041 37.0793231,58.8450942 C37.1221661,59.013119 37.204505,59.2266645 37.2513645,59.3960281 C37.2908603,59.4408793 37.2908603,59.4810446 37.3390587,59.4810446 C37.7172818,59.6517471 37.8873149,59.946962 37.9321661,60.3713752 C37.9321661,60.8828132 37.8424636,61.4357554 38.0131661,61.9391603 C38.141695,62.3649124 38.3539017,62.7940116 38.2682157,63.255243 C38.2287198,63.8510281 38.1852074,64.4046397 38.0948355,64.956243 C38.0131661,65.6363752 37.8873149,66.2743339 37.9321661,66.9537967 C37.9321661,67.2108545 38.0566785,67.4632264 38.0566785,67.7196149 C38.0566785,68.016838 37.9696537,68.3113835 38.0131661,68.6072678 C38.0566785,68.9915157 38.0566785,69.3764331 38.0131661,69.7533174 C38.0131661,70.0933835 38.0131661,70.3926149 38.0566785,70.7340198 C38.2287198,70.7340198 38.2287198,70.6048215 38.2682157,70.519805 C38.6082818,69.8818463 38.9068438,69.2452264 39.2442322,68.6072678 C39.3265711,68.3937223 39.4617942,68.2236893 39.5454719,68.016838 C39.6251331,67.8427884 39.7114884,67.6312512 39.7998521,67.4237306 C39.9216868,67.1231603 40.0575793,66.7804165 40.2189099,66.4885488 C40.350786,66.3144992 40.4351331,66.1451355 40.5174719,65.9777802 C40.9860669,65.1276149 41.4539926,64.2774496 41.9212488,63.4259455 C42.1769678,63.0008628 42.4300091,62.5362843 42.725224,62.1158876 C43.0251248,61.6901355 43.3203397,61.225557 43.616224,60.7971273 C43.9154554,60.415557 44.2146868,60.0761603 44.553414,59.7789372 C45.1920421,59.2266645 45.9498273,59.013119 46.7584884,59.0546231 L47.7753397,59.0546231 C48.1187529,59.013119 48.4139678,59.1409785 48.6676785,59.3538545 C48.9233975,59.6517471 49.2206207,59.9047884 49.4776785,60.1584992 C49.6068769,60.3285322 49.7340669,60.4952182 49.6905545,60.6672595 C49.6470421,60.9216397 49.7340669,61.1345157 49.8190835,61.3915736 C50.1129595,62.2383917 50.1129595,63.6830033 49.9884471,64.6168463 C49.9449347,65.0004248 49.8565711,65.424838 49.7742322,65.8070777 C49.3484802,67.7196149 48.800224,69.6247884 48.4139678,71.5774909" id="Fill-10" fill="#221F20"></path>
                        <path d="M53.8595107,69.971281 C53.9458661,69.6747273 53.9458661,69.3333223 53.9913868,69.029405 C53.9913868,68.5648264 54.036238,68.1404132 54.1185769,67.6704793 C54.2035934,66.658314 54.5858331,65.7244711 54.7103455,64.7029339 C54.7518496,64.6165785 54.7518496,64.5750744 54.7940231,64.4913967 C54.9265686,64.0268182 55.0484033,63.5140413 55.2632876,63.0494628 C55.473486,62.536686 55.7318826,62.028595 55.9434198,61.5666942 C56.1556264,61.1349174 56.3658248,60.7975289 56.5787008,60.4159587 C56.6215438,60.3289339 56.6617091,60.246595 56.6617091,60.2057603 C56.9207752,59.735157 57.3023455,59.441281 57.7260893,59.1822149 C58.2770231,58.9224793 58.7857835,58.6727851 59.3414033,58.4592397 C59.6392959,58.3340579 59.9331719,58.2918843 60.2752463,58.2068678 C60.5704612,58.1667025 60.9105273,58.119843 61.2057421,58.077 C61.3764446,58.0375041 61.548486,58.0375041 61.7124942,58.0375041 C62.6048331,57.9538264 63.4148331,58.2068678 64.1806512,58.5904463 C64.3098496,58.631281 64.4323537,58.7564628 64.5642298,58.8454959 C64.6880727,58.9224793 64.7737587,59.0543554 64.7737587,59.2263967 C64.8159322,59.3957603 64.9036264,59.5657934 64.9444612,59.735157 C65.0716512,60.0330496 65.1553289,60.289438 65.1104777,60.6315124 C65.0716512,60.6676612 65.0716512,60.754686 65.1104777,60.8370248 C65.1104777,61.2634463 64.9444612,61.6450165 64.7737587,61.9884298 C64.5642298,62.3251488 63.9664364,62.4951818 63.6692132,62.365314 C63.5855355,62.3251488 63.4971719,62.2829752 63.5400149,62.1544463 C63.5855355,61.8565537 63.5855355,61.6048512 63.6692132,61.3082975 C63.7515521,60.9668926 63.6692132,60.6676612 63.6250314,60.3289339 C63.6250314,60.1589008 63.5400149,60.0330496 63.4148331,59.9045207 C63.2434612,59.7786694 63.0774446,59.6126529 62.8244033,59.5249587 C62.5639983,59.3957603 62.3531306,59.2692397 62.0994198,59.1822149 C61.9334033,59.0992066 61.8008579,59.0992066 61.6729983,59.1822149 C61.4628,59.3542562 61.2532711,59.4807769 61.0383868,59.6514793 C60.9105273,59.735157 60.8201554,59.8643554 60.7813289,59.9466942 C60.6133041,60.4581322 60.3609322,60.8832149 60.0208661,61.2634463 C59.7624694,61.5666942 59.548924,61.9388926 59.4257504,62.365314 C59.2965521,62.7937438 59.1291967,63.1766529 58.9979901,63.5970496 C58.9551471,63.6827355 58.9156512,63.7684215 58.9156512,63.896281 C58.8333124,64.4431983 58.6599322,65.000157 58.491238,65.5524298 C58.3633785,65.8904876 58.2368579,66.2747355 58.192676,66.658314 C58.192676,66.7801488 58.1076595,66.9535289 58.0628083,67.0800496 C57.894114,67.5058017 57.8104364,67.8873719 57.7675934,68.3117851 C57.7260893,68.7382066 57.6015769,69.1586033 57.5091967,69.6245207 C57.4697008,69.6747273 57.4697008,69.753719 57.4697008,69.796562 C57.4295355,70.3930165 57.3893702,70.9841157 57.3893702,71.5410744 C57.344519,71.748595 57.3893702,71.9199669 57.4295355,72.0953554 C57.4295355,72.1750165 57.4697008,72.2627107 57.4295355,72.3008678 C57.344519,72.6436116 57.4697008,72.985686 57.4697008,73.3197273 L57.4697008,73.7896612 C57.4295355,74.0868843 57.4295355,74.3841074 57.5560562,74.6793223 C57.6410727,74.8480165 57.6839157,75.0602231 57.7675934,75.274438 C57.8104364,75.4832975 57.894114,75.7437025 57.9824777,75.9933967 C58.0628083,76.2096198 58.192676,76.378314 58.3633785,76.5456694 C58.6184281,76.7612231 58.8728083,76.8475785 59.1720397,76.7177107 C59.2965521,76.6755372 59.4257504,76.6326942 59.548924,76.6326942 C60.2752463,76.5055041 60.9547091,76.2096198 61.6301554,75.8273802 C61.9334033,75.6553388 62.1436017,75.4036364 62.3531306,75.1445702 C62.6931967,74.7603223 63.0339322,74.4236033 63.3753372,74.0868843 C63.8352298,73.6209669 64.2649983,73.1510331 64.7289074,72.6864545 C65.3702132,72.0083306 66.0054942,71.3248512 66.5537504,70.5576942 C66.5986017,70.5195372 66.5986017,70.4773636 66.6414446,70.4358595 C67.2794033,69.8815785 67.7031471,69.1191074 68.1744198,68.4356281 C68.2935769,68.3117851 68.3390975,68.1404132 68.4234446,67.9710496 C68.5533124,67.7200165 68.6758165,67.4636281 68.8907008,67.2105868 C69.0620727,66.9080083 69.3559488,66.7379752 69.7428744,66.8290165 C69.9517339,66.8685124 70.0367504,66.9950331 69.9965851,67.2105868 C69.9517339,67.4636281 69.8258826,67.6704793 69.6538413,67.8873719 C69.4429736,68.1404132 69.2287587,68.4356281 68.9743785,68.692686 C68.8907008,68.819876 68.8518744,68.9082397 68.7199983,68.9912479 C68.5533124,69.1586033 68.3785934,69.3333223 68.3390975,69.5421818 C68.3390975,69.6245207 68.254081,69.7142231 68.2139157,69.753719 C68.0894033,69.9210744 67.917362,70.0937851 67.7908413,70.2685041 C67.8276595,70.5195372 67.6194694,70.6473967 67.5337835,70.8140826 C67.4039157,71.075157 67.2365603,71.3248512 67.0671967,71.5772231 C67.0223455,71.6662562 66.9828496,71.7070909 66.9400066,71.748595 C66.5986017,71.9648182 66.4312463,72.3410331 66.1313455,72.6436116 L66.0931884,72.6864545 C65.7076017,73.3639091 65.0261306,73.7461488 64.5193785,74.2970826 C64.3881719,74.4617603 64.2649983,74.6431736 64.1337917,74.8105289 C63.6692132,75.4036364 63.2006182,75.9933967 62.5245025,76.378314 C61.7124942,76.8823884 60.9105273,77.3516529 59.9773537,77.6502149 C59.2570562,77.8657686 58.491238,78.0759669 57.7260893,78.2038264 C57.5091967,78.2038264 57.3023455,78.2038264 57.0867917,78.1201488 C56.9207752,78.0324545 56.7487339,77.9467686 56.5787008,77.9066033 C56.1127835,77.6950661 55.7713785,77.4380083 55.4366678,77.0979421 C55.3429488,76.9720909 55.3054612,76.8823884 55.2244612,76.8047355 C54.6721884,76.2912893 54.4151306,75.6553388 54.2035934,74.9778843 C54.1185769,74.7603223 54.0750645,74.5943058 53.9913868,74.3841074 C53.904362,74.0868843 53.8595107,73.7461488 53.8595107,73.4475868 C53.8193455,72.7714711 53.8193455,72.0953554 53.8193455,71.4533802 C53.7370066,70.9017769 53.8193455,70.4358595 53.8595107,69.971281" id="Fill-12" fill="#221F20"></path>
                        <path d="M72.1666488,66.1881124 C72.6774174,65.8500545 73.2283512,65.5086496 73.6956074,65.1705917 C74.4165744,64.6163107 75.0946983,64.0620298 75.7755,63.5546083 C76.7528554,62.7941455 77.5601777,61.9386248 78.3621446,61.0549884 C78.4933512,60.8829471 78.6593678,60.7122446 78.7912438,60.5402033 C79.301343,60.0334512 79.8074256,59.4805091 80.3202025,58.9724182 C80.4447149,58.8452281 80.5330785,58.718038 80.6602686,58.5901785 C81.0418388,58.1671041 81.3383926,57.652319 81.632938,57.1469058 C82.2722355,56.1253686 82.8238388,55.0656744 83.2904256,53.9611289 C83.4176157,53.6203934 83.5039711,53.3204926 83.6318306,52.9810959 C83.6719959,52.7300628 83.7168471,52.4294926 83.7556736,52.182476 C83.8420289,51.7152198 83.8862107,51.2499719 83.9270455,50.8202033 C83.9270455,50.4761207 83.9270455,50.1427488 83.9685496,49.8006744 C84.012062,49.6326496 84.012062,49.4164264 83.9685496,49.2443851 C83.9270455,49.1238893 83.8862107,49.0375339 83.9270455,48.9103438 C83.9270455,48.5267653 83.8420289,48.1873686 83.6719959,47.8473025 C83.6318306,47.7616165 83.5889876,47.6792777 83.5889876,47.5942612 C83.5448058,47.2501785 83.3741033,46.9549636 83.1598884,46.661757 C83.0360455,46.4462033 82.9101942,46.231319 82.8238388,45.9789471 C82.7408306,45.6803851 82.5674504,45.5096826 82.3130702,45.3443355 C82.1470537,45.2579802 81.9709959,45.2191537 81.8478223,45.0906248 C81.5077562,44.8744017 81.1255165,44.8744017 80.7874587,44.9614264 C80.2786983,45.0906248 79.8074256,45.3443355 79.3836818,45.5933603 C79.2564917,45.7272446 79.1293017,45.8530959 79.0021116,45.9789471 C78.8340868,46.1965091 78.6593678,46.4462033 78.4933512,46.661757 C78.3621446,46.8264347 78.235624,46.998476 78.235624,47.2501785 C78.235624,47.339881 78.1967975,47.4222198 78.1559628,47.4704182 C77.8145579,48.018005 77.6023512,48.5716165 77.344624,49.1667322 C77.3071364,49.2899058 77.2174339,49.3755917 77.2174339,49.5489719 C77.2174339,49.6326496 77.1337562,49.7591702 77.0909132,49.8441868 C76.9677397,50.0135504 76.9195413,50.1842529 76.8807149,50.3549554 C76.7956983,50.903881 76.6229876,51.3718066 76.3277727,51.837724 C76.2400785,52.0090959 76.1999132,52.182476 76.1162355,52.3083273 C75.9435248,52.8144099 75.7755,53.3680215 75.6021198,53.8366165 C75.3932603,54.301195 75.3048967,54.8126331 75.1388802,55.2798893 C74.9675083,55.5730959 74.9239959,55.9580132 74.7981446,56.3000876 C74.5872769,56.9333603 74.330219,57.5733273 74.117343,58.1671041 C74.0350041,58.419476 73.9499876,58.6310132 73.9071446,58.8827157 C73.8194504,59.6130545 73.5235661,60.2463273 73.1848388,60.8829471 C73.0589876,61.1346496 72.9284504,61.4352198 72.8882851,61.7344512 C72.8046074,62.1548479 72.7236074,62.5792612 72.5870455,63.0498645 C72.5475496,63.2553769 72.4632025,63.4742777 72.424376,63.7259802 C72.3373512,64.106881 72.3373512,64.4917983 72.1284917,64.8298562 C72.0829711,64.8680132 72.0829711,64.9563769 72.0829711,65.0005587 C72.0829711,65.2542694 72.0394587,65.5086496 71.8714339,65.7248727 C71.7850785,65.8908893 71.7415661,66.0629306 71.8285909,66.3139636 C71.9551116,66.2744678 72.0829711,66.2316248 72.1666488,66.1881124 L72.1666488,66.1881124 Z M71.1926405,74.4614926 L71.1926405,74.424005 L71.1926405,74.4614926 Z M75.732657,69.2038562 C75.6021198,69.5827488 75.438781,69.9710132 75.0525248,70.1785339 C75.0076736,70.2227157 74.9239959,70.3050545 74.9239959,70.3927488 C74.7124587,70.9430132 74.330219,71.4122777 74.1615248,72.0080628 C74.117343,72.1747488 73.9499876,72.3407653 73.8194504,72.5141455 C73.6085826,72.8963851 73.3588884,73.2371207 73.3588884,73.745881 C73.3588884,73.8308975 73.3133678,73.869724 73.2718636,73.958757 C72.9739711,74.679724 72.8882851,75.4836992 72.8461116,76.2501868 C72.8461116,76.717443 72.7236074,77.1411868 72.5870455,77.5676083 C72.4632025,77.907005 72.424376,78.243724 72.5475496,78.5851289 C72.5870455,78.7966661 72.5475496,79.010881 72.5093926,79.2230876 C72.2931694,79.816195 72.0829711,80.3651207 71.9551116,80.9194017 C71.8714339,81.2601372 71.6967149,81.5573603 71.5353843,81.8994347 C71.5353843,81.9375917 71.3994917,81.9784264 71.3599959,82.0259554 C71.021938,82.0259554 70.7628719,81.7695669 70.4649793,81.7287322 C70.3819711,81.8124099 70.3029793,81.9375917 70.2105992,82.0687983 C70.0439132,82.0687983 69.9615744,81.9784264 69.8738802,81.8994347 C69.7071942,81.6845504 69.4916405,81.6845504 69.2760868,81.7287322 C69.2385992,81.7287322 69.1937479,81.7695669 69.1535826,81.7695669 C68.8992025,81.8124099 68.814186,81.7695669 68.7298388,81.5145174 C68.7298388,81.4743521 68.6829793,81.4308397 68.6829793,81.3920132 C68.7298388,80.9602364 68.5189711,80.6221785 68.4306074,80.195757 C68.3034174,79.7311785 68.2585661,79.2230876 68.2210785,78.7565008 C68.1762273,78.119881 68.2210785,77.4792446 68.1340537,76.8827901 L68.1340537,76.8479802 C68.1340537,75.9536331 68.0497066,75.1068149 68.004186,74.2519636 C67.9673678,73.8308975 68.0497066,73.4064843 68.0892025,73.0255835 C68.0892025,72.6861868 68.1340537,72.3896331 68.1340537,72.0422033 C68.1340537,71.4531124 68.1340537,70.8566579 68.2210785,70.3050545 C68.2585661,69.7969636 68.2585661,69.3330545 68.2210785,68.8617818 C68.1762273,68.0999802 68.2210785,67.3348314 68.3435826,66.5716909 C68.4306074,66.1452694 68.472781,65.7248727 68.5577975,65.2991207 C68.6829793,64.4917983 68.814186,63.6436413 68.9393678,62.8336413 C69.1114091,62.0283273 69.1937479,61.2256909 69.3651198,60.4156909 C69.3651198,60.2054926 69.4079628,59.9892694 69.4916405,59.7790711 C69.662343,59.0132529 69.8738802,58.2507818 70.0887645,57.528476 C70.0887645,57.4829554 70.1282603,57.3992777 70.1282603,57.358443 C70.4649793,56.2572446 70.8083926,55.1480132 71.1491281,54.0481537 C71.4470207,53.1558149 71.7850785,52.2621372 72.1284917,51.4186661 C72.2931694,50.9520793 72.5093926,50.5223107 72.7236074,50.0972281 C72.8461116,49.7156579 73.0589876,49.3755917 73.2718636,49.0797074 C73.4412273,48.780476 73.6085826,48.4832529 73.7364421,48.1425174 C73.9499876,47.6792777 74.1615248,47.2113521 74.5872769,46.8746331 C74.8436653,46.661757 75.0076736,46.3618562 75.183062,46.018443 C75.3490785,45.6803851 75.5653017,45.3878479 75.8973347,45.1287818 C76.8372025,44.4104926 77.9417479,44.0724347 79.1293017,43.9820628 C79.3836818,43.9820628 79.638062,43.9418975 79.8951198,43.9418975 C80.3570207,43.8970463 80.8744835,43.9820628 81.3383926,44.1092529 C82.1858802,44.2786165 82.9925331,44.535005 83.7168471,44.9614264 C84.1814256,45.2191537 84.5228306,45.5933603 84.864905,46.0659719 C85.1179463,46.4462033 85.2859711,46.8746331 85.4131612,47.339881 C85.4546653,47.4704182 85.4988471,47.5540959 85.5403512,47.6792777 C85.627376,47.8908149 85.7103843,48.1425174 85.7103843,48.3995752 C85.7103843,48.5716165 85.755905,48.6981372 85.755905,48.8695091 C85.794062,49.0797074 85.8355661,49.2899058 85.794062,49.5027818 C85.6675413,50.2264264 85.7103843,50.9520793 85.627376,51.6255174 C85.5403512,52.4294926 85.3696488,53.1926331 85.2002851,53.9162777 C84.566343,56.3409223 82.6109628,58.2507818 81.1730455,60.1586331 C80.4895661,61.0549884 79.936624,61.7692612 79.0884669,62.4527405 C78.2804752,63.0498645 77.4276322,63.6436413 76.6229876,64.2775835 C75.221219,65.3821289 74.0350041,66.5308562 72.2523347,66.9947653 C71.5742107,67.1668066 71.6565496,67.1668066 71.5353843,67.8047653 C71.4470207,68.1401455 71.3994917,68.4353603 71.3994917,68.7774347 C71.3599959,69.1188397 71.3994917,69.4153934 71.3994917,69.7146248 C71.4470207,69.9710132 71.3994917,70.1785339 71.3994917,70.3927488 C71.3599959,70.6471289 71.3599959,70.9430132 71.315814,71.2000711 C71.1926405,71.7489967 71.2328058,72.3012694 71.2328058,72.8555504 C71.1926405,73.2371207 71.1491281,73.6213686 71.1926405,73.9975835 C71.2328058,74.087286 71.2328058,74.1247736 71.2763182,74.2519636 C71.3599959,74.1247736 71.3994917,74.0424347 71.4470207,73.958757 C71.7850785,73.067757 72.3373512,72.2155835 72.7637727,71.3252529 C72.9739711,70.9015091 73.2718636,70.5574264 73.5235661,70.1403769 C73.6956074,69.8819802 73.9071446,69.5827488 74.117343,69.2882033 C74.292062,69.1188397 74.4587479,68.9079719 74.6307893,68.7386083 C75.0946983,68.2686744 75.6429545,67.8871041 76.1999132,67.5477074 C76.7113512,67.2491455 77.3071364,67.1226248 77.9022521,67.210319 C78.1967975,67.210319 78.3621446,67.3783438 78.5375331,67.5905504 C78.6198719,67.7625917 78.7457231,67.9339636 78.8749215,68.0999802 C79.045624,68.2686744 79.1293017,68.4822198 79.1721446,68.7386083 C79.5108719,70.1785339 80.0644835,71.4122777 80.0644835,72.9854182 C80.0243182,75.4836992 79.2564917,77.9926909 79.4285331,80.5391702 C79.5108719,81.2601372 79.5530455,81.9784264 79.5945496,82.7020711 C79.5945496,82.9591289 79.5530455,83.1706661 79.5530455,83.3835421 C79.5530455,83.8949802 79.7250868,84.318724 80.0243182,84.7377818 C80.1079959,84.868319 80.2291612,84.9125008 80.4038802,84.9125008 C80.7874587,84.9125008 81.0813347,84.7377818 81.3798967,84.5262446 C81.5927727,84.3608975 81.8043099,84.144005 81.9709959,83.9351455 C82.2722355,83.508724 82.5674504,83.0836413 82.8238388,82.6632446 C83.5039711,81.5573603 84.0535661,80.3651207 84.566343,79.1829223 C84.6500207,79.053724 84.6888471,78.8816826 84.7336983,78.7565008 C84.7752025,78.6286413 84.8234008,78.4626248 84.864905,78.3307488 C85.2859711,77.4384099 85.4988471,76.5052364 85.9239298,75.6155752 C86.0089463,75.404038 86.092624,75.186476 86.1321198,74.978286 C86.2646653,74.5116992 86.4741942,74.1247736 86.646905,73.7003603 C87.0659628,72.8086909 87.452219,71.8366909 87.6630868,70.8566579 C87.8337893,70.0935174 88.0480041,69.2882033 88.2561942,68.5203769 C88.3840537,68.1863355 88.5520785,67.8429223 88.7274669,67.5062033 C88.8513099,67.2491455 89.0266983,67.0376083 89.191376,66.7805504 C89.3654256,66.5308562 89.5742851,66.4009884 89.9143512,66.4424926 C90.0803678,66.6982116 90.0007066,66.9947653 89.9143512,67.2491455 C89.8695,67.5062033 89.7409711,67.7625917 89.6626488,68.0163025 C89.5742851,68.1401455 89.528095,68.2686744 89.5742851,68.4353603 C89.6151198,68.5652281 89.5742851,68.6924182 89.528095,68.7774347 C89.4029132,69.2446909 89.2737149,69.7146248 89.1478636,70.2227157 C89.0655248,70.4770959 88.9778306,70.7341537 88.8513099,71.0307074 C88.3412107,72.3012694 87.9998058,73.5343438 87.7916157,74.9327653 C87.452219,76.9718231 86.5143595,78.8415174 85.581186,80.6630132 C84.8234008,82.1096331 84.1419298,84.1045091 82.6993264,84.9968479 C82.1858802,85.2960793 81.7219711,85.5899554 81.1730455,85.7198231 C81.0418388,85.7646744 80.9595,85.8470132 80.827624,85.8871785 C80.6187645,85.9742033 80.4038802,86.0612281 80.1468223,86.0163769 C80.0243182,86.0163769 79.936624,86.0612281 79.8074256,86.0612281 C78.8340868,86.3109223 77.7248554,85.7198231 77.2174339,84.8288231 C76.9677397,84.3608975 76.7528554,83.8949802 76.6229876,83.3380215 C76.4161364,81.9784264 76.4984752,80.6221785 76.3277727,79.2230876 C76.2862686,78.4626248 76.3277727,77.5676083 76.3277727,76.8044678 C76.4542934,74.5947074 76.9195413,72.5569884 77.0494091,70.3505752 C77.0494091,69.7534512 77.1337562,69.1188397 77.0909132,68.4822198 C77.0909132,68.3530215 77.0909132,68.2238231 76.9677397,68.1401455 C76.4984752,68.3115174 75.8973347,68.7774347 75.732657,69.2038562 L75.732657,69.2038562 Z" id="Fill-14" fill="#221F20"></path>
                        <path d="M97.7615777,89.2472058 C97.673214,89.1621893 97.5895364,89.0396851 97.5895364,88.9104868 C97.546024,88.4813876 97.5045198,88.0127926 97.5045198,87.5890488 C97.546024,86.9136025 97.5895364,86.2756438 97.5895364,85.6356769 C97.6283628,84.8317017 97.673214,84.0658835 97.673214,83.2625777 C97.7120405,82.710305 97.6283628,82.1593711 97.6283628,81.6057595 C97.673214,80.7984372 97.8004041,75.2382223 97.8452554,74.473743 C97.8867595,74.3458835 97.8867595,74.2166851 97.8867595,74.089495 C97.7120405,72.5638835 97.8452554,71.0355942 97.9690983,69.507305 C98.0112719,68.8693463 97.9690983,68.1925612 98.0112719,67.5057347 C98.0112719,66.0249744 98.0112719,64.4940074 98.1853215,62.9657182 C98.2261562,62.5399661 98.270338,62.1209083 98.270338,61.6516438 C98.0554537,61.5666273 97.8452554,61.5224455 97.6283628,61.4822802 C96.953586,61.3564289 96.2319496,61.2680653 95.5498091,61.1408752 C95.1702471,61.0987017 95.0818835,61.0156934 95.2947595,60.6347926 C95.5906438,59.9981727 96.1857595,59.6996107 96.8210405,59.5275694 C97.4623463,59.4017182 98.0554537,59.2296769 98.6940818,59.0589744 C98.7375942,57.0647678 98.7375942,55.1127347 98.7777595,53.1191975 C98.4397017,53.0308339 98.095619,52.9089992 97.7120405,52.8634785 C96.0599083,52.4839165 94.4010818,52.1418421 92.7482802,51.844619 C90.6650405,51.4202058 88.7163545,54.1407347 89.9909331,55.9629 C90.3283215,56.5158421 90.7105612,57.0647678 91.3056769,57.451024 C91.858619,57.8325942 92.4523959,58.0889826 93.1298504,58.1713215 C93.5549331,58.256338 94.0241975,58.3841975 94.4486107,58.5107182 C94.7826521,58.6827595 94.8321893,58.9793132 94.4867678,59.1915198 C94.3622554,59.3160322 94.1513876,59.3575364 93.9813545,59.4017182 C93.005338,59.5724207 91.7307595,59.8274702 90.8812636,59.3160322 C89.4774868,58.5528917 88.2062554,57.5333628 87.9518752,55.8357099 C87.8240157,55.1549083 87.9913711,54.436619 88.2490983,53.7986603 C89.1822719,51.6712388 91.1798256,50.2339909 93.2557017,49.4266686 C93.9813545,49.171619 94.8321893,49.0444289 95.5906438,49.0049331 L98.308495,49.0049331 C99.9218008,49.0444289 101.49695,49.2137926 103.066743,49.5096769 C104.04276,49.6783711 105.017437,49.9749248 105.996131,50.1884702 C107.100007,50.4381645 108.199867,50.5278669 109.350602,50.4883711 C110.02471,50.4883711 110.747685,50.361181 111.430495,50.1884702 C112.404503,50.0191066 113.12614,49.3389744 113.635569,48.536338 C113.764098,48.361619 113.847776,48.1949331 113.930115,48.0228917 C114.06333,47.8508504 114.19052,47.7249992 114.487074,47.812024 C114.4449,48.2772719 114.610917,48.7465364 114.487074,49.2532884 C114.315702,50.0191066 113.895305,50.6115446 113.38052,51.1658256 C113.167644,51.4202058 112.957445,51.6712388 112.704404,51.8854537 C112.363669,52.1418421 111.940594,52.3975612 111.555007,52.5649165 C109.007859,53.4164207 106.421214,53.7986603 103.744198,53.6272884 L103.279619,53.6272884 C103.23276,53.6272884 103.192594,53.669462 103.146404,53.7143132 C103.146404,54.3897595 103.192594,55.1127347 103.192594,55.8357099 C103.192594,56.304305 103.1049,56.8103876 103.066743,57.3218256 C103.021892,57.7475777 103.021892,58.1713215 103.021892,58.6425942 C103.021892,59.1065033 103.066743,59.1459992 103.531321,59.2778752 C104.127776,59.4017182 104.763057,59.5275694 105.354156,59.6554289 C105.698908,59.7437926 106.036966,59.8274702 106.377032,59.8703132 C106.713751,59.9098091 107.100007,59.9539909 107.438065,59.9539909 C107.861809,59.9981727 108.286222,60.0390074 108.754817,60.0390074 C108.798999,60.422586 108.877991,60.7171314 108.877991,61.0585364 C108.877991,61.3965942 108.798999,61.5666273 108.415421,61.6516438 C107.903983,61.7795033 107.353049,61.8665281 106.844288,61.9046851 C105.741751,61.9883628 104.67871,62.0285281 103.577512,62.0753876 C103.1049,62.0753876 103.066743,62.1209083 103.1049,62.6243132 C103.146404,63.3144868 103.192594,64.032776 103.23276,64.7530736 C103.279619,65.5135364 103.322462,66.3215281 103.279619,67.0873463 C103.23276,67.8545033 103.146404,68.6618256 103.021892,69.4202802 C102.851189,70.3547926 102.640321,71.2484702 102.46828,72.1776273 C102.388619,72.6435446 102.303602,73.1081231 102.254065,73.5399 C102.2139,73.7949496 102.131561,74.0071562 102.090726,74.2166851 C102.046545,74.3458835 101.960859,74.473743 101.960859,74.6029413 C101.917346,75.1143793 101.875842,80.3780405 101.49695,80.753586 C101.49695,81.1820157 101.408586,81.6057595 101.197049,82.0308421 C101.111363,82.3287347 101.240561,82.710305 101.028355,83.0095364 C100.983503,83.0503711 101.028355,83.1755529 101.070528,83.2190653 C101.240561,83.5136107 101.240561,83.7673215 101.070528,84.0263876 C101.070528,84.0658835 101.028355,84.1087264 101.070528,84.1569248 C101.324908,84.8317017 100.942669,85.4676521 100.899826,86.1082884 C100.86033,86.5320322 100.684941,86.9544372 100.60595,87.3393545 C100.475412,87.7637678 100.264545,88.145338 100.004809,88.5242306 C99.8334372,88.8281479 99.5388917,89.0778421 99.3320405,89.3369083 C99.1579909,89.5042636 99.0341479,89.6736273 98.8212719,89.9300157 C98.4397017,89.7104455 98.095619,89.5042636 97.7615777,89.2472058" id="Fill-16" fill="#221F20"></path>
                        <path d="M116.492259,71.119205 C116.492259,71.0355273 116.492259,70.9505107 116.531085,70.8695107 C116.87316,70.4819157 116.91868,69.7602793 116.87316,69.2950314 C116.828978,68.6617587 116.87316,67.8075769 116.531085,67.2151388 C116.320217,66.8744033 116.071862,66.535676 115.983498,66.1072463 L115.983498,66.0684198 C115.897143,66.0249074 115.854969,65.9385521 115.772631,65.9385521 C115.684267,65.9385521 115.600589,65.9820645 115.557746,66.1072463 C115.51825,66.2364446 115.474069,66.4064777 115.390391,66.535676 C115.176845,66.9995851 115.048986,67.4708579 114.966647,67.9340975 C114.966647,68.0211223 114.922465,68.1048 114.878953,68.1924942 C114.624573,68.7440975 114.584407,69.2528579 114.749085,69.8037917 C114.922465,70.3547256 115.176845,70.8695107 115.51825,71.2885686 C115.72644,71.5061306 115.897143,71.7538165 116.193027,71.7959901 C116.367077,71.5837835 116.531085,71.4117421 116.492259,71.119205 M112.922234,63.8553124 C112.841234,63.9463537 112.754879,64.0327091 112.712705,64.1150479 C112.62568,64.3272545 112.54535,64.4946099 112.326449,64.6238083 C112.246118,64.9210314 112.033242,65.0897256 111.907391,65.3072876 C111.737358,65.6426678 111.569333,66.0249074 111.484986,66.4493207 C111.270102,67.3396512 111.059903,68.2761719 110.758664,69.1658331 C110.547126,69.7602793 110.417928,70.3975686 110.251912,70.9913455 C110.082548,71.5837835 109.785325,72.1394033 109.658804,72.7331802 C109.658804,72.7733455 109.611945,72.8623785 109.569102,72.9407008 C109.231044,73.4113041 109.191548,73.962238 109.231044,74.5158496 C109.272548,75.1143124 109.314721,75.7080893 109.401746,76.3038744 C109.401746,76.5127339 109.530275,76.6827669 109.700308,76.8106264 C109.866325,76.976643 110.082548,77.1506926 110.251912,77.3180479 C110.462779,77.4827256 110.674986,77.5322628 110.887862,77.445238 C111.609498,77.1861719 112.326449,77.0188165 112.922234,76.5127339 C113.221465,76.3038744 113.604374,76.085643 113.900928,75.8285851 C114.115812,75.7080893 114.240994,75.5333702 114.409688,75.3626678 C114.749085,75.027957 115.048986,74.6878909 115.303366,74.2601306 C115.303366,74.2601306 115.344201,74.2166182 115.344201,74.1764529 C115.428548,73.8825769 115.557746,73.6697008 115.72644,73.4534777 C115.772631,73.3711388 115.772631,73.2861223 115.817482,73.1582628 C115.557746,73.0297339 115.303366,72.8623785 115.048986,72.6910066 C114.326011,72.2244198 113.692069,71.673486 113.177953,70.9913455 C112.967755,70.6927835 112.754879,70.3975686 112.586854,70.1010149 C112.033242,69.0366347 111.988391,67.9340975 112.246118,66.8335686 C112.372639,66.1494198 112.712705,65.5603289 112.967755,64.9665521 C112.967755,64.9210314 113.009259,64.8781884 113.009259,64.8781884 C113.352002,64.7530066 113.518019,64.3694281 113.900928,64.3272545 C114.071631,64.3272545 114.240994,64.2857504 114.409688,64.2442463 C115.006143,64.1585603 115.428548,64.4564529 115.938647,64.7108331 C116.574598,65.0508992 117.30092,65.3467835 117.641655,66.0249074 C117.934193,66.5745025 118.106234,67.0444364 118.106234,67.6797174 C118.150416,67.9340975 118.194598,68.1463041 118.233424,68.3585107 C118.360614,68.8692793 118.360614,69.507238 118.316432,70.0173372 C118.274259,70.4417504 117.979044,70.7778 117.934193,71.1647256 C117.849176,71.4646264 117.849176,71.7089653 117.76349,72.0517091 C117.896036,72.0517091 117.979044,72.1394033 118.061383,72.1394033 C118.316432,72.1394033 118.614994,72.0952215 118.910209,72.0517091 C120.613887,71.7959901 122.222507,70.7778 123.454912,69.5909157 C123.53725,69.507238 123.626953,69.3787091 123.668457,69.2950314 C123.748118,69.2093455 123.791631,69.0834942 123.877317,69.0366347 C124.052036,68.9984777 124.219391,68.9556347 124.344573,69.0366347 C124.559457,69.1256678 124.728151,69.2093455 124.858688,69.3787091 C124.643135,70.0561636 122.8203,71.673486 122.222507,71.8836843 C121.460705,72.1394033 120.777226,72.6434777 120.016093,72.9407008 C119.337969,73.1970893 118.742854,73.4113041 118.019209,73.2861223 C117.721317,73.1970893 117.426102,73.3282959 117.12754,73.3711388 C116.91868,73.4113041 116.790821,73.6235107 116.705135,73.8357174 C116.492259,74.2166182 116.320217,74.6430397 116.154201,75.0674529 C115.897143,75.6625686 115.260523,76.0039736 114.922465,76.5127339 C114.665407,76.8528 114.370193,77.275205 114.030126,77.4827256 C113.648556,77.7431306 113.352002,78.0845355 112.967755,78.3348992 C112.461672,78.6354694 111.988391,79.0183785 111.35244,78.9708496 C110.71716,78.933362 110.082548,78.5450975 109.530275,78.2505521 C108.423721,77.6159405 107.193325,76.6419322 106.595531,75.493205 C106.301655,74.8974198 106.178482,74.1764529 106.1343,73.4989983 C106.050622,72.7331802 106.003763,71.9680314 106.050622,71.2028826 C106.1343,70.4819157 106.301655,69.7602793 106.519217,69.0834942 C106.85192,68.0639653 107.28035,67.0879488 107.745598,66.1494198 C107.876135,65.8515273 108.042151,65.6011636 108.296531,65.3467835 C108.550912,65.0508992 108.850143,64.7108331 109.103854,64.3694281 C109.36225,64.0755521 109.700308,63.9008331 109.997531,63.6899653 C110.462779,63.3472215 110.932044,63.095519 111.434779,62.7561223 C111.609498,62.6249157 111.820366,62.5867587 112.074077,62.6249157 C112.500498,62.6677587 112.882069,62.7996347 113.263639,63.0540149 C113.307151,63.3920727 113.136449,63.6491306 112.922234,63.8553124" id="Fill-18" fill="#221F20"></path>
                        <path d="M145.071469,69.0834942 C144.939593,69.7602793 144.858593,70.4417504 144.691237,71.0803785 C144.602874,71.3722463 144.602874,71.6299736 144.349832,71.8408413 C144.223312,71.9680314 144.142312,72.1775603 144.142312,72.346924 C144.010436,72.8168579 143.842411,73.2861223 143.629535,73.7480231 C143.41465,74.0900975 143.328295,74.5158496 143.162948,74.8974198 C143.03375,75.2381554 142.90656,75.620395 142.737196,75.9584529 C142.656196,76.1733372 142.566493,76.3828661 142.481477,76.5964116 C142.309436,77.0188165 142.176221,77.4827256 142.012882,77.9131636 C141.843518,78.3348992 141.546295,78.7211554 141.291915,79.1020562 C141.125898,79.4421223 140.910345,79.7821884 140.657303,80.0352298 C140.444427,80.2869322 140.317237,80.629676 140.145865,80.9248909 C140.060849,81.0145934 140.020683,81.1397752 139.938345,81.2247917 C139.463725,81.6485355 139.129683,82.1967917 138.616907,82.5830479 C138.363196,82.795924 138.19651,83.0503041 137.857113,83.175486 C137.76875,83.2189983 137.639551,83.3013372 137.601394,83.3910397 C137.469518,83.7324446 137.174973,83.8114364 136.875741,83.8114364 C136.44932,83.8114364 136.11394,83.8984612 135.733039,84.0263207 C135.433807,84.1086595 135.137923,84.0658165 134.840031,83.9841471 C133.947022,83.6862545 133.228733,83.1353207 132.544584,82.4538496 C131.356361,81.3513124 130.421179,80.0352298 129.489345,78.7593124 C129.321989,78.5042628 129.149948,78.2083785 128.979245,77.9131636 C128.895568,77.8281471 128.813229,77.7043041 128.726204,77.5751058 C128.598345,77.6594529 128.516006,77.7431306 128.428312,77.8281471 C128.25627,77.9981802 128.090254,78.1247008 127.878047,78.2505521 C127.835874,78.2505521 127.74684,78.2954033 127.704667,78.3348992 C127.241427,78.8041636 126.774171,79.2680727 126.305576,79.6944942 C126.221898,79.8236926 126.094708,79.9528909 125.967518,80.0352298 C125.713138,80.2025851 125.541097,80.4168 125.371733,80.629676 C125.199692,80.885395 124.986816,81.0922463 124.824146,81.3118165 C124.735783,81.4336512 124.607923,81.5615107 124.526923,81.7389074 C124.271204,82.1593041 123.884948,82.4136843 123.503378,82.6680645 C123.376188,82.795924 123.248998,82.795924 123.077626,82.6680645 C123.121807,82.5375273 123.121807,82.4136843 123.202807,82.2858248 C123.548229,81.4336512 123.884948,80.629676 124.271204,79.7821884 C124.648758,79.0183785 125.076518,78.2505521 125.623436,77.5322628 C126.094708,76.8943041 126.603469,76.3038744 127.156411,75.7475851 C127.241427,75.6625686 127.321088,75.5333702 127.406105,75.4496926 C127.406105,75.1939736 127.282931,75.027957 127.156411,74.8559157 C126.603469,73.7948826 126.007014,72.7733455 125.461436,71.7089653 C124.777287,70.3975686 123.884948,69.1658331 123.077626,67.9340975 C122.825254,67.5906843 122.608361,67.2988165 122.360006,66.9627669 C122.104287,66.6180149 121.807733,66.3643041 121.466328,66.1072463 C121.259477,65.9385521 121.078064,65.811362 120.833055,65.7323702 C120.659675,65.6855107 120.486295,65.6011636 120.444791,65.3869488 C120.959576,64.7108331 121.807733,64.8353455 122.360006,65.0897256 C122.608361,65.2182545 122.867427,65.3072876 123.121807,65.3869488 C123.503378,65.4706264 123.884948,65.6011636 124.271204,65.7323702 C124.353543,65.7323702 124.393039,65.7678496 124.439229,65.811362 C125.076518,66.1976182 125.713138,66.5745025 126.262733,67.0444364 C126.515105,67.2988165 126.814336,67.5063372 127.068047,67.7620562 C127.620989,68.3203537 128.25627,68.7849322 128.771725,69.3331884 C128.937741,69.4637256 129.068948,69.6745934 129.234964,69.8466347 C129.615865,70.3547256 129.959948,70.8695107 130.341518,71.3722463 C130.507535,71.5837835 130.638072,71.8408413 130.760576,72.0517091 C130.891113,72.0517091 130.974791,71.9680314 131.018303,71.8836843 C131.613419,71.2028826 132.161675,70.5240893 132.760807,69.8466347 C132.928163,69.6297421 133.098865,69.4202132 133.272245,69.2093455 C133.908865,68.398676 134.542138,67.5531967 135.052237,66.6628661 C135.220262,66.3643041 135.394981,66.1494198 135.556981,65.8997256 C135.733039,65.6426678 136.11394,65.5134694 136.369659,65.6011636 C136.540361,65.6426678 136.624039,65.7323702 136.624039,65.8997256 C136.705039,66.2364446 136.788717,66.6180149 136.920593,66.9995851 C137.00494,67.2988165 137.00494,67.6797174 136.834237,68.0211223 C136.705039,68.2761719 136.579188,68.5720562 136.494171,68.8692793 C136.369659,69.2528579 136.19494,69.5520893 136.029593,69.8466347 C135.773874,70.3125521 135.474642,70.7416512 135.137923,71.1647256 C134.757022,71.6299736 134.414948,72.1394033 134.031369,72.6434777 C133.908865,72.8168579 133.819163,72.9407008 133.691973,73.0304033 C133.356593,73.4113041 133.013849,73.7948826 132.675791,74.1342793 C132.335055,74.5158496 132.29489,74.6430397 132.506427,75.1143124 C132.588097,75.3231719 132.675791,75.493205 132.800973,75.7080893 C133.272245,76.4712298 133.525287,77.3180479 133.859328,78.1655355 C133.859328,78.2083785 133.908865,78.2954033 133.908865,78.3348992 C133.989865,78.971519 134.28575,79.5666347 134.499964,80.2025851 C134.583642,80.4168 134.665981,80.6731884 134.798526,80.885395 C134.925047,81.1819488 135.097088,81.3954942 135.350799,81.6056926 C135.474642,81.687362 135.605179,81.8158909 135.692204,81.9022463 C135.899055,82.1967917 136.24046,82.2858248 136.579188,82.3701719 C136.748551,82.4136843 136.875741,82.3701719 137.047113,82.2858248 C137.174973,82.1593041 137.340989,82.0307752 137.515039,81.9022463 C137.981626,81.3954942 138.449551,80.8465686 138.830452,80.2869322 C139.384733,79.5666347 139.849981,78.8041636 140.273725,77.9981802 C140.657303,77.275205 141.038204,76.4712298 141.374923,75.7080893 C141.42513,75.6625686 141.462617,75.5775521 141.506799,75.493205 C141.925857,74.7715686 142.227097,73.962238 142.607998,73.1977587 C142.656196,73.1080562 142.695692,72.9888992 142.737196,72.8630479 C142.950072,72.2244198 143.117427,71.5456264 143.328295,70.8695107 C143.41465,70.564924 143.543179,70.3125521 143.669031,70.0561636 C143.795551,69.8466347 143.883915,69.6745934 143.966254,69.4637256 C144.092774,69.1256678 144.30565,68.9984777 144.643039,68.9556347 C144.858593,68.9141306 144.858593,68.9141306 145.071469,68.9984777 L145.071469,69.0834942 Z" id="Fill-20" fill="#221F20"></path>
                        <path d="M22.0522165,96.9082661 L22.9043901,96.9082661 C23.3033653,96.9082661 23.7458529,96.8386463 23.7458529,96.3312248 C23.7458529,95.8398694 23.2832826,95.770919 22.8903322,95.770919 L22.0522165,95.770919 L22.0522165,96.9082661 Z M22.0522165,95.5500099 L22.9559355,95.5500099 C23.2859603,95.5500099 23.6367372,95.4308529 23.6367372,95.0345554 C23.6367372,94.5887207 23.2524893,94.5170926 22.8876545,94.5170926 L22.0522165,94.5170926 L22.0522165,95.5500099 Z M23.0141752,94.2861421 C23.4814314,94.2861421 23.9071835,94.4889769 23.9071835,94.9977372 C23.9071835,95.3130347 23.6802496,95.5694231 23.4131504,95.6283322 C23.7311256,95.689919 24.0196463,95.8873983 24.0196463,96.3252 C24.0196463,96.8801504 23.5798364,97.1452413 23.0496545,97.1452413 L21.7857868,97.1452413 L21.7857868,94.2861421 L23.0141752,94.2861421 Z" id="Fill-22" fill="#221F20"></path>
                        <polygon id="Fill-24" fill="#221F20" points="27.079438 95.4530777 28.4330083 97.1447058 28.0802231 97.1447058 26.8859752 95.6364992 26.3403967 96.136557 26.3403967 97.1447058 26.0686116 97.1447058 26.0686116 94.286276 26.3403967 94.286276 26.3403967 95.8219289 28.008595 94.286276 28.3700826 94.286276"></polygon>
                        <path d="M30.2618008,94.2861421 L31.1996603,96.1893074 L32.1254702,94.2861421 L32.4153298,94.2861421 L31.275305,96.6451835 C31.0396686,97.1358694 30.8408504,97.2021421 30.559024,97.2021421 C30.4298256,97.2021421 30.3428008,97.1700099 30.2618008,97.130514 L30.2618008,96.8975554 C30.3146851,96.930357 30.4063959,96.9758777 30.5824537,96.9758777 C30.7832802,96.9758777 30.9131479,96.7777289 31.0115529,96.5748942 L31.0470322,96.5012579 L29.9685942,94.2861421 L30.2618008,94.2861421 Z" id="Fill-26" fill="#221F20"></path>
                        <path d="M35.383076,97.2083678 C34.590481,97.2083678 34.0730182,96.6232934 34.0730182,95.7175661 C34.0730182,94.916938 34.5362579,94.2153843 35.4044975,94.2153843 C35.9561008,94.2153843 36.5123901,94.562814 36.5759851,95.1432025 L36.3015223,95.1432025 C36.2151669,94.7194587 35.8650595,94.4536983 35.3964645,94.4536983 C34.7652,94.4536983 34.3407868,94.9577727 34.3407868,95.7175661 C34.3407868,96.4780289 34.7538198,96.9754091 35.3917785,96.9754091 C35.9634645,96.9754091 36.2814397,96.5817893 36.3383405,96.050938 L36.6114645,96.050938 C36.5525554,96.7551694 36.0665554,97.2083678 35.383076,97.2083678" id="Fill-28" fill="#221F20"></path>
                        <polygon id="Fill-30" fill="#221F20" points="40.8894694 97.1449066 40.6190231 97.1449066 40.6190231 95.7618818 38.9106595 95.7618818 38.9106595 97.1449066 38.6361967 97.1449066 38.6361967 94.2858074 38.9106595 94.2858074 38.9106595 95.5295926 40.6190231 95.5295926 40.6190231 94.2858074 40.8894694 94.2858074"></polygon>
                        <path d="M43.2056678,95.7047802 C43.2056678,96.4726066 43.6280727,96.9753421 44.2787504,96.9753421 C44.9220645,96.9753421 45.3531719,96.4726066 45.3531719,95.7181686 C45.3531719,94.9623917 44.9200562,94.4536314 44.2713868,94.4536314 C43.6354364,94.4536314 43.2056678,94.9577058 43.2056678,95.7047802 M45.624957,95.7248628 C45.624957,96.6151934 45.0813868,97.2129868 44.2713868,97.2129868 C43.468081,97.2129868 42.9291967,96.6084992 42.9291967,95.7161603 C42.9291967,94.8218132 43.4727669,94.2153174 44.2787504,94.2153174 C45.0740231,94.2153174 45.624957,94.827838 45.624957,95.7248628" id="Fill-32" fill="#221F20"></path>
                        <mask id="mask-4" fill="white">
                            <use xlink:href="#path-3"></use>
                        </mask>
                        <g id="Clip-35"></g>
                        <polygon id="Fill-34" fill="#221F20" mask="url(#mask-4)" points="50.4382314 98.0019669 50.655124 98.0019669 50.655124 93.9881157 50.4382314 93.9881157"></polygon>
                        <polygon id="Fill-36" fill="#221F20" mask="url(#mask-4)" points="57.8636554 97.1449066 57.5918702 97.1449066 57.5918702 94.5167579 55.8821678 94.5167579 55.8821678 97.1449066 55.6090438 97.1449066 55.6090438 94.2858074 57.8636554 94.2858074"></polygon>
                        <path d="M60.1752347,95.7047802 C60.1752347,96.4726066 60.6036645,96.9753421 61.2489868,96.9753421 C61.8936397,96.9753421 62.3247471,96.4726066 62.3247471,95.7181686 C62.3247471,94.9623917 61.890962,94.4536314 61.2443008,94.4536314 C60.6036645,94.4536314 60.1752347,94.9577058 60.1752347,95.7047802 M62.5992099,95.7248628 C62.5992099,96.6151934 62.052962,97.2129868 61.2443008,97.2129868 C60.440995,97.2129868 59.9054579,96.6084992 59.9054579,95.7161603 C59.9054579,94.8218132 60.445681,94.2153174 61.2489868,94.2153174 C62.0496149,94.2153174 62.5992099,94.827838 62.5992099,95.7248628" id="Fill-37" fill="#221F20" mask="url(#mask-4)"></path>
                        <path d="M66.3798347,97.1449066 L66.3798347,94.5167579 L65.2257521,94.5167579 L65.1755455,96.1983446 C65.1554628,96.7747165 65.0068512,97.2024769 64.5750744,97.2024769 C64.463281,97.2024769 64.3575124,97.1830636 64.2852149,97.1449066 L64.2852149,96.9233281 C64.3354215,96.9567992 64.4840331,96.975543 64.5643636,96.975543 C64.7692066,96.975543 64.8910413,96.7700306 64.9144711,96.0410306 L64.9693636,94.2858074 L66.650281,94.2858074 L66.650281,97.1449066 L66.3798347,97.1449066 Z" id="Fill-38" fill="#221F20" mask="url(#mask-4)"></path>
                        <polygon id="Fill-39" fill="#221F20" mask="url(#mask-4)" points="70.816024 94.5169587 69.1016355 94.5169587 69.1016355 95.549876 70.7069083 95.549876 70.7069083 95.7768099 69.1016355 95.7768099 69.1016355 96.9081322 70.8294124 96.9081322 70.8294124 97.1451074 68.8285116 97.1451074 68.8285116 94.2860083 70.816024 94.2860083"></polygon>
                        <path d="M73.8323702,97.2024769 C73.1180975,97.2024769 72.6930149,96.8336256 72.6930149,96.2244521 L72.6930149,96.1983446 L72.952081,96.1983446 C72.952081,96.7305347 73.3048661,96.9822372 73.8497752,96.9822372 C74.3330975,96.9822372 74.6283124,96.6763116 74.6283124,96.3067909 C74.6283124,95.9767661 74.3411306,95.755857 73.974957,95.755857 L73.5170727,95.755857 L73.5170727,95.5222289 L73.974957,95.5222289 C74.2802132,95.5222289 74.5479818,95.3488488 74.5479818,95.0181545 C74.5479818,94.6198488 74.2454033,94.439105 73.8544612,94.439105 C73.4026017,94.439105 73.0719074,94.6580058 73.0484777,95.0944686 L72.7847256,95.0944686 C72.8108331,94.5053777 73.2452876,94.2155182 73.8477669,94.2155182 C74.3893289,94.2155182 74.8257917,94.4578488 74.8257917,94.9947248 C74.8257917,95.2959645 74.6109074,95.5295926 74.4027174,95.6025595 L74.4027174,95.6146091 C74.7066347,95.692262 74.904114,95.9265595 74.904114,96.3067909 C74.904114,96.6589066 74.6350066,97.2024769 73.8323702,97.2024769" id="Fill-40" fill="#221F20" mask="url(#mask-4)"></path>
                        <polygon id="Fill-41" fill="#221F20" mask="url(#mask-4)" points="79.2092975 97.1449066 78.9375124 97.1449066 78.9375124 95.7618818 77.2291488 95.7618818 77.2291488 97.1449066 76.954686 97.1449066 76.954686 94.2858074 77.2291488 94.2858074 77.2291488 95.5295926 78.9375124 95.5295926 78.9375124 94.2858074 79.2092975 94.2858074"></polygon>
                        <path d="M81.5222157,95.7047802 C81.5222157,96.4726066 81.9472983,96.9753421 82.5932901,96.9753421 C83.2406207,96.9753421 83.6717281,96.4726066 83.6717281,95.7181686 C83.6717281,94.9623917 83.2366041,94.4536314 82.589943,94.4536314 C81.9493066,94.4536314 81.5222157,94.9577058 81.5222157,95.7047802 M83.9448521,95.7248628 C83.9448521,96.6151934 83.3965959,97.2129868 82.589943,97.2129868 C81.7873066,97.2129868 81.2450752,96.6084992 81.2450752,95.7161603 C81.2450752,94.8218132 81.7886455,94.2153174 82.5932901,94.2153174 C83.3912405,94.2153174 83.9448521,94.827838 83.9448521,95.7248628" id="Fill-42" fill="#221F20" mask="url(#mask-4)"></path>
                        <polygon id="Fill-43" fill="#221F20" mask="url(#mask-4)" points="88.7572562 98.0019669 88.9734793 98.0019669 88.9734793 93.9881157 88.7572562 93.9881157"></polygon>
                        <path d="M94.196105,96.9082661 L95.0509562,96.9082661 C95.449262,96.9082661 95.8917496,96.8386463 95.8917496,96.3312248 C95.8917496,95.8398694 95.4244934,95.770919 95.0348901,95.770919 L94.196105,95.770919 L94.196105,96.9082661 Z M94.196105,95.5500099 L95.1038405,95.5500099 C95.4305182,95.5500099 95.7833033,95.4308529 95.7833033,95.0345554 C95.7833033,94.5887207 95.3970471,94.5170926 95.0322124,94.5170926 L94.196105,94.5170926 L94.196105,95.5500099 Z M95.1560554,94.2861421 C95.6246504,94.2861421 96.0517413,94.4889769 96.0517413,94.9977372 C96.0517413,95.3130347 95.8274851,95.5694231 95.5597165,95.6283322 C95.8776917,95.689919 96.1635347,95.8873983 96.1635347,96.3252 C96.1635347,96.8801504 95.7243942,97.1452413 95.1968901,97.1452413 L93.9323529,97.1452413 L93.9323529,94.2861421 L95.1560554,94.2861421 Z" id="Fill-44" fill="#221F20" mask="url(#mask-4)"></path>
                        <path d="M98.3440413,95.7047802 C98.3440413,96.4726066 98.769124,96.9753421 99.4177934,96.9753421 C100.065124,96.9753421 100.492884,96.4726066 100.492884,95.7181686 C100.492884,94.9623917 100.059769,94.4536314 99.4131074,94.4536314 C98.7744793,94.4536314 98.3440413,94.9577058 98.3440413,95.7047802 M100.763331,95.7248628 C100.763331,96.6151934 100.221099,97.2129868 99.4131074,97.2129868 C98.607124,97.2129868 98.0709174,96.6084992 98.0709174,95.7161603 C98.0709174,94.8218132 98.6158264,94.2153174 99.4177934,94.2153174 C100.215074,94.2153174 100.763331,94.827838 100.763331,95.7248628" id="Fill-45" fill="#221F20" mask="url(#mask-4)"></path>
                        <path d="M103.069889,96.9082661 L103.926079,96.9082661 C104.325055,96.9082661 104.762856,96.8386463 104.762856,96.3312248 C104.762856,95.8398694 104.298278,95.770919 103.91336,95.770919 L103.069889,95.770919 L103.069889,96.9082661 Z M103.069889,95.5500099 L103.978964,95.5500099 C104.302964,95.5500099 104.657088,95.4308529 104.657088,95.0345554 C104.657088,94.5887207 104.27217,94.5170926 103.905997,94.5170926 L103.069889,94.5170926 L103.069889,95.5500099 Z M104.031179,94.2861421 C104.499774,94.2861421 104.925526,94.4889769 104.925526,94.9977372 C104.925526,95.3130347 104.701269,95.5694231 104.430823,95.6283322 C104.749468,95.689919 105.038658,95.8873983 105.038658,96.3252 C105.038658,96.8801504 104.595501,97.1452413 104.070674,97.1452413 L102.807476,97.1452413 L102.807476,94.2861421 L104.031179,94.2861421 Z" id="Fill-46" fill="#221F20" mask="url(#mask-4)"></path>
                        <path d="M107.381901,95.6923289 L108.248132,95.6923289 C108.639074,95.6923289 108.959058,95.5316678 108.959058,95.1106017 C108.959058,94.698238 108.684595,94.5168248 108.27424,94.5168248 L107.381901,94.5168248 L107.381901,95.6923289 Z M108.329132,94.2858744 C108.865339,94.2858744 109.231512,94.5563207 109.231512,95.0891802 C109.231512,95.6488165 108.865339,95.9239488 108.324446,95.9239488 L107.381901,95.9239488 L107.381901,97.1449736 L107.10476,97.1449736 L107.10476,94.2858744 L108.329132,94.2858744 Z" id="Fill-47" fill="#221F20" mask="url(#mask-4)"></path>
                        <polygon id="Fill-48" fill="#221F20" mask="url(#mask-4)" points="113.216445 94.5169587 111.508081 94.5169587 111.508081 95.549876 113.112015 95.549876 113.112015 95.7768099 111.508081 95.7768099 111.508081 96.9081322 113.23318 96.9081322 113.23318 97.1451074 111.233618 97.1451074 111.233618 94.2860083 113.216445 94.2860083"></polygon>
                        <path d="M117.999126,97.1449066 L117.737383,97.1449066 L117.737383,95.4151215 C117.737383,95.1178983 117.750771,94.8166587 117.770854,94.5167579 C117.713953,94.6887992 117.649688,94.8682041 117.583416,95.0348901 L116.737936,97.1449066 L116.492259,97.1449066 L115.640085,95.0583198 C115.567788,94.8842702 115.504862,94.707543 115.448631,94.532824 C115.471391,94.8280388 115.48411,95.1178983 115.48411,95.4070884 L115.48411,97.1449066 L115.221027,97.1449066 L115.221027,94.2858074 L115.58787,94.2858074 L116.423308,96.3248653 C116.492259,96.5009231 116.552507,96.6809975 116.618779,96.864419 C116.685052,96.685014 116.737936,96.5042702 116.807556,96.3362455 L117.62425,94.2858074 L117.999126,94.2858074 L117.999126,97.1449066 Z" id="Fill-49" fill="#221F20" mask="url(#mask-4)"></path>
                        <path d="M121.858743,94.5169587 L120.990503,94.5169587 C120.58952,94.5169587 120.337817,94.7077438 120.337817,95.0739174 C120.337817,95.4441074 120.58952,95.6415868 120.990503,95.6415868 L121.858743,95.6415868 L121.858743,94.5169587 Z M120.262842,97.1451074 L119.907379,97.1451074 L120.889421,95.8778926 C120.388024,95.8578099 120.065363,95.5692893 120.065363,95.0739174 C120.065363,94.5685041 120.40409,94.2860083 120.929586,94.2860083 L122.132536,94.2860083 L122.132536,97.1451074 L121.858743,97.1451074 L121.858743,95.8778926 L121.244883,95.8778926 L120.262842,97.1451074 Z" id="Fill-50" fill="#221F20" mask="url(#mask-4)"></path>
                    </g>
                </g>
            </g>
        </g>
    </g>
</svg>