<?xml version="1.0" encoding="UTF-8"?>
<svg width="40px" height="40px" viewBox="0 0 40 40" version="1.1" xmlns="http://www.w3.org/2000/svg" xmlns:xlink="http://www.w3.org/1999/xlink">
    <!-- Generator: sketchtool 41.2 (35397) - http://www.bohemiancoding.com/sketch -->
    <title>8D4242DB-713B-4087-9830-269CA292E957</title>
    <desc>Created with sketchtool.</desc>
    <defs>
        <rect id="path-1" x="0" y="0" width="40" height="40" rx="2"></rect>
        <mask id="mask-2" maskContentUnits="userSpaceOnUse" maskUnits="objectBoundingBox" x="0" y="0" width="40" height="40" fill="white">
            <use xlink:href="#path-1"></use>
        </mask>
    </defs>
    <g id="Home" stroke="none" stroke-width="1" fill="none" fill-rule="evenodd">
        <g id="Home/typical_page_1440" transform="translate(-1088.000000, -1585.000000)">
            <g id="footer" transform="translate(0.000000, 1569.000000)">
                <g id="Group-6" transform="translate(1032.000000, 16.000000)">
                    <g id="Group-8" transform="translate(56.000000, 0.000000)">
                        <path d="M17.6683197,29 L21.0033316,29 L21.0033316,20.0044 L23.5052008,20.0044 L24,17.1936 L21.0033316,17.1936 L21.0033316,15.1568 C21.0033316,14.5002 21.4356705,13.8108 22.0535592,13.8108 L23.7566695,13.8108 L23.7566695,11 L21.6694387,11 L21.6694387,11.0126 C18.4036011,11.129 17.7326111,12.9864 17.6744233,14.9374 L17.6683197,14.9374 L17.6683197,17.1936 L16,17.1936 L16,20.0044 L17.6683197,20.0044 L17.6683197,29 Z" id="ic_fb" fill="#231f20"></path>
                    </g>
                </g>
            </g>
        </g>
    </g>
</svg>