<?xml version="1.0" encoding="UTF-8"?>
<svg width="18px" height="18px" viewBox="0 0 18 18" version="1.1" xmlns="http://www.w3.org/2000/svg" xmlns:xlink="http://www.w3.org/1999/xlink">
    <!-- Generator: Sketch 42 (36781) - http://www.bohemiancoding.com/sketch -->
    <title>Shape</title>
    <desc>Created with Sketch.</desc>
    <defs></defs>
    <g id="Profile" stroke="none" stroke-width="1" fill="none" fill-rule="evenodd">
        <g id="Profile/invite_768" transform="translate(-545.000000, -364.000000)" fill="#231F20">
            <g id="Group" transform="translate(24.000000, 256.000000)">
                <g id="Group-10-Copy-2" transform="translate(488.000000, 97.000000)">
                    <path d="M50.6713057,17.6348111 L46.730625,21.5749291 C46.2956476,22.0099065 45.5900052,22.0099065 45.1539025,21.5749291 L44.3649785,20.7860052 L48.3079102,16.8453244 L45.1544652,13.6918794 L41.2143471,17.6348111 L40.4248605,16.8453244 C39.9893204,16.4103471 39.9893204,15.704142 40.4248605,15.2686019 L44.3655412,11.3279211 C44.8027694,10.890693 45.5067237,10.890693 45.9422637,11.3279211 L50.6718685,16.0580886 C51.1096593,16.4936286 51.1096593,17.1975829 50.6713057,17.6348111 Z M42.788256,22.3649785 L38.8475753,26.3079102 L35.6924421,23.1522143 L39.6370619,19.2115336 L38.8475753,18.4220469 C38.4103471,17.9865068 37.7063928,17.9865068 37.2708528,18.4220469 L33.3279211,22.3649785 C32.890693,22.7999558 32.890693,23.5039101 33.3279211,23.9394501 L38.0603394,28.6713057 C38.4958795,29.1068458 39.199271,29.1068458 39.6370619,28.6713057 L43.57718,24.7283741 C44.0121573,24.2933968 44.0121573,23.5900052 43.57718,23.1516516 L42.788256,22.3649785 Z M38.8475753,23.1522143 C39.2831153,23.5900052 39.9887577,23.5900052 40.4242977,23.1522143 L45.1539025,18.4226096 C45.5894425,17.9870696 45.5894425,17.2814272 45.1539025,16.8458871 C44.7189251,16.4109098 44.01272,16.4109098 43.57718,16.8458871 L38.8470125,21.5760546 C38.4103471,22.0104692 38.4103471,22.7166743 38.8475753,23.1522143 Z" id="Shape"></path>
                </g>
            </g>
        </g>
    </g>
</svg>