<?xml version="1.0" encoding="UTF-8"?>
<svg width="16px" height="21px" viewBox="0 0 16 21" version="1.1" xmlns="http://www.w3.org/2000/svg" xmlns:xlink="http://www.w3.org/1999/xlink">
    <!-- Generator: sketchtool 41.2 (35397) - http://www.bohemiancoding.com/sketch -->
    <title>C051CB4D-CAA9-438F-8495-11F2426CEB9D</title>
    <desc>Created with sketchtool.</desc>
    <defs></defs>
    <g id="Home" stroke="none" stroke-width="1" fill="none" fill-rule="evenodd">
        <g id="Home/typical_page_1440" transform="translate(-1172.000000, -33.000000)">
            <g id="header">
                <g id="Group-4" transform="translate(1168.000000, 32.000000)">
                    <rect id="Rectangle-5" x="0" y="0" width="24" height="24"></rect>
                    <path d="M9,7 L9,5.5 C9,3.89669097 10.0247897,3 12,3 C13.9752103,3 15,3.89669097 15,5.5 L15,7 L9,7 Z M17,7 L17,5.5 C17,2.72830903 15.0247897,1 12,1 C8.97521032,1 7,2.72830903 7,5.5 L7,7 L5.65201759,7 C4.72906303,7 4,7.73791113 4,8.64817064 L4,20.3518294 C4,21.2561477 4.73963347,22 5.65201759,22 L18.3479824,22 C19.270937,22 20,21.2620889 20,20.3518294 L20,8.64817064 C20,7.74385233 19.2603665,7 18.3479824,7 L17,7 Z M6,9 L18,9 L18,20 L6,20 L6,9 Z M7,9 L9,9 L9,10 C9,10.5522847 8.55613518,11 8,11 C7.44771525,11 7,10.5561352 7,10 L7,9 Z M15,9 L17,9 L17,10 C17,10.5522847 16.5561352,11 16,11 C15.4477153,11 15,10.5561352 15,10 L15,9 Z" id="ic_basket" fill="#fcc91c"></path>
                </g>
            </g>
        </g>
    </g>
</svg>