<?xml version="1.0" encoding="UTF-8"?>
<svg width="40px" height="40px" viewBox="0 0 40 40" version="1.1" xmlns="http://www.w3.org/2000/svg" xmlns:xlink="http://www.w3.org/1999/xlink">
    <!-- Generator: Sketch 42 (36781) - http://www.bohemiancoding.com/sketch -->
    <title>Rectangle 6 Copy</title>
    <desc>Created with Sketch.</desc>
    <defs></defs>
    <g id="Page-1" stroke="none" stroke-width="1" fill="none" fill-rule="evenodd">
        <g id="Rectangle-6-Copy" >
            <rect x="0" y="0" width="40" height="40" rx="2"></rect>
            <path d="M13.0197901,20.0597122 C13.0839222,16.2313544 16.6114413,12.8784748 20.4484676,13.0061964 C22.2867522,12.9212173 24.0150236,13.7194136 25.4231415,14.8405809 C24.8223784,15.521678 24.2000688,16.1782425 23.5349201,16.7920646 C21.8423902,15.624614 19.4347748,15.2912735 17.7422449,16.6395575 C15.3204342,18.3105596 15.210421,22.2560165 17.5394557,24.0547401 C19.8046117,26.105619 24.0862534,25.0871347 24.7121117,21.9472086 C23.2930939,21.9259638 21.8707807,21.9472086 20.4520164,21.9011783 C20.4484676,21.0566988 20.4449188,20.2122192 20.4484676,19.3677397 C22.8203414,19.3606581 25.1922153,19.3571173 27.5676379,19.3748213 C27.7098439,21.3617129 27.4467248,23.4763261 26.2233986,25.1192548 C24.3706653,27.7199684 20.6510033,28.4792159 17.7493425,27.3651302 C14.8370353,26.2581261 12.7744151,23.1890159 13.0197901,20.0597122" id="ic_g+" fill="#231F20" fill-rule="evenodd"></path>
        </g>
    </g>
</svg>