<?xml version="1.0" encoding="UTF-8"?>
<svg width="40px" height="40px" viewBox="0 0 40 40" version="1.1" xmlns="http://www.w3.org/2000/svg" xmlns:xlink="http://www.w3.org/1999/xlink">
    <!-- Generator: sketchtool 41.2 (35397) - http://www.bohemiancoding.com/sketch -->
    <title>E05157AD-A2F3-43A1-B828-932C3C8EA4C6</title>
    <desc>Created with sketchtool.</desc>
    <defs>
        <rect id="path-1" x="0" y="0" width="40" height="40" rx="2"></rect>
        <mask id="mask-2" maskContentUnits="userSpaceOnUse" maskUnits="objectBoundingBox" x="0" y="0" width="40" height="40" fill="white">
            <use xlink:href="#path-1"></use>
        </mask>
    </defs>
    <g id="Home" stroke="none" stroke-width="1" fill="none" fill-rule="evenodd">
        <g id="Home/typical_page_1440" transform="translate(-1144.000000, -1585.000000)">
            <g id="footer" transform="translate(0.000000, 1569.000000)">
                <g id="Group-6" transform="translate(1032.000000, 16.000000)">
                    <g id="Group-7" transform="translate(112.000000, 0.000000)">
                        <path d="M20.0001243,27.5830945 C21.2209843,27.5830945 22.2138672,26.590186 22.2138672,25.3693516 C22.2138672,24.14972 21.2209843,23.1566068 20.0001243,23.1566068 C18.7804927,23.1566068 17.7863814,24.14972 17.7863814,25.3693516 C17.7863814,26.590186 18.7804927,27.5830945 20.0001243,27.5830945 L20.0001243,27.5830945 Z M20.0001243,20.0244293 C22.949265,20.0244293 25.3466589,22.4218233 25.3466589,25.3693516 C25.3466589,28.3181851 22.949265,30.7164493 20.0001243,30.7164493 C17.0516235,30.7164493 14.6536153,28.3181851 14.6536153,25.3693516 C14.6536153,22.4218233 17.0516235,20.0244293 20.0001243,20.0244293 L20.0001243,20.0244293 Z M22.1631943,15.6628183 C23.2516648,15.9108599 24.3013628,16.3414265 25.2679623,16.9487598 C25.9995468,17.409807 26.2201021,18.3770207 25.7590293,19.1087075 C25.2985708,19.8419811 24.3319457,20.0625364 23.5990561,19.6014637 C21.4091141,18.2239781 18.5892663,18.2245668 16.4006039,19.6014637 C15.6676119,20.0625364 14.7011148,19.8419811 14.2411425,19.1087075 C13.7800698,18.3764321 14.0000109,17.409807 14.7316977,16.9487598 C15.6982204,16.3420407 16.7478929,15.9108599 17.836389,15.6628183 L14.847273,12.673728 C14.236152,12.0619928 14.236152,11.0703895 14.8478872,10.4587822 C15.1541003,10.1531833 15.5545703,10.0001152 15.9550658,10.0001152 C16.3562523,10.0001152 16.7573365,10.1531577 17.063524,10.4587822 L19.9994589,13.3959968 L22.9379787,10.4587822 C23.5490997,9.84707259 24.5406262,9.84707259 25.1523358,10.4587822 C25.7646597,11.0703895 25.7646597,12.0627093 25.1523358,12.673728 L22.1632199,15.6628183 L22.1631943,15.6628183 Z" id="ic_ok" fill="#231f20" transform="translate(20.000000, 20.358225) scale(1, -1) translate(-20.000000, -20.358225) "></path>
                    </g>
                </g>
            </g>
        </g>
    </g>
</svg>