<?xml version="1.0" encoding="UTF-8"?>
<svg width="40px" height="40px" viewBox="0 0 40 40" version="1.1" xmlns="http://www.w3.org/2000/svg" xmlns:xlink="http://www.w3.org/1999/xlink">
    <!-- Generator: Sketch 42 (36781) - http://www.bohemiancoding.com/sketch -->
    <title>Group 56</title>
    <desc>Created with Sketch.</desc>
    <defs></defs>
    <g id="Руководство" stroke="none" stroke-width="1" fill="none" fill-rule="evenodd">
        <g id="GUI/Elements" transform="translate(-112.000000, -832.000000)">
            <g id="Group-30" transform="translate(96.000000, 816.000000)">
                <g id="Group-56" transform="translate(16.000000, 16.000000)">
                    <circle id="Oval-16" fill="#FFFFFF" cx="20" cy="20" r="20"></circle>
                    <path d="M21.113931,29.7353103 C19.5307586,30.9721379 18.1002759,31.5907586 16.8212414,31.5907586 C15.9406897,31.5907586 15.3013793,31.3652414 14.9028966,30.9146207 C14.5044138,30.464 14.3053793,29.9554483 14.3053793,29.3893793 C14.3053793,29.0331034 14.3575172,28.7028966 14.4626207,28.3987586 C14.5673103,28.0950345 14.6827586,27.7855172 14.8085517,27.4710345 L17.7961379,21.2757241 C17.9637241,20.9194483 18.0845517,20.6310345 18.1577931,20.4108966 C18.2310345,20.1907586 18.2678621,19.9971034 18.2678621,19.8291034 C18.2678621,19.6615172 18.2364138,19.5411034 18.1735172,19.4674483 C18.1106207,19.3942069 18.0266207,19.3573793 17.921931,19.3573793 C17.6492414,19.3573793 17.12,19.7715862 16.3337931,20.5995862 C15.5475862,21.4275862 15.0808276,21.8417931 14.9343448,21.8417931 C14.7667586,21.8417931 14.5987586,21.7263448 14.4311724,21.4958621 C14.2631724,21.2653793 14.1795862,21.1184828 14.1795862,21.0555862 C14.1795862,20.8457931 14.3786207,20.5052414 14.7771034,20.0335172 C15.1751724,19.5617931 15.6787586,19.064 16.2866207,18.5397241 C16.8315862,18.0576552 17.4866207,17.6070345 18.2521379,17.1874483 C19.0172414,16.7682759 19.6933793,16.5584828 20.2805517,16.5584828 C21.224,16.5584828 21.9315862,16.8257931 22.4033103,17.3604138 C22.8750345,17.8950345 23.1108966,18.5397241 23.1108966,19.2944828 C23.1108966,19.6089655 23.0794483,19.9445517 23.0165517,20.3008276 C22.9536552,20.6571034 22.8175172,21.0241379 22.6077241,21.4015172 L20.2176552,26.6537931 C20.0289655,27.094069 19.8924138,27.4503448 19.8088276,27.7230345 C19.7248276,27.9957241 19.6830345,28.1844138 19.6830345,28.2891034 C19.6830345,28.4148966 19.7144828,28.4935172 19.7773793,28.5249655 C19.8402759,28.5564138 19.9031724,28.5721379 19.966069,28.5721379 C20.4270345,28.5721379 20.9670345,28.241931 21.5856552,27.5815172 C22.2042759,26.9211034 22.5969655,26.5908966 22.7649655,26.5908966 C22.9114483,26.5908966 23.0686897,26.7009655 23.2366897,26.9211034 C23.4042759,27.1412414 23.4882759,27.2931034 23.4882759,27.3771034 C23.4882759,27.7126897 22.6966897,28.4988966 21.113931,29.7353103 Z M25.0764138,13.1624828 C24.5206897,13.7285517 23.8445517,14.0115862 23.048,14.0115862 C22.2721379,14.0115862 21.6013793,13.7285517 21.0353103,13.1624828 C20.4692414,12.5964138 20.1862069,11.9256552 20.1862069,11.1497931 C20.1862069,10.373931 20.4692414,9.70317241 21.0353103,9.13710345 C21.6013793,8.57103448 22.2721379,8.288 23.048,8.288 C23.8445517,8.288 24.5206897,8.57103448 25.0764138,9.13710345 C25.6317241,9.70317241 25.9097931,10.373931 25.9097931,11.1497931 C25.9097931,11.9256552 25.6321379,12.596 25.0764138,13.1624828 Z" id="Combined-Shape" fill="#231F20"></path>
                </g>
            </g>
        </g>
    </g>
</svg>