<?xml version="1.0" encoding="UTF-8"?>
<svg width="38px" height="19px" viewBox="0 0 24 19" version="1.1" xmlns="http://www.w3.org/2000/svg" xmlns:xlink="http://www.w3.org/1999/xlink">
    <!-- Generator: Sketch 42 (36781) - http://www.bohemiancoding.com/sketch -->
    <title>Combined Shape</title>
    <desc>Created with Sketch.</desc>
    <defs></defs>
    <g id="Руководство" stroke="none" stroke-width="1" fill="none" fill-rule="evenodd">
        <g id="GUI/Elements" transform="translate(-232.000000, -307.000000)" fill="#E64E49">
            <g id="Group-10-Copy-4" transform="translate(24.000000, 296.000000)">
                <path d="M209.787831,29.5252139 C208.126597,29.5252139 207.516173,28.3926231 208.413392,27.0124512 L218.147965,12.0379766 C219.050117,10.6502161 220.517552,10.6578047 221.414556,12.0379766 L231.146801,27.0124512 C232.048737,28.4002117 231.436778,29.5252139 229.771971,29.5252139 L209.787831,29.5252139 Z M218.779901,17.5159919 L218.779901,21.5344359 C218.779901,22.0742387 219.227616,22.5252139 219.779901,22.5252139 C220.336036,22.5252139 220.779901,22.0816275 220.779901,21.5344359 L220.779901,17.5159919 C220.779901,16.9761891 220.332186,16.5252139 219.779901,16.5252139 C219.223766,16.5252139 218.779901,16.9688003 218.779901,17.5159919 Z M218.779901,25.5252139 C218.779901,26.0813491 219.227616,26.5252139 219.779901,26.5252139 C220.336036,26.5252139 220.779901,26.0774987 220.779901,25.5252139 C220.779901,24.9690787 220.332186,24.5252139 219.779901,24.5252139 C219.223766,24.5252139 218.779901,24.9729292 218.779901,25.5252139 Z" id="Combined-Shape"></path>
            </g>
        </g>
    </g>
</svg>