<?xml version="1.0" encoding="UTF-8"?>
<svg width="192px" height="222px" viewBox="0 0 192 222" version="1.1" xmlns="http://www.w3.org/2000/svg" xmlns:xlink="http://www.w3.org/1999/xlink">
    <!-- Generator: Sketch 42 (36781) - http://www.bohemiancoding.com/sketch -->
    <title>Group 7</title>
    <desc>Created with Sketch.</desc>
    <defs>
        <polygon id="path-1" points="28.6571665 0.370758621 0.26599706 0.370758621 0.26599706 35.1840759 28.6571665 35.1840759 28.6571665 0.370758621"></polygon>
    </defs>
    <g id="Home" stroke="none" stroke-width="1" fill="none" fill-rule="evenodd">
        <g id="Home/home_1440" transform="translate(-299.000000, -957.000000)">
            <g id="Как-это-работает?" transform="translate(160.000000, 856.000000)">
                <g id="Group-7" transform="translate(139.000000, 101.000000)">
                    <g id="Group-9" transform="translate(0.000000, 89.000000)">
                        <path d="M133.5,18.7639752 L156,18.7639752 L156,14.2414781 C156,13.0035439 157.006328,12 158.243318,12 L171.756682,12 C172.995632,12 174,13.0087825 174,14.2414781 L174,18.7639752 L180.741665,18.7639752 C186.959472,18.7639752 192,23.8034266 192,30.0116872 L192,114.988313 C192,121.200253 186.963156,126.236025 180.741665,126.236025 L166.5,126.236025 L166.5,130.758522 C166.5,131.996456 165.492657,133 164.244052,133 L149.255948,133 C148.010022,133 147,131.991218 147,130.758522 L147,126.236025 L46.5,126.236025 L46.5,130.758522 C46.5,131.996456 45.4926575,133 44.2440524,133 L29.2559476,133 C28.0100221,133 27,131.991218 27,130.758522 L27,126.236025 L11.2583347,126.236025 C5.04052813,126.236025 0,121.196573 0,114.988313 L0,30.0116872 C0,23.7997474 5.03684413,18.7639752 11.2583347,18.7639752 L18,18.7639752 L18,14.2414781 C18,13.0035439 18.9985042,12 20.2553678,12 L131.244632,12 C132.490237,12 133.5,13.0087825 133.5,14.2414781 L133.5,18.7639752 Z M9.75,33.7959881 L9.75,111.204012 C9.75,113.285405 11.4292515,114.962733 13.5007132,114.962733 L176.999287,114.962733 C179.071343,114.962733 180.75,113.279896 180.75,111.204012 L180.75,33.7959881 C180.75,31.7145952 179.070748,30.0372671 176.999287,30.0372671 L13.5007132,30.0372671 C11.428657,30.0372671 9.75,31.7201038 9.75,33.7959881 Z" id="Combined-Shape" fill="#FFFFFF"></path>
                        <text id="12:05" font-family="BebasNeueBold, Bebas Neue" font-size="76.5" font-weight="bold" letter-spacing="3" fill="#FFFFFF">
                            <tspan x="18.9225" y="97.5279503">12:0</tspan>
                            <tspan x="136.0335" y="97.5279503">5</tspan>
                        </text>
                        <path d="M41.5,8.5 L19,32 L21.5,38.5 L65.5,38.5 L72,32 L174.5,39.5 L171.821892,33.5924089 L166,20.75 C166,20.75 168,15 168,10 C168,5 166.5,0 166.5,0 L41.5,8.5 Z" id="Path-4" fill="#F5F5F5"></path>
                    </g>
                    <g id="Group" transform="translate(26.000000, 0.000000)">
                        <ellipse id="Oval" stroke="#221E20" fill="#221E20" cx="78.479449" cy="104.22202" rx="1.99558163" ry="1.99558163"></ellipse>
                        <path d="M140.466214,123.432551 L134.541337,110.457673 C139.086429,90.4212857 132.629204,80.9958673 131.361643,79.3887551 L126.036735,65.3132143 C125.409429,63.6154592 123.711673,62.5694694 121.763571,62.463 L121.763571,6.36226531 C121.763571,3.25019388 119.255786,0.719387755 116.175367,0.719387755 L40.7849694,0.719387755 C37.7031122,0.719387755 35.1967653,3.25163265 35.1967653,6.36226531 L35.1967653,64.392398 C35.1334592,64.2427653 35.0802245,64.0830612 35.0068469,63.9463776 C34.3694694,62.7737755 33.5119592,62.4112041 33.1939898,62.3119286 C28.9265816,60.9738673 26.1353571,67.160602 25.8317755,67.8727959 C22.9945102,74.492602 20.855051,84.5525204 22.8578265,90.989602 C24.7498163,97.0727449 23.2088878,100.120071 23.0549388,100.402071 L22.1355612,101.603449 L21.5039388,101.236561 C20.8924592,100.882622 20.1198367,100.996286 19.6349694,101.511367 L0.811469388,121.488765 C0.395663265,121.929031 0.282,122.575041 0.52227551,123.133286 C0.76255102,123.690092 1.31216327,124.051224 1.91788776,124.051224 L34.205449,124.051224 C34.7147755,124.051224 35.1910102,123.796561 35.4715714,123.372122 L41.3115612,114.582643 C41.5057959,114.29201 41.5849286,113.943827 41.5518367,113.59852 C42.7215612,113.184153 43.9445204,112.615837 45.2106429,111.882061 C45.4293367,111.752571 45.5991122,111.575602 45.7257245,111.375612 L101.269653,111.375612 C104.565888,115.073265 107.561418,117.940745 108.849122,119.13349 L107.778673,124.851184 C107.623286,125.674163 108.168582,126.469806 108.994439,126.623755 C109.087959,126.643898 109.182918,126.649653 109.275,126.649653 C109.992949,126.649653 110.630327,126.140327 110.76701,125.409429 L111.994286,118.865878 C112.092122,118.343602 111.910837,117.808378 111.516612,117.454439 C105.806112,112.326643 91.1421122,97.0367755 91.8298469,88.0113367 C91.9751633,86.1135918 92.8053367,84.612949 94.3462653,83.4302755 L97.0439694,90.8831327 C97.2669796,91.5018061 97.8525612,91.8859592 98.4741122,91.8859592 C98.6453265,91.8859592 98.8208571,91.8571837 98.9920714,91.7953163 C99.7805204,91.5104388 100.187694,90.637102 99.9042551,89.8486531 L88.3854184,58.0402041 C88.253051,57.6877041 88.3552041,57.329449 88.4674286,57.0906122 C88.746551,56.4791327 89.3767347,55.9439082 90.1479184,55.6575918 C91.3881429,55.2015 92.7405918,55.5108367 93.0513673,56.3496429 L96.2713469,64.5607347 C96.3073163,64.9089184 96.3821327,65.2513469 96.5087449,65.5865816 L104.027786,84.3266327 C104.029224,84.3352653 104.03498,84.3381429 104.037857,84.343898 C104.088214,84.4705102 104.158714,84.5812959 104.237847,84.6805714 C104.256551,84.7107857 104.276694,84.7323673 104.298276,84.7582653 C104.386041,84.8589796 104.481,84.9481837 104.588908,85.023 C104.601857,85.0316327 104.614806,85.0345102 104.624878,85.0431429 C104.725592,85.1093265 104.836378,85.1568061 104.952918,85.1970918 C104.981694,85.2057245 105.006153,85.2172347 105.034929,85.2229898 C105.161541,85.2589592 105.293908,85.2805408 105.427714,85.2834184 L105.440663,85.2834184 C105.483827,85.2834184 105.529867,85.2747857 105.574469,85.2719082 C105.62051,85.2647143 105.665112,85.2647143 105.714031,85.2560816 C105.778776,85.2445714 105.84352,85.2229898 105.906827,85.2028469 C105.937041,85.1942143 105.967255,85.1884592 105.996031,85.1755102 L106.000347,85.1755102 C106.003224,85.1726327 106.004663,85.1726327 106.007541,85.1726327 C106.056459,85.1524898 106.099622,85.1251531 106.145663,85.1021327 C106.188827,85.0776735 106.234867,85.0589694 106.276592,85.0330714 C106.318316,85.0028571 106.355724,84.9697653 106.394571,84.939551 C106.433418,84.907898 106.473704,84.8791224 106.508235,84.8445918 C106.541327,84.8143776 106.568663,84.7740918 106.598878,84.7395612 C106.630531,84.7007143 106.6665,84.6618673 106.696714,84.6201429 C106.721173,84.5856122 106.737,84.5453265 106.758582,84.5079184 C106.785918,84.4604388 106.814694,84.414398 106.837714,84.3654796 C106.853541,84.3280714 106.862173,84.2877857 106.873684,84.2503776 C106.892388,84.1971429 106.912531,84.1424694 106.92548,84.0877959 C106.935551,84.048949 106.935551,84.0072245 106.941306,83.9683776 C106.949939,83.9108265 106.96001,83.8532755 106.961449,83.7971633 C106.962888,83.754 106.954255,83.7079592 106.951378,83.6647959 C106.9485,83.6072449 106.9485,83.5540102 106.938429,83.4993367 C106.929796,83.4489796 106.908214,83.4000612 106.895265,83.3482653 C106.882316,83.3036633 106.875122,83.2547449 106.857857,83.2087041 L106.853541,83.1971939 L106.853541,83.1971939 L106.852102,83.1928776 L99.3042857,63.9521327 C99.3431327,63.6945918 99.4567959,63.4672653 99.5445612,63.3248265 C99.8668469,62.8011122 100.436602,62.3565306 101.109949,62.1076224 C101.789051,61.8572755 102.509878,61.8241837 103.092582,62.0112245 C103.361633,62.097551 103.833551,62.3104898 104.017714,62.8111837 L111.541071,81.5526735 C111.627398,81.7627347 111.755449,81.9425816 111.912276,82.0893367 L112.061908,82.4821224 C112.290673,83.0921633 112.8705,83.4676837 113.484857,83.4676837 C113.663265,83.4676837 113.844551,83.4360306 114.02152,83.3684082 C114.808531,83.0705816 115.202755,82.1929286 114.906367,81.4087959 L109.496571,67.0944184 C109.326796,66.6383265 109.54549,66.1649694 109.692245,65.9275714 C110.014531,65.4052959 110.585724,64.9592755 111.257633,64.7089286 C112.497857,64.2557143 113.850306,64.5636122 114.155327,65.3880306 L119.572316,79.7081633 C119.6385,79.8793776 119.734898,80.0318878 119.85,80.1628163 L121.101735,83.4763163 C121.399561,84.2618878 122.277214,84.6561122 123.061347,84.3597245 C123.848357,84.061898 124.24402,83.1842449 123.946194,82.4001122 L118.536398,68.0871735 C118.234255,67.2771429 119.057235,66.1620918 120.29602,65.7031224 C121.537684,65.2455918 122.888694,65.5563673 123.193714,66.3807857 L128.612143,80.7009184 C128.676888,80.8735714 128.773286,81.0318367 128.89702,81.1728367 C128.971837,81.2562857 136.269306,89.7666429 131.468112,110.27351 C131.391857,110.60299 131.426388,110.945418 131.56451,111.251878 L137.706643,124.698673 C137.961306,125.259796 138.513796,125.587837 139.090745,125.587837 C139.300806,125.587837 139.516622,125.546112 139.720929,125.451153 C140.479163,125.098653 140.815837,124.195102 140.466214,123.432551 Z M35.1967653,71.4711735 L35.1967653,75.8637551 L34.4989592,74.1170816 C34.7867143,73.179 35.0097245,72.307102 35.1967653,71.4711735 Z M25.7598367,90.0874898 C24.0649592,84.6388469 25.918102,75.3889592 28.6244388,69.0712959 C29.2718878,67.5749694 30.9423061,64.9635918 32.1854082,65.1923571 C32.3997857,65.4283163 33.5565612,67.1001735 31.4358061,73.7142245 C31.327898,74.050898 31.3408469,74.4149082 31.4717755,74.742949 L35.1953265,84.0547041 L35.1953265,105.734173 C35.1953265,108.277929 36.8715,110.433214 39.1677857,111.133898 C39.0210306,111.164112 38.8757143,111.200082 38.7332755,111.223102 L24.7857857,103.144378 L25.5138061,102.193347 C25.5353878,102.16601 25.5540918,102.138673 25.5742347,102.109898 C25.8490408,101.694092 28.1755408,97.854 25.7598367,90.0874898 Z M33.391102,121.008214 L5.4400102,121.008214 L21.0190714,104.473806 L37.884398,114.244531 L33.391102,121.008214 Z M107.617531,63.6255306 L106.852102,61.7191531 C106.403204,60.501949 105.373041,59.5523571 104.023469,59.1178469 C102.786122,58.7178673 101.376122,58.7667857 100.05101,59.2559694 C99.2568061,59.5494796 98.5446122,59.9868673 97.9547143,60.5278469 L95.8900714,55.2691224 C95.0009082,52.8577347 91.9521429,51.7556327 89.0904184,52.8059388 C87.5566837,53.3756939 86.317898,54.4749184 85.7006633,55.823051 C85.2071633,56.8992551 85.1467347,58.0632245 85.5280102,59.0905102 L93.2743776,80.4750306 C93.2470408,80.4894184 93.2168265,80.5009286 93.1909286,80.5167551 C90.5104898,82.2720612 89.0314286,84.7136633 88.7969082,87.7782551 C88.5681429,90.7766633 89.6227653,94.1534694 91.355051,97.5604898 L47.1472347,97.5604898 L47.1472347,14.5373878 L109.813102,14.5373878 L109.813102,62.0169796 C108.951276,62.3968163 108.198796,62.9507449 107.617531,63.6255306 Z M116.978204,64.2801735 C116.353776,62.6442857 114.732276,61.6184388 112.856112,61.476 L112.856112,13.0151633 C112.856112,12.1763571 112.175571,11.4943776 111.335327,11.4943776 L45.626449,11.4943776 C44.7876429,11.4943776 44.1056633,12.1763571 44.1056633,13.0151633 L44.1056633,99.0798367 C44.1056633,99.9200816 44.7862041,100.602061 45.626449,100.602061 L93.0628776,100.602061 C94.7117143,103.2825 96.6770816,105.915459 98.6669082,108.334041 L40.7849694,108.334041 C39.3807245,108.334041 38.236898,107.167194 38.236898,105.732735 L38.236898,83.7928469 L38.236898,83.7899694 L38.236898,6.36226531 C38.236898,4.92780612 39.3792857,3.75952041 40.7849694,3.75952041 L116.175367,3.75952041 C117.579612,3.75952041 118.722,4.92780612 118.722,6.36226531 L118.722,63.0658469 C118.051531,63.3795 117.46451,63.7967449 116.978204,64.2801735 Z" id="Shape" stroke="#221E20" fill="#221E20"></path>
                        <g id="Page-1" transform="translate(51.000000, 17.000000)">
                            <g id="Group-31" transform="translate(23.655172, 0.112000)">
                                <mask id="mask-2" fill="white">
                                    <use xlink:href="#path-1"></use>
                                </mask>
                                <g id="Clip-30"></g>
                                <path d="M13.8620759,32.6650414 C13.9069724,30.2555931 13.7042138,28.4302828 12.7131103,28.0933172 C11.7220069,27.7549034 10.9563517,27.1920069 9.44724828,27.3271793 C7.93814483,27.4623517 4.53711034,27.7998 3.5460069,27.5970414 C2.55538621,27.3942828 2.96042069,24.7811103 5.28007586,23.3400759 C7.60021379,21.8980759 10.0328345,24.0608345 10.7309034,24.5112483 C11.4289724,24.9616621 11.9701448,25.2991103 12.2626966,25.2773862 C12.555731,25.2551793 12.6228345,25.5023517 11.9923517,24.2635931 C11.3613862,23.0248345 9.60511034,18.001731 8.22345517,16.5611793 C6.8418,15.1196621 3.4480069,12.5958 2.06683448,11.8161448 C0.685662069,11.0350414 -0.0350965517,8.3620069 0.385386207,7.34048966 C0.805386207,6.31993793 1.97704138,5.38821379 3.47842069,5.98876552 C4.98028276,6.5898 6.27117931,6.53042069 6.93207586,8.84235172 C7.59297241,11.1547655 8.52373103,13.1669034 9.15469655,14.6084207 C9.78517931,16.0504207 10.175731,16.4409724 10.2954552,16.3806276 C10.4156621,16.3202828 10.3253862,12.6860759 10.4156621,10.7951103 C10.5059379,8.90269655 11.7374552,6.40973103 13.4792483,3.9775931 C15.2205586,1.5440069 16.9628345,0.133868966 17.623731,0.403248276 C18.2841448,0.673110345 18.9445586,2.56648966 19.8159379,3.85690345 C20.6868345,5.14828276 20.6564207,5.32786897 20.6264897,6.62069655 C20.5965586,7.91111034 21.0387655,8.66276552 20.6375931,9.44290345 C20.2359379,10.2240069 19.0647655,11.2754552 17.5035241,12.2052483 C15.9418,13.1369724 16.5119379,14.217869 16.6620759,14.6687655 C16.8126966,15.1196621 16.1518,15.9002828 15.1911103,17.8226276 C14.2299379,19.7440069 14.1396621,20.7655241 14.109731,21.7561448 C14.0798,22.7467655 13.6892483,23.587731 13.9895241,23.797731 C14.2898,24.0091793 14.2299379,22.4764207 15.0704207,21.3351793 C15.911869,20.1944207 17.0830414,18.6027655 18.5245586,17.1911793 C19.9660759,15.7800759 20.8669034,14.0378 23.9903517,14.067731 C25.641869,14.067731 26.7831103,14.1575241 27.6839379,15.7496621 C28.5852483,17.3418 29.2152483,18.3020069 27.9243517,19.0826276 C26.6334552,19.8646966 25.4313862,20.1944207 23.5993172,20.6149034 C21.7682138,21.0353862 20.1461448,22.2060759 20.0858,22.7467655 C18.9310414,25.5371103 16.3622828,25.9875241 16.3622828,25.9875241 C16.3622828,25.9875241 14.6079379,26.3215931 14.5239379,27.0114552 C14.4399379,27.7027655 15.747731,29.5768345 15.5073172,31.2293172 C15.4510598,31.6157764 15.3728158,32.4578915 15.3728158,32.4578915" id="Fill-29" fill="#201C1E" mask="url(#mask-2)"></path>
                            </g>
                            <path d="M10.1162069,77.6662069 L8.04951724,77.8361379 C8.04951724,77.8361379 7.95296552,74.6953103 7.70772414,73.344069 C7.46151724,71.9937931 4.06434483,68.8293103 4.578,68.1515172 C5.09165517,67.4727586 6.63503448,68.6970345 7.29786207,68.614 C7.9602069,68.5304828 9.62862069,68.1635862 8.302,65.5069655 C6.97537931,62.8493793 3.5922069,60.0431034 4.46841379,57.5733103 C5.34365517,55.1030345 8.60565517,62.6813793 8.42848276,59.3416552 C8.2517931,56.0024138 5.81144828,53.3902069 2.53786207,50.9416552 C-0.098,48.847931 -0.223517241,47.6164138 0.328275862,46.6991724 C0.880068966,45.7804828 3.07662069,47.5985517 4.67310345,48.6244138 C6.26958621,49.6502759 8.22331034,50.6727586 8.25662069,49.5194483 C8.29089655,48.3666207 8.80648276,48.0055172 6.76393103,45.4710345 C4.72282759,42.9365517 4.6002069,42.4605517 3.68151724,41.6302069 C2.76282759,40.7993793 2.08310345,40.0873103 3.27551724,40.0409655 C4.46841379,39.9951034 6.58144828,41.0972414 5.49910345,39.3535172 C4.4157931,37.6088276 3.0882069,34.7928966 4.74503448,32.1594483 C6.40089655,29.5255172 10.5907586,32.1681379 10.8755862,33.3991724 C11.1608966,34.6302069 10.8171724,37.3365517 10.5535862,40.1215862 C10.3295862,42.827931 11.1164828,41.312069 11.6682759,40.2751034 C12.2195862,39.2371724 13.3695172,38.6356552 13.7731034,39.7469655 C14.1762069,40.8587586 14.1535172,44.0406207 13.8044828,45.752 C13.455931,47.4633793 12.0786207,50.2151034 13.1131724,50.2097931 C14.1462759,50.2035172 15.3787586,50.1175862 16.3698621,49.5957241 C17.3614483,49.0733793 19.388069,48.6649655 19.7931034,50.0147586 C20.1976552,51.3645517 17.6197241,52.652069 14.0878621,54.181931 C11.5514483,55.7455862 10.6023448,56.8651034 10.8471034,57.9363448 C11.0908966,59.0095172 11.1758621,60.0030345 13.718069,59.4324138 C16.2607586,58.8627586 17.0553793,58.7382069 17.2982069,59.4927586 C17.540069,60.2482759 16.7464138,60.5702759 15.1171034,60.7778621 C13.4877931,60.9849655 11.3033103,61.4744828 11.1927586,63.1052414 C11.0817241,64.7364828 10.7317241,66.1302069 11.6924138,67.3974483 C12.4141379,68.4691724 13.4086207,68.6222069 14.7222069,68.8133793 C16.0362759,69.0045517 16.1603448,69.917931 14.8897241,70.3229655 C13.6195862,70.7270345 10.9031034,71.2595172 10.5270345,72.5335172 C10.1514483,73.808 10.1162069,77.6662069 10.1162069,77.6662069" id="Fill-32" fill="#201C1E"></path>
                            <path d="M9.27258621,77.7354828 C9.27258621,77.7354828 9.26968966,77.5916207 9.26389655,77.3222414 C9.25906897,77.0523793 9.25134483,76.6565172 9.24168966,76.1525172 C9.23396552,75.6485172 9.2247931,75.0368621 9.21996552,74.334931 C9.21706897,73.984931 9.21368966,73.6112759 9.21031034,73.2178276 C9.20886207,72.8238966 9.20789655,72.4106552 9.20644828,71.979069 C9.20210345,71.1154138 9.20355172,70.1803103 9.20789655,69.1906552 C9.20837931,68.6963103 9.20886207,68.1879655 9.20982759,67.6685172 C9.21272414,67.1500345 9.21610345,66.6194828 9.21996552,66.0797586 C9.22334483,65.5405172 9.22672414,64.9925862 9.23058621,64.4364483 C9.23686207,63.8817586 9.24362069,63.3203103 9.25086207,62.7535517 C9.26727586,61.6219655 9.27451724,60.4705862 9.30010345,59.3201724 C9.32182759,58.1687931 9.34306897,57.0178966 9.36431034,55.8834138 C9.39472414,54.7494138 9.43237931,53.6366552 9.45072414,52.5605862 C9.47196552,51.4840345 9.48162069,50.4441724 9.45989655,49.4588621 C9.44927586,48.9659655 9.43237931,48.4875517 9.41258621,48.0245862 C9.38844828,47.5621034 9.36189655,47.1155517 9.32375862,46.6873448 C9.24893103,45.8318966 9.1572069,45.0483793 9.03748276,44.3614138 C8.9192069,43.6725172 8.78934483,43.0767931 8.65658621,42.5925862 C8.62617241,42.470931 8.59189655,42.3579655 8.56003448,42.2498276 C8.52817241,42.1431379 8.50113793,42.0412759 8.47168966,41.9481034 C8.40989655,41.7632069 8.36113793,41.6038966 8.31527586,41.4778966 C8.22210345,41.2239655 8.17237931,41.0892759 8.17237931,41.0892759 C8.17237931,41.0892759 8.23175862,41.2205862 8.3427931,41.4667931 C8.39782759,41.5898966 8.45817241,41.7453448 8.533,41.9263793 C8.60106897,42.1107931 8.68410345,42.3207931 8.76086207,42.5621724 C8.92113793,43.041069 9.09444828,43.6314828 9.24458621,44.3203793 C9.39665517,45.0092759 9.53617241,45.7923103 9.64093103,46.6545172 C9.74713793,47.5157586 9.83162069,48.4518276 9.87796552,49.4443793 C9.92575862,50.4364483 9.95086207,51.4825862 9.95086207,52.5644483 C9.95086207,53.6458276 9.93203448,54.7619655 9.92044828,55.8935517 C9.90693103,57.0261034 9.89341379,58.1765172 9.87989655,59.3254828 C9.8687931,60.4778276 9.83982759,61.6287241 9.82051724,62.7607931 C9.80893103,63.3280345 9.79782759,63.8894828 9.7872069,64.4456207 C9.7732069,65.0003103 9.7592069,65.5487241 9.7452069,66.0884483 C9.73168966,66.6276897 9.71865517,67.1587241 9.70513793,67.6776897 C9.6892069,68.1961724 9.67327586,68.705 9.65734483,69.1993448 C9.62451724,70.1875517 9.5912069,71.1226552 9.55403448,71.9858276 C9.53713793,72.4164483 9.52024138,72.8301724 9.50431034,73.2226552 C9.48596552,73.6165862 9.46906897,73.9887931 9.45313793,74.3397586 C9.42175862,75.0412069 9.38989655,75.6523793 9.36286207,76.1544483 C9.33486207,76.6584483 9.31265517,77.0528621 9.2972069,77.3227241 C9.28127586,77.5921034 9.27258621,77.7354828 9.27258621,77.7354828" id="Fill-34" fill="#F4F5F5"></path>
                            <path d="M11.6771586,44.2195793 C11.6771586,44.2195793 11.6675034,44.284269 11.6515724,44.3977172 C11.6433655,44.4527517 11.6327448,44.522269 11.6211586,44.5995103 C11.6095724,44.6777172 11.584469,44.7660621 11.5617793,44.8626138 C11.5366759,44.9577172 11.514469,45.0658552 11.4806759,45.1744759 C11.4459172,45.2826138 11.4087448,45.3960621 11.3706069,45.5133724 C11.3344,45.632131 11.2851586,45.7494414 11.2354345,45.870131 C11.1842621,45.9888897 11.1408138,46.1158552 11.080469,46.2326828 C11.0239862,46.3528897 10.9708828,46.4745448 10.9197103,46.5962 C10.8690207,46.7173724 10.8048138,46.8298552 10.7396414,46.9365448 C10.6710897,47.0413034 10.6039862,47.1417172 10.520469,47.224269 C10.4417793,47.3087517 10.3635724,47.3859931 10.2882621,47.4535793 C10.2510897,47.4878552 10.2144,47.5197172 10.1786759,47.5486828 C10.1395724,47.5762 10.1038483,47.602269 10.0676414,47.6249586 C9.99715862,47.6713034 9.9344,47.7094414 9.88081379,47.7388897 C9.77412414,47.7973034 9.70750345,47.8224069 9.70750345,47.8224069 L9.66502069,47.7823379 C9.66502069,47.7823379 9.68288276,47.7094414 9.72488276,47.5984069 C9.74564138,47.5424069 9.77267586,47.4772345 9.80550345,47.4053034 C9.82095172,47.3676483 9.84026207,47.3309586 9.85957241,47.2923379 C9.87743448,47.252269 9.89674483,47.2097862 9.91702069,47.1658552 C9.95708966,47.0779931 10.0039172,46.9867517 10.0579862,46.8940621 C10.1130207,46.8028207 10.1632276,46.6995103 10.2288828,46.6029586 C10.2926069,46.5039931 10.3746759,46.4132345 10.4490207,46.3147517 C10.5233655,46.2143379 10.5986759,46.1134414 10.6696414,46.0072345 C10.7439862,45.9048897 10.8028828,45.7928897 10.8690207,45.6871655 C10.9317793,45.5795103 11.0022621,45.4766828 11.0568138,45.3714414 C11.1147448,45.2671655 11.1707448,45.166269 11.2238483,45.0702 C11.2774345,44.9746138 11.3175034,44.8814414 11.360469,44.7959931 C11.4005379,44.7100621 11.4459172,44.6333034 11.4739172,44.5604069 C11.5038483,44.4865448 11.5299172,44.4223379 11.5516414,44.3702 C11.5955724,44.2654414 11.6206759,44.2050966 11.6206759,44.2050966 L11.6771586,44.2195793 Z" id="Fill-36" fill="#F4F5F5"></path>
                            <path d="M9.62311724,55.3607793 C9.62311724,55.3607793 9.62022069,55.341469 9.61491034,55.3052621 C9.61249655,55.2869172 9.6096,55.2647103 9.60525517,55.2381586 C9.59946207,55.2135379 9.59222069,55.1855379 9.58449655,55.1531931 C9.56663448,55.0909172 9.54201379,55.0141586 9.50532414,54.9296759 C9.47056552,54.8456759 9.42084138,54.753469 9.3633931,54.6564345 C9.24463448,54.4642966 9.07953103,54.2562276 8.88691034,54.0471931 C8.69042759,53.8420207 8.47222069,53.6305724 8.23711724,53.4365034 C8.00491034,53.2390552 7.7418069,53.0816759 7.51491034,52.9127103 C7.40194483,52.8262966 7.29573793,52.7398828 7.19773793,52.6539517 C7.09828966,52.5689862 7.0056,52.4869172 6.91966897,52.4096759 C6.83422069,52.3334 6.75601379,52.2605034 6.68697931,52.1948483 C6.65270345,52.1610552 6.61987586,52.1311241 6.58946207,52.1036069 C6.55904828,52.0741586 6.53201379,52.0476069 6.50642759,52.0220207 C6.45670345,51.9732621 6.41711724,51.9346414 6.39008276,51.9071241 C6.36304828,51.8786414 6.34904828,51.8636759 6.34904828,51.8636759 L6.37270345,51.8105724 C6.37270345,51.8105724 6.39394483,51.8105724 6.43304828,51.8125034 C6.47311724,51.8158828 6.53008276,51.8226414 6.60201379,51.8361586 C6.74587586,51.8607793 6.94622069,51.915331 7.17118621,52.0128483 C7.39566897,52.1103655 7.64863448,52.2426414 7.88663448,52.4299517 C8.00587586,52.5226414 8.11932414,52.6322276 8.22987586,52.7461586 C8.33994483,52.8620207 8.45049655,52.9783655 8.56008276,53.0976069 C8.66966897,53.2144345 8.77635862,53.3360897 8.87677241,53.4596759 C8.97863448,53.5808483 9.06987586,53.7087793 9.15628966,53.8338138 C9.24028966,53.9598138 9.32042759,54.0834 9.38463448,54.207469 C9.45173793,54.3305724 9.50484138,54.4517448 9.55070345,54.5647103 C9.63856552,54.7930552 9.68008276,54.9948483 9.68684138,55.1391931 C9.6878069,55.1754 9.68925517,55.2067793 9.68973793,55.2347793 C9.68828966,55.2622966 9.68635862,55.2845034 9.6853931,55.3023655 C9.68297931,55.3395379 9.68201379,55.3588483 9.68201379,55.3588483 L9.62311724,55.3607793 Z" id="Fill-38" fill="#F4F5F5"></path>
                            <path d="M12.9406345,52.5830345 C12.9406345,52.5830345 12.7412552,52.7317241 12.4380828,52.9451034 C12.3613241,52.9977241 12.2797379,53.0556552 12.1967034,53.1213103 C12.1127034,53.184069 12.0243586,53.2506897 11.9326345,53.3192414 C11.8413931,53.3882759 11.7462897,53.4563448 11.651669,53.5311724 C11.5565655,53.6050345 11.4600138,53.6793793 11.3634621,53.7551724 C11.2669103,53.828069 11.1737379,53.9082069 11.0853931,53.9897931 C10.9960828,54.0713793 10.9077379,54.1486207 10.815531,54.2157241 C10.6320828,54.3484828 10.4409103,54.4474483 10.2733931,54.5275862 C10.1898759,54.5681379 10.1102207,54.6014483 10.0373241,54.6284828 C9.96442759,54.6564828 9.90118621,54.6806207 9.84615172,54.6970345 C9.73608276,54.7308276 9.66753103,54.7443448 9.66753103,54.7443448 L9.63035862,54.699931 C9.63035862,54.699931 9.65546207,54.6333103 9.71387586,54.5338621 C9.77132414,54.4315172 9.86353103,54.2987586 9.98808276,54.153931 C10.0498759,54.080069 10.1222897,54.0076552 10.2004966,53.9333103 C10.2791862,53.8604138 10.3641517,53.7841379 10.4611862,53.7184828 C10.5582207,53.6528276 10.6649103,53.5948966 10.7744966,53.5374483 C10.8836,53.4804828 10.9941517,53.422069 11.1051862,53.3631724 C11.2147724,53.3037931 11.3243586,53.2444138 11.4320138,53.186 C11.5377379,53.1256552 11.6507034,53.075931 11.7559448,53.0242759 C11.861669,52.9750345 11.9640138,52.9257931 12.0610483,52.8789655 C12.1576,52.8331034 12.2502897,52.794 12.3367034,52.7597241 C12.6799448,52.6187586 12.9126345,52.5313793 12.9126345,52.5313793 L12.9406345,52.5830345 Z" id="Fill-40" fill="#F4F5F5"></path>
                            <path d="M6.96369655,60.6225586 C6.96369655,60.6225586 7.06169655,60.6689034 7.2268,60.7558 C7.39238621,60.8426966 7.6245931,60.9715931 7.89783448,61.1352483 C8.1705931,61.3003517 8.48197241,61.5016621 8.80397241,61.7425586 C8.96521379,61.863731 9.12935172,61.9931103 9.29107586,62.1461448 C9.37169655,62.2253172 9.45376552,62.3030414 9.53535172,62.4169724 C9.55611034,62.4488345 9.57638621,62.4778 9.59811034,62.521731 C9.60824828,62.5395931 9.61935172,62.5666276 9.6290069,62.5965586 C9.63383448,62.6120069 9.63866207,62.6211793 9.64252414,62.643869 C9.64686897,62.6641448 9.64976552,62.6863517 9.65169655,62.7080759 C9.6545931,62.7645586 9.65314483,62.7718 9.6545931,62.7790414 C9.65411034,62.7848345 9.66135172,62.7940069 9.64493793,62.7534552 C9.63673103,62.7370414 9.6348,62.7336621 9.6150069,62.7080759 C9.60631724,62.6974552 9.59714483,62.6882828 9.58604138,62.6795931 C9.57252414,62.6670414 9.5565931,62.6569034 9.53969655,62.6482138 C9.47211034,62.6110414 9.39197241,62.6211793 9.37169655,62.6279379 C9.31617931,62.6462828 9.32873103,62.6482138 9.33211034,62.643869 C9.34804138,62.6308345 9.37990345,62.6004207 9.40983448,62.5680759 C9.46969655,62.5014552 9.53631724,62.423731 9.60004138,62.3464897 C9.72797241,62.1895931 9.8588,62.0307655 9.98962759,61.8796621 C10.2512828,61.5769724 10.5196966,61.3061448 10.7755586,61.1000069 C11.0304552,60.893869 11.2723172,60.7548345 11.4499724,60.6833862 C11.5383172,60.645731 11.6112138,60.6269034 11.6604552,60.6129034 C11.7096966,60.6008345 11.7362483,60.5964897 11.7362483,60.5964897 C11.7362483,60.5964897 11.7150069,60.6129034 11.6749379,60.6433172 C11.634869,60.6727655 11.5803172,60.7210414 11.5122483,60.781869 C11.3780414,60.9049724 11.2042483,61.0951793 11.0169379,61.3384897 C10.8272138,61.5818 10.6215586,61.877731 10.3999724,62.1978 C10.2879724,62.3585586 10.1745241,62.5255931 10.0475586,62.6964897 C9.98383448,62.7809724 9.92011034,62.867869 9.84045517,62.9576621 C9.79990345,63.0025586 9.75886897,63.0479379 9.69273103,63.1015241 C9.6545931,63.1275931 9.62321379,63.161869 9.5170069,63.1942138 C9.47162759,63.2091793 9.36348966,63.217869 9.27224828,63.1691103 C9.25004138,63.1575241 9.22831724,63.1435241 9.20948966,63.1271103 C9.19355862,63.1135931 9.18052414,63.1005586 9.1670069,63.0851103 C9.13755862,63.0503517 9.13128276,63.0329724 9.11631724,63.0059379 C9.07769655,62.9175931 9.07866207,62.8736621 9.07238621,62.8273172 C9.06852414,62.7819379 9.07093793,62.7365586 9.06948966,62.7409034 C9.06948966,62.7486276 9.07093793,62.7578 9.07335172,62.7655241 C9.07624828,62.7751793 9.07431724,62.7718 9.07528276,62.7756621 C9.07673103,62.7800069 9.07962759,62.7833862 9.07576552,62.7780759 C9.07528276,62.773731 9.06562759,62.759731 9.05838621,62.7476621 C9.0188,62.6906966 8.95555862,62.6163517 8.89086897,62.5482828 C8.75811034,62.409731 8.6128,62.2721448 8.47183448,62.139869 C8.18797241,61.8748345 7.91762759,61.6242828 7.69073103,61.4026966 C7.4648,61.1796621 7.27990345,60.9870414 7.15535172,60.8470414 C7.09211034,60.7780069 7.04528276,60.7200759 7.01293793,60.6829034 C6.98107586,60.6428345 6.96369655,60.6225586 6.96369655,60.6225586" id="Fill-42" fill="#F4F5F5"></path>
                            <path d="M6.85266207,69.6502414 C6.91638621,69.6458966 6.97914483,69.6458966 7.04238621,69.643 C7.10514483,69.6401034 7.16790345,69.6463793 7.2325931,69.6521724 C7.29631724,69.6584483 7.36390345,69.6623103 7.42617931,69.6748621 L7.61590345,69.7125172 C7.68011034,69.7241034 7.73997241,69.7453448 7.80273103,69.7627241 C7.8650069,69.781069 7.92776552,69.7994138 7.98714483,69.823069 C8.04748966,69.8462414 8.1088,69.8674828 8.16866207,69.8921034 L8.34486897,69.9722414 C8.40473103,69.9983103 8.45976552,70.0311379 8.51769655,70.0605862 C8.57514483,70.0905172 8.63211034,70.120931 8.68617931,70.1552069 C8.79721379,70.2218276 8.90583448,70.2908621 9.01107586,70.3661724 C9.11583448,70.4414828 9.21914483,70.5192069 9.31811034,70.6036897 C9.36735172,70.6447241 9.4165931,70.6862414 9.46535172,70.7306552 C9.5145931,70.775069 9.55852414,70.8180345 9.61114483,70.8711379 L9.12162759,70.9826552 C9.14093793,70.9334138 9.16217931,70.8841724 9.18438621,70.8368621 C9.20707586,70.789069 9.23652414,70.7543103 9.26404138,70.7123103 C9.29107586,70.6703103 9.32245517,70.638931 9.35383448,70.6061034 C9.38521379,70.5756897 9.41562759,70.539 9.44845517,70.5153448 C9.51362759,70.4612759 9.57831724,70.4052759 9.64686897,70.3661724 C9.71445517,70.3203103 9.7830069,70.2821724 9.85155862,70.2464483 C9.91962759,70.2073448 9.99011034,70.1798276 10.0601103,70.148931 C10.1296276,70.117069 10.2001103,70.0938966 10.2701103,70.0668621 C10.3405931,70.0412759 10.4120414,70.0224483 10.4830069,70.0012069 C10.5534897,69.9785172 10.6249379,69.9621034 10.6963862,69.9456897 C10.7678345,69.9283103 10.8388,69.9118966 10.9112138,69.9007931 C10.9831448,69.8882414 11.0545931,69.8742414 11.1265241,69.8655517 C11.1984552,69.8573448 11.2703862,69.8472069 11.3423172,69.8399655 L11.5590759,69.8240345 C11.6305241,69.8196897 11.7034207,69.8211379 11.7753517,69.8182414 C11.8472828,69.8172759 11.9192138,69.8182414 11.9911448,69.8221034 C12.0635586,69.8254828 12.1350069,69.8274138 12.2069379,69.8351379 C12.278869,69.8428621 12.3503172,69.8491379 12.4217655,69.8597586 C12.3532138,69.8838966 12.2846621,69.9056207 12.2170759,69.9278276 C12.1490069,69.9461724 12.0814207,69.9703103 12.0143172,69.9920345 C11.8796276,70.0335517 11.7463862,70.0794138 11.6136276,70.120931 C11.4813517,70.1653448 11.3500414,70.2083103 11.2211448,70.2561034 C11.1559724,70.2778276 11.0922483,70.302931 11.0280414,70.3275517 C10.9643172,70.3507241 10.9005931,70.3743793 10.8383172,70.4004483 C10.7755586,70.4265172 10.7128,70.4506552 10.6519724,70.4786552 C10.5906621,70.5052069 10.5283862,70.5293448 10.4699724,70.5602414 C10.4110759,70.5896897 10.3492828,70.6147931 10.2937655,70.6466552 C10.2377655,70.6785172 10.178869,70.707 10.1262483,70.7407931 C10.0716966,70.7726552 10.0190759,70.8054828 9.97176552,70.8421724 C9.92011034,70.8759655 9.87907586,70.9131379 9.83562759,70.9483793 C9.81148966,70.9667241 9.79990345,70.987 9.7805931,71.0048621 C9.76321379,71.0241724 9.74438621,71.0420345 9.73473103,71.0603793 C9.72411034,71.0782414 9.70624828,71.0946552 9.6990069,71.1120345 C9.69273103,71.1279655 9.68548966,71.1434138 9.67631724,71.1588621 L9.44314483,71.5431379 L9.1868,71.2694138 C9.15348966,71.2332069 9.10907586,71.1907241 9.06852414,71.1506552 C9.02748966,71.1091379 8.98548966,71.0685862 8.94204138,71.0285172 C8.85562759,70.9493448 8.76824828,70.8696897 8.67845517,70.7924483 C8.63452414,70.7543103 8.58769655,70.7181034 8.5428,70.6785172 C8.49838621,70.6398966 8.45107586,70.6041724 8.40473103,70.5674828 C8.35838621,70.5307931 8.31204138,70.4931379 8.26424828,70.4588621 C8.21645517,70.4236207 8.17011034,70.3864483 8.12135172,70.3526552 C8.02528276,70.2836207 7.92728276,70.2160345 7.82686897,70.1518276 C7.77714483,70.119 7.72597241,70.0876207 7.67431724,70.0572069 C7.62266207,70.0272759 7.57245517,69.9939655 7.51886897,69.9659655 L7.35955862,69.8795517 C7.30645517,69.8501034 7.25238621,69.8293448 7.19735172,69.8003793 C7.14328276,69.7728621 7.08728276,69.7463103 7.02742069,69.7245862 C6.9690069,69.7004483 6.9105931,69.6782414 6.85266207,69.6502414" id="Fill-44" fill="#F4F5F5"></path>
                            <path d="M3.54006897,22.5595517 C3.13455172,24.309069 3.68875862,25.3571379 4.15558621,25.2026552 C4.62193103,25.0476897 5.35041379,24.561069 4.82034483,23.7577586 C4.51331034,22.9636207 3.54006897,22.5595517 3.54006897,22.5595517" id="Fill-46" fill="#221F20"></path>
                            <path d="M3.45046897,26.895931 C4.12681379,27.4269655 4.71577931,27.7185517 5.37233103,27.4129655 C6.02888276,27.1073793 6.34267586,26.6246207 5.36122759,26.4450345 C4.38026207,26.264 3.39253793,26.1635862 3.34088276,26.4537241 C3.28971034,26.7453103 3.45046897,26.895931 3.45046897,26.895931" id="Fill-48" fill="#221F20"></path>
                            <path d="M6.31284138,24.9125655 C6.26070345,25.9765655 6.18201379,26.5201517 6.98291034,26.7673241 C7.7838069,27.013531 8.42587586,26.3787034 8.4673931,26.3144966 C8.5093931,26.2493241 7.81953103,25.4807724 7.29573793,25.2307034 C6.77097931,24.9816 6.31284138,24.9125655 6.31284138,24.9125655" id="Fill-50" fill="#221F20"></path>
                            <path d="M6.93608276,22.6170966 C7.86442759,22.808269 8.04932414,23.3412345 8.69284138,22.752269 C9.33635862,22.1647517 9.7018069,21.5313724 9.31704828,21.4193724 C8.93277241,21.3064069 8.09953103,21.3913724 7.69546207,21.7307517 C7.29187586,22.070131 6.93608276,22.6170966 6.93608276,22.6170966" id="Fill-52" fill="#221F20"></path>
                            <path d="M11.2184897,24.4486345 C10.9235241,25.6758069 11.2001448,26.5882207 11.3628345,26.831531 C11.5250414,27.0743586 12.2409724,27.3109103 12.499731,26.7011862 C12.7589724,26.0914621 12.5132483,25.0622207 12.1352483,24.5871862 C11.7572483,24.1126345 11.2184897,24.4486345 11.2184897,24.4486345" id="Fill-54" fill="#221F20"></path>
                            <path d="M13.6209379,16.844269 C13.7594897,15.794269 13.6542483,14.9320621 14.6569379,15.1908207 C15.6596276,15.4490966 14.3460414,16.270269 14.2586621,16.9292345 C14.1717655,17.5877172 14.3914207,18.4557172 14.9190759,19.2160621 C15.446731,19.9768897 16.4904552,21.2677862 16.5879724,21.6370966 C16.6854897,22.0059241 17.9797655,23.6231655 19.4714897,23.9046138 C20.9632138,24.1865448 25.0140414,27.1323379 26.0297655,31.7919241 C26.5641793,32.9727517 26.3850759,36.8748897 23.2003172,37.6680621 C19.2301103,38.8595103 17.2281103,37.6632345 16.4330069,35.1273034 C15.558731,32.8747517 14.7394897,29.4148207 14.844731,28.1509586 C14.9494897,26.8880621 15.3318345,24.9473724 15.3236276,24.0663379 C15.3139724,23.1857862 15.3236276,22.6422 14.7945241,21.4203379 C14.2654207,20.1975103 13.5050759,18.8197172 13.1068,18.3470966 C12.7085241,17.8754414 11.8569379,17.8257172 11.6985931,17.2806828 C11.5397655,16.7356483 11.8863862,15.8608897 12.3546621,15.9642 C13.1908,16.1379931 13.6209379,16.844269 13.6209379,16.844269" id="Fill-56" fill="#221F20"></path>
                            <path d="M22.7863034,34.6087241 C22.5400966,35.2039655 22.1818897,35.5336897 21.5354759,35.511 C20.8890621,35.4878276 20.4932,34.5981034 20.8224414,34.3267931 C21.1512,34.0564483 22.5729241,33.5326552 22.7863034,34.6087241" id="Fill-58" fill="#F4F5F5"></path>
                            <path d="M24.4797241,30.9993793 C24.4797241,30.9993793 24.4826207,30.9718621 24.4922759,30.9269655 C24.5009655,30.8830345 24.5173793,30.8202759 24.5415172,30.7483448 C24.5897931,30.6054483 24.6752414,30.4277931 24.7814483,30.2631724 C24.8871724,30.0985517 25.0136552,29.9474483 25.1246897,29.8446207 C25.1806897,29.7934483 25.2304138,29.7528966 25.268069,29.7258621 C25.3047586,29.6983448 25.3288966,29.6853103 25.3288966,29.6853103 C25.3288966,29.6853103 25.3264828,29.7123448 25.3168276,29.7572414 C25.3076552,29.8026207 25.2912414,29.8648966 25.2671034,29.9363448 C25.2193103,30.0802069 25.1333793,30.2573793 25.0276552,30.422 C24.9214483,30.5861379 24.7944828,30.7377241 24.6834483,30.8405517 C24.627931,30.8912414 24.5777241,30.9317931 24.5405517,30.9593103 C24.5038621,30.9858621 24.4797241,30.9993793 24.4797241,30.9993793" id="Fill-60" fill="#F4F5F5"></path>
                            <path d="M23.5243448,30.6212828 C23.5243448,30.6212828 23.5330345,30.5836276 23.5533103,30.5194207 C23.5731034,30.4561793 23.6049655,30.366869 23.6474483,30.2630759 C23.7328966,30.0540414 23.868069,29.7899724 24.0235172,29.5389379 C24.1794483,29.2864552 24.3561379,29.0479724 24.5048276,28.8794897 C24.5791724,28.7945241 24.6453103,28.7264552 24.6935862,28.6801103 C24.7413793,28.6337655 24.7717931,28.6096276 24.7717931,28.6096276 C24.7717931,28.6096276 24.7631034,28.6477655 24.7428276,28.7110069 C24.7230345,28.774731 24.6916552,28.8635586 24.6491724,28.9678345 C24.5637241,29.176869 24.4285517,29.4414207 24.2726207,29.6924552 C24.1166897,29.9439724 23.9395172,30.1829379 23.7908276,30.3514207 C23.7164828,30.4359034 23.6508276,30.5044552 23.6025517,30.5508 C23.5542759,30.5971448 23.5243448,30.6212828 23.5243448,30.6212828" id="Fill-62" fill="#F4F5F5"></path>
                            <path d="M22.3921793,30.4713379 C22.3921793,30.4713379 22.4052138,30.4182345 22.4336966,30.3260276 C22.4616966,30.235269 22.5036966,30.1044414 22.5616276,29.9518897 C22.6176276,29.7988552 22.6900414,29.6240966 22.7706621,29.4382345 C22.8522483,29.2533379 22.9449379,29.0568552 23.0419724,28.8652 C23.1399724,28.6720966 23.2423172,28.4818897 23.3432138,28.3061655 C23.4455586,28.1309241 23.5435586,27.9687172 23.6343172,27.8330621 C23.7226621,27.6969241 23.8028,27.5858897 23.8602483,27.509131 C23.9172138,27.4328552 23.9529379,27.3903724 23.9529379,27.3903724 C23.9529379,27.3903724 23.9399034,27.4439586 23.9119034,27.5356828 C23.8839034,27.6269241 23.8419034,27.757269 23.7839724,27.9093379 C23.7284552,28.0628552 23.6555586,28.2376138 23.5749379,28.4234759 C23.4933517,28.6098207 23.4006621,28.8048552 23.3031448,28.9965103 C23.2051448,29.189131 23.1028,29.3788552 23.0014207,29.5555448 C22.8995586,29.7303034 22.8010759,29.8920276 22.7108,30.0276828 C22.6224552,30.1643034 22.5423172,30.2753379 22.4853517,30.3520966 C22.4279034,30.4288552 22.3921793,30.4713379 22.3921793,30.4713379" id="Fill-64" fill="#F4F5F5"></path>
                            <path d="M21.0831793,30.5491103 C21.0831793,30.5491103 21.1044207,30.4791103 21.1469034,30.359869 C21.189869,30.2406276 21.2526276,30.0721448 21.3351793,29.8727655 C21.375731,29.7723517 21.4201448,29.6642138 21.4703517,29.5512483 C21.5205586,29.4382828 21.5712483,29.3180759 21.6291793,29.1969034 C21.6871103,29.0752483 21.7435931,28.9487655 21.8063517,28.8218 C21.8691103,28.6962828 21.9333172,28.5673862 21.9970414,28.4389724 C22.0636621,28.3115241 22.1298,28.1845586 22.1959379,28.0590414 C22.2611103,27.9340069 22.3311103,27.8138 22.3962828,27.6964897 C22.5275931,27.4613862 22.6555241,27.2446276 22.7704207,27.0616621 C22.883869,26.8782138 22.9842828,26.7285586 23.0562138,26.6233172 C23.1276621,26.5195241 23.1715931,26.4611103 23.1715931,26.4611103 C23.1715931,26.4611103 23.1503517,26.5315931 23.107869,26.6503517 C23.0649034,26.7695931 23.0026276,26.9385586 22.9200759,27.1379379 C22.8389724,27.3392483 22.7390414,27.5695241 22.6255931,27.8133172 C22.5681448,27.9344897 22.5116621,28.0629034 22.4489034,28.1889034 C22.3856621,28.3149034 22.3214552,28.4433172 22.257731,28.5712483 C22.1911103,28.6986966 22.1244897,28.8256621 22.0588345,28.9511793 C21.9931793,29.0762138 21.9231793,29.1969034 21.8584897,29.313731 C21.7942828,29.4324897 21.7266966,29.5435241 21.6644207,29.6506966 C21.6026276,29.7569034 21.5413172,29.8568345 21.483869,29.9480759 C21.3709034,30.1324897 21.2704897,30.2821448 21.1985586,30.3864207 C21.1271103,30.4911793 21.0831793,30.5491103 21.0831793,30.5491103" id="Fill-66" fill="#F4F5F5"></path>
                            <path d="M19.8524828,30.8263586 C19.8524828,30.8263586 19.9606207,30.4787724 20.1575862,29.9738069 C20.2063448,29.8473241 20.2594483,29.7102207 20.3193103,29.5678069 C20.3782069,29.4244276 20.4390345,29.2723586 20.5071034,29.1183586 C20.5756552,28.9629103 20.6417931,28.801669 20.7161379,28.6404276 C20.7895172,28.4791862 20.8643448,28.3145655 20.9386897,28.1509103 C21.0164138,27.9882207 21.0941379,27.8250483 21.1708966,27.6652552 C21.2457241,27.5049793 21.3273103,27.349531 21.4021379,27.1984276 C21.5542069,26.8967034 21.701931,26.6167034 21.8332414,26.3806345 C22.0934483,25.9051172 22.2904138,25.5990483 22.2904138,25.5990483 C22.2904138,25.5990483 22.1827586,25.9466345 21.9857931,26.4511172 C21.8887586,26.7050483 21.7695172,26.9966345 21.6357931,27.3080138 C21.5682069,27.4620138 21.502069,27.6242207 21.4272414,27.7849793 C21.3533793,27.9462207 21.2790345,28.1098759 21.2042069,28.2744966 C21.1264828,28.4367034 21.0487586,28.5998759 20.972,28.7606345 C20.8966897,28.9199448 20.8155862,29.0749103 20.7402759,29.2269793 C20.665931,29.3780828 20.5886897,29.5229103 20.5167586,29.659531 C20.4457931,29.7971172 20.3748276,29.9260138 20.3091724,30.0442897 C20.0494483,30.5193241 19.8524828,30.8263586 19.8524828,30.8263586" id="Fill-68" fill="#F4F5F5"></path>
                            <path d="M18.3094414,31.8785793 C18.3094414,31.8785793 18.4571655,31.4209241 18.7144759,30.7508552 C18.7786828,30.5833379 18.8477172,30.4003724 18.9249586,30.211131 C19.0012345,30.0199586 19.0799241,29.8181655 19.1673034,29.6115448 C19.2542,29.4063724 19.3396483,29.1900966 19.434269,28.9743034 C19.5274414,28.7585103 19.6220621,28.5393379 19.7171655,28.3201655 C19.8146828,28.1019586 19.9126828,27.8837517 20.0087517,27.6689241 C20.1038552,27.4536138 20.2052345,27.2455448 20.2988897,27.0423034 C20.4886138,26.6363034 20.6720621,26.2597517 20.8337862,25.9387172 C21.1543379,25.2966483 21.3923379,24.8800276 21.3923379,24.8800276 C21.3923379,24.8800276 21.2446138,25.3367172 20.9873034,26.0067862 C20.8603379,26.3427862 20.7058552,26.7318897 20.5344759,27.1456138 C20.4475793,27.3527172 20.362131,27.5675448 20.2675103,27.7833379 C20.1743379,27.999131 20.0797172,28.2183034 19.9846138,28.4374759 C19.8870966,28.6556828 19.7886138,28.8738897 19.6925448,29.0887172 C19.5969586,29.3035448 19.4960621,29.5120966 19.4024069,29.7158207 C19.3087517,29.9190621 19.2136483,30.1145793 19.1238552,30.2994759 C19.0355103,30.4843724 18.948131,30.6581655 18.8679931,30.8184414 C18.5469586,31.4605103 18.3094414,31.8785793 18.3094414,31.8785793" id="Fill-70" fill="#F4F5F5"></path>
                            <path d="M16.2301517,34.5799517 C16.2301517,34.5799517 16.4440138,33.9243655 16.8007724,32.9545034 C16.8900828,32.7116759 16.9861517,32.4495379 17.0918759,32.1738828 C17.1966345,31.8962966 17.3062207,31.6047103 17.4244966,31.3039517 C17.5422897,31.0041586 17.6600828,30.6918138 17.787531,30.3785034 C17.913531,30.0632621 18.0419448,29.7441586 18.1698759,29.4245724 C18.3011862,29.1069172 18.4324966,28.7887793 18.5618759,28.475469 C18.6893241,28.1621586 18.8230483,27.8570552 18.9480828,27.5587103 C19.2010483,26.9663655 19.4424276,26.4136069 19.6543586,25.9424345 C20.0758069,25.0005724 20.3813931,24.3816759 20.3813931,24.3816759 C20.3813931,24.3816759 20.167531,25.0372621 19.8102897,26.0056759 C19.6331172,26.491331 19.4207034,27.0547103 19.1870483,27.6567103 C19.0687724,27.9565034 18.9509793,28.2683655 18.823531,28.5821586 C18.697531,28.8974 18.5691172,29.2169862 18.4411862,29.5356069 C18.3098759,29.8537448 18.1785655,30.1714 18.0491862,30.4847103 C17.9207724,30.7980207 17.7880138,31.1040897 17.6624966,31.401469 C17.5374621,31.6988483 17.4114621,31.9836759 17.293669,32.2549862 C17.1763586,32.5262966 17.0619448,32.7811931 16.9557379,33.0172621 C16.5347724,33.9605724 16.2301517,34.5799517 16.2301517,34.5799517" id="Fill-72" fill="#F4F5F5"></path>
                            <path d="M15.7601379,33.1260276 C15.7601379,33.1260276 15.9522759,32.5327172 16.2762069,31.6569931 C16.3568276,31.4368552 16.4442069,31.2007862 16.5407586,30.9507172 C16.6358621,30.7006483 16.7357931,30.4365793 16.8434483,30.1647862 C16.9511034,29.8949241 17.0587586,29.6125103 17.1751034,29.3300966 C17.29,29.0462345 17.4073103,28.7570621 17.5246207,28.4693379 C17.6448276,28.1820966 17.7650345,27.8953379 17.8833103,27.6124414 C18.0006207,27.3300276 18.1237241,27.0548552 18.2381379,26.7869241 C18.4698621,26.2510621 18.6924138,25.7538207 18.887931,25.3294759 C19.2765517,24.4803034 19.5594483,23.9236828 19.5594483,23.9236828 C19.5594483,23.9236828 19.3673103,24.5179586 19.0433793,25.3932 C18.8831034,25.8325103 18.6895172,26.3408552 18.4761379,26.8844414 C18.3684828,27.1557517 18.2617931,27.4372 18.1444828,27.7210621 C18.0295862,28.0049241 17.9122759,28.2921655 17.7949655,28.5813379 C17.6747586,28.8680966 17.5545517,29.1548552 17.4362759,29.4367862 C17.3184828,29.7196828 17.1958621,29.9958207 17.0809655,30.263269 C16.9665517,30.5326483 16.8506897,30.7889931 16.742069,31.0337517 C16.6344138,31.2789931 16.5286897,31.5078207 16.4311724,31.7202345 C16.0430345,32.5703724 15.7601379,33.1260276 15.7601379,33.1260276" id="Fill-74" fill="#F4F5F5"></path>
                            <path d="M15.2726483,31.2718483 C15.2726483,31.2718483 15.4420966,30.7750897 15.7307862,30.0456414 C15.8027172,29.8631586 15.8809241,29.6657103 15.9668552,29.4581241 C16.0523034,29.2495724 16.1406483,29.0299172 16.2381655,28.8049517 C16.3347172,28.5795034 16.4307862,28.3453655 16.5355448,28.1097793 C16.6393379,27.8741931 16.7445793,27.6352276 16.8503034,27.3967448 C16.9584414,27.1582621 17.0670621,26.9202621 17.1737517,26.6866069 C17.2789931,26.4515034 17.3905103,26.2231586 17.4943034,26.0015724 C17.7038207,25.5584 17.9056138,25.1475724 18.0827862,24.7980552 C18.4356828,24.0966069 18.6939586,23.6389517 18.6939586,23.6389517 C18.6939586,23.6389517 18.5254759,24.1361931 18.2367862,24.8661241 C18.0934069,25.2320552 17.9205793,25.6564 17.7294069,26.1072966 C17.6323724,26.3327448 17.5363034,26.5668828 17.4315448,26.8015034 C17.3277517,27.0370897 17.2225103,27.2760552 17.1167862,27.5155034 C17.0081655,27.7535034 16.9000276,27.9919862 16.7933379,28.2251586 C16.6876138,28.4607448 16.5760966,28.6881241 16.4727862,28.9092276 C16.3689931,29.1312966 16.2642345,29.3446759 16.1657517,29.5469517 C16.0677517,29.7492276 15.9721655,29.9389517 15.8838207,30.1146759 C15.5309241,30.8161241 15.2726483,31.2718483 15.2726483,31.2718483" id="Fill-76" fill="#F4F5F5"></path>
                            <path d="M14.9292138,29.4817793 C14.9292138,29.4817793 15.0605241,29.0675724 15.2922483,28.4617103 C15.3496966,28.3101241 15.4124552,28.146469 15.4824552,27.9741241 C15.5514897,27.8017793 15.6229379,27.6192966 15.7021103,27.4329517 C15.7808,27.2466069 15.8585241,27.0530207 15.9444552,26.8575034 C16.0294207,26.6629517 16.1158345,26.4655034 16.2022483,26.2680552 C16.2915586,26.0715724 16.380869,25.8746069 16.4692138,25.6810207 C16.5561103,25.4879172 16.6488,25.2996414 16.734731,25.1157103 C16.9090069,24.7512276 17.0770069,24.4118483 17.2261793,24.1241241 C17.5216276,23.5467448 17.7422483,23.1726069 17.7422483,23.1726069 C17.7422483,23.1726069 17.6119034,23.5868138 17.3796966,24.1926759 C17.2648,24.496331 17.1252828,24.8477793 16.9698345,25.2209517 C16.8911448,25.4077793 16.8139034,25.602331 16.7274897,25.7959172 C16.6420414,25.9909517 16.5561103,26.1888828 16.4692138,26.3872966 C16.3799034,26.5837793 16.2905931,26.7797793 16.2022483,26.9728828 C16.1153517,27.1674345 16.0226621,27.3547448 15.936731,27.5377103 C15.8512828,27.7211586 15.7634207,27.8964 15.6813517,28.0629517 C15.6002483,28.2295034 15.5196276,28.3859172 15.4452828,28.5297793 C15.1498345,29.1071586 14.9292138,29.4817793 14.9292138,29.4817793" id="Fill-78" fill="#F4F5F5"></path>
                            <path d="M15.1290759,25.9473586 C15.1290759,25.9473586 15.1479034,25.8846 15.1860414,25.7779103 C15.2236966,25.6717034 15.2801793,25.5201172 15.3545241,25.3419793 C15.3916966,25.2531517 15.4312828,25.1561172 15.4776276,25.0557034 C15.5225241,24.9552897 15.568869,24.8490828 15.6219724,24.7404621 C15.6745931,24.6328069 15.7257655,24.5193586 15.7832138,24.4078414 C15.8411448,24.2953586 15.8995586,24.1809448 15.9579724,24.0674966 C16.0188,23.9540483 16.0786621,23.8410828 16.1409379,23.7319793 C16.2008,23.6209448 16.2654897,23.5147379 16.3253517,23.4099793 C16.4465241,23.2023931 16.5652828,23.0117034 16.6719724,22.8509448 C16.7772138,22.6887379 16.8703862,22.5574276 16.9374897,22.466669 C17.0045931,22.3749448 17.0456276,22.3237724 17.0456276,22.3237724 C17.0456276,22.3237724 17.0272828,22.3860483 16.9891448,22.4937034 C16.9510069,22.5999103 16.8950069,22.7519793 16.8206621,22.9291517 C16.7472828,23.1082552 16.6565241,23.3134276 16.5532138,23.530669 C16.5005931,23.6392897 16.4494207,23.7517724 16.3919724,23.8647379 C16.3359724,23.9772207 16.2756276,24.0901862 16.216731,24.2046 C16.1554207,24.3170828 16.0941103,24.4295655 16.0342483,24.5406 C15.9739034,24.650669 15.908731,24.7573586 15.848869,24.860669 C15.7899724,24.9654276 15.7276966,25.0639103 15.6702483,25.1580483 C15.6128,25.252669 15.5553517,25.3390828 15.502731,25.4201862 C15.3974897,25.5823931 15.3038345,25.7137034 15.2372138,25.8054276 C15.1701103,25.8971517 15.1290759,25.9473586 15.1290759,25.9473586" id="Fill-80" fill="#F4F5F5"></path>
                            <path d="M16.0326069,22.3177379 C15.928331,22.5571862 15.8216414,22.7951862 15.7139862,23.0327034 L15.3857103,23.7442897 L15.3514345,23.6429103 C15.7390897,23.8147724 16.1272276,23.985669 16.512469,24.1628414 C16.8991586,24.3376 17.2834345,24.5171862 17.6677103,24.6962897 C18.0529517,24.8734621 18.434331,25.0583586 18.8171586,25.2408414 C19.200469,25.4223586 19.5813655,25.6087034 19.9617793,25.795531 C20.3431586,25.9804276 20.7226069,26.169669 21.1015724,26.3598759 L21.6697793,26.6466345 L22.2355724,26.9358069 C22.6126069,27.1298759 22.9886759,27.3268414 23.3628138,27.5262207 C23.7374345,27.7265655 24.1101241,27.9288414 24.4804,28.1373931 C24.0869517,27.9780828 23.6964,27.8110483 23.3072966,27.6420828 C22.9181931,27.4721517 22.5305379,27.2998069 22.144331,27.125531 L21.5650207,26.8614621 L20.9881241,26.5940138 C20.6033655,26.4158759 20.2195724,26.2362897 19.8372276,26.0528414 C19.4548828,25.8698759 19.0720552,25.6873931 18.6916414,25.5005655 C18.3112276,25.3132552 17.9293655,25.1293241 17.5508828,24.9371862 C17.1714345,24.7479448 16.792469,24.5587034 16.4154345,24.3631862 C16.0374345,24.1724966 15.6618483,23.975531 15.2862621,23.7780828 L15.2157793,23.7413931 L15.252469,23.6757379 L15.6377103,22.9940828 C15.7675724,22.7686345 15.8988828,22.5422207 16.0326069,22.3177379" id="Fill-82" fill="#F4F5F5"></path>
                            <path d="M15.1946345,22.5751448 C15.1946345,22.5751448 15.7073241,22.7663172 16.4584966,23.086869 C16.6467724,23.1670069 16.8504966,23.2529379 17.0643586,23.3485241 C17.2782207,23.4431448 17.5046345,23.5411448 17.7363586,23.6483172 C17.9685655,23.7554897 18.2099448,23.8612138 18.4518069,23.9770759 C18.6941517,24.0910069 18.9403586,24.206869 19.1870483,24.3232138 C19.4313241,24.4419724 19.6765655,24.5602483 19.9174621,24.6770759 C20.1593241,24.7939034 20.3934621,24.9155586 20.6218069,25.0290069 C21.0780138,25.2588 21.5009103,25.4779724 21.8610483,25.6710759 C22.5827724,26.0553517 23.0524966,26.334869 23.0524966,26.334869 C23.0524966,26.334869 22.5402897,26.1446621 21.7886345,25.8236276 C21.4120828,25.6633517 20.975669,25.4721793 20.5107724,25.260731 C20.2785655,25.1545241 20.0371862,25.0478345 19.7958069,24.9329379 C19.5529793,24.8185241 19.3067724,24.7031448 19.0605655,24.5868 C18.8158069,24.4670759 18.5710483,24.3492828 18.329669,24.2314897 C18.0882897,24.1146621 17.8541517,23.9934897 17.6258069,23.8805241 C17.3969793,23.7670759 17.1782897,23.6516966 16.9702207,23.5450069 C16.761669,23.4383172 16.5666345,23.3335586 16.3865655,23.2374897 C15.6648414,22.8536966 15.1946345,22.5751448 15.1946345,22.5751448" id="Fill-84" fill="#F4F5F5"></path>
                            <path d="M15.2464828,25.0619793 C15.2464828,25.0619793 15.9122069,25.3395655 16.8936552,25.7914276 C17.1393793,25.9039103 17.4053793,26.0250828 17.6848966,26.1583241 C17.9644138,26.2901172 18.2603448,26.4272207 18.564,26.5759103 C18.8671724,26.722669 19.1828966,26.8703931 19.500069,27.0287379 C19.8177241,27.1851517 20.1406897,27.3449448 20.4631724,27.5042552 C20.7846897,27.6664621 21.1057241,27.828669 21.421931,27.9884621 C21.7386207,28.1468069 22.0466207,28.3104621 22.3468966,28.4639793 C22.946,28.7743931 23.5021379,29.0703241 23.9766897,29.3281172 C24.9272414,29.8422552 25.5490345,30.2077034 25.5490345,30.2077034 C25.5490345,30.2077034 24.8828276,29.9301172 23.9018621,29.4782552 C23.4104138,29.2552207 22.8397931,28.9877724 22.2315172,28.6942552 C21.9278621,28.5474966 21.6126207,28.3988069 21.2954483,28.2414276 C20.9777931,28.0850138 20.6553103,27.9247379 20.3323448,27.7659103 C20.0113103,27.6037034 19.6902759,27.4410138 19.374069,27.2812207 C19.0573793,27.1223931 18.7488966,26.9592207 18.4491034,26.8052207 C18.1488276,26.6521862 17.8611034,26.4977034 17.5873793,26.3528759 C17.3136552,26.208531 17.0563448,26.0694966 16.8188276,25.9401172 C15.8687586,25.4274276 15.2464828,25.0619793 15.2464828,25.0619793" id="Fill-86" fill="#F4F5F5"></path>
                            <path d="M15.0934966,26.2156276 C15.0934966,26.2156276 15.7104621,26.4555586 16.6194966,26.8504552 C16.8468759,26.9494207 17.0935655,27.0565931 17.3523241,27.1729379 C17.6110828,27.2888 17.8852897,27.4094897 18.1662552,27.5393517 C18.4472207,27.6692138 18.7392897,27.7995586 19.0332897,27.9395586 C19.3272897,28.0781103 19.6256345,28.2190759 19.9244621,28.3590759 C20.2218414,28.5029379 20.5187379,28.6468 20.8117724,28.788731 C21.1048069,28.9282483 21.3896345,29.0745241 21.6677034,29.2111448 C22.2223931,29.4863172 22.7370138,29.7499034 23.1753586,29.9806621 C24.0544621,30.4388 24.6294276,30.7685241 24.6294276,30.7685241 C24.6294276,30.7685241 24.0119793,30.5290759 23.1029448,30.1322483 C22.6477034,29.9362483 22.1200483,29.7011448 21.556669,29.4438345 C21.2757034,29.3139724 20.9831517,29.1836276 20.6896345,29.0441103 C20.3956345,28.9050759 20.0968069,28.7645931 19.7984621,28.6236276 C19.5010828,28.4792828 19.2037034,28.3363862 18.9111517,28.1944552 C18.6181172,28.0544552 18.3328069,27.9086621 18.0552207,27.7720414 C17.7776345,27.6349379 17.5111517,27.4978345 17.2581862,27.3694207 C17.0047379,27.2419724 16.7667379,27.1169379 16.5475655,27.0015586 C15.6684621,26.5439034 15.0934966,26.2156276 15.0934966,26.2156276" id="Fill-88" fill="#F4F5F5"></path>
                            <path d="M14.8938276,27.7209172 C14.8938276,27.7209172 15.3239655,27.8401586 15.954931,28.0545034 C16.1127931,28.1085724 16.2836897,28.1655379 16.4632759,28.2302276 C16.6428621,28.2939517 16.833069,28.3600897 17.0271379,28.4339517 C17.2221724,28.5078138 17.424931,28.5792621 17.6276897,28.6594 C17.830931,28.7390552 18.0375517,28.8196759 18.2446552,28.9007793 C18.4498276,28.9838138 18.6554828,29.067331 18.8572759,29.1498828 C19.0600345,29.231469 19.2565172,29.3198138 19.4486552,29.399469 C19.831,29.5631241 20.1853448,29.7219517 20.4875517,29.8629172 C21.092931,30.141469 21.4863793,30.351469 21.4863793,30.351469 C21.4863793,30.351469 21.0562414,30.2327103 20.4252759,30.0183655 C20.109069,29.9131241 19.7426552,29.7827793 19.3525862,29.6394 C19.1580345,29.5650552 18.9557586,29.4936069 18.7525172,29.4129862 C18.5492759,29.3338138 18.3426552,29.2536759 18.1360345,29.1725724 C17.9308621,29.0885724 17.7252069,29.0045724 17.522931,28.9220207 C17.3201724,28.8409172 17.1236897,28.7535379 16.9325172,28.6738828 C16.7403793,28.5922966 16.556931,28.5097448 16.3821724,28.4329862 C16.2078966,28.3557448 16.0442414,28.2799517 15.8926552,28.2104345 C15.2877586,27.9318828 14.8938276,27.7209172 14.8938276,27.7209172" id="Fill-90" fill="#F4F5F5"></path>
                            <path d="M14.8808897,29.1050828 C14.8808897,29.1050828 15.1884069,29.1707379 15.6354414,29.3054276 C15.7474414,29.3377724 15.8686138,29.3749448 15.9955793,29.4164621 C16.1225448,29.4579793 16.2572345,29.4990138 16.3943379,29.5492207 C16.5314414,29.5974966 16.6748207,29.6433586 16.8177172,29.6979103 C16.9610966,29.750531 17.1064069,29.8046 17.2522,29.8591517 C17.3960621,29.9170828 17.5408897,29.9735655 17.6828207,30.0295655 C17.8257172,30.0846 17.9628207,30.1463931 18.0975103,30.2023931 C18.3654414,30.3163241 18.6130966,30.4278414 18.8240621,30.5301862 C19.2459931,30.7286 19.518269,30.8864621 19.518269,30.8864621 C19.518269,30.8864621 19.2107517,30.8212897 18.7632345,30.6870828 C18.5392345,30.6209448 18.2804759,30.5379103 18.0048207,30.4428069 C17.8672345,30.3940483 17.7238552,30.3481862 17.5814414,30.2936345 C17.4380621,30.2410138 17.2927517,30.1864621 17.1469586,30.1323931 C17.0030966,30.0749448 16.8587517,30.0179793 16.7163379,29.9610138 C16.5739241,29.9059793 16.4368207,29.844669 16.302131,29.7881862 C16.1679241,29.7331517 16.0395103,29.6742552 15.9173724,29.6197034 C15.7952345,29.5661172 15.6808207,29.5115655 15.5755793,29.4608759 C15.1531655,29.2614966 14.8808897,29.1050828 14.8808897,29.1050828" id="Fill-92" fill="#F4F5F5"></path>
                            <path d="M15.0458966,30.1889241 C15.0458966,30.1889241 15.1086552,30.1976138 15.2163103,30.2193379 C15.3234828,30.2405793 15.4760345,30.2743724 15.657069,30.3212 C15.7473448,30.3438897 15.8453448,30.3699586 15.9476897,30.3998897 C16.0500345,30.4303034 16.1586552,30.4602345 16.2692069,30.4964414 C16.3797586,30.5316828 16.4951379,30.5654759 16.6105172,30.6050621 C16.7258966,30.6436828 16.8427241,30.6856828 16.959069,30.7276828 C17.0758966,30.7701655 17.1922414,30.8126483 17.3056897,30.8585103 C17.4196207,30.9009931 17.5301724,30.9487862 17.6378276,30.9922345 C17.8526552,31.0810621 18.051069,31.1703724 18.2195517,31.2509931 C18.3880345,31.331131 18.5261034,31.4040276 18.6231379,31.4561655 C18.7192069,31.5083034 18.7732759,31.5416138 18.7732759,31.5416138 C18.7732759,31.5416138 18.7105172,31.5324414 18.6033448,31.5112 C18.4952069,31.4889931 18.3426552,31.4566483 18.1621034,31.4093379 C17.981069,31.3634759 17.7715517,31.3050621 17.5499655,31.2350621 C17.4394138,31.1983724 17.3235517,31.1645793 17.2086552,31.1245103 C17.0927931,31.0858897 16.9764483,31.0438897 16.8596207,31.0023724 C16.7432759,30.9594069 16.626931,30.9169241 16.5134828,30.8725103 C16.3995517,30.8285793 16.2894828,30.781269 16.1813448,30.7378207 C16.0732069,30.6953379 15.9713448,30.6475448 15.8733448,30.6050621 C15.7753448,30.5625793 15.6841034,30.5186483 15.5996207,30.4790621 C15.4311379,30.3998897 15.2925862,30.3260276 15.1965172,30.2738897 C15.0999655,30.221269 15.0458966,30.1889241 15.0458966,30.1889241" id="Fill-94" fill="#F4F5F5"></path>
                            <path d="M15.2568621,31.3897379 C15.2568621,31.3897379 15.3003103,31.391669 15.3746552,31.4013241 C15.4480345,31.4104966 15.5532759,31.4254621 15.6763793,31.4510483 C15.7999655,31.4747034 15.9418966,31.5104276 16.0925172,31.5514621 C16.2426552,31.5939448 16.401,31.6451172 16.5574138,31.7016 C16.7138276,31.7576 16.8683103,31.8184276 17.0112069,31.8807034 C17.1541034,31.9444276 17.2858966,32.0071862 17.3964483,32.067531 C17.5079655,32.1259448 17.5987241,32.1809793 17.6614828,32.2210483 C17.7242414,32.2611172 17.7594828,32.2867034 17.7594828,32.2867034 C17.7594828,32.2867034 17.7155517,32.2847724 17.6416897,32.2756 C17.5678276,32.2664276 17.463069,32.2514621 17.3399655,32.2263586 C17.2158966,32.2022207 17.0744483,32.1664966 16.9238276,32.1254621 C16.7736897,32.0834621 16.6148621,32.0318069 16.4584483,31.9767724 C16.3025172,31.9198069 16.1480345,31.8584966 16.0051379,31.7957379 C15.8622414,31.731531 15.7304483,31.6692552 15.6198966,31.6089103 C15.5083793,31.5504966 15.4176207,31.4959448 15.3548621,31.4558759 C15.2921034,31.4158069 15.2568621,31.3897379 15.2568621,31.3897379" id="Fill-96" fill="#F4F5F5"></path>
                            <path d="M17.197069,33.3169586 C17.197069,33.3169586 17.1656897,33.3184069 17.1135517,33.3155103 C17.060931,33.3130966 16.987069,33.3063379 16.9006552,33.2923379 C16.7278276,33.266269 16.5067241,33.2064069 16.2938276,33.1238552 C16.080931,33.0413034 15.8776897,32.9365448 15.7314138,32.8399931 C15.6580345,32.7912345 15.5991379,32.7458552 15.559069,32.7130276 C15.5180345,32.6797172 15.4967931,32.6570276 15.4967931,32.6570276 C15.4967931,32.6570276 15.5276897,32.6565448 15.5803103,32.6589586 C15.632931,32.6608897 15.7063103,32.6676483 15.7927241,32.6811655 C15.9655517,32.7072345 16.1871379,32.7675793 16.3995517,32.8506138 C16.6124483,32.9331655 16.8156897,33.0388897 16.9619655,33.1354414 C17.0348621,33.1837172 17.0942414,33.2276483 17.1343103,33.2614414 C17.1753448,33.294269 17.197069,33.3169586 17.197069,33.3169586" id="Fill-98" fill="#F4F5F5"></path>
                            <path id="Fill-100" fill="#F4F5F5"></path>
                            <path d="M51.723531,38.5184897 C51.4454621,37.4989034 51.639531,36.4484207 51.5270483,35.9231793 C51.4145655,35.3969724 52.3105655,34.9644207 52.3105655,34.9644207 C52.3105655,34.9644207 53.1761517,34.8099379 53.4851172,34.6240759 C53.7940828,34.4391793 53.1761517,33.9766966 52.6509103,33.8825586 C52.1251862,33.7903517 51.383669,33.2646276 51.5690483,33.0169724 C51.7544276,32.7702828 52.1150483,32.5849034 52.3984276,32.7089724 C52.6818069,32.8320759 53.1143586,32.6466966 53.2688414,32.491731 C53.4228414,32.337731 53.8558759,32.3068345 54.1653241,32.151869 C54.4738069,31.997869 55.0304276,31.0700069 54.1653241,30.6384207 C53.2997379,30.2049034 52.6818069,29.9895931 52.2492552,30.3294552 C51.8162207,30.6693172 51.383669,31.6889034 51.2291862,31.6575241 C51.0747034,31.6271103 51.0129103,30.9782828 51.2291862,30.2980759 C51.4454621,29.617869 51.4454621,29.4020759 52.0016,29.4020759 C52.5582207,29.4020759 52.7436,29.7110414 53.3306345,29.4020759 C53.917669,29.0926276 54.3811172,27.3006276 53.4851172,27.0225586 C52.5891172,26.7440069 51.6926345,27.6409724 51.4145655,28.0426276 C51.383669,27.269731 50.9491862,27.1775241 51.0891862,26.5900069 C51.2291862,26.0029724 50.8579448,24.395869 49.6529793,24.3031793 C48.5716,23.7779379 48.0149793,24.4262828 47.9531862,25.1682828 C47.211669,25.7862138 46.8100138,27.0225586 47.9531862,27.6409724 C49.1277379,28.1039379 49.7152552,27.8871793 49.9619448,28.3824897 C50.2091172,28.8768345 49.9928414,29.7419379 49.9928414,29.7419379 C49.9928414,29.7419379 49.9619448,29.2475931 49.0350483,28.8459379 C48.1081517,28.4447655 47.7064966,28.5369724 47.3661517,28.8145586 C47.0262897,29.0926276 46.8718069,29.8042138 46.8100138,30.0818 C46.7482207,30.359869 47.0880828,31.0091793 47.7991862,30.9469034 C48.5098069,30.8851103 49.0659448,30.9469034 49.3749103,31.5653172 C49.6838759,32.1832483 49.6220828,32.5231103 49.6220828,32.5231103 C49.6220828,32.5231103 49.5602897,32.4560069 48.9423586,32.1185586 C48.3244276,31.7820759 47.4897379,31.6531793 47.397531,32.1185586 C47.3048414,32.5849034 47.3357379,32.7702828 48.0463586,33.3269034 C48.7569793,33.8825586 48.5407034,34.2224207 49.2204276,34.3160759 C49.9006345,34.4087655 49.6220828,34.7486276 49.9619448,35.0262138 C50.3022897,35.3047655 50.5721517,35.3361448 50.715531,37.4371103 C50.7442646,37.8610029 50.7614035,38.2232868 50.7704568,38.531567 C50.7704568,38.5 51.723531,38.531567 51.723531,38.5184897 Z" id="Fill-203" fill="#221F20"></path>
                            <path d="M27.8866,63.508731 C27.8866,63.508731 28.2057034,62.7329379 28.4886,62.2101103 C28.7714966,61.6868 28.6903931,61.7809379 28.8641862,61.1538345 C29.0384621,60.5281793 29.0524621,59.8528 29.0548759,59.5221103 C29.0568069,59.1904552 29.2668069,58.6541103 29.1060483,57.9077655 C28.9448069,57.162869 28.9095655,57.5094897 28.9095655,57.5094897 C28.9095655,57.5094897 28.7010138,57.7981793 28.6237724,57.9265931 C28.5474966,58.0550069 28.5499103,58.4219034 28.3997724,59.1378345 C28.2501172,59.8561793 28.4108759,60.2592828 28.2375655,61.0630759 C28.0637724,61.8663862 28.0232207,62.2617655 27.8035655,63.5912828 L27.8866,63.508731 Z M27.4352207,65.2205931 C27.0697724,65.7738345 27.0929448,65.9452138 26.7130138,66.0436966 C26.3326,66.1426621 25.9188759,66.3410759 25.9188759,66.3410759 C25.9188759,66.3410759 25.6350138,66.1122483 25.6050828,66.0060414 C25.574669,65.8998345 25.8566,65.6570069 25.858531,65.4359034 C25.8594966,65.2157655 26.1163241,64.6760414 26.2389448,63.5574897 C26.3620483,62.4374897 26.3099103,62.286869 26.4759793,61.8866621 C26.6410828,61.4859724 26.7574276,60.9505931 26.7781862,60.4113517 C26.7994276,59.8735586 26.4890138,60.0256276 26.1747379,59.1083862 C25.8604621,58.1892138 25.6055655,58.0516276 25.4269448,57.5568 C25.2492897,57.0610069 25.0349448,56.7592828 24.5266,56.4981103 C23.6499103,56.2784552 23.0411517,55.4249379 23.0411517,55.4249379 L23.5914966,55.0705931 C23.5914966,55.0705931 24.0776345,55.346731 24.3726,55.6016276 C24.6670828,55.8555586 24.9374276,56.3629379 25.1054276,56.4705931 C25.2739103,56.5768 25.4448069,56.7071448 25.4303241,56.4266621 C25.4153586,56.1432828 25.0083931,55.5856966 24.9408069,55.5239034 C24.8732207,55.4616276 24.1128759,54.9986621 24.1128759,54.9986621 L24.3663241,54.6925931 L24.9475655,54.7080414 C24.9475655,54.7080414 25.1261862,54.978869 25.2256345,55.188869 C25.3255655,55.4008 25.4322552,55.8348 25.5437724,55.9617655 C25.6557724,56.0877655 25.3950828,54.6110069 25.3950828,54.6110069 L26.1032897,54.8683172 L26.8259793,56.0935586 L26.670531,54.9561793 L26.8563931,54.9315586 L26.9906,55.9163862 C26.9906,55.9163862 27.1373586,56.8191448 27.258531,57.0972138 C27.3792207,57.3762483 27.5559103,57.4583172 27.7152207,57.1532138 C27.8740483,56.8471448 28.224531,55.8661793 28.224531,55.8661793 L28.5455655,56.1413517 C28.5455655,56.1413517 28.1801172,56.6641793 28.0381862,57.0972138 C27.8967379,57.5297655 27.7161862,57.7668 27.884669,57.7909379 C28.0536345,57.8150759 28.3119103,57.5437655 28.4688069,57.3096276 C28.6257034,57.0754897 28.9588069,56.3098345 28.9588069,56.3098345 L29.1171517,56.6076966 L29.0206,56.6796276 L29.7336345,56.1920414 C29.7336345,56.1920414 30.436531,55.5412828 30.5292207,55.4452138 C30.6228759,55.3505931 31.1654966,55.8661793 31.1654966,55.8661793 C31.1654966,55.8661793 31.0684621,56.4469379 31.0172897,56.9379034 C30.9661172,57.4293517 30.8840483,57.8657655 30.8748759,57.9734207 C30.8661862,58.0810759 31.0694276,58.1003862 31.202669,57.6924552 C31.3359103,57.2840414 31.4773586,56.8514897 31.5454276,56.6525931 C31.612531,56.4551448 32.0967379,56.0225931 32.1768759,55.9173517 C32.2570138,55.8121103 33.0149448,54.1842483 33.0149448,54.1842483 L33.5324621,54.5984552 C33.5324621,54.5984552 32.9560483,55.3254897 32.8392207,55.9216966 C32.7552207,56.3460414 32.3719103,56.8234897 32.0952897,57.1329379 C31.818669,57.442869 31.6424621,57.5379724 31.3856345,58.4238345 C31.1148069,59.0393517 31.0786,59.2918345 31.0786,59.2918345 C31.0786,59.2918345 30.9453586,59.4400414 30.7744621,60.0898345 C30.6030828,60.7396276 30.4263931,60.9998345 30.3583241,61.5405241 C30.2902552,62.0812138 30.1323931,63.000869 29.7794966,63.8761103 C29.4266,64.750869 29.4695655,64.7223862 29.298669,65.1110069 C29.1272897,65.5005931 28.9959793,65.9210759 28.9959793,65.9210759 C28.9959793,65.9210759 29.1398414,66.1962483 28.6594966,65.9674207 C28.1791517,65.7366621 27.6022552,65.4021103 27.6022552,65.4021103 L27.4352207,65.2205931 Z" id="Fill-205" fill="#201C1E"></path>
                            <path d="M24.7826069,54.6866069 C24.4639862,55.1408828 24.5016414,55.6975034 24.0888828,55.7390207 C23.6761241,55.7795724 22.5252276,57.0159172 22.0019172,56.4337103 C21.4776414,55.8519862 21.1073655,56.2068138 21.1913655,54.4027448 C21.0320552,53.238331 21.6470897,52.9110207 21.9729517,52.790331 C21.7856414,52.1627448 21.9816414,51.1788828 22.6859862,50.5812276 C23.3912966,49.9826069 23.9802621,50.1153655 23.9802621,50.1153655 C24.2887448,49.5867448 25.4599172,49.244469 25.8408138,49.7088828 C26.4669517,49.8368138 27.2369517,49.7161241 27.4401931,49.9917793 C27.642469,50.2684 28.3468138,49.9439862 28.9666759,49.4641241 C29.5860552,48.9847448 29.9949517,49.7504 30.2078483,50.1004 C30.6539172,49.370469 32.3971586,49.2237103 33.0290897,50.6879172 C33.5635034,51.0707448 34.0771586,50.9302621 34.2837793,51.6056414 C35.1459862,52.2525379 35.4979172,53.3435724 35.1537103,54.1661931 C34.8090207,54.988331 34.8080552,55.5357793 34.3711586,55.8684 C33.9347448,56.2015034 33.3805379,56.1411586 33.5581931,55.5835724 C33.736331,55.0284 34.0192276,54.5944 33.4201241,54.4795034 C32.8205379,54.3631586 32.8572276,54.7228138 32.9185379,55.0786069 C32.9793655,55.4353655 33.2550207,56.6137793 32.5337793,57.000469 C31.8125379,57.3890897 31.0801931,57.4122621 31.100469,56.7262621 C30.9295724,57.7979862 29.6391586,58.6881931 28.6871586,57.602469 C27.7351586,56.5172276 27.6086759,57.4465379 27.4213655,57.6536414 C27.2335724,57.8617103 25.980331,57.0448828 27.3127448,56.1189517 C27.7747448,55.6907448 27.6526069,55.3586069 27.0877793,55.7694345 C26.7078483,56.6118483 25.8948828,56.3279862 25.9156414,55.3672966 C25.0655034,56.0151586 25.2315724,54.3510897 24.7826069,54.6866069" id="Fill-207" fill="#201C1E"></path>
                            <g id="Group-211" transform="translate(0.000000, 6.870621)" fill="#201C1E">
                                <path d="M7.50134483,10.4874966 C6.76658621,11.0417034 6.72072414,11.3274966 6.12451724,11.2135655 C5.52734483,11.0991517 5.04893103,10.864531 5.02334483,10.6497034 C4.99727586,10.4353586 5.18265517,9.6948069 5.14837931,8.40728966 C5.11458621,7.11977241 4.96444828,7.67542759 5.07837931,7.0068069 C5.19182759,6.33915172 5.31010345,6.2426 5.14017241,5.86218621 C4.97072414,5.48225517 4.78437931,6.00894483 3.89996552,5.7526 C3.01555172,5.49722069 2.0847931,5.33791034 1.26893103,4.77211724 C0.454517241,4.2068069 0.287965517,4.30335862 0.186586207,3.63666897 C0.087137931,2.96997931 -0.36762069,2.78266897 0.654862069,2.51232414 C1.67831034,2.24197931 1.43693103,1.95811724 2.60134483,1.42418621 C3.76624138,0.890255172 5.42789655,0.0188758621 6.741,0.270393103 C8.05458621,0.521427586 8.8492069,1.42177241 9.877,1.86735862 C10.9057586,2.31149655 11.6424483,1.92432414 12.3352069,2.13287586 C13.0284483,2.3423931 13.5121724,3.22101379 12.9425172,3.51211724 C12.3728621,3.80225517 11.992931,4.06777241 11.992931,4.06777241 C11.992931,4.06777241 12.1377586,4.32797931 11.4256897,4.73977241 C10.7141034,5.15011724 9.41065517,6.16197931 7.54672414,5.60487586 C7.54575862,8.56177241 7.41251724,8.22384138 7.41782759,8.98611724 C7.42458621,9.74887586 7.50134483,10.4874966 7.50134483,10.4874966" id="Fill-209"></path>
                            </g>
                            <path d="M2.0007931,10.2190828 C2.0007931,10.2190828 2.06306897,10.2268069 2.14368966,10.258669 C2.18568966,10.2707379 2.23010345,10.2852207 2.27355172,10.3050138 C2.31796552,10.3243241 2.37058621,10.3532897 2.41789655,10.388531 C2.46472414,10.4261862 2.5187931,10.4638414 2.555,10.5232207 C2.59410345,10.5811517 2.61244828,10.6651517 2.63513793,10.7501172 C2.65782759,10.8346 2.69451724,10.9113586 2.75534483,10.9639793 C2.81424138,11.0190138 2.89293103,11.0542552 2.9807931,11.0812897 C3.06913793,11.1078414 3.15603448,11.1339103 3.22603448,11.1759103 C3.29603448,11.2188759 3.36506897,11.2608759 3.42975862,11.3038414 C3.49348276,11.3472897 3.549,11.3960483 3.59389655,11.4501172 C3.6387931,11.5056345 3.67644828,11.5621172 3.70831034,11.6186 C3.773,11.7291517 3.81162069,11.8397034 3.83334483,11.9222552 C3.84396552,11.9642552 3.85024138,11.9994966 3.85410345,12.0246 C3.85748276,12.0501862 3.85893103,12.0632207 3.85893103,12.0632207 L3.82031034,12.1076345 L3.78072414,12.1076345 C3.75562069,12.1071517 3.71941379,12.1052207 3.67693103,12.0984621 C3.591,12.0868759 3.47658621,12.0598414 3.35782759,12.0057724 C3.29844828,11.9787379 3.23762069,11.9454276 3.17824138,11.9048759 C3.11837931,11.8643241 3.06431034,11.8136345 3.01506897,11.7518414 C2.96582759,11.6910138 2.919,11.6224621 2.8712069,11.5548759 C2.82244828,11.4877724 2.79106897,11.3994276 2.75968966,11.3134966 C2.72831034,11.2261172 2.6892069,11.1479103 2.63175862,11.0914276 C2.57768966,11.0296345 2.50093103,10.9934276 2.41451724,10.9697724 C2.32955172,10.9437034 2.24265517,10.9234276 2.18375862,10.8790138 C2.12341379,10.8360483 2.0847931,10.7776345 2.04955172,10.7235655 C2.01527586,10.6651517 1.99065517,10.612531 1.97134483,10.5546 C1.95203448,10.4961862 1.94044828,10.4430828 1.93803448,10.3981862 C1.93706897,10.3112897 1.95251724,10.2523931 1.95251724,10.2523931 L2.0007931,10.2190828 Z" id="Fill-212" fill="#F4F5F5"></path>
                            <path d="M3.08675862,10.2044552 C3.08675862,10.2044552 3.14758621,10.1933517 3.23255172,10.2005931 C3.27648276,10.2010759 3.32572414,10.210731 3.37931034,10.2305241 C3.43241379,10.248869 3.49227586,10.2754207 3.54537931,10.3096966 C3.59751724,10.3463862 3.65737931,10.3845241 3.69696552,10.4463172 C3.73896552,10.5061793 3.75924138,10.5930759 3.78,10.6775586 C3.80124138,10.7639724 3.83310345,10.8416966 3.89055172,10.8981793 C3.94558621,10.9570759 4.02041379,10.9990759 4.10537931,11.0338345 C4.19082759,11.0695586 4.27434483,11.106731 4.33951724,11.1598345 C4.40372414,11.2119724 4.46793103,11.2621793 4.52537931,11.3172138 C4.58234483,11.3712828 4.63013793,11.4292138 4.66489655,11.4939034 C4.70062069,11.5561793 4.72668966,11.6228 4.74744828,11.6845931 C4.7682069,11.746869 4.78172414,11.8101103 4.78993103,11.8656276 C4.79765517,11.9245241 4.80055172,11.9742483 4.79910345,12.0201103 C4.79813793,12.0669379 4.7937931,12.1016966 4.78751724,12.1316276 C4.78075862,12.1596276 4.77593103,12.1716966 4.77593103,12.1716966 L4.71944828,12.1876276 C4.71944828,12.1876276 4.70641379,12.1818345 4.68468966,12.1736276 C4.66634483,12.1678345 4.63206897,12.1552828 4.59634483,12.1398345 C4.56013793,12.1253517 4.51475862,12.1041103 4.46937931,12.0799724 C4.42158621,12.0539034 4.3737931,12.0249379 4.32262069,11.9882483 C4.27241379,11.9525241 4.22172414,11.9119724 4.17296552,11.8641793 C4.12468966,11.816869 4.08172414,11.7599034 4.04551724,11.6952138 C4.0097931,11.6285931 3.97455172,11.5595586 3.93882759,11.4876276 C3.90117241,11.4181103 3.88282759,11.330731 3.86206897,11.242869 C3.84131034,11.1559724 3.81089655,11.0758345 3.75875862,11.0159724 C3.71048276,10.9536966 3.63662069,10.9155586 3.55310345,10.8923862 C3.47151724,10.8663172 3.388,10.8489379 3.33248276,10.808869 C3.276,10.770731 3.23882759,10.7195586 3.20406897,10.6722483 C3.1697931,10.6215586 3.14517241,10.5766621 3.12489655,10.528869 C3.10606897,10.4820414 3.08917241,10.4356966 3.07710345,10.3936966 C3.052,10.3111448 3.05006897,10.2498345 3.05006897,10.2498345 L3.08675862,10.2044552 Z" id="Fill-214" fill="#F4F5F5"></path>
                            <path d="M1.57012414,10.7140552 C1.57012414,10.7140552 1.5821931,10.7174345 1.60536552,10.7217793 C1.62708966,10.7275724 1.65750345,10.7357793 1.68984828,10.7492966 C1.72364138,10.7652276 1.75936552,10.7758483 1.79171034,10.7879172 C1.82212414,10.7990207 1.85543448,10.8149517 1.88729655,10.8371586 C1.91384828,10.8608138 1.95102069,10.8806069 1.96550345,10.9226069 C1.98626207,10.9607448 1.98191724,11.0268828 1.99205517,11.0920552 C1.99833103,11.1596414 2.02391724,11.2161241 2.06977931,11.2479862 C2.11564138,11.2808138 2.17791724,11.2933655 2.24888276,11.2924 C2.31888276,11.2924 2.39033103,11.2909517 2.44536552,11.3092966 C2.50281379,11.3286069 2.55833103,11.3450207 2.61143448,11.3677103 C2.71812414,11.4077793 2.78908966,11.4975724 2.83977931,11.5830207 C2.86584828,11.626469 2.88515862,11.672331 2.89867586,11.7148138 C2.91412414,11.7558483 2.92184828,11.7978483 2.92715862,11.8335724 C2.93295172,11.868331 2.93391724,11.8982621 2.93488276,11.9199862 C2.93391724,11.9421931 2.93391724,11.9532966 2.93391724,11.9532966 L2.89577931,11.9972276 C2.89577931,11.9972276 2.8841931,12.0006069 2.86246897,12.0049517 C2.84171034,12.0078483 2.81177931,12.0126759 2.77750345,12.0150897 C2.74322759,12.0170207 2.70412414,12.0194345 2.66212414,12.0170207 C2.61867586,12.0165379 2.57571034,12.0117103 2.52888276,12.0030207 C2.43812414,11.9846759 2.34157241,11.9547448 2.26577931,11.8707448 C2.2286069,11.8306759 2.18998621,11.7838483 2.15184828,11.7370207 C2.11226207,11.6892276 2.0861931,11.6211586 2.06157241,11.5521241 C2.03646897,11.4840552 2.00557241,11.4237103 1.9601931,11.3855724 C1.91674483,11.3440552 1.85350345,11.3286069 1.7806069,11.3208828 C1.70722759,11.3136414 1.6324,11.2996414 1.5821931,11.2658483 C1.53391724,11.2281931 1.50398621,11.1789517 1.48322759,11.1282621 C1.46295172,11.0785379 1.4504,11.0278483 1.44798621,10.9766759 C1.4446069,10.926469 1.44846897,10.8830207 1.46343448,10.8506759 C1.47453793,10.8178483 1.48853793,10.7898483 1.49867586,10.7695724 C1.51026207,10.7492966 1.51653793,10.7381931 1.51653793,10.7381931 L1.57012414,10.7140552 Z" id="Fill-216" fill="#F4F5F5"></path>
                            <path d="M4.97912414,10.5523793 C4.97912414,10.5523793 4.99071034,10.5523793 5.01291724,10.5547931 C5.0331931,10.5572069 5.06215862,10.5615517 5.09305517,10.5702414 C5.1254,10.578931 5.1591931,10.5885862 5.19153793,10.6088621 C5.2234,10.631069 5.25429655,10.661 5.28181379,10.6957586 C5.30643448,10.7300345 5.33829655,10.7758966 5.33829655,10.8207931 C5.3411931,10.8661724 5.31271034,10.925069 5.2876069,10.984931 C5.26105517,11.0438276 5.25043448,11.0993448 5.27022759,11.1442414 C5.2876069,11.1901034 5.33008966,11.2287241 5.3856069,11.2644483 C5.44112414,11.2987241 5.4951931,11.334931 5.52608966,11.3759655 C5.55698621,11.4179655 5.58836552,11.4594828 5.61395172,11.5005172 C5.66802069,11.5806552 5.66415862,11.6733448 5.65015862,11.7558966 C5.64291724,11.7964483 5.63084828,11.8360345 5.61588276,11.8717586 C5.61008966,11.8901034 5.60236552,11.9074828 5.59367586,11.9243793 C5.58595172,11.9422414 5.57871034,11.9543103 5.56953793,11.9654138 C5.55312414,11.9885862 5.53815862,12.0117586 5.52753793,12.0296207 C5.51643448,12.0474828 5.51064138,12.0576207 5.51064138,12.0576207 L5.46091724,12.0880345 C5.46091724,12.0880345 5.45029655,12.087069 5.43050345,12.0832069 C5.4111931,12.0778966 5.3831931,12.0701724 5.35133103,12.0527931 C5.33636552,12.045069 5.31995172,12.0354138 5.3016069,12.0267241 C5.2851931,12.017069 5.26829655,12.0078966 5.25236552,11.9967931 C5.21857241,11.975069 5.18477931,11.9494828 5.1534,11.9181034 C5.09353793,11.8582414 5.03608966,11.7843793 5.03222759,11.6868621 C5.02933103,11.6385862 5.03126207,11.5874138 5.03222759,11.5357586 C5.0331931,11.4841034 5.05684828,11.4237586 5.08050345,11.3634138 C5.10512414,11.3040345 5.11622759,11.2465862 5.10271034,11.2002414 C5.09257241,11.1519655 5.05008966,11.1147931 4.99264138,11.0853448 C4.93712414,11.0563793 4.87871034,11.0293448 4.8536069,10.9941034 C4.82657241,10.9574138 4.82657241,10.9284483 4.82464138,10.8922414 C4.8256069,10.8584483 4.83188276,10.8232069 4.84153793,10.7879655 C4.85071034,10.7517586 4.85891724,10.7155517 4.87291724,10.6836897 C4.88450345,10.6532759 4.89850345,10.6267241 4.90864138,10.6083793 C4.92022759,10.5885862 4.92698621,10.578931 4.92698621,10.578931 L4.97912414,10.5523793 Z" id="Fill-218" fill="#F4F5F5"></path>
                            <path d="M6.36092414,10.6895793 C6.36092414,10.6895793 6.37106207,10.6953724 6.3894069,10.7040621 C6.40630345,10.7137172 6.42947586,10.726269 6.45216552,10.7431655 C6.4652,10.7513724 6.47533793,10.7600621 6.48692414,10.7702 C6.4989931,10.7798552 6.51106207,10.7899931 6.52071724,10.8006138 C6.5409931,10.8228207 6.5574069,10.8479241 6.56851034,10.8735103 C6.5772,10.8990966 6.58733793,10.9275793 6.57092414,10.9555793 C6.55692414,10.9835793 6.50816552,11.010131 6.46326897,11.0395793 C6.41885517,11.0675793 6.38554483,11.0979931 6.3894069,11.1317862 C6.38892414,11.1655793 6.4149931,11.2008207 6.45409655,11.2375103 C6.49126897,11.2737172 6.53278621,11.3108897 6.54630345,11.3446828 C6.56078621,11.3794414 6.57575172,11.4132345 6.58492414,11.4455793 C6.60761379,11.5097862 6.5714069,11.566269 6.5294069,11.6145448 C6.50478621,11.6386828 6.48306207,11.6594414 6.45554483,11.6792345 C6.44347586,11.6874414 6.42947586,11.6970966 6.41595862,11.7043379 C6.40292414,11.7120621 6.39085517,11.7193034 6.37685517,11.7255793 C6.34933793,11.7395793 6.32761379,11.7492345 6.31313103,11.7559931 C6.29575172,11.7637172 6.28609655,11.766131 6.28609655,11.766131 L6.22768276,11.762269 C6.22768276,11.762269 6.2189931,11.7574414 6.20257931,11.748269 C6.18906207,11.7400621 6.16878621,11.7270276 6.14368276,11.7096483 C6.13016552,11.7014414 6.11954483,11.6932345 6.10795862,11.6830966 C6.09492414,11.6729586 6.08285517,11.6633034 6.07223448,11.6512345 C6.04761379,11.6285448 6.02878621,11.6048897 6.00802759,11.5783379 C5.97326897,11.5247517 5.94526897,11.4639241 5.97616552,11.4026138 C5.99016552,11.3722 6.00947586,11.3413034 6.02878621,11.3089586 C6.04664828,11.2766138 6.09251034,11.2462 6.13451034,11.2148207 C6.17844138,11.1839241 6.20933793,11.1525448 6.2132,11.1197172 C6.2214069,11.0873724 6.1934069,11.052131 6.15237241,11.0178552 C6.11230345,10.9835793 6.06788966,10.9497862 6.05775172,10.9198552 C6.04568276,10.8904069 6.0592,10.8638552 6.07175172,10.8387517 C6.08623448,10.8146138 6.10602759,10.7928897 6.1292,10.7740621 C6.14030345,10.7639241 6.15333793,10.7557172 6.16685517,10.7479931 C6.1794069,10.7397862 6.1909931,10.7320621 6.2049931,10.7257862 C6.22961379,10.7132345 6.25471724,10.7030966 6.27209655,10.6963379 C6.29188966,10.6895793 6.30251034,10.6862 6.30251034,10.6862 L6.36092414,10.6895793 Z" id="Fill-220" fill="#F4F5F5"></path>
                            <path d="M7.28357241,10.8800276 C7.28357241,10.8800276 7.29129655,10.887269 7.30481379,10.9022345 C7.31784828,10.9147862 7.33522759,10.9336138 7.35067586,10.9548552 C7.36033103,10.9669241 7.3666069,10.9770621 7.37384828,10.9881655 C7.38205517,10.9997517 7.38977931,11.0127862 7.39557241,11.0243724 C7.40764138,11.0480276 7.41536552,11.0712 7.41777931,11.0943724 C7.41777931,11.1156138 7.41922759,11.1397517 7.39605517,11.1518207 C7.37529655,11.1658207 7.32364138,11.1629241 7.2744,11.1638897 C7.22564138,11.1638897 7.18702069,11.1716138 7.18074483,11.1962345 C7.1706069,11.2184414 7.18364138,11.2532 7.20874483,11.2956828 C7.23143448,11.3367172 7.25846897,11.3796828 7.2604,11.4096138 C7.26329655,11.4385793 7.26715862,11.4685103 7.26667586,11.4940966 C7.26764138,11.5486483 7.21888276,11.5727862 7.16674483,11.587269 C7.13777931,11.5935448 7.1121931,11.5983724 7.08177931,11.6003034 C7.06777931,11.601269 7.05281379,11.601269 7.03833103,11.601269 C7.02384828,11.601269 7.01177931,11.601269 6.99633103,11.5988552 C6.96784828,11.5964414 6.94564138,11.5945103 6.93067586,11.5930621 C6.91233103,11.5906483 6.90315862,11.5887172 6.90315862,11.5887172 L6.85150345,11.5607172 C6.85150345,11.5607172 6.84474483,11.5539586 6.8321931,11.5399586 C6.82302069,11.5283724 6.80853793,11.5109931 6.79067586,11.4887862 C6.78053793,11.4776828 6.77377931,11.4665793 6.76605517,11.4545103 C6.75784828,11.4434069 6.74964138,11.4303724 6.74288276,11.4178207 C6.72743448,11.3922345 6.71777931,11.3676138 6.70667586,11.3396138 C6.69026207,11.2889241 6.68302069,11.2343724 6.72888276,11.2063724 C6.75012414,11.1909241 6.77715862,11.1769241 6.80322759,11.1638897 C6.82881379,11.1489241 6.87950345,11.1479586 6.92633103,11.1440966 C6.9746069,11.1416828 7.01177931,11.1334759 7.02529655,11.1117517 C7.0421931,11.0934069 7.02674483,11.0572 7.0001931,11.0156828 C6.97364138,10.9746483 6.94322759,10.9326483 6.94274483,10.9089931 C6.94033103,10.8829241 6.96108966,10.8698897 6.97895172,10.8583034 C6.99922759,10.8486483 7.02288276,10.8418897 7.04991724,10.8385103 C7.06246897,10.8365793 7.07695172,10.8360966 7.09143448,10.8360966 C7.10543448,10.8360966 7.11750345,10.8360966 7.13246897,10.8380276 C7.15805517,10.8385103 7.18364138,10.8428552 7.20198621,10.8462345 C7.22177931,10.8500966 7.23191724,10.8520276 7.23191724,10.8520276 L7.28357241,10.8800276 Z" id="Fill-222" fill="#F4F5F5"></path>
                            <path d="M8.5191931,11.1911655 C8.5191931,11.1911655 8.52015862,11.202269 8.52208966,11.2239931 C8.52305517,11.244269 8.52402069,11.2727517 8.52112414,11.3026828 C8.52112414,11.3200621 8.51822759,11.3350276 8.51533103,11.3509586 C8.51243448,11.3688207 8.50905517,11.3852345 8.50374483,11.402131 C8.4936069,11.4344759 8.47912414,11.4658552 8.45884828,11.4948207 C8.43567586,11.5218552 8.41877931,11.5517862 8.38305517,11.5604759 C8.34877931,11.570131 8.29229655,11.5542 8.23581379,11.5435793 C8.17884828,11.5319931 8.1271931,11.5344069 8.09822759,11.566269 C8.06684828,11.594269 8.05188276,11.6435103 8.0456069,11.7028897 L8.03595172,11.7873724 C8.03064138,11.8139241 8.02581379,11.8399931 8.01567586,11.860269 C7.99588276,11.8993724 7.97705517,11.9389586 7.95581379,11.9742 C7.91767586,12.0470966 7.84188276,12.0717172 7.77091724,12.0890966 C7.73277931,12.0948897 7.69802069,12.1011655 7.66084828,12.1011655 C7.64395172,12.1016483 7.62608966,12.1016483 7.6091931,12.0997172 C7.59277931,12.0992345 7.57733103,12.098269 7.56043448,12.0953724 C7.52857241,12.0910276 7.50346897,12.0866828 7.48657241,12.084269 C7.46677931,12.0799241 7.45664138,12.0775103 7.45664138,12.0775103 L7.41367586,12.0369586 C7.41367586,12.0369586 7.41077931,12.0268207 7.40498621,12.0075103 C7.40112414,11.9896483 7.39774483,11.9655103 7.39243448,11.9331655 C7.38905517,11.916269 7.38905517,11.9013034 7.38808966,11.8839241 C7.38712414,11.8655793 7.38664138,11.8477172 7.38808966,11.8298552 C7.38905517,11.7917172 7.39677931,11.7559931 7.40498621,11.7154414 C7.42622759,11.6396483 7.4634,11.5628897 7.54353793,11.5228207 C7.5836069,11.5035103 7.62850345,11.4875793 7.67291724,11.4702 C7.71684828,11.4523379 7.77815862,11.4547517 7.83898621,11.4576483 C7.90029655,11.4615103 7.95291724,11.4547517 7.9871931,11.4291655 C8.02436552,11.4050276 8.03836552,11.3548207 8.04753793,11.2949586 C8.05622759,11.2355793 8.06298621,11.1718552 8.08857241,11.1380621 C8.1131931,11.1013724 8.15181379,11.0873724 8.18415862,11.0796483 C8.21843448,11.0714414 8.2531931,11.0704759 8.28746897,11.0738552 C8.30436552,11.0757862 8.32174483,11.0796483 8.33815862,11.0835103 C8.35457241,11.0873724 8.36905517,11.0897862 8.38450345,11.0960621 C8.41346897,11.1057172 8.43953793,11.1177862 8.45788276,11.1259931 C8.47671034,11.1366138 8.48684828,11.1419241 8.48684828,11.1419241 L8.5191931,11.1911655 Z" id="Fill-224" fill="#F4F5F5"></path>
                            <path d="M9.78102759,11.3066897 L9.78102759,11.3428966 C9.78006207,11.3641379 9.77764828,11.396 9.77088966,11.4297931 C9.75882069,11.5002759 9.7284069,11.5818621 9.67192414,11.6528276 C9.6419931,11.6866207 9.61013103,11.7228276 9.56088966,11.7397241 C9.51261379,11.758069 9.44309655,11.7503448 9.37357931,11.7450345 C9.30357931,11.7392414 9.24178621,11.7474483 9.19737241,11.7836552 C9.1519931,11.817931 9.11868276,11.872 9.09357931,11.940069 C9.06751034,12.0057241 9.0424069,12.0733103 9.00233793,12.1182069 C8.96226897,12.1635862 8.92364828,12.2084828 8.88261379,12.2485517 C8.84351034,12.2891034 8.79523448,12.3171034 8.74551034,12.3354483 C8.69530345,12.3537931 8.64751034,12.3644138 8.59585517,12.3692414 C8.54468276,12.3750345 8.4964069,12.3735862 8.4519931,12.3687586 C8.4099931,12.3663448 8.36364828,12.3552414 8.32937241,12.3446207 C8.29461379,12.3349655 8.26709655,12.3224138 8.24826897,12.3132414 C8.22944138,12.3026207 8.21930345,12.2973103 8.21930345,12.2973103 L8.19951034,12.2417931 C8.19951034,12.2417931 8.2024069,12.2306897 8.20868276,12.209931 C8.21447586,12.1886897 8.22316552,12.1606897 8.23426897,12.1297931 C8.24633793,12.0984138 8.25695862,12.0655862 8.27578621,12.0269655 C8.29316552,11.9888276 8.31392414,11.9506897 8.33951034,11.9144828 C8.36413103,11.8797241 8.39454483,11.8391724 8.42978621,11.8073103 C8.46502759,11.774 8.5079931,11.7503448 8.55868276,11.7315172 C8.60888966,11.7131724 8.6644069,11.6986897 8.7204069,11.6827586 C8.7764069,11.6668276 8.84592414,11.6692414 8.9164069,11.6726207 C8.98688966,11.6755172 9.05109655,11.6677931 9.0984069,11.6378621 C9.14813103,11.6088966 9.17806207,11.5548276 9.19785517,11.4882069 C9.21764828,11.422069 9.23406207,11.3549655 9.26737241,11.3168276 C9.29923448,11.2767586 9.34413103,11.2608276 9.38516552,11.2448966 C9.47013103,11.2164138 9.55751034,11.2144828 9.6279931,11.2270345 C9.66226897,11.2323448 9.69268276,11.2405517 9.71295862,11.2468276 C9.73564828,11.2545517 9.74723448,11.2584138 9.74723448,11.2584138 L9.78102759,11.3066897 Z" id="Fill-226" fill="#F4F5F5"></path>
                            <path d="M10.7253517,11.1699724 C10.7253517,11.1699724 10.7301793,11.1791448 10.7379034,11.1989379 C10.7451448,11.2168 10.7543172,11.2423862 10.7610759,11.2703862 C10.7654207,11.284869 10.7673517,11.298869 10.7697655,11.3138345 C10.7726621,11.3292828 10.7745931,11.3452138 10.7750759,11.3611448 C10.7760414,11.3920414 10.7726621,11.4219724 10.7634897,11.4504552 C10.7523862,11.4779724 10.7412828,11.5069379 10.7099034,11.5204552 C10.6799724,11.5344552 10.6234897,11.5262483 10.5694207,11.5219034 C10.514869,11.5180414 10.4690069,11.5219034 10.448731,11.5523172 C10.4236276,11.5783862 10.4159034,11.6223172 10.416869,11.676869 C10.4163862,11.7309379 10.416869,11.7893517 10.3980414,11.8260414 C10.3806621,11.8641793 10.3628,11.9032828 10.3420414,11.9370759 C10.3222483,11.9728 10.2932828,11.9954897 10.2599724,12.0070759 C10.2266621,12.0201103 10.1904552,12.0254207 10.1552138,12.026869 C10.1185241,12.026869 10.0856966,12.0263862 10.0519034,12.0191448 C10.0200414,12.0133517 9.98673103,12.0032138 9.95873103,11.9911448 C9.93024828,11.9785931 9.9090069,11.9689379 9.89355862,11.960731 C9.87714483,11.9505931 9.86893793,11.9452828 9.86893793,11.9452828 L9.8390069,11.8960414 C9.8390069,11.8960414 9.83755862,11.8849379 9.83562759,11.8656276 C9.83466207,11.8496966 9.83321379,11.8255586 9.83176552,11.7956276 C9.82983448,11.7796966 9.83031724,11.7656966 9.83031724,11.7512138 C9.82983448,11.7362483 9.83031724,11.7193517 9.83176552,11.7029379 C9.83321379,11.6696276 9.83948966,11.6396966 9.84624828,11.6063862 C9.86169655,11.5441103 9.89066207,11.4900414 9.95004138,11.4697655 C9.97948966,11.4586621 10.0142483,11.4504552 10.0494897,11.4417655 C10.0837655,11.4325931 10.1383172,11.4432138 10.1919034,11.4485241 C10.2464552,11.4562483 10.2932828,11.4538345 10.3203172,11.4316276 C10.3483172,11.4094207 10.3502483,11.3630759 10.3415586,11.3090069 C10.3338345,11.2563862 10.3222483,11.1999034 10.3338345,11.1690069 C10.3444552,11.1361793 10.3734207,11.1236276 10.3994897,11.1105931 C10.4270069,11.0994897 10.4574207,11.0941793 10.4883172,11.092731 C10.5037655,11.0922483 10.5196966,11.0936966 10.5351448,11.0956276 C10.5505931,11.0961103 10.5645931,11.0980414 10.5800414,11.1004552 C10.6080414,11.1057655 10.6341103,11.1125241 10.6529379,11.1188 C10.6722483,11.1255586 10.682869,11.1294207 10.682869,11.1294207 L10.7253517,11.1699724 Z" id="Fill-228" fill="#F4F5F5"></path>
                            <path d="M26.1472207,14.3904069 C25.4095655,14.1509586 25.042669,13.9906828 24.7172897,14.5120621 C24.3914276,15.0324759 24.7148759,15.6074414 24.7520483,15.6499241 C24.7897034,15.6914414 25.4607379,15.3482 25.7363931,15.0247517 C26.0110828,14.7013034 26.1472207,14.3904069 26.1472207,14.3904069" id="Fill-230" fill="#201C1E"></path>
                            <path d="M21.0346138,16.1323931 C21.6747517,16.3882552 21.7394414,16.7971517 22.2757862,16.4539103 C22.8116483,16.1101862 23.1544069,15.6998414 22.8932345,15.5690138 C22.6325448,15.4391517 22.0247517,15.3947379 21.6926138,15.5878414 C21.3595103,15.7819103 21.0346138,16.1323931 21.0346138,16.1323931" id="Fill-232" fill="#201C1E"></path>
                            <path d="M22.4473103,19.6625655 C21.5406897,19.8098069 21.0038621,20.2539448 20.8855862,20.4330483 C20.7677931,20.6107034 20.8073793,21.161531 21.2891724,21.1649103 C21.7709655,21.1692552 22.3951724,20.7116 22.6090345,20.3224966 C22.8228966,19.9329103 22.4473103,19.6625655 22.4473103,19.6625655" id="Fill-234" fill="#201C1E"></path>
                            <path d="M24.3422828,18.0756414 C23.9526966,17.4707448 23.7827655,17.1405379 23.2483517,17.3220552 C22.7139379,17.5050207 22.6125586,18.1094345 22.6144897,18.1620552 C22.6169034,18.2132276 23.2956621,18.3619172 23.6799379,18.2914345 C24.0646966,18.220469 24.3422828,18.0756414 24.3422828,18.0756414" id="Fill-236" fill="#201C1E"></path>
                            <path d="M24.9018966,19.5847448 C24.3192069,19.8478483 24.0097586,19.6291586 23.889069,20.2094345 C23.7678966,20.7872966 23.8156897,21.2801931 24.0705862,21.1894345 C24.3245172,21.0991586 24.746931,20.7211586 24.8343103,20.3745379 C24.9216897,20.0274345 24.9018966,19.5847448 24.9018966,19.5847448" id="Fill-238" fill="#201C1E"></path>
                            <path d="M20.2190414,18.8785172 C19.8984897,18.0863103 19.3896621,17.6952759 19.205731,17.6257586 C19.0218,17.5576897 18.5380759,17.7112069 18.6351103,18.1500345 C18.7331103,18.5878966 19.2709034,19.0552069 19.663869,19.1667241 C20.0563517,19.2772759 20.2190414,18.8785172 20.2190414,18.8785172" id="Fill-240" fill="#201C1E"></path>
                            <path d="M26.9159172,17.6028276 C26.3221241,19.0008966 26.6248138,19.9562759 27.0337103,19.895931 C27.4421241,19.8355862 28.1165379,19.5362759 27.7959862,18.7894483 C27.660331,18.0812414 26.9159172,17.6028276 26.9159172,17.6028276" id="Fill-242" fill="#201C1E"></path>
                        </g>
                    </g>
                </g>
            </g>
        </g>
    </g>
</svg>