<?xml version="1.0" encoding="UTF-8"?>
<svg width="192px" height="227px" viewBox="0 0 192 227" version="1.1" xmlns="http://www.w3.org/2000/svg" xmlns:xlink="http://www.w3.org/1999/xlink">
    <!-- Generator: Sketch 42 (36781) - http://www.bohemiancoding.com/sketch -->
    <title>Group 6</title>
    <desc>Created with Sketch.</desc>
    <defs>
        <path d="M26.1,21.1 C26.2,22.2 25.8,23.3 25.1,24.2 C24.4,24.8 24.3,25.9 24.9,26.6 C25.5,27.3 26.6,27.4 27.3,26.8 C28.8,25.3 29.6,23.2 29.5,21.1 C29.4,19.1 28.7,17.1 27.4,15.6 C26.6,14.6 26.1,13.4 26,12.1 C25.9,11 26.3,9.9 27,9 C27.7,8.4 27.8,7.3 27.2,6.6 C26.6,5.9 25.5,5.8 24.8,6.4 C23.3,7.9 22.5,10 22.6,12.1 C22.7,14.1 23.4,16.1 24.7,17.6 C25.5,18.5 26,19.8 26.1,21.1 Z" id="path-1"></path>
        <mask id="mask-2" maskContentUnits="userSpaceOnUse" maskUnits="objectBoundingBox" x="-6" y="-6" width="18.9167359" height="33.1879426">
            <rect x="16.5916321" y="0.006028691" width="18.9167359" height="33.1879426" fill="white"></rect>
            <use xlink:href="#path-1" fill="black"></use>
        </mask>
        <path d="M54.2,21.1 C54.3,22.2 53.9,23.3 53.2,24.2 C52.5,24.8 52.4,25.9 53,26.6 C53.6,27.3 54.7,27.4 55.4,26.8 C56.9,25.3 57.7,23.2 57.6,21.1 C57.5,19.1 56.8,17.1 55.5,15.6 C54.7,14.6 54.2,13.4 54.1,12.1 C54,11 54.4,9.9 55.1,9 C55.8,8.4 55.9,7.3 55.3,6.6 C54.7,5.9 53.6,5.8 52.9,6.4 C51.4,7.9 50.6,10 50.7,12.1 C50.8,14.1 51.5,16.1 52.8,17.6 C53.6,18.5 54.2,19.8 54.2,21.1 Z" id="path-3"></path>
        <mask id="mask-4" maskContentUnits="userSpaceOnUse" maskUnits="objectBoundingBox" x="-6" y="-6" width="18.9167359" height="33.1879426">
            <rect x="44.6916321" y="0.006028691" width="18.9167359" height="33.1879426" fill="white"></rect>
            <use xlink:href="#path-3" fill="black"></use>
        </mask>
        <path d="M40.2,15.7 C40.3,16.8 39.9,17.9 39.2,18.8 C38.5,19.4 38.4,20.5 39,21.2 C39.6,21.9 40.7,22 41.4,21.4 L41.4,21.4 C42.9,19.9 43.7,17.8 43.6,15.7 C43.5,13.7 42.8,11.7 41.5,10.2 C40.6,9.2 40.1,8 40.1,6.6 C40,5.5 40.4,4.4 41.1,3.5 C41.8,2.9 41.9,1.8 41.3,1.1 C40.7,0.4 39.6,0.3 38.9,0.9 L38.9,0.9 C37.4,2.4 36.6,4.5 36.7,6.6 C36.8,8.6 37.5,10.6 38.8,12.1 C39.6,13.2 40.1,14.4 40.2,15.7 Z" id="path-5"></path>
        <mask id="mask-6" maskContentUnits="userSpaceOnUse" maskUnits="objectBoundingBox" x="-6" y="-6" width="18.9167359" height="33.2879426">
            <rect x="30.6916321" y="-5.49397131" width="18.9167359" height="33.2879426" fill="white"></rect>
            <use xlink:href="#path-5" fill="black"></use>
        </mask>
        <path d="M84.5,45.6 C82,42.8 78.5,41.2 74.8,41.2 L70,41.2 L70.2,34.5 C70.2,34.3 70.2,34 70.1,33.8 C69.8,33.1 69.2,32.7 68.5,32.7 L15.5,32.7 C15.3,32.7 15,32.7 14.8,32.8 C14.2,33.1 13.8,33.7 13.8,34.5 L15.1,72.2 L15.1,72.3 C15.5,75.9 17,79.3 19.5,82 C19.8,82.3 19.8,82.8 19.5,83.2 C19.3,83.3 19.1,83.4 18.9,83.4 L2,83.4 C1.5,83.4 1,83.6 0.6,84 C0.1,84.6 -1.92873495e-13,85.4 0.5,86.1 C4.4,92 11,95.5 18.1,95.5 L65.9,95.5 C72.9,95.5 79.5,92 83.4,86.1 C83.7,85.7 83.8,85.1 83.7,84.6 C83.5,83.8 82.8,83.3 82,83.3 L65,83.3 C64.5,83.3 64.2,82.9 64.2,82.5 C64.2,82.3 64.3,82.1 64.4,81.9 C66.9,79.2 68.4,75.8 68.8,72.2 L68.8,72.1 L69,67.1 L74.8,67.1 C82,67.1 87.8,61.2 87.7,54 C87.7,51 86.6,47.9 84.5,45.6 L84.5,45.6 Z M78.4,86.8 C75.1,90.1 70.6,92 65.9,92 L18.1,92 C13.4,92 8.9,90.1 5.6,86.8 L78.4,86.8 Z M65.4,72 C65.4,72.2 65.4,72.3 65.3,72.5 C64.3,78.9 58.7,83.5 52.3,83.4 L31.6,83.4 C25.2,83.5 19.6,78.8 18.6,72.5 C18.6,72.3 18.6,72.2 18.5,72 L17.3,36.2 L31.4,36.2 L31.4,45.9 C31.4,46.5 30.9,47 30.2,47 L29,47 C28.1,47 27.3,47.8 27.3,48.7 C27.3,49.4 26.7,50 26,50 L26,50 C25.1,50 24.3,50.8 24.3,51.7 L24.3,64.1 C24.3,65 25.1,65.8 26,65.8 L39,65.8 C39.9,65.8 40.7,65 40.7,64.1 L40.7,64.1 L40.7,51.8 C40.7,50.9 40,50.1 39,50 C38.3,50 37.7,49.5 37.7,48.8 L37.7,48.8 C37.7,47.9 36.9,47.1 36,47.1 L36,47.1 L35,47.1 C34.3,47.1 33.7,46.5 33.7,45.8 L33.7,36.3 L66.7,36.3 L65.4,72 Z M34.6,50.5 C35.1,51.7 36,52.7 37.3,53.2 L37.3,62.5 L31.2,62.5 C29.3,62.5 27.7,61 27.7,59 L27.7,53.2 C28.9,52.7 29.9,51.8 30.4,50.5 L34.6,50.5 Z M69.6,51.1 L74.9,51.1 C76.6,51.1 78,52.5 78,54.2 L78,54.6 C77.8,56.2 76.5,57.3 74.9,57.3 L69.4,57.3 L69.6,51.1 Z M84.3,55.3 C83.7,60.1 79.7,63.7 74.9,63.7 L72.2,63.7 C70.6,63.7 69.3,62.4 69.3,60.8 L69.3,60.7 L74.9,60.7 C78.5,60.7 81.4,57.8 81.5,54.2 C81.5,52 80.4,50 78.6,48.8 C77.5,48 76.1,47.6 74.8,47.7 L72.8,47.7 C71.2,47.7 69.9,46.4 69.9,44.8 L69.9,44.7 L74.9,44.7 C80.2,44.7 84.4,48.9 84.4,54.2 C84.4,54.5 84.4,54.9 84.3,55.3 L84.3,55.3 Z" id="path-7"></path>
        <mask id="mask-8" maskContentUnits="userSpaceOnUse" maskUnits="objectBoundingBox" x="-6" y="-6" width="99.5299993" height="74.8">
            <rect x="-5.82872537" y="26.7" width="99.5299993" height="74.8" fill="white"></rect>
            <use xlink:href="#path-7" fill="black"></use>
        </mask>
    </defs>
    <g id="Home" stroke="none" stroke-width="1" fill="none" fill-rule="evenodd">
        <g id="Home/home_1440" transform="translate(-609.000000, -952.000000)">
            <g id="Как-это-работает?" transform="translate(160.000000, 856.000000)">
                <g id="Group-6" transform="translate(422.000000, 97.000000)">
                    <g id="Group-9" transform="translate(27.000000, 97.000000)">
                        <path d="M133.5,14.7639752 L156,14.7639752 L156,10.2414781 C156,9.00354393 157.006328,8 158.243318,8 L171.756682,8 C172.995632,8 174,9.00878248 174,10.2414781 L174,14.7639752 L180.741665,14.7639752 C186.959472,14.7639752 192,19.8034266 192,26.0116872 L192,110.988313 C192,117.200253 186.963156,122.236025 180.741665,122.236025 L166.5,122.236025 L166.5,126.758522 C166.5,127.996456 165.492657,129 164.244052,129 L149.255948,129 C148.010022,129 147,127.991218 147,126.758522 L147,122.236025 L46.5,122.236025 L46.5,126.758522 C46.5,127.996456 45.4926575,129 44.2440524,129 L29.2559476,129 C28.0100221,129 27,127.991218 27,126.758522 L27,122.236025 L11.2583347,122.236025 C5.04052813,122.236025 0,117.196573 0,110.988313 L0,26.0116872 C0,19.7997474 5.03684413,14.7639752 11.2583347,14.7639752 L18,14.7639752 L18,10.2414781 C18,9.00354393 18.9985042,8 20.2553678,8 L131.244632,8 C132.490237,8 133.5,9.00878248 133.5,10.2414781 L133.5,14.7639752 Z M9.75,29.7959881 L9.75,107.204012 C9.75,109.285405 11.4292515,110.962733 13.5007132,110.962733 L176.999287,110.962733 C179.071343,110.962733 180.75,109.279896 180.75,107.204012 L180.75,29.7959881 C180.75,27.7145952 179.070748,26.0372671 176.999287,26.0372671 L13.5007132,26.0372671 C11.428657,26.0372671 9.75,27.7201038 9.75,29.7959881 Z" id="Combined-Shape" fill="#FFFFFF"></path>
                        <text id="12:10" font-family="BebasNeueBold, Bebas Neue" font-size="76.5" font-weight="bold" letter-spacing="3" fill="#FFFFFF">
                            <tspan x="17.4225" y="93.5279503">12:10</tspan>
                        </text>
                        <path d="M22,0.5 C22,0.5 17.3847448,8.08735085 17.5,15.5 C17.6334119,24.0803968 35,32 35,32 L103,32 C103,32 121,26.5 121,15.5 C121,4.5 102.5,6.5 102.5,6.5 L22,0.5 Z" id="Path-3" fill="#F5F5F5"></path>
                    </g>
                    <g id="Group-14" transform="translate(55.000000, 0.000000)">
                        <g id="Group" transform="translate(62.000000, 0.000000)" stroke="#221E20">
                            <path d="M33.7142857,0.1418 C27.6579089,0.1418 22.7144869,5.08551429 22.7142857,11.1418 C22.7142857,17.1984 27.6577674,22.1418 33.7142857,22.1418 C39.770804,22.1418 44.7142857,17.1984 44.7142857,11.1418 C44.7140846,5.08551429 39.7706626,0.1418 33.7142857,0.1418 L33.7142857,0.1418 Z M33.7142857,3.28465714 C38.0721746,3.28465714 41.571284,6.78391429 41.5714286,11.1418 C41.5714286,15.4996857 38.0722783,18.9989429 33.7142857,18.9989429 C29.3562931,18.9989429 25.8571429,15.4996857 25.8571429,11.1418 C25.8572874,6.78391429 29.3563969,3.28465714 33.7142857,3.28465714 L33.7142857,3.28465714 Z" id="Shape" stroke-width="1.5" fill="#221E20"></path>
                            <polygon id="Shape" stroke-width="1.5" fill="#221E20" points="32.1428571 11.9275143 32.1428571 21.3560857 35.2857143 21.3560857 35.2857143 11.9275143"></polygon>
                            <polygon id="Shape" stroke-width="1.5" fill="#221E20" points="30.5714286 9.57037143 30.5714286 12.7132286 36.8571429 12.7132286 36.8571429 9.57037143"></polygon>
                            <polygon id="Shape" stroke-width="1.5" fill="#221E20" points="57.9363831 18.9989429 55.7142857 21.2209429 66.0636169 31.5703714 68.2857143 29.3480571"></polygon>
                            <path d="M33.7142857,47.2846571 C37.1671763,47.2846571 40,50.1173143 40,53.5703714 C40,57.0231143 37.1671763,59.8560857 33.7142857,59.8560857 C30.2613951,59.8560857 27.4285714,57.0231143 27.4285714,53.5703714 C27.4285714,50.1173143 30.2613951,47.2846571 33.7142857,47.2846571 L33.7142857,47.2846571 Z M33.7142857,50.4275143 C31.9599209,50.4275143 30.5714286,51.8160286 30.5714286,53.5703714 C30.5714286,55.3247143 31.9599209,56.7132286 33.7142857,56.7132286 C35.4686506,56.7132286 36.8571429,55.3247143 36.8571429,53.5703714 C36.8571429,51.8160286 35.4686506,50.4275143 33.7142857,50.4275143 L33.7142857,50.4275143 Z" id="Shape" stroke-width="1.5" fill="#221E20"></path>
                            <path d="M43.8978783,41.7661143 C43.4891597,41.7791369 43.1016115,41.9509546 42.8175211,42.2450857 L36.5318069,48.5308 C36.1206187,48.9247958 35.9547418,49.5104056 36.0982245,50.0615147 C36.2417071,50.6126237 36.6720968,51.042994 37.2232124,51.1864517 C37.7743279,51.3299093 38.3599302,51.164006 38.7539074,50.7528 L45.0396217,44.4670857 C45.5067832,44.0156778 45.6480639,43.3233635 45.3951284,42.7250052 C45.1421929,42.1266469 44.5471758,41.7455773 43.8978783,41.7661143 L43.8978783,41.7661143 Z" id="Shape" stroke-width="1.5" fill="#221E20"></path>
                            <g transform="translate(34.002514, 53.350543) scale(-1, 1) translate(-34.002514, -53.350543) translate(0.502514, 19.850543)" id="Shape" stroke-width="4">
                                <path d="M53.6205371,60.0933343 C40.4482604,69.9997475 21.986485,68.6683893 10.3719,56.9744886 C-1.2426907,45.2806024 -2.44839371,26.8102036 7.54741429,13.7056429 C17.5432312,0.601076682 35.6752678,-3.11901513 50.0236,4.99094 C64.3719333,13.1008876 70.5365287,30.5538947 64.4648086,45.8764314"></path>
                                <path d="M62.2308657,50.4488171 C60.8980926,52.7149736 59.2992901,54.8137455 57.4684629,56.7004943"></path>
                            </g>
                            <path d="M35.887276,80.1862857 C42.2641709,79.6655143 48.4503823,76.8718286 53.1361623,71.9058 C53.5221369,71.497895 53.6611774,70.9150601 53.5009084,70.3768438 C53.3406395,69.8386275 52.9054099,69.4267976 52.3591664,69.2964865 C51.8129229,69.1661754 51.238653,69.3371804 50.8526786,69.7450857 C42.5666489,78.5265429 29.025718,79.6372286 19.4241071,72.3168857 C9.82253526,64.9968571 7.30056589,51.6400286 13.5742188,41.3242286 C19.8479466,31.0084286 32.864784,27.1056286 43.78125,32.264 C54.6976751,37.4220571 59.9457217,49.9570286 55.9598214,61.3536571 C55.7503955,61.8891985 55.850176,62.4963591 56.2199796,62.9367101 C56.5897832,63.3770612 57.1705584,63.5802859 57.7342378,63.4665791 C58.2979173,63.3528722 58.7544906,62.9403909 58.924664,62.3911143 C63.4327469,49.5013143 57.472114,35.256 45.1255569,29.4219143 C32.7789589,23.5878286 17.981234,28.0239714 10.8856026,39.6915143 C3.79005637,51.3587429 6.65562017,66.5362286 17.5150666,74.8151429 C22.9448143,78.9549143 29.5103811,80.7073714 35.887276,80.1862857 L35.887276,80.1862857 Z" id="Shape" stroke-width="1.5" fill="#221E20"></path>
                            <path d="M56.7944449,66.5396857 C56.7944449,66.9564545 56.6288841,67.3561535 56.3341841,67.6508535 C56.0394841,67.9455536 55.6397851,68.1111143 55.2230163,68.1111143 C54.8062475,68.1111143 54.4065485,67.9455536 54.1118485,67.6508535 C53.8171484,67.3561535 53.6515877,66.9564545 53.6515877,66.5396857 C53.6515877,66.1229169 53.8171484,65.7232179 54.1118485,65.4285179 C54.4065485,65.1338179 54.8062475,64.9682571 55.2230163,64.9682571 C55.6397851,64.9682571 56.0394841,65.1338179 56.3341841,65.4285179 C56.6288841,65.7232179 56.7944449,66.1229169 56.7944449,66.5396857 L56.7944449,66.5396857 Z" id="Shape" stroke-width="1.5" fill="#221E20" transform="translate(55.223016, 66.539686) scale(-1, -1) translate(-55.223016, -66.539686) "></path>
                        </g>
                        <g id="Italy" transform="translate(0.000000, 28.000000)">
                            <g id="Shape">
                                <use fill="#221E20" fill-rule="evenodd" xlink:href="#path-1"></use>
                                <use stroke="#F5F5F5" mask="url(#mask-2)" stroke-width="12" xlink:href="#path-1"></use>
                                <use stroke="#221E20" stroke-width="1" xlink:href="#path-1"></use>
                            </g>
                            <g id="Shape">
                                <use fill="#221E20" fill-rule="evenodd" xlink:href="#path-3"></use>
                                <use stroke="#F5F5F5" mask="url(#mask-4)" stroke-width="12" xlink:href="#path-3"></use>
                                <use stroke="#221E20" stroke-width="1" xlink:href="#path-3"></use>
                            </g>
                            <g id="Shape">
                                <use fill="#221E20" fill-rule="evenodd" xlink:href="#path-5"></use>
                                <use stroke="#F5F5F5" mask="url(#mask-6)" stroke-width="12" xlink:href="#path-5"></use>
                                <use stroke="#221E20" stroke-width="1" xlink:href="#path-5"></use>
                            </g>
                            <g id="Shape">
                                <use fill="#221E20" fill-rule="evenodd" xlink:href="#path-7"></use>
                                <use stroke="#F5F5F5" mask="url(#mask-8)" stroke-width="12" xlink:href="#path-7"></use>
                                <use stroke="#221E20" stroke-width="1" xlink:href="#path-7"></use>
                            </g>
                        </g>
                    </g>
                </g>
            </g>
        </g>
    </g>
</svg>