<?xml version="1.0" encoding="UTF-8"?>
<svg width="32px" height="16px" viewBox="0 0 32 16" version="1.1" xmlns="http://www.w3.org/2000/svg" xmlns:xlink="http://www.w3.org/1999/xlink">
    <!-- Generator: Sketch 42 (36781) - http://www.bohemiancoding.com/sketch -->
    <title>Shape Copy</title>
    <desc>Created with Sketch.</desc>
    <defs></defs>
    <g id="Map" stroke="none" stroke-width="1" fill="none" fill-rule="evenodd">
        <g id="Map/map_point_1440" transform="translate(-691.000000, -599.000000)" fill="#221E20">
            <g id="Group-7" transform="translate(552.000000, 248.000000)">
                <path d="M156.418836,351.276046 L156.24802,351.276046 C155.799067,351.319728 155.35745,351.422621 154.934052,351.58219 C152.222898,352.613175 150.326404,354.112379 147.588971,356.507505 L147.291138,356.768628 C144.549325,357.394422 141.299444,358.24082 139.81028,360.104696 C139.409375,360.586561 139.278578,361.246884 139.464269,361.851518 C139.586906,362.243202 139.731442,362.751941 139.902258,363.229165 L139.560626,363.229165 C139.251001,363.229165 139,363.48717 139,363.805436 L139,364.705859 C139.002406,365.022365 139.252703,365.277638 139.560626,365.277628 L142.937524,365.277628 C143.523248,366.335073 144.615988,366.988083 145.799784,366.988083 C146.983581,366.988083 148.076321,366.335073 148.662045,365.277628 L161.363735,365.277628 C161.947633,366.341768 163.044003,367 164.232565,367 C165.421128,367 166.517497,366.341768 167.101395,365.277628 L167.539385,365.277628 L170.776126,363.476782 C170.92092,363.393376 171.007408,363.233005 170.999501,363.062587 L170.999501,360.730491 C170.999501,360.519142 170.83282,360.347811 170.62721,360.347811 L170.333757,360.347811 L170.333757,353.950303 C170.274558,352.449837 169.096055,351.252214 167.635742,351.208514 C162.502508,350.915877 160.246862,350.924881 156.418836,351.276046 Z M144.417928,363.611845 C144.417928,362.826127 145.037587,362.189176 145.801974,362.189176 C146.566362,362.189176 147.186021,362.826127 147.186021,363.611845 C147.186021,364.397563 146.566362,365.034514 145.801974,365.034514 L145.626779,365.034514 C144.931503,364.943338 144.412293,364.332292 144.417928,363.611845 L144.417928,363.611845 Z M156.418836,358.074242 C156.418836,358.392507 156.167835,358.650513 155.858209,358.650513 L150.663656,358.650513 C150.346125,358.65571 150.08217,358.400349 150.06799,358.074242 L150.06799,357.70957 C150.096668,357.341403 150.270775,357.001369 150.549779,356.768628 C152.275457,355.278427 153.563145,354.310472 155.367661,353.617147 C155.527658,353.556083 155.691563,353.506442 155.858209,353.468577 C156.000588,353.439781 156.147979,353.479112 156.258752,353.575459 C156.369526,353.671806 156.431656,353.81471 156.427595,353.963809 L156.427595,358.074242 L156.418836,358.074242 Z M164.236945,362.180172 C165.001333,362.180172 165.620992,362.817123 165.620992,363.602841 C165.620992,364.388559 165.001333,365.02551 164.236945,365.02551 C163.472558,365.02551 162.852899,364.388559 162.852899,363.602841 C162.855313,362.818881 163.474265,362.18467 164.236945,362.184674 L164.236945,362.180172 Z" id="Shape-Copy"></path>
            </g>
        </g>
    </g>
</svg>