<?xml version="1.0" encoding="UTF-8"?>
<svg width="40px" height="40px" viewBox="0 0 40 40" version="1.1" xmlns="http://www.w3.org/2000/svg" xmlns:xlink="http://www.w3.org/1999/xlink">
    <!-- Generator: sketchtool 41.2 (35397) - http://www.bohemiancoding.com/sketch -->
    <title>A1A434A4-9664-4673-BA49-2F7E145B7113</title>
    <desc>Created with sketchtool.</desc>
    <defs>
        <rect id="path-1" x="0" y="0" width="40" height="40" rx="2"></rect>
        <mask id="mask-2" maskContentUnits="userSpaceOnUse" maskUnits="objectBoundingBox" x="0" y="0" width="40" height="40" fill="white">
            <use xlink:href="#path-1"></use>
        </mask>
    </defs>
    <g id="Home" stroke="none" stroke-width="1" fill="none" fill-rule="evenodd">
        <g id="Home/typical_page_1440" transform="translate(-1032.000000, -1585.000000)">
            <g id="footer" transform="translate(0.000000, 1569.000000)">
                <g id="Group-6" transform="translate(1032.000000, 16.000000)">
                    <g id="Group-5">
                        <path d="M19.5196483,26.9441359 L20.8046483,26.9441359 C20.8046483,26.9441359 21.1926483,26.8988959 21.3911483,26.6726959 C21.5736483,26.4646959 21.5681483,26.0741759 21.5681483,26.0741759 C21.5681483,26.0741759 21.5426483,24.2468959 22.3431483,23.9780559 C23.1321483,23.7128559 24.1451483,25.7439759 25.2191483,26.5250159 C26.0311483,27.1157359 26.6481483,26.9867759 26.6481483,26.9867759 L29.5196483,26.9441359 C29.5196483,26.9441359 31.0211483,26.8458559 30.3091483,25.5942159 C30.2506483,25.4922959 29.8941483,24.6686159 28.1741483,22.9770559 C26.3736483,21.2059359 26.6146483,21.4924559 28.7836483,18.4291359 C30.1041483,16.5638959 30.6326483,15.4250959 30.4671483,14.9373359 C30.3101483,14.4724559 29.3386483,14.5951759 29.3386483,14.5951759 L26.1056483,14.6164959 C26.1056483,14.6164959 25.8661483,14.5816559 25.6881483,14.6944959 C25.5146483,14.8047359 25.4031483,15.0621359 25.4031483,15.0621359 C25.4031483,15.0621359 24.8911483,16.5056559 24.2086483,17.7333759 C22.7696483,20.3234959 22.1936483,20.4607759 21.9586483,20.2995759 C21.4111483,19.9246559 21.5481483,18.7936559 21.5481483,17.9902559 C21.5481483,15.4796959 21.9071483,14.4329359 20.8481483,14.1620159 C20.4966483,14.0720559 20.2376483,14.0122559 19.3391483,14.0028959 C18.1856483,13.9904159 17.2091483,14.0065359 16.6566483,14.2935759 C16.2886483,14.4849359 16.0046483,14.9097759 16.1781483,14.9342159 C16.3916483,14.9643759 16.8756483,15.0725359 17.1316483,15.4427759 C17.4631483,15.9201359 17.4516483,16.9928959 17.4516483,16.9928959 C17.4516483,16.9928959 17.6421483,19.9480559 17.0071483,20.3151759 C16.5711483,20.5668559 15.9736483,20.0530959 14.6896483,17.7026959 C14.0326483,16.4988959 13.5361483,15.1682159 13.5361483,15.1682159 C13.5361483,15.1682159 13.4406483,14.9196559 13.2696483,14.7865359 C13.0621483,14.6248159 12.7726483,14.5738559 12.7726483,14.5738559 L9.70064831,14.5951759 C9.70064831,14.5951759 9.23964831,14.6086959 9.07014831,14.8213759 C8.91964831,15.0106559 9.05814831,15.4011759 9.05814831,15.4011759 C9.05814831,15.4011759 11.4631483,21.3645359 14.1866483,24.3696159 C16.6841483,27.1250959 19.5196483,26.9441359 19.5196483,26.9441359 L19.5196483,26.9441359 L19.5196483,26.9441359 L19.5196483,26.9441359 Z" id="ic_vk" fill="#FCC91C"></path>
                    </g>
                </g>
            </g>
        </g>
    </g>
</svg>