<?xml version="1.0" encoding="UTF-8"?>
<svg width="192px" height="218px" viewBox="0 0 192 218" version="1.1" xmlns="http://www.w3.org/2000/svg" xmlns:xlink="http://www.w3.org/1999/xlink">
    <!-- Generator: Sketch 42 (36781) - http://www.bohemiancoding.com/sketch -->
    <title>Group 5</title>
    <desc>Created with Sketch.</desc>
    <defs></defs>
    <g id="Home" stroke="none" stroke-width="1" fill="none" fill-rule="evenodd">
        <g id="Home/home_1440" transform="translate(-949.000000, -961.000000)">
            <g id="Как-это-работает?" transform="translate(160.000000, 856.000000)">
                <g id="Group-5" transform="translate(786.000000, 105.000000)">
                    <g id="Group-9" transform="translate(3.000000, 87.000000)">
                        <path d="M133.5,16.7639752 L156,16.7639752 L156,12.2414781 C156,11.0035439 157.006328,10 158.243318,10 L171.756682,10 C172.995632,10 174,11.0087825 174,12.2414781 L174,16.7639752 L180.741665,16.7639752 C186.959472,16.7639752 192,21.8034266 192,28.0116872 L192,112.988313 C192,119.200253 186.963156,124.236025 180.741665,124.236025 L166.5,124.236025 L166.5,128.758522 C166.5,129.996456 165.492657,131 164.244052,131 L149.255948,131 C148.010022,131 147,129.991218 147,128.758522 L147,124.236025 L46.5,124.236025 L46.5,128.758522 C46.5,129.996456 45.4926575,131 44.2440524,131 L29.2559476,131 C28.0100221,131 27,129.991218 27,128.758522 L27,124.236025 L11.2583347,124.236025 C5.04052813,124.236025 0,119.196573 0,112.988313 L0,28.0116872 C0,21.7997474 5.03684413,16.7639752 11.2583347,16.7639752 L18,16.7639752 L18,12.2414781 C18,11.0035439 18.9985042,10 20.2553678,10 L131.244632,10 C132.490237,10 133.5,11.0087825 133.5,12.2414781 L133.5,16.7639752 Z M9.75,31.7959881 L9.75,109.204012 C9.75,111.285405 11.4292515,112.962733 13.5007132,112.962733 L176.999287,112.962733 C179.071343,112.962733 180.75,111.279896 180.75,109.204012 L180.75,31.7959881 C180.75,29.7145952 179.070748,28.0372671 176.999287,28.0372671 L13.5007132,28.0372671 C11.428657,28.0372671 9.75,29.7201038 9.75,31.7959881 Z" id="Combined-Shape" fill="#FFFFFF"></path>
                        <text id="12:20" font-family="BebasNeueBold, Bebas Neue" font-size="76.5" font-weight="bold" letter-spacing="3" fill="#FFFFFF">
                            <tspan x="17.4225" y="95.5279503">12:20</tspan>
                        </text>
                        <polygon id="Path-5" fill="#F5F5F5" points="56 8 88.5 29 145.5 37 145.5 0"></polygon>
                    </g>
                    <g id="Group" transform="translate(51.000000, 0.000000)" fill="#221E20">
                        <path d="M64.846,29.934 C65.129,30.373 65.608,30.614 66.096,30.614 C66.373,30.614 66.653,30.537 66.903,30.376 C67.592,29.929 67.792,29.008 67.344,28.317 C67.299,28.247 62.715,20.977 66.604,16.022 C68.752,13.282 69.127,9.832 67.692,6.043 C66.665,3.337 65.055,1.397 64.989,1.315 C64.462,0.684 63.522,0.6 62.891,1.127 C62.26,1.654 62.178,2.591 62.703,3.223 C62.775,3.311 67.875,9.577 64.264,14.184 C59.061,20.816 64.605,29.564 64.846,29.934 L64.846,29.934 Z" id="Shape" stroke="#221E20" stroke-width="1.5"></path>
                        <path d="M74.834,29.934 C75.119,30.373 75.598,30.614 76.084,30.614 C76.361,30.614 76.643,30.537 76.893,30.376 C77.582,29.929 77.782,29.008 77.334,28.317 C77.289,28.247 72.705,20.977 76.594,16.022 C78.742,13.282 79.117,9.832 77.68,6.043 C76.653,3.337 75.043,1.397 74.977,1.315 C74.45,0.684 73.512,0.6 72.879,1.127 C72.25,1.654 72.166,2.591 72.691,3.221 C72.744,3.284 77.871,9.569 74.252,14.184 C69.049,20.816 74.596,29.564 74.834,29.934 L74.834,29.934 Z" id="Shape" stroke="#221E20" stroke-width="1.5"></path>
                        <path d="M12.338,30.623 C12.623,31.062 13.101,31.305 13.589,31.305 C13.866,31.305 14.146,31.227 14.396,31.065 C15.086,30.62 15.285,29.698 14.837,29.007 C14.792,28.936 10.209,21.667 14.097,16.711 C16.246,13.971 16.621,10.522 15.183,6.732 C14.156,4.025 12.547,2.086 12.48,2.004 C11.954,1.373 11.015,1.29 10.384,1.817 C9.753,2.342 9.669,3.281 10.195,3.911 C10.248,3.974 15.375,10.258 11.756,14.873 C6.552,21.506 12.099,30.253 12.338,30.623 L12.338,30.623 Z" id="Shape" stroke="#221E20" stroke-width="1.5"></path>
                        <path d="M22.327,30.623 C22.612,31.062 23.09,31.305 23.578,31.305 C23.854,31.305 24.136,31.227 24.386,31.065 C25.075,30.62 25.273,29.698 24.826,29.007 C24.781,28.936 20.199,21.667 24.086,16.711 C26.235,13.971 26.61,10.522 25.172,6.732 C24.146,4.025 22.537,2.086 22.47,2.004 C21.943,1.373 21.004,1.29 20.373,1.817 C19.743,2.342 19.659,3.281 20.185,3.911 C20.238,3.974 25.365,10.258 21.745,14.873 C16.542,21.506 22.089,30.253 22.327,30.623 L22.327,30.623 Z" id="Shape" stroke="#221E20" stroke-width="1.5"></path>
                        <path d="M85.059,63.477 L81.903,63.477 C81.16,44.91 66.621,29.833 48.281,28.241 L48.281,26.724 C50.142,25.611 51.299,23.614 51.299,21.394 C51.299,17.956 48.502,15.162 45.066,15.162 L44.933,15.162 C41.495,15.162 38.701,17.957 38.701,21.394 C38.701,23.614 39.857,25.611 41.719,26.724 L41.719,28.241 C23.379,29.833 8.84,44.909 8.098,63.476 L4.94,63.476 C2.215,63.476 0,65.693 0,68.415 L0,70.274 C0,73.002 2.216,75.218 4.94,75.218 L85.06,75.218 C87.785,75.218 89.999,73 89.999,70.274 L89.999,68.415 C89.998,65.691 87.781,63.477 85.059,63.477 L85.059,63.477 Z M41.674,21.395 C41.674,19.6 43.134,18.141 44.931,18.141 L45.064,18.141 C46.86,18.141 48.321,19.6 48.321,21.395 C48.321,22.737 47.508,23.924 46.247,24.418 C45.679,24.643 45.305,25.191 45.305,25.803 L45.305,28.102 L44.694,28.102 L44.694,25.803 C44.694,25.192 44.319,24.643 43.751,24.418 C42.488,23.923 41.674,22.736 41.674,21.395 L41.674,21.395 Z M87.021,70.275 C87.021,71.361 86.14,72.244 85.058,72.244 L4.937,72.244 C3.855,72.244 2.974,71.361 2.974,70.275 L2.974,68.416 C2.974,67.334 3.855,66.452 4.937,66.452 L7.384,66.452 C7.398,66.453 7.411,66.455 7.425,66.455 L60.873,66.455 C61.695,66.455 62.361,65.788 62.361,64.967 C62.361,64.145 61.695,63.479 60.873,63.479 L11.077,63.479 C11.856,45.526 26.668,31.151 44.793,31.08 L45.202,31.08 C63.328,31.15 78.141,45.525 78.92,63.479 L70.5,63.479 C69.68,63.479 69.012,64.145 69.012,64.967 C69.012,65.788 69.68,66.455 70.5,66.455 L81.994,66.452 L85.058,66.452 C86.14,66.452 87.021,67.334 87.021,68.416 L87.021,70.275 L87.021,70.275 Z" id="Shape" stroke="#221E20" stroke-width="1.5"></path>
                        <g id="Group-4" transform="translate(13.000000, 83.000000)">
                            <path d="M60.3831579,29.8252632 L59.32,29.8252632 C58.6631579,29.8252632 58.0463158,29.5178947 57.6463158,28.9978947 L55.7136842,26.4673684 L27.3094737,26.4673684 C26.9052632,26.4673684 26.5073684,26.3494737 26.1663158,26.1305263 L3.17684211,11.2736842 C3.09684211,11.2231579 3.01894737,11.1642105 2.94736842,11.1010526 C1.25052632,9.64421053 0.151578947,7.01684211 1.74947368,4.69052632 C2.72210526,3.27578947 4.20421053,2.49684211 5.92210526,2.49684211 C7.53052632,2.49684211 8.83157895,3.16631579 9.07789474,3.30315789 C14.4505263,5.83368421 24.2147368,10.0357895 27.0568421,10.2821053 C28.6821053,10.4189474 31.9957895,10.5978947 35.2021053,10.5663158 C33.3578947,10.0421053 31.3431579,9.52 29.4673684,9.08 C29.3894737,9.06105263 29.3136842,9.03789474 29.2378947,9.01263158 C26.6694737,8.09263158 26.0610526,6.03368421 26.3178947,4.54947368 C26.6778947,2.48 28.6484211,0.793684211 30.7115789,0.793684211 C33.6652632,0.793684211 37.6547368,0.793684211 45.7221053,0.854736842 C50.3663158,0.892631579 65.32,4.76 65.32,7.91578947 C65.32,8.01473684 65.3136842,8.11578947 65.2989474,8.21473684 L62.4694737,28.0189474 C62.32,29.0547368 61.4315789,29.8252632 60.3831579,29.8252632 Z M27.9305263,22.2568421 L56.7536842,22.2568421 C57.4105263,22.2568421 58.0273684,22.5642105 58.4273684,23.0842105 L58.84,23.6273684 L60.9052632,9.16210526 C58.0589474,7.88842105 51.2378947,5.10947368 45.6863158,5.06736842 C37.6357895,5.00631579 33.6547368,5.00631579 30.7094737,5.00631579 C30.6989474,5.01052632 30.68,5.02315789 30.6610526,5.04 C43.7915789,8.13473684 44.6378947,9.74105263 45.0442105,10.5178947 C45.4378947,11.2673684 45.4105263,12.1410526 44.9789474,12.8547368 C44.2947368,13.9831579 43.1831579,14.7810526 35.0652632,14.7810526 C31.7094737,14.7810526 28.4421053,14.6315789 26.6968421,14.48 C22.1684211,14.0884211 8.68631579,7.77263158 7.16421053,7.05473684 C6.91157895,6.92421053 6.39789474,6.71157895 5.92421053,6.71157895 C5.58736842,6.71157895 5.41052632,6.80421053 5.22105263,7.08 C5.19157895,7.24842105 5.39368421,7.6 5.62947368,7.84842105 L27.9305263,22.2568421 Z" id="Shape"></path>
                            <path d="M77.2526316,37.8947368 C77.0926316,37.8947368 76.9305263,37.8757895 76.7705263,37.84 L59.7642105,33.8357895 C58.7052632,33.5852632 58.0105263,32.5663158 58.1621053,31.4905263 L61.8421053,5.61052632 C61.9221053,5.05052632 62.2231579,4.54736842 62.6778947,4.21263158 C63.1326316,3.87789474 63.7052632,3.73684211 64.2610526,3.82736842 L77.5873684,5.97473684 C78.6063158,6.13894737 79.3578947,7.01894737 79.3578947,8.05263158 L79.3578947,35.7894737 C79.3578947,36.4336842 79.0631579,37.0421053 78.56,37.44 C78.1852632,37.7368421 77.7221053,37.8947368 77.2526316,37.8947368 Z M62.6021053,30.1768421 L75.1473684,33.1305263 L75.1473684,9.84421053 L65.7094737,8.32421053 L62.6021053,30.1768421 Z" id="Shape"></path>
                        </g>
                    </g>
                </g>
            </g>
        </g>
    </g>
</svg>