<?xml version="1.0" encoding="UTF-8"?>
<svg width="16px" height="19px" viewBox="0 0 16 19" version="1.1" xmlns="http://www.w3.org/2000/svg" xmlns:xlink="http://www.w3.org/1999/xlink">
    <!-- Generator: sketchtool 41.2 (35397) - http://www.bohemiancoding.com/sketch -->
    <title>0037222A-5FC3-4685-9E12-8A5BF625ED07</title>
    <desc>Created with sketchtool.</desc>
    <defs></defs>
    <g id="Home" stroke="none" stroke-width="1" fill="none" fill-rule="evenodd">
        <g id="Home/typical_page_1440" transform="translate(-1220.000000, -35.000000)">
            <g id="header">
                <g id="Group-4" transform="translate(1216.000000, 32.000000)">
                    <rect id="Rectangle-5" x="0" y="0" width="24" height="24"></rect>
                    <path d="M17.3611011,20 C17.3412024,19.9326155 17.3181919,19.858756 17.2918495,19.7792307 C17.1106678,19.2322592 16.851562,18.6847285 16.5077262,18.1836542 C15.5583079,16.8000604 14.1573595,16 12,16 C9.8414908,16 8.44195862,16.7971623 7.49530045,18.1746575 C7.15274335,18.673117 6.8948233,19.21777 6.71468618,19.7618355 C6.68604768,19.8483319 6.66138189,19.9280721 6.6403997,20 L17.3611011,20 Z M12,14 C18.5,14 19.4386247,20.1041117 19.4386247,20.1041117 C19.7486637,21.1511819 19.1054862,22 18.0059397,22 L5.99406028,22 C4.8927712,22 4.21944409,21.1286308 4.56902014,20.0838007 C4.56902014,20.0838007 5.5,14 12,14 Z M12,11 C13.6568542,11 15,9.65685425 15,8 C15,6.34314575 13.6568542,5 12,5 C10.3431458,5 9,6.34314575 9,8 C9,9.65685425 10.3431458,11 12,11 Z M12,13 C9.23857625,13 7,10.7614237 7,8 C7,5.23857625 9.23857625,3 12,3 C14.7614237,3 17,5.23857625 17,8 C17,10.7614237 14.7614237,13 12,13 Z" id="Combined-Shape" fill="#FFFFFF"></path>
                </g>
            </g>
        </g>
    </g>
</svg>