<?xml version="1.0" encoding="UTF-8"?>
<svg width="40px" height="40px" viewBox="0 0 40 40" version="1.1" xmlns="http://www.w3.org/2000/svg" xmlns:xlink="http://www.w3.org/1999/xlink">
    <!-- Generator: Sketch 42 (36781) - http://www.bohemiancoding.com/sketch -->
    <title>Rectangle 6 Copy 2</title>
    <desc>Created with Sketch.</desc>
    <defs></defs>
    <g id="Profile" stroke="none" stroke-width="1" fill="none" fill-rule="evenodd">
        <g id="Profile/login_1440">
            <g id="Group">
                <g id="Group-6">
                    <g id="Group-4">
                        <g id="Rectangle-6-Copy-2">
                            <rect x="0" y="0" width="40" height="40" rx="2"></rect>
                            <path d="M15.23304,30 C23.91232,30 28.65952,22.6895625 28.65952,16.3499841 C28.65952,16.1423437 28.65952,15.9356387 28.64572,15.729869 C29.5692449,15.0507455 30.366447,14.2098661 31,13.2466024 C30.1387687,13.6345735 29.2251629,13.8890049 28.28968,14.0014032 C29.2747645,13.4018482 30.0120336,12.4588522 30.36428,11.3479089 C29.4379849,11.906719 28.4245944,12.3005405 27.36784,12.5123786 C25.9051162,10.9311264 23.5808618,10.5441093 21.6983853,11.5683444 C19.8159089,12.5925795 18.843373,14.7733444 19.32612,16.8877914 C15.5319441,16.6944142 11.9969177,14.8724857 9.6008,11.8754277 C8.34833294,14.0674784 8.98806885,16.8717596 11.06176,18.279543 C10.3108019,18.2569154 9.57621702,18.0509639 8.92,17.6790695 L8.92,17.7398651 C8.92061468,20.0235285 10.5040114,21.990446 12.7058,22.4426389 C12.01108,22.6352581 11.2821741,22.6634151 10.57508,22.5249468 C11.1932721,24.4792194 12.9648486,25.8179957 14.98372,25.8565458 C13.3127562,27.1916471 11.2485748,27.9164203 9.12332,27.9142432 C8.74787128,27.9135104 8.37278774,27.8903996 8,27.8450297 C10.1579851,29.2529404 12.6689203,29.9997352 15.23304,29.9962587" id="Shape" fill="#231F20" fill-rule="evenodd"></path>
                        </g>
                    </g>
                </g>
            </g>
        </g>
    </g>
</svg>