<?xml version="1.0" encoding="UTF-8"?>
<svg width="40px" height="40px" viewBox="0 0 40 40" version="1.1" xmlns="http://www.w3.org/2000/svg" xmlns:xlink="http://www.w3.org/1999/xlink">
    <!-- Generator: Sketch 42 (36781) - http://www.bohemiancoding.com/sketch -->
    <title>Group 11</title>
    <desc>Created with Sketch.</desc>
    <defs></defs>
    <g id="Profile" stroke="none" stroke-width="1" fill="none" fill-rule="evenodd">
        <g id="Profile/wallet_768" transform="translate(-40.000000, -548.000000)">
            <g id="Group" transform="translate(24.000000, 256.000000)">
                <g id="Group-5" transform="translate(16.000000, 292.000000)">
                    <g id="Group-11">
                        <rect id="Rectangle-6" fill="#231F20" opacity="0.100000001" x="0" y="0" width="40" height="40" rx="2"></rect>
                        <path d="M31.9999985,12.0243622 L31.9999985,23.0049214 C31.9999985,24.0053 31,25.0056786 29.9788434,25.0056786 L29,25.0056786 L29,23.0049214 L29.9788434,23.0049214 L29.9788434,12.0243622 L14,12.0292461 L14,15.0018929 L12,15.0018929 L12,12.0292461 C12,11.0003786 12.88026,10.0013455 14,10 L29.9788434,10 C31.0938233,10.0053554 31.995991,10.9089545 31.9999985,12.0243622 Z M27.0008129,19.0034072 C27.0008129,18.0674495 25.9356035,17.00265 25,17.00265 L10,17.00265 C9.06821185,17.0080227 7.99998628,18.0712508 8.00000176,19.0034072 L8.00000176,20.0037857 L27.0008129,20.0037857 L27.0008129,19.0034072 Z M10,30 L25,30 C25.9356035,30 27.0105769,28.9741577 27.0105769,28.0068143 L27.0105769,22.0045429 L8.00000176,22.0045429 L8.00000176,28.0068143 C8.00000176,29.0071929 9,30 10,30 Z" id="Shape" fill="#000000"></path>
                    </g>
                </g>
            </g>
        </g>
    </g>
</svg>