<?xml version="1.0" encoding="UTF-8"?>
<svg width="81px" height="49px" viewBox="0 0 81 49" version="1.1" xmlns="http://www.w3.org/2000/svg" xmlns:xlink="http://www.w3.org/1999/xlink">
    <!-- Generator: sketchtool 41.2 (35397) - http://www.bohemiancoding.com/sketch -->
    <title>4F79032C-5838-4A3D-AE83-A8D5FCAD601A</title>
    <desc>Created with sketchtool.</desc>
    <defs>
        <polygon id="path-1" points="78.3557851 18.6012875 78.3557851 0.201495868 0.0258033923 0.201495868 0.0258033923 18.6012875 78.3557851 18.6012875"></polygon>
        <polygon id="path-3" points="0 49.0009835 80.6987603 49.0009835 80.6987603 0.334710744 0 0.334710744"></polygon>
    </defs>
    <g id="Home" stroke="none" stroke-width="1" fill="none" fill-rule="evenodd">
        <g id="Home/global_menu_768" transform="translate(-89.000000, -29.000000)">
            <g id="Group-4">
                <g id="Group-2" transform="translate(89.000000, 29.000000)">
                    <g id="Page-1">
                        <g id="Group-3" transform="translate(2.342975, 0.133215)">
                            <mask id="mask-2" fill="white">
                                <use xlink:href="#path-1"></use>
                            </mask>
                            <g id="Clip-2"></g>
                            <path d="M4.31097397,8.45472645 C3.43202355,8.65655702 3.51302355,9.01871405 4.09441612,9.06624298 C4.78894091,9.26104463 5.04901116,9.70051983 4.50744917,9.80494959 C3.70414339,9.8491314 3.72188306,10.1912058 3.89526322,10.3655901 C4.25206488,10.8981149 0.0755442149,9.60378843 1.09641198,8.73287107 C1.71227975,8.15214793 3.37713099,7.4750281 4.18010207,7.53996198 C4.98441198,7.60456116 5.39878388,8.17658182 4.31097397,8.45472645 M46.3570029,10.6296769 C46.739912,9.46555289 47.6278996,7.14768099 47.6278996,7.14768099 C47.9967508,5.98790826 49.19535,5.59094132 49.5759161,6.2694 C49.9561475,6.94618512 49.913974,8.06913967 49.8935566,8.70408595 C49.8707963,9.33836281 49.8038541,10.1503711 49.7379161,10.3291066 C49.4965897,10.4519455 49.07385,11.2709826 49.6435277,11.5086273 C50.4388004,11.7288669 50.5007219,11.167557 50.5241517,10.752181 C50.6091682,10.4556273 51.7853417,9.59910248 52.136788,9.38120579 C52.4882343,9.16632149 53.3601558,9.06557355 53.6279244,9.7242843 C53.7644864,9.8491314 53.5874244,10.9282388 52.3071558,11.3921479 C51.4385814,11.7958091 50.359474,12.0702719 49.5759161,12.3457388 C48.7920236,12.6198669 48.4332136,13.2136438 47.7115773,12.6844661 C46.9929533,12.1552884 45.9771062,11.7958091 46.3570029,10.6296769 M78.3526723,9.55793306 C78.327569,9.4036314 78.1836434,9.29853223 78.0293417,9.32296612 L74.3421682,9.90636694 L74.2789079,9.56429256 L78.0293417,8.97018099 C78.1856517,8.94608182 78.2907508,8.80382975 78.2666517,8.64885868 C78.2402095,8.49455702 78.0952798,8.38811901 77.9423169,8.41322231 L74.1751475,9.00733388 L74.105193,8.63212314 L77.886755,8.03600331 C78.0410566,8.01190413 78.1468252,7.86831322 78.1223913,7.71401157 C78.099631,7.55803636 77.9530277,7.45260248 77.8000649,7.47737107 L74.0024368,8.07784215 L73.9371682,7.70698264 L77.7742921,7.1011562 C77.9292632,7.07605289 78.0343624,6.93112314 78.0099285,6.77782562 C77.9844905,6.62251983 77.8419037,6.51909421 77.6882715,6.54252397 L73.8340773,7.15035868 L73.8313996,7.14768099 L73.2868252,7.23370165 L73.2868252,7.23704876 C72.3606806,7.4750281 72.6783211,8.62542893 71.7484946,8.80014793 C69.014912,9.31259008 66.9999533,9.68746612 65.3605401,9.98736694 C65.3361062,9.92611488 65.3083252,9.86586694 65.2838913,9.80494959 C65.0405566,9.23627603 64.3323087,9.68512314 63.4041558,10.3445033 C62.4870483,10.5131975 61.6680112,10.6634826 60.8516517,10.8117595 C59.9188128,11.2589331 60.094536,11.8319579 60.9905566,11.9009083 C61.087288,11.8818298 61.1836847,11.8597388 61.2800814,11.8386521 C58.4604781,13.258495 55.6231351,13.9105116 51.7428335,13.1841893 C51.6859326,13.6678463 47.6051393,14.716495 47.3872426,14.7231893 C45.9248913,15.3323628 44.3996145,15.5295074 43.5725442,15.5934372 C42.5905029,15.556619 42.1456723,15.3457512 41.5967467,15.1640033 C41.0920029,15.0649289 41.6235236,15.5328545 42.6075731,15.7925901 C40.9788707,16.538995 40.0610938,16.1192678 39.5339244,16.1487223 C39.2403831,14.5541603 40.0774946,12.8591851 40.8275814,11.653557 C41.5763293,10.4502719 44.0829781,7.42682975 44.1576186,7.38264793 C44.2449781,7.36557769 44.3567715,7.33244132 44.4685649,7.29729669 L44.4685649,7.2942843 L44.471912,7.29595785 C44.7042012,7.22064793 44.9294616,7.13697025 44.9294616,7.13697025 C44.2469864,10.2611603 44.431412,11.2652926 44.6108169,12.3132719 C44.725288,13.0392595 44.9120566,13.8097636 45.0673624,13.9205529 C45.1597426,13.9858215 45.1928789,13.5302802 45.175474,12.9425281 C45.2544657,12.9381769 45.3334574,12.9522347 45.4117798,13.0499702 C45.7431434,13.5192347 48.3143913,13.8609744 51.7428335,13.1557388 C52.1689202,12.9247884 53.078664,12.4243959 53.5760442,12.0809826 C54.2421186,11.6291231 55.0233335,11.2542471 55.1860029,11.0396975 C55.3496764,10.8258174 56.386945,8.25222645 56.3096269,7.14768099 C56.328036,6.56193719 56.7444161,2.49118512 56.5907839,2.32282562 C55.2050814,2.85267273 54.1152632,4.04290413 54.1634616,4.76688347 C53.7674988,4.14298264 52.3299161,3.6181562 51.9821517,3.64024711 L50.49135,0.201428926 C50.49135,0.201428926 47.1047467,2.67527603 48.7307715,4.01144132 C47.9418583,4.87265207 46.6729698,5.52600744 46.6729698,5.52600744 L46.1551723,6.30822645 C46.1551723,6.30822645 45.6400525,6.74970992 44.9776599,7.08475537 C45.9463128,5.84799917 45.6400525,4.43250744 44.6335773,2.79209008 C43.8627384,4.22163967 43.644507,5.07213967 43.9598045,6.11777603 C43.4784905,5.75394545 42.7317508,5.64650331 42.0355525,5.72080909 C42.4623087,6.84041653 43.4513789,7.26215207 44.021726,7.41946612 C43.8326145,7.45092893 43.644507,7.4626438 43.4651021,7.43720579 C42.0519533,6.82937107 39.0408955,5.68131322 35.5672674,5.27932562 C33.7109616,4.92720992 32.7091723,5.19230083 31.5671393,6.08463967 C30.4214244,6.98166446 30.3273707,7.57644545 29.314536,7.24240413 C28.3017012,6.9050157 27.4803211,6.58135041 27.4244244,7.11755702 C27.3698665,7.65008182 27.2624244,8.0390157 28.0329285,8.21808595 C28.8024285,8.39816033 30.2376682,8.60534628 31.1591269,7.88069752 C32.0795814,7.15604876 33.8394905,6.77213554 33.9127921,6.79087934 C35.3169037,6.8240157 37.0965607,8.16386281 38.0377674,8.95980496 C36.1510029,9.40831736 34.2183831,9.93950331 32.5334492,10.046276 C30.2118955,10.1975653 29.2569657,8.72651157 25.5577426,8.79512727 C24.9194492,8.80550331 24.3912756,8.84600331 23.9387467,8.90892893 L22.6367219,8.47916033 C18.8270442,7.01747851 19.5265897,3.86952397 13.745131,4.34313967 C7.96199876,4.81039587 7.88300702,5.69235868 3.96053182,6.95756529 C0.0360483471,8.22411074 -1.5575095,9.1231438 2.0222219,10.5131975 C5.60128388,11.9062636 6.99066818,10.387681 9.86918058,11.455743 C12.3805153,12.3865736 17.3101351,11.3804331 20.2395236,10.7645653 C20.0721682,10.8803752 19.8947715,10.9978587 19.6972921,11.119024 C17.6341351,12.3788752 17.1283872,12.5130942 16.377631,12.6315818 C15.6285483,12.7483959 13.5412921,13.2032678 12.1897302,12.9026975 C10.2437219,13.0593421 10.9248583,14.4557554 11.816193,14.1595364 C12.7691145,13.7903504 14.0547384,13.5456769 16.1152178,13.9456562 C17.4841847,13.9858215 18.3199574,13.4539661 20.3024492,13.6243339 C22.3127219,13.800057 22.637726,14.351995 22.3987426,14.4738298 C22.1621021,14.5959992 19.8683293,14.7710529 18.878255,14.7141521 C17.8881806,14.6549083 17.5420897,14.6241149 16.3957054,14.9290364 C15.2509946,15.2383091 14.6150442,15.5187967 13.3213872,15.2952099 C12.6335566,14.9866066 12.1920731,15.1198215 12.1823665,15.5228132 C12.201445,15.9857182 12.6924657,16.4526397 13.6637963,16.2417719 C14.89185,16.2156645 14.6612343,16.0968421 17.5929657,15.7644744 C20.5253665,15.435119 21.1074285,17.6770116 24.3825731,18.4434992 C27.1690401,18.9542678 28.8877798,18.0853587 32.4812343,17.8098917 C36.7139864,18.325681 41.027069,17.6027058 43.454726,16.7729579 C47.9770029,15.2289372 49.9437632,16.4171603 52.5518293,16.0650446 C57.7632756,15.7909165 60.7532467,13.870681 62.5998459,12.6908256 C63.5755277,12.5743463 64.4213417,12.0280983 65.0023996,11.6876975 C65.3980277,11.4600942 65.55735,11.2087264 65.5924946,10.9406231 C67.256007,10.6095942 69.2753169,10.2193215 71.9734202,9.71323884 C72.7459326,9.56830909 72.7071062,10.7280818 73.8554988,10.5547017 L73.8554988,10.5503504 L74.4449244,10.4680116 L74.444255,10.4606479 L78.1167012,9.88092893 C78.2710029,9.85783388 78.3761021,9.71323884 78.3526723,9.55793306" id="Fill-1" fill="#221F20" mask="url(#mask-2)"></path>
                        </g>
                        <path d="M46.5600384,8.01133512 C46.4619682,7.96782273 46.3264103,8.24061198 46.2313525,8.36646322 C45.3309806,9.56037645 44.8767781,10.9671657 45.4156624,13.0594426 C45.4457864,13.1785996 45.5117244,13.4336492 45.5421831,13.4232731 C45.6131417,13.4092153 45.5692946,13.1725748 45.5692946,13.0447153 C45.5639393,11.0438145 46.0415715,9.40138884 46.3357822,8.57933926 C46.4937657,8.14388058 46.6584434,8.05551694 46.5600384,8.01133512" id="Fill-4" fill="#221F20"></path>
                        <path d="M2.60997397,39.5467103 C2.18623017,39.4831153 1.75880455,39.5055409 1.35915992,39.6524789 C0.870482231,39.8024293 0.593341736,40.1625781 0.468494628,40.6298343 C0.679697107,40.9063054 0.93307314,41.0980946 1.25305661,41.1385946 C1.48568058,41.182107 1.71897397,41.2015202 1.95427562,41.2239459 C2.18623017,41.248045 2.31308554,41.1385946 2.44228388,40.9494831 C2.7170814,40.5250698 2.73950702,40.0574789 2.7170814,39.5684665 C2.67591198,39.5684665 2.65114339,39.5467103 2.60997397,39.5467103 M5.60396157,39.03795 C6.07155248,39.1651401 6.51738719,39.3144211 6.94213512,39.4831153 C7.68452355,39.7810079 9.25532107,40.8005368 9.99804421,40.9494831 C10.4860525,41.0341649 10.763193,40.8644665 11.1437591,40.5893343 C11.2930401,40.5019748 11.4188913,40.4189665 11.5899285,40.3764583 C11.5899285,40.4189665 11.6100112,40.4390492 11.6100112,40.4390492 C11.2930401,40.8005368 11.0808335,41.2239459 10.7427756,41.5419211 C10.6778417,41.6296153 10.5928252,41.6918715 10.5068045,41.7330409 C10.2500814,41.9037434 9.10537066,42.3070698 8.38507314,42.1169541 C7.53524256,41.8826566 6.70750289,41.5633426 5.92294091,41.182107 C5.60396157,41.0130781 5.28732521,40.8239665 4.96734174,40.6522599 C4.88232521,40.6074087 4.79764339,40.5438136 4.69154008,40.5019748 C4.54359793,40.7372764 4.39498636,40.9494831 4.26779628,41.182107 C4.16001942,41.3728921 4.01107314,41.5010864 3.77878388,41.5854335 C3.69309793,41.6296153 3.58732934,41.6918715 3.48156074,41.7330409 C2.60997397,42.0309335 1.73905661,42.2019707 0.870482231,41.6918715 C0.593341736,41.5419211 0.42431281,41.288545 0.211771488,41.0766731 C-0.104864876,40.7372764 -0.000100413223,40.3764583 0.103659917,40.014636 C0.170602066,39.8656897 0.319883058,39.7150698 0.443391322,39.6113095 C0.93307314,39.2086525 1.46325496,38.9961112 2.07979215,38.9536029 C2.31308554,38.9328508 2.52629628,38.9120988 2.80075909,38.8890037 C2.80075909,38.7397227 2.84494091,38.5917806 2.82318471,38.4411607 C2.82318471,37.8500616 2.78067645,37.2556153 2.80075909,36.6374045 C2.82318471,35.9181112 2.86703182,35.1750533 2.90820124,34.4540864 C2.97012273,33.7116979 3.0564781,32.9452103 3.16224669,32.2024872 C3.33294917,30.9282434 3.56590785,29.6770946 3.97023843,28.4664459 C4.16001942,27.8281525 4.41439959,27.2149624 4.79764339,26.640264 C5.13804421,26.1094128 5.51727149,25.6247517 6.09163512,25.3040988 C6.45278802,25.1133136 6.79318884,24.8796855 7.15266818,24.6450533 C7.47030868,24.434855 7.8324657,24.434855 8.19428802,24.4090822 C8.68196157,24.3685822 9.10537066,24.5617103 9.53112273,24.7307393 C9.80692438,24.8355037 10.0613045,24.9449541 10.27485,25.1544831 C10.338445,25.2190822 10.4237963,25.3040988 10.4656351,25.3864376 C10.5928252,25.6247517 10.5292302,25.7489293 10.2966062,25.8339459 C10.2323417,25.8577103 10.1476599,25.8577103 10.1252343,25.8128591 C10.0392136,25.7090988 9.91202355,25.7291814 9.78516818,25.6860037 C9.38217645,25.6006525 8.99960207,25.5166401 8.59761446,25.4520409 C8.27896983,25.4102021 7.96166405,25.3462723 7.66343678,25.3864376 C7.47030868,25.3864376 7.28186653,25.5591483 7.13325496,25.6860037 C6.77109793,25.9614707 6.45278802,26.3025409 6.28242025,26.7463674 C6.17732107,27.0027558 6.09163512,27.2775533 6.02804008,27.5540244 C5.81549876,28.381764 5.66655248,29.2295864 5.60396157,30.0794169 C5.56145331,30.6959541 5.45568471,31.3121566 5.41451529,31.9253467 C5.39242438,32.2459996 5.39242438,32.5639748 5.39242438,32.8622021 C5.39242438,33.0088054 5.37033347,33.1373343 5.37033347,33.2859459 C5.34857727,33.3488715 5.32882934,33.4144748 5.32882934,33.4974831 C5.30673843,33.8810616 5.30673843,34.2823798 5.28732521,34.6666277 C5.28732521,34.749636 5.26289132,34.8373302 5.24314339,34.9203384 C5.1156186,35.4070079 5.17988306,35.896355 5.13804421,36.3857021 C5.1156186,36.7237599 5.09553595,37.0849128 5.1156186,37.4464004 C5.13804421,37.7864665 5.07177149,38.1251938 5.05135413,38.4659293 C5.05135413,38.5917806 5.03060207,38.7397227 5.03060207,38.9120988 C5.24314339,38.9536029 5.43560207,38.9733508 5.60396157,39.03795" id="Fill-6" fill="#221F20"></path>
                        <path d="M13.9080682,39.9304562 C14.0145062,39.7604231 14.1423657,39.6114769 14.246126,39.4407744 C14.354907,39.2924975 14.4392541,39.1445554 14.5232665,38.9962785 C14.6086178,38.8667455 14.6722128,38.719138 14.7558905,38.5919479 C14.7994029,38.4861793 14.8619938,38.4025017 14.9275971,38.316481 C14.9898533,38.1678694 15.075874,38.0406793 15.1588822,37.913824 C15.4156054,37.4663157 15.6917417,37.043576 15.9672087,36.5974066 C16.369531,35.9182785 16.7112707,35.1963074 17.1550971,34.539605 C17.1785269,34.4957579 17.1785269,34.4542537 17.1982748,34.4100719 C17.2401136,34.3250554 17.2812831,34.2179479 17.3472211,34.1118446 C17.4539938,33.9023157 17.6016012,33.6894397 17.6651963,33.4343901 C17.8141426,33.3902083 17.9627541,33.3687868 18.1127045,33.3902083 C18.1317831,33.4538033 18.1127045,33.5187372 18.0685227,33.5615802 C17.9831715,33.6469314 17.9627541,33.7530347 18.0052624,33.8812289 C18.0052624,33.9434851 18.0052624,33.985324 17.9627541,34.0502579 C17.9430062,34.0934355 17.9430062,34.134605 17.9430062,34.1556917 C17.9192417,34.1968612 17.9192417,34.241043 17.8994938,34.2604562 C17.8559814,34.3250554 17.8345599,34.3886504 17.8559814,34.4733322 C17.8767335,34.5145017 17.8559814,34.5794355 17.8141426,34.6226132 C17.7943946,34.6882165 17.7287913,34.7494686 17.7287913,34.8123942 C17.6872872,35.0701215 17.539345,35.238481 17.3887252,35.428262 C17.3887252,35.4506876 17.3696467,35.4714397 17.3472211,35.5156215 C17.1785269,35.8533446 16.9639773,36.1505678 16.7738616,36.4926421 C16.7112707,36.6184934 16.6044979,36.6820884 16.5626591,36.7881917 C16.4977252,36.934795 16.435469,37.0626545 16.369531,37.1918529 C15.9672087,37.9563322 15.5645517,38.6977165 15.1170434,39.4210264 C15.0979649,39.4632 15.0544525,39.4829479 15.0340351,39.5053736 C14.9898533,39.5686339 14.9486839,39.6114769 14.9051715,39.6526463 C14.7364773,39.8240182 14.5871963,39.9729645 14.4392541,40.1426628 C14.354907,40.207262 14.288969,40.2896008 14.2072996,40.3531959 C14.0777665,40.5021421 13.9492376,40.6300017 13.7999566,40.7786132 C13.7397087,40.842543 13.6520145,40.8850512 13.5459112,40.906138 C13.3983037,40.9265554 13.2500269,40.9496504 13.1054318,40.906138 C13.0391591,40.8850512 12.9745599,40.8850512 12.9320517,40.8850512 C12.6977541,40.9265554 12.5290599,40.8241339 12.3596963,40.6959397 C12.1053161,40.480386 11.9346136,40.207262 11.8713533,39.8882826 C11.7849979,39.5053736 11.7434938,39.121795 11.7655847,38.7395554 C11.7655847,38.6565471 11.7655847,38.5708612 11.7849979,38.465762 C11.8074236,38.0841917 11.8275062,37.7019521 11.8489277,37.339795 C11.8713533,37.1483405 11.8713533,36.9796463 11.8907665,36.8106174 C11.8907665,36.6820884 11.9148657,36.5538942 11.9346136,36.4481256 L11.9346136,36.3219397 C11.8907665,36.3430264 11.8489277,36.3654521 11.8275062,36.3855347 C11.7434938,36.4926421 11.6798988,36.6184934 11.5945475,36.7443446 C11.5721219,36.767105 11.5533781,36.7881917 11.5299483,36.8106174 C11.36025,36.9796463 11.2327252,37.1918529 11.1052004,37.4050636 C11.0446178,37.5101628 10.9585971,37.5935058 10.8926591,37.7019521 C10.8293988,37.7628694 10.7868905,37.8278033 10.7246343,37.8937413 C10.5957707,38.0841917 10.4280806,38.2113818 10.2356219,38.3589893 C10.087345,38.4861793 9.89789876,38.5487702 9.72552273,38.6565471 C9.70477066,38.6759603 9.68502273,38.6977165 9.64151033,38.6977165 C9.49323347,38.6977165 9.3446219,38.719138 9.19634504,38.719138 C9.1545062,38.7395554 9.11032438,38.7395554 9.06915496,38.719138 C8.96104339,38.6565471 8.83619628,38.6565471 8.68624587,38.6565471 C8.53796901,38.6565471 8.40977479,38.5919479 8.28258471,38.5283529 C8.13464256,38.4413281 7.98703512,38.3589893 7.92009298,38.2113818 C7.90067975,38.1457785 7.85884091,38.1250264 7.81465909,38.0841917 C7.62353926,37.8077207 7.52078306,37.5101628 7.41367562,37.1918529 C7.32798967,36.8728736 7.30522934,36.5341463 7.24565083,36.2158364 L7.24565083,36.0210347 L7.24565083,35.387762 C7.24565083,35.1116256 7.2633905,34.8572455 7.32798967,34.6018612 C7.3477376,34.4542537 7.3725062,34.3036339 7.3725062,34.1767785 C7.3725062,33.9434851 7.41367562,33.7316132 7.45451033,33.4973157 C7.45451033,33.3902083 7.52078306,33.2857785 7.54186983,33.1806793 C7.56027893,33.0504769 7.58236983,32.9249603 7.62353926,32.7977702 C7.70955992,32.3318529 7.81465909,31.8843446 7.96394008,31.439514 C7.98703512,31.3317372 8.00845661,31.2263033 8.02786983,31.1191959 C8.06970868,30.928076 8.11322107,30.7376256 8.15673347,30.5481793 C8.19689876,30.4186463 8.24007645,30.2924603 8.28258471,30.1856876 C8.34617975,30.0581628 8.39036157,29.9520595 8.45228306,29.8258736 C8.47470868,29.7405223 8.53796901,29.698014 8.64340289,29.698014 C8.79234917,29.698014 8.94062603,29.698014 9.06915496,29.7622785 C9.0892376,29.8258736 9.13141116,29.8894686 9.1545062,29.9520595 C9.13141116,29.973481 9.13141116,30.0380802 9.11032438,30.0581628 C9.04907231,30.1448529 9.06915496,30.2292 9.11032438,30.3155554 C9.11032438,30.3336298 9.11032438,30.3336298 9.13141116,30.3563901 C9.40654339,30.6127785 9.1545062,30.9695802 9.19634504,31.2898983 C9.19634504,31.3970058 9.27935331,31.5004314 9.30077479,31.6088777 C9.36470455,31.9061008 9.27935331,32.2458322 9.32353512,32.5413818 C9.40654339,33.2857785 9.45206405,34.0308446 9.38713017,34.7712248 C9.36470455,35.152795 9.23751446,35.5377124 9.23751446,35.9380264 C9.25960537,36.1077248 9.30077479,36.299514 9.30077479,36.4926421 C9.30077479,36.6599975 9.27935331,36.8303653 9.30077479,36.9796463 C9.3446219,37.1259149 9.40654339,37.2755306 9.40654339,37.4241421 L9.40654339,37.5101628 C9.42829959,37.6370182 9.45206405,37.7628694 9.55515496,37.8498942 C9.57557231,37.8719851 9.59967149,37.913824 9.64151033,37.9563322 C9.68502273,37.9349107 9.70477066,37.913824 9.74727893,37.8937413 C9.89789876,37.7628694 10.0217417,37.6370182 10.1509401,37.489076 C10.5325103,36.9987248 10.9140806,36.5341463 11.2554855,36.0210347 C11.3184112,35.9380264 11.3820062,35.833262 11.4452665,35.7472413 C11.6798988,35.428262 11.8907665,35.1116256 12.0618037,34.7712248 C12.125064,34.6882165 12.144812,34.6018612 12.144812,34.5145017 C12.1889938,34.241043 12.2315021,33.9434851 12.2713326,33.6673488 C12.3376054,33.3490388 12.4008657,33.0317331 12.5086426,32.712419 C12.6140764,32.4148612 12.6776715,32.096886 12.7389236,31.7775719 C12.8062004,31.5248653 12.8687913,31.2681421 12.9320517,31.0140967 C12.9745599,30.9089975 12.9949773,30.8223074 13.0157293,30.6957868 C13.2061798,30.631857 13.3983037,30.6127785 13.6101756,30.6730264 C13.6961963,30.6957868 13.7999566,30.7178777 13.8879855,30.7607207 C14.0145062,30.783481 14.0975145,30.8671587 14.0975145,31.0140967 C14.0975145,31.1627083 14.1226178,31.312324 14.184874,31.4599314 C14.2072996,31.5004314 14.2072996,31.5667041 14.2072996,31.6088777 C14.2260434,31.8629231 14.246126,32.1387248 14.246126,32.3947785 C14.2260434,32.7351793 14.3743202,33.008638 14.3967459,33.3289562 C14.4392541,33.7737868 14.354907,34.2604562 14.288969,34.7076298 C14.2695558,34.9409231 14.2695558,35.1752207 14.2072996,35.4068405 C14.1423657,35.6200512 14.0145062,35.833262 13.99275,36.0665554 C13.9492376,36.3855347 13.9288202,36.7239273 13.9080682,37.043576 C13.8682376,37.380295 13.8441384,37.7247124 13.8441384,38.0597579 C13.8441384,38.2113818 13.8879855,38.4025017 13.8682376,38.5487702 C13.8441384,38.7633198 13.7397087,38.9330182 13.7591219,39.1445554 C13.7795393,39.3142537 13.7591219,39.4829479 13.7591219,39.6325636 C13.7591219,39.7604231 13.7795393,39.865857 13.8233864,40.0148033 C13.8682376,39.9729645 13.8879855,39.9478612 13.9080682,39.9304562" id="Fill-8" fill="#221F20"></path>
                        <path d="M24.2069839,35.7887455 C24.0178723,36.7881917 23.9746946,37.8077207 23.9110996,38.8044893 C23.8876698,38.9962785 23.8672525,39.1653074 23.8876698,39.3560926 C23.8876698,39.3982661 23.8672525,39.4632 23.8475045,39.5053736 C23.8475045,39.5913942 23.8475045,39.6114769 23.9321864,39.7149025 C23.954612,39.6981669 23.9746946,39.676076 23.9957814,39.6526463 C24.0362814,39.6114769 24.0593764,39.5686339 24.1028888,39.526795 C24.357269,39.121795 24.6317318,38.7395554 24.8452773,38.3375678 C25.1629178,37.7866339 25.4393888,37.231014 25.7158599,36.6820884 C25.8420459,36.4481256 25.9889839,36.2158364 26.1385996,36.0042992 C26.3099715,35.7703364 26.4348186,35.491857 26.5857731,35.238481 C26.7119591,35.025605 26.8187318,34.7916421 26.9452525,34.5794355 C27.0312731,34.430824 27.1169591,34.3036339 27.1999674,34.1556917 C27.2655707,34.0308446 27.3489136,33.9023157 27.4148517,33.7737868 C27.4761037,33.6469314 27.5396988,33.5187372 27.6029591,33.4143074 C27.6685624,33.3289562 27.7529095,33.3061959 27.880769,33.3691215 C27.8375913,33.4538033 27.8168393,33.539824 27.7529095,33.6245058 C27.6685624,33.7530347 27.6685624,33.9023157 27.6454674,34.0502579 L27.6454674,34.1556917 C27.62505,34.3250554 27.5832112,34.4957579 27.4971905,34.6664603 C27.3927607,34.9201711 27.3489136,35.1963074 27.1999674,35.4068405 C27.0945335,35.6200512 26.9894343,35.833262 26.8629136,36.0210347 C26.5225128,36.5974066 26.2667938,37.1918529 25.9478145,37.7628694 C25.6087525,38.4239231 25.3121988,39.1017124 24.8452773,39.6981669 C24.3773517,40.2484314 23.5690252,40.7786132 22.8045459,40.6300017 C22.5518393,40.5654025 22.3811368,40.3977124 22.276707,40.1624107 C22.2121079,39.9947207 22.1284302,39.8240182 22.1073434,39.6325636 C22.0213227,39.1653074 21.9798186,38.6759603 21.9798186,38.2113818 L21.9798186,37.6587744 C22.0213227,36.8501132 22.1284302,36.0876421 22.2981285,35.3024107 C22.3590459,34.9857744 22.405236,34.6664603 22.466488,34.3461421 C22.5300831,33.9434851 22.5960211,33.5187372 22.6569384,33.1160802 C22.7218723,32.7977702 22.7854674,32.4781215 22.8266368,32.1611504 C22.8919054,31.7775719 22.9551657,31.4167537 22.9551657,31.0338446 L22.9551657,30.9284107 C22.8500665,30.9695802 22.7647153,31.0140967 22.6766864,31.077357 C22.6378599,31.0991132 22.615769,31.1412868 22.5960211,31.1824562 C22.5300831,31.2477248 22.509331,31.3317372 22.466488,31.3970058 C22.4263227,31.4599314 22.405236,31.5004314 22.3590459,31.5446132 C22.0414054,31.7374066 21.8733806,32.1822372 21.6815913,32.5002124 C21.4248682,32.8837909 21.1289839,33.2653612 20.8531822,33.6469314 C20.5991368,34.008419 20.4083517,34.4100719 20.2175665,34.7916421 C20.0478682,35.152795 19.8125665,35.5156215 19.6867153,35.8744314 C19.6867153,35.8744314 19.6867153,35.8961876 19.6632855,35.8961876 C19.5370996,36.0474769 19.5153434,36.235919 19.4534219,36.4277083 C19.4323351,36.5538942 19.3700789,36.6820884 19.3041409,36.7881917 C19.2405459,36.9153818 19.1555293,37.0214851 19.2197938,37.169762 C19.2197938,37.2119355 19.1966988,37.2557826 19.1769508,37.2972868 C19.1143599,37.4462331 19.0283393,37.5935058 18.9436574,37.7628694 C18.8998103,37.8498942 18.8586409,37.8719851 18.7528723,37.8498942 C18.6454302,37.8077207 18.5821698,37.8278033 18.497488,37.8937413 C18.4764012,37.913824 18.4328888,37.9563322 18.4124715,37.9563322 C18.2427731,37.9349107 18.1149136,38.0209314 17.9870541,38.0841917 C17.7554343,38.1892909 17.5649839,38.1457785 17.3521079,38.0841917 C17.2423227,38.0597579 17.2021574,37.9767496 17.160988,37.8719851 C17.1388971,37.7866339 17.1388971,37.7019521 17.1168062,37.615262 C17.0953847,37.4050636 17.0749674,37.2119355 17.0749674,36.9987248 C17.0749674,36.934795 17.0749674,36.8501132 17.0542153,36.7881917 C17.0542153,36.7239273 17.0749674,36.6599975 17.0542153,36.5974066 C17.011707,36.235919 17.011707,35.8744314 17.011707,35.5156215 C17.011707,35.4506876 17.011707,35.387762 16.9922938,35.3234975 C16.9691988,35.0892 16.9691988,34.8371628 16.9691988,34.5794355 L16.9691988,34.0700058 C16.948112,33.7118653 16.948112,33.3691215 16.948112,33.008638 C16.948112,32.8837909 16.948112,32.7763488 16.9256864,32.6494934 L16.9256864,32.5002124 C16.9691988,31.925514 17.011707,31.3317372 17.0542153,30.7376256 C17.0749674,30.3985636 17.1168062,30.0380802 17.160988,29.698014 C17.180736,29.5494025 17.2225748,29.4001215 17.2660872,29.2508405 C17.2881781,29.1457413 17.3711864,29.0834851 17.4782938,29.0597207 C17.7554343,29.0185512 17.9870541,29.0386339 18.2427731,29.1671628 C18.2638599,29.1671628 18.2856161,29.1899231 18.2856161,29.2096711 C18.3502153,29.3154397 18.4543103,29.3589521 18.5396616,29.4225471 C18.5610831,29.5065595 18.6022525,29.6133322 18.6256822,29.698014 C18.6454302,29.7204397 18.6454302,29.7405223 18.6695293,29.7405223 C18.8586409,29.8258736 18.9436574,29.973481 18.9660831,30.1856876 C18.9660831,30.4414066 18.9212318,30.7178777 19.0065831,30.9695802 C19.0708475,31.1824562 19.1769508,31.3970058 19.1341079,31.6276215 C19.1143599,31.925514 19.0926037,32.2023198 19.0474178,32.4781215 C19.0065831,32.8181876 18.9436574,33.1371669 18.9660831,33.4768983 C18.9660831,33.6054273 19.0283393,33.7316132 19.0283393,33.8598074 C19.0283393,34.008419 18.9848269,34.1556917 19.0065831,34.3036339 C19.0283393,34.4957579 19.0283393,34.6882165 19.0065831,34.8766587 C19.0065831,35.0466917 19.0065831,35.1963074 19.0283393,35.3670099 C19.1143599,35.3670099 19.1143599,35.3024107 19.1341079,35.2599025 C19.3041409,34.9409231 19.4534219,34.6226132 19.6221161,34.3036339 C19.6632855,34.1968612 19.7308971,34.1118446 19.772736,34.008419 C19.8125665,33.9213942 19.8557442,33.8156256 19.899926,33.7118653 C19.9608434,33.5615802 20.0287897,33.3902083 20.109455,33.2442744 C20.175393,33.1572496 20.2175665,33.0725678 20.258736,32.9888901 C20.4930335,32.5638074 20.7269963,32.1387248 20.9606244,31.7129727 C21.0884839,31.5004314 21.2150045,31.2681421 21.362612,31.0579438 C21.5125624,30.8450678 21.6601698,30.6127785 21.808112,30.3985636 C21.9577277,30.2077785 22.1073434,30.0380802 22.276707,29.8894686 C22.5960211,29.6133322 22.9749136,29.5065595 23.3792442,29.5273116 L23.8876698,29.5273116 C24.0593764,29.5065595 24.2069839,29.5704893 24.3338393,29.6769273 C24.4616988,29.8258736 24.6103103,29.9523942 24.7388393,30.0792496 C24.8034384,30.1642661 24.8670335,30.2476091 24.8452773,30.3336298 C24.8235211,30.4608198 24.8670335,30.5672579 24.9095417,30.6957868 C25.0564798,31.1191959 25.0564798,31.8415017 24.9942236,32.3084231 C24.9724674,32.5002124 24.9282855,32.712419 24.8871161,32.9035388 C24.6742401,33.8598074 24.400112,34.8123942 24.2069839,35.7887455" id="Fill-10" fill="#221F20"></path>
                        <path d="M26.9297554,34.9856405 C26.9729331,34.8373636 26.9729331,34.6666612 26.9956934,34.5147025 C26.9956934,34.2824132 27.018119,34.0702066 27.0592884,33.8352397 C27.1017967,33.329157 27.2929165,32.8622355 27.3551727,32.3514669 C27.3759248,32.3082893 27.3759248,32.2875372 27.3970116,32.2456983 C27.4632843,32.0134091 27.5242017,31.7570207 27.6316438,31.5247314 C27.736743,31.268343 27.8659413,31.0142975 27.9717099,30.7833471 C28.0778132,30.5674587 28.1829124,30.3987645 28.2893504,30.2079793 C28.3107719,30.1644669 28.3308545,30.1232975 28.3308545,30.1028802 C28.4603876,29.8675785 28.6511727,29.7206405 28.8630446,29.5911074 C29.1385116,29.4612397 29.3928917,29.3363926 29.6707017,29.2296198 C29.8196479,29.1670289 29.966586,29.1459421 30.1376231,29.1034339 C30.2852306,29.0833512 30.4552636,29.0599215 30.6028711,29.0385 C30.6882223,29.0187521 30.774243,29.0187521 30.8562471,29.0187521 C31.3024165,28.9769132 31.7074165,29.1034339 32.0903256,29.2952231 C32.1549248,29.3156405 32.2161769,29.3782314 32.2821149,29.4227479 C32.3440364,29.4612397 32.3868793,29.5271777 32.3868793,29.6131983 C32.4079661,29.6978802 32.4518132,29.7828967 32.4722306,29.8675785 C32.5358256,30.0165248 32.5776645,30.144719 32.5552388,30.3157562 C32.5358256,30.3338306 32.5358256,30.377343 32.5552388,30.4185124 C32.5552388,30.6317231 32.4722306,30.8225083 32.3868793,30.9942149 C32.2821149,31.1625744 31.9832182,31.2475909 31.8346066,31.182657 C31.7927678,31.1625744 31.748586,31.1414876 31.7700074,31.0772231 C31.7927678,30.9282769 31.7927678,30.8024256 31.8346066,30.6541488 C31.875776,30.4834463 31.8346066,30.3338306 31.8125157,30.1644669 C31.8125157,30.0794504 31.7700074,30.0165248 31.7074165,29.9522603 C31.6217306,29.8893347 31.5387223,29.8063264 31.4122017,29.7624793 C31.2819992,29.6978802 31.1765653,29.6346198 31.0497099,29.5911074 C30.9667017,29.5496033 30.9004289,29.5496033 30.8364992,29.5911074 C30.7314,29.6771281 30.6266355,29.7403884 30.5191934,29.8257397 C30.4552636,29.8675785 30.4100777,29.9321777 30.3906645,29.9733471 C30.3066521,30.2290661 30.1804661,30.4416074 30.0104331,30.6317231 C29.8812347,30.7833471 29.774462,30.9694463 29.7128752,31.182657 C29.648276,31.3968719 29.5645983,31.5883264 29.498995,31.7985248 C29.4775736,31.8413678 29.4578256,31.8842107 29.4578256,31.9481405 C29.4166562,32.2215992 29.3299661,32.5000785 29.245619,32.7762149 C29.1816893,32.9452438 29.1184289,33.1373678 29.096338,33.329157 C29.096338,33.3900744 29.0538298,33.4767645 29.0314041,33.5400248 C28.947057,33.7529008 28.9052182,33.943686 28.8837967,34.1558926 C28.8630446,34.3691033 28.8007884,34.5793017 28.7545983,34.8122603 C28.7348504,34.8373636 28.7348504,34.8768595 28.7348504,34.898281 C28.7147678,35.1965083 28.6946851,35.4920579 28.6946851,35.7705372 C28.6722595,35.8742975 28.6946851,35.9599835 28.7147678,36.0476777 C28.7147678,36.0875083 28.7348504,36.1313554 28.7147678,36.1504339 C28.6722595,36.3218058 28.7348504,36.492843 28.7348504,36.6598636 L28.7348504,36.8948306 C28.7147678,37.0434421 28.7147678,37.1920537 28.7780281,37.3396612 C28.8205364,37.4240083 28.8419579,37.5301116 28.8837967,37.637219 C28.9052182,37.7416488 28.947057,37.8718512 28.9912388,37.9966983 C29.0314041,38.1048099 29.096338,38.189157 29.1816893,38.2728347 C29.309214,38.3806116 29.4364041,38.4237893 29.5860198,38.3588554 C29.648276,38.3377686 29.7128752,38.3163471 29.774462,38.3163471 C30.1376231,38.2527521 30.4773545,38.1048099 30.8150777,37.9136901 C30.9667017,37.8276694 31.0718008,37.7018182 31.1765653,37.5722851 C31.3465983,37.3801612 31.5169661,37.2118017 31.6876686,37.0434421 C31.9176149,36.8104835 32.1324992,36.5755165 32.3644537,36.3432273 C32.6851066,36.0041653 33.0027471,35.6624256 33.2768752,35.2788471 C33.2993008,35.2597686 33.2993008,35.2386818 33.3207223,35.2179298 C33.6397017,34.9407893 33.8515736,34.5595537 34.0872099,34.217814 C34.1467884,34.1558926 34.1695488,34.0702066 34.2117223,33.9855248 C34.2766562,33.8600083 34.3379083,33.731814 34.4453504,33.6052934 C34.5310364,33.4540041 34.6779744,33.3689876 34.8714372,33.4145083 C34.9758669,33.4342562 35.0183752,33.4975165 34.9982926,33.6052934 C34.9758669,33.731814 34.9129413,33.8352397 34.8269207,33.943686 C34.7214868,34.0702066 34.6143793,34.217814 34.4871893,34.346343 C34.4453504,34.409938 34.4259372,34.4541198 34.3599992,34.495624 C34.2766562,34.5793017 34.1892967,34.6666612 34.1695488,34.7710909 C34.1695488,34.8122603 34.1270405,34.8571116 34.1069579,34.8768595 C34.0447017,34.9605372 33.958681,35.0468926 33.8954207,35.1342521 C33.9138298,35.2597686 33.8097347,35.3236983 33.7668917,35.4070413 C33.7019579,35.5375785 33.6182802,35.6624256 33.5335983,35.7886116 C33.5111727,35.8331281 33.4914248,35.8535455 33.4700033,35.8742975 C33.2993008,35.9824091 33.2156231,36.1705165 33.0656727,36.3218058 L33.0465942,36.3432273 C32.8538008,36.6819545 32.5130653,36.8730744 32.2596893,37.1485413 C32.194086,37.2308802 32.1324992,37.3215868 32.0668959,37.4052645 C31.8346066,37.7018182 31.6003091,37.9966983 31.2622512,38.189157 C30.8562471,38.4411942 30.4552636,38.6758264 29.9886769,38.8251074 C29.6285281,38.9328843 29.245619,39.0379835 28.8630446,39.1019132 C28.7545983,39.1019132 28.6511727,39.1019132 28.5433959,39.0600744 C28.4603876,39.0162273 28.3743669,38.9733843 28.2893504,38.9533017 C28.0563917,38.8475331 27.8856893,38.7190041 27.7183339,38.5489711 C27.6714744,38.4860455 27.6527306,38.4411942 27.6122306,38.4023678 C27.3360942,38.1456446 27.2075653,37.8276694 27.1017967,37.4889421 C27.0592884,37.3801612 27.0375322,37.2971529 26.9956934,37.1920537 C26.952181,37.0434421 26.9297554,36.8730744 26.9297554,36.7237934 C26.9096727,36.3857355 26.9096727,36.0476777 26.9096727,35.7266901 C26.8685033,35.4508884 26.9096727,35.2179298 26.9297554,34.9856405" id="Fill-12" fill="#221F20"></path>
                        <path d="M36.0833244,33.0940562 C36.3387087,32.9250273 36.6141756,32.7543248 36.8478037,32.5852959 C37.2082872,32.3081554 37.5473492,32.0310149 37.88775,31.7773041 C38.3764277,31.3970727 38.7800888,30.9693124 39.1810723,30.5274942 C39.2466756,30.4414736 39.3296839,30.3561223 39.3956219,30.2701017 C39.6506715,30.0167256 39.9037128,29.7402545 40.1601012,29.4862091 C40.2223574,29.422614 40.2665393,29.359019 40.3301343,29.2950893 C40.5209194,29.0835521 40.6691963,28.8261595 40.816469,28.5734529 C41.1361178,28.0626843 41.4119194,27.5328372 41.6452128,26.9805645 C41.7088079,26.8101967 41.7519855,26.6602463 41.8159153,26.4905479 C41.8359979,26.3650314 41.8584236,26.2147463 41.8778368,26.091238 C41.9210145,25.8576099 41.9431054,25.624986 41.9635227,25.4101017 C41.9635227,25.2380603 41.9635227,25.0713744 41.9842748,24.9003372 C42.006031,24.8163248 42.006031,24.7082132 41.9842748,24.6221926 C41.9635227,24.5619446 41.9431054,24.5187669 41.9635227,24.4551719 C41.9635227,24.2633826 41.9210145,24.0936843 41.8359979,23.9236512 C41.8159153,23.8808083 41.7944938,23.8396388 41.7944938,23.7971306 C41.7724029,23.6250893 41.6870517,23.4774818 41.5799442,23.3308785 C41.5180227,23.2231017 41.4550971,23.1156595 41.4119194,22.9894736 C41.3704153,22.8401926 41.2837252,22.7548413 41.1565351,22.6721678 C41.0735269,22.6289901 40.9854979,22.6095769 40.9239112,22.5453124 C40.7538781,22.4372008 40.5627583,22.4372008 40.3937293,22.4807132 C40.1393492,22.5453124 39.9037128,22.6721678 39.6918409,22.7966802 C39.6282459,22.8636223 39.5646508,22.9265479 39.5010558,22.9894736 C39.4170434,23.0982545 39.3296839,23.2231017 39.2466756,23.3308785 C39.1810723,23.4132174 39.117812,23.499238 39.117812,23.6250893 C39.117812,23.6699405 39.0983988,23.7111099 39.0779814,23.7352091 C38.9072789,24.0090025 38.8011756,24.2858083 38.672312,24.5833661 C38.6535682,24.6449529 38.6087169,24.6877959 38.6087169,24.774486 C38.6087169,24.8163248 38.5668781,24.8795851 38.5454566,24.9220934 C38.4838698,25.0067752 38.4597707,25.0921264 38.4403574,25.1774777 C38.3978492,25.4519405 38.3114938,25.6859033 38.1638864,25.918862 C38.1200393,26.0045479 38.0999566,26.091238 38.0581178,26.1541636 C37.9717624,26.407205 37.88775,26.6840107 37.8010599,26.9183083 C37.6966302,27.1505975 37.6524483,27.4063165 37.5694401,27.6399446 C37.4837541,27.7865479 37.4619979,27.9790066 37.3990723,28.1500438 C37.2936384,28.4666802 37.1651095,28.7866636 37.0586715,29.0835521 C37.0175021,29.209738 36.9749938,29.3155066 36.9535723,29.4413579 C36.9097252,29.8065273 36.7617831,30.1231636 36.5924194,30.4414736 C36.5294938,30.5673248 36.4642252,30.7176099 36.4441426,30.8672256 C36.4023037,31.077424 36.3618037,31.2896306 36.2935227,31.5249322 C36.2737748,31.6276884 36.2316012,31.7371388 36.212188,31.8629901 C36.1686756,32.0534405 36.1686756,32.2458992 36.0642459,32.4149281 C36.0414855,32.4340066 36.0414855,32.4781884 36.0414855,32.5002793 C36.0414855,32.6271347 36.0197293,32.7543248 35.9357169,32.8624364 C35.8925393,32.9454446 35.8707831,33.0314653 35.9142955,33.1569818 C35.9775558,33.1372339 36.0414855,33.1158124 36.0833244,33.0940562 L36.0833244,33.0940562 Z M35.5963202,37.2307463 L35.5963202,37.2120025 L35.5963202,37.2307463 Z M37.8663285,34.6019281 C37.8010599,34.7913744 37.7193905,34.9855066 37.5262624,35.0892669 C37.5038368,35.1113579 37.4619979,35.1525273 37.4619979,35.1963744 C37.3562293,35.4715066 37.1651095,35.7061388 37.0807624,36.0040314 C37.0586715,36.0873744 36.9749938,36.1703826 36.9097252,36.2570727 C36.8042913,36.4481926 36.6794442,36.6185603 36.6794442,36.8729405 C36.6794442,36.9154488 36.6566839,36.934862 36.6359318,36.9793785 C36.4869855,37.339862 36.4441426,37.7418496 36.4230558,38.1250934 C36.4230558,38.3587215 36.3618037,38.5705934 36.2935227,38.7838041 C36.2316012,38.9535025 36.212188,39.121862 36.2737748,39.2925645 C36.2935227,39.3983331 36.2737748,39.5054405 36.2546963,39.6115438 C36.1465847,39.9080975 36.0414855,40.1825603 35.9775558,40.4597008 C35.9357169,40.6300686 35.8483574,40.7786802 35.7676921,40.9497174 C35.7676921,40.9687959 35.6997459,40.9892132 35.6799979,41.0129777 C35.510969,41.0129777 35.381436,40.8847835 35.2324897,40.8643661 C35.1909855,40.906205 35.1514897,40.9687959 35.1052996,41.0343992 C35.0219566,41.0343992 34.9807872,40.9892132 34.9369401,40.9497174 C34.8535971,40.8422752 34.7458202,40.8422752 34.6380434,40.8643661 C34.6192996,40.8643661 34.596874,40.8847835 34.5767913,40.8847835 C34.4496012,40.906205 34.407093,40.8847835 34.3649194,40.7572587 C34.3649194,40.737176 34.3414897,40.7154198 34.3414897,40.6960066 C34.3649194,40.4801182 34.2594855,40.3110893 34.2153037,40.0978785 C34.1517087,39.8655893 34.1292831,39.6115438 34.1105393,39.3782504 C34.0881136,39.0599405 34.1105393,38.7396223 34.0670269,38.441395 L34.0670269,38.4239901 C34.0670269,37.9768165 34.0248533,37.5534074 34.002093,37.1259818 C33.9836839,36.9154488 34.0248533,36.7032421 34.0446012,36.5127917 C34.0446012,36.3430934 34.0670269,36.1948165 34.0670269,36.0211017 C34.0670269,35.7265562 34.0670269,35.4283289 34.1105393,35.1525273 C34.1292831,34.8984818 34.1292831,34.6665273 34.1105393,34.4308909 C34.0881136,34.0499901 34.1105393,33.6674157 34.1717913,33.2858455 C34.2153037,33.0726347 34.2363905,32.8624364 34.2788988,32.6495603 C34.3414897,32.2458992 34.407093,31.8218207 34.4696839,31.4168207 C34.5557045,31.0141636 34.596874,30.6128455 34.6825599,30.2078455 C34.6825599,30.1027463 34.7039814,29.9946347 34.7458202,29.8895355 C34.8311715,29.5066264 34.9369401,29.1253909 35.0443822,28.764238 C35.0443822,28.7414777 35.0641302,28.6996388 35.0641302,28.6792215 C35.2324897,28.1286223 35.4041963,27.5740066 35.574564,27.0240769 C35.7235103,26.5779074 35.8925393,26.1310686 36.0642459,25.7093331 C36.1465847,25.4760397 36.2546963,25.2611554 36.3618037,25.048614 C36.4230558,24.8578289 36.5294938,24.6877959 36.6359318,24.5398537 C36.7206136,24.390238 36.8042913,24.2416264 36.8682211,24.0712587 C36.9749938,23.8396388 37.0807624,23.605676 37.2936384,23.4373165 C37.4218326,23.3308785 37.5038368,23.1809281 37.591531,23.0092215 C37.6745393,22.8401926 37.7826508,22.693924 37.9486674,22.5643909 C38.4186012,22.2052463 38.970874,22.0362174 39.5646508,21.9910314 C39.6918409,21.9910314 39.819031,21.9709488 39.9475599,21.9709488 C40.1785103,21.9485231 40.4372417,21.9910314 40.6691963,22.0546264 C41.0929401,22.1393083 41.4962665,22.2675025 41.8584236,22.4807132 C42.0907128,22.6095769 42.2614153,22.7966802 42.4324525,23.032986 C42.5589731,23.2231017 42.6429855,23.4373165 42.7065806,23.6699405 C42.7273326,23.7352091 42.7494236,23.7770479 42.7701756,23.8396388 C42.813688,23.9454074 42.8551921,24.0712587 42.8551921,24.1997876 C42.8551921,24.2858083 42.8779525,24.3490686 42.8779525,24.4347545 C42.897031,24.5398537 42.9177831,24.6449529 42.897031,24.7513909 C42.8337707,25.1132132 42.8551921,25.4760397 42.813688,25.8127587 C42.7701756,26.2147463 42.6848244,26.5963165 42.6001426,26.9581388 C42.2831715,28.1704612 41.3054814,29.1253909 40.5865227,30.0793165 C40.2447831,30.5274942 39.968312,30.8846306 39.5442335,31.2263702 C39.1402376,31.5249322 38.7138161,31.8218207 38.3114938,32.1387917 C37.6106095,32.6910645 37.0175021,33.2654281 36.1261674,33.4973826 C35.7871054,33.5834033 35.8282748,33.5834033 35.7676921,33.9023826 C35.7235103,34.0700727 35.6997459,34.2176802 35.6997459,34.3887174 C35.6799979,34.5594198 35.6997459,34.7076967 35.6997459,34.8573124 C35.7235103,34.9855066 35.6997459,35.0892669 35.6997459,35.1963744 C35.6799979,35.3235645 35.6799979,35.4715066 35.657907,35.6000355 C35.5963202,35.8744983 35.6164029,36.1506347 35.6164029,36.4277752 C35.5963202,36.6185603 35.574564,36.8106843 35.5963202,36.9987917 C35.6164029,37.043643 35.6164029,37.0623868 35.6381591,37.1259818 C35.6799979,37.0623868 35.6997459,37.0212174 35.7235103,36.9793785 C35.8925393,36.5338785 36.1686756,36.1077917 36.3818864,35.6626264 C36.4869855,35.4507545 36.6359318,35.2787132 36.7617831,35.0701884 C36.8478037,34.9409901 36.9535723,34.7913744 37.0586715,34.6441017 C37.146031,34.5594198 37.229374,34.453986 37.3153946,34.3693041 C37.5473492,34.1343372 37.8214773,33.9435521 38.0999566,33.7738537 C38.3556756,33.6245727 38.6535682,33.5613124 38.951126,33.6051595 C39.0983988,33.6051595 39.1810723,33.6891719 39.2687665,33.7952752 C39.309936,33.8812959 39.3728616,33.9669818 39.4374607,34.0499901 C39.522812,34.1343372 39.5646508,34.2411099 39.5860723,34.3693041 C39.755436,35.0892669 40.0322417,35.7061388 40.0322417,36.4927091 C40.0121591,37.7418496 39.6282459,38.9963455 39.7142665,40.2695851 C39.755436,40.6300686 39.7765227,40.9892132 39.7972748,41.3510355 C39.7972748,41.4795645 39.7765227,41.5853331 39.7765227,41.6917711 C39.7765227,41.9474901 39.8625434,42.159362 40.0121591,42.3688909 C40.0539979,42.4341595 40.1145806,42.4562504 40.2019401,42.4562504 C40.3937293,42.4562504 40.5406674,42.3688909 40.6899483,42.2631223 C40.7963864,42.1804488 40.902155,42.0720025 40.9854979,41.9675727 C41.1361178,41.754362 41.2837252,41.5418207 41.4119194,41.3316223 C41.7519855,40.7786802 42.0267831,40.1825603 42.2831715,39.5914612 C42.3250103,39.526862 42.3444236,39.4408413 42.3668492,39.3782504 C42.3876012,39.3143207 42.4117004,39.2313124 42.4324525,39.1653744 C42.6429855,38.719205 42.7494236,38.2526182 42.9619649,37.8077876 C43.0044731,37.702019 43.046312,37.593238 43.0660599,37.489143 C43.1323326,37.2558496 43.2370971,37.0623868 43.3234525,36.8501802 C43.5329814,36.4043455 43.7261095,35.9183455 43.8315434,35.4283289 C43.9168946,35.0467587 44.0240021,34.6441017 44.1280971,34.2601884 C44.1920269,34.0931678 44.2760393,33.9214612 44.3637335,33.7531017 C44.425655,33.6245727 44.5133492,33.5188041 44.595688,33.3902752 C44.6827128,33.2654281 44.7871426,33.2004942 44.9571756,33.2212463 C45.0401839,33.3491058 45.0003533,33.4973826 44.9571756,33.6245727 C44.93475,33.7531017 44.8704855,33.8812959 44.8313244,34.0081512 C44.7871426,34.0700727 44.7640475,34.1343372 44.7871426,34.2176802 C44.8075599,34.282614 44.7871426,34.3462091 44.7640475,34.3887174 C44.7014566,34.6223455 44.6368574,34.8573124 44.5739318,35.1113579 C44.5327624,35.2385479 44.4889153,35.3670769 44.425655,35.5153537 C44.1706054,36.1506347 43.9999029,36.7671719 43.8958079,37.4663826 C43.7261095,38.4859116 43.2571798,39.4207587 42.790593,40.3315066 C42.4117004,41.0548165 42.0709649,42.0522545 41.3496632,42.498424 C41.0929401,42.6480397 40.8609855,42.7949777 40.5865227,42.8599116 C40.5209194,42.8823372 40.47975,42.9235066 40.413812,42.9435893 C40.3093822,42.9871017 40.2019401,43.030614 40.0734112,43.0081884 C40.0121591,43.0081884 39.968312,43.030614 39.9037128,43.030614 C39.4170434,43.1554612 38.8624277,42.8599116 38.6087169,42.4144116 C38.4838698,42.1804488 38.3764277,41.9474901 38.3114938,41.6690107 C38.2080682,40.9892132 38.2492376,40.3110893 38.1638864,39.6115438 C38.1431343,39.2313124 38.1638864,38.7838041 38.1638864,38.4022339 C38.2271467,37.2973537 38.4597707,36.2784942 38.5247045,35.1752876 C38.5247045,34.8767256 38.5668781,34.5594198 38.5454566,34.2411099 C38.5454566,34.1765107 38.5454566,34.1119116 38.4838698,34.0700727 C38.2492376,34.1557587 37.9486674,34.3887174 37.8663285,34.6019281 L37.8663285,34.6019281 Z" id="Fill-14" fill="#221F20"></path>
                        <path d="M48.8807888,44.6236029 C48.836607,44.5810946 48.7947682,44.5198426 48.7947682,44.4552434 C48.773012,44.2406938 48.7522599,44.0063963 48.7522599,43.7945244 C48.773012,43.4568012 48.7947682,43.1378219 48.7947682,42.8178384 C48.8141814,42.4158508 48.836607,42.0329417 48.836607,41.6312888 C48.8560202,41.3551525 48.8141814,41.0796855 48.8141814,40.8028798 C48.836607,40.3992186 48.9002021,37.6191112 48.9226277,37.2368715 C48.9433798,37.1729417 48.9433798,37.1083426 48.9433798,37.0447475 C48.8560202,36.2819417 48.9226277,35.5177971 48.9845492,34.7536525 C49.005636,34.4346731 48.9845492,34.0962806 49.005636,33.7528674 C49.005636,33.0124872 49.005636,32.2470037 49.0926607,31.4828591 C49.1130781,31.2699831 49.135169,31.0604541 49.135169,30.8258219 C49.0277269,30.7833136 48.9226277,30.7612227 48.8141814,30.7411401 C48.476793,30.6782145 48.1159748,30.6340326 47.7749045,30.5704376 C47.5851236,30.5493508 47.5409417,30.5078467 47.6473798,30.3173963 C47.7953219,29.9990864 48.0928798,29.8498054 48.4105202,29.7637847 C48.7311731,29.7008591 49.0277269,29.6148384 49.3470409,29.5294872 C49.3687971,28.5323839 49.3687971,27.5563674 49.3888798,26.5595988 C49.2198508,26.5154169 49.0478095,26.4544996 48.8560202,26.4317393 C48.0299541,26.2419583 47.2005409,26.0709211 46.3741401,25.9223095 C45.3325202,25.7101029 44.3581773,27.0703674 44.9954665,27.98145 C45.1641607,28.2579211 45.3552806,28.5323839 45.6528384,28.725512 C45.9293095,28.9162971 46.2261979,29.0444913 46.5649252,29.0856607 C46.7774665,29.128169 47.0120988,29.1920988 47.2243054,29.2553591 C47.391326,29.3413798 47.4160946,29.4896566 47.2433839,29.5957599 C47.1811277,29.6580161 47.0756938,29.6787682 46.9906773,29.7008591 C46.502669,29.7862103 45.8653798,29.9137351 45.4406318,29.6580161 C44.7387434,29.2764459 44.1031277,28.7666814 43.9759376,27.917855 C43.9120079,27.5774541 43.9956855,27.2183095 44.1245492,26.8993302 C44.591136,25.8356194 45.5899128,25.1169955 46.6278508,24.7133343 C46.9906773,24.5858095 47.4160946,24.5222145 47.7953219,24.5024665 L49.1542475,24.5024665 C49.9609004,24.5222145 50.7484748,24.6068963 51.5333715,24.7548384 C52.0213798,24.8391855 52.5087186,24.9874624 52.9980657,25.0942351 C53.5500037,25.2190822 54.0999335,25.2639335 54.6753012,25.2441855 C55.012355,25.2441855 55.3738426,25.1805905 55.7152475,25.0942351 C56.2022517,25.0095533 56.5630698,24.6694872 56.8177847,24.268169 C56.8820492,24.1808095 56.923888,24.0974665 56.9650574,24.0114459 C57.0316649,23.9254252 57.0952599,23.8624996 57.2435368,23.906012 C57.22245,24.138636 57.3054583,24.3732682 57.2435368,24.6266442 C57.1578508,25.0095533 56.9476525,25.3057723 56.6902599,25.5829128 C56.5838219,25.7101029 56.4787227,25.8356194 56.3522021,25.9427269 C56.1818343,26.0709211 55.9702971,26.1987806 55.7775037,26.2824583 C54.5039293,26.7082103 53.210607,26.8993302 51.8720988,26.8136442 L51.6398095,26.8136442 C51.6163798,26.8136442 51.5962971,26.834731 51.5732021,26.8571566 C51.5732021,27.1948798 51.5962971,27.5563674 51.5962971,27.917855 C51.5962971,28.1521525 51.55245,28.4051938 51.5333715,28.6609128 C51.5109459,28.8737888 51.5109459,29.0856607 51.5109459,29.3212971 C51.5109459,29.5532517 51.5333715,29.5729996 51.7656607,29.6389376 C52.063888,29.7008591 52.3815285,29.7637847 52.6770781,29.8277145 C52.8494541,29.8718963 53.0184831,29.9137351 53.1885161,29.9351566 C53.3568756,29.9549045 53.5500037,29.9769955 53.7190326,29.9769955 C53.9309045,29.9990864 54.1431112,30.0195037 54.3774087,30.0195037 C54.3994996,30.211293 54.4389955,30.3585657 54.4389955,30.5292682 C54.4389955,30.6982971 54.3994996,30.7833136 54.2077103,30.8258219 C53.9519913,30.8897517 53.6765244,30.933264 53.4221442,30.9523426 C52.8708756,30.9941814 52.339355,31.014264 51.7887558,31.0376938 C51.55245,31.0376938 51.5333715,31.0604541 51.55245,31.3121566 C51.5732021,31.6572434 51.5962971,32.016388 51.6163798,32.3765368 C51.6398095,32.7567682 51.661231,33.160764 51.6398095,33.5436731 C51.6163798,33.9272517 51.5732021,34.3309128 51.5109459,34.7101401 C51.4255946,35.1773963 51.3201607,35.6242351 51.2341401,36.0888136 C51.1943095,36.3217723 51.1518012,36.5540616 51.1270326,36.76995 C51.10695,36.8974748 51.0657806,37.0035781 51.0453632,37.1083426 C51.0232723,37.1729417 50.9804293,37.2368715 50.9804293,37.3014707 C50.9586731,37.5571897 50.9379211,40.1890202 50.7484748,40.376793 C50.7484748,40.5910079 50.704293,40.8028798 50.5985244,41.0154211 C50.5556814,41.1643674 50.6202806,41.3551525 50.5141773,41.5047682 C50.4917517,41.5251855 50.5141773,41.5877764 50.535264,41.6095326 C50.6202806,41.7568054 50.6202806,41.8836607 50.535264,42.0131938 C50.535264,42.0329417 50.5141773,42.0543632 50.535264,42.0784624 C50.6624541,42.4158508 50.4713343,42.733826 50.4499128,43.0541442 C50.4301649,43.2660161 50.3424707,43.4772186 50.3029748,43.6696773 C50.2377062,43.8818839 50.1322723,44.072669 50.0024045,44.2621153 C49.9167186,44.414074 49.7694459,44.5389211 49.6660202,44.6684541 C49.5789955,44.7521318 49.517074,44.8368136 49.410636,44.9650079 C49.2198508,44.8552227 49.0478095,44.7521318 48.8807888,44.6236029" id="Fill-16" fill="#221F20"></path>
                        <path d="M58.2461293,35.5596025 C58.2461293,35.5177636 58.2461293,35.4752554 58.2655426,35.4347554 C58.4365798,35.2409579 58.4593401,34.8801397 58.4365798,34.6475157 C58.4144888,34.3308793 58.4365798,33.9037884 58.2655426,33.6075694 C58.1601087,33.4372017 58.035931,33.267838 57.9917492,33.0536231 L57.9917492,33.0342099 C57.9485715,33.0124537 57.9274847,32.969276 57.8863153,32.969276 C57.8421335,32.969276 57.8002946,32.9910322 57.7788731,33.0536231 C57.7591252,33.1182223 57.7370343,33.2032388 57.6951955,33.267838 C57.5884227,33.4997926 57.524493,33.7354289 57.4833236,33.9670488 C57.4833236,34.0105612 57.4612326,34.0524 57.4394764,34.0962471 C57.3122864,34.3720488 57.2922037,34.6264289 57.3745426,34.9018959 C57.4612326,35.1773628 57.5884227,35.4347554 57.7591252,35.6442843 C57.8632202,35.7530653 57.9485715,35.8769083 58.0965136,35.897995 C58.1835384,35.7918917 58.2655426,35.7058711 58.2461293,35.5596025 M56.4611169,31.9276562 C56.4206169,31.9731769 56.3774393,32.0163545 56.3563525,32.057524 C56.3128401,32.1636273 56.2726748,32.247305 56.1632244,32.3119041 C56.1230591,32.4605157 56.0166211,32.5448628 55.9536955,32.6536438 C55.8686789,32.8213339 55.7846665,33.0124537 55.742493,33.2246603 C55.6350508,33.6698256 55.5299517,34.138086 55.3793318,34.5829165 C55.2735632,34.8801397 55.208964,35.1987843 55.1259558,35.4956727 C55.041274,35.7918917 54.8926624,36.0697017 54.8294021,36.3665901 C54.8294021,36.3866727 54.8059723,36.4311893 54.7845508,36.4703504 C54.6155219,36.7056521 54.595774,36.981119 54.6155219,37.2579248 C54.636274,37.5571562 54.6573607,37.8540446 54.7008731,38.1519372 C54.7008731,38.2563669 54.7651376,38.3413835 54.8501541,38.4053132 C54.9331624,38.4883215 55.041274,38.5753463 55.1259558,38.659024 C55.2313897,38.7413628 55.337493,38.7661314 55.443931,38.722619 C55.8047492,38.593086 56.1632244,38.5094083 56.4611169,38.2563669 C56.6107326,38.1519372 56.8021872,38.0428215 56.950464,37.9142926 C57.0579062,37.8540446 57.1204971,37.7666851 57.2048442,37.6813339 C57.3745426,37.5139785 57.524493,37.3439455 57.6516831,37.1300653 C57.6516831,37.1300653 57.6721004,37.1083091 57.6721004,37.0882264 C57.714274,36.9412884 57.7788731,36.8348504 57.8632202,36.7267388 C57.8863153,36.6855694 57.8863153,36.6430612 57.9087409,36.5791314 C57.7788731,36.5148669 57.6516831,36.4311893 57.524493,36.3455033 C57.1630054,36.1122099 56.8460343,35.836743 56.5889764,35.4956727 C56.4838773,35.3463917 56.3774393,35.1987843 56.2934269,35.0505074 C56.0166211,34.5183174 55.9941955,33.9670488 56.1230591,33.4167843 C56.1863194,33.0747099 56.3563525,32.7801645 56.4838773,32.483276 C56.4838773,32.4605157 56.5046293,32.4390942 56.5046293,32.4390942 C56.6760012,32.3765033 56.7590095,32.184714 56.950464,32.1636273 C57.0358153,32.1636273 57.1204971,32.1428752 57.2048442,32.1221231 C57.5030715,32.0792802 57.714274,32.2282264 57.9693236,32.3554165 C58.2872988,32.5254496 58.6504599,32.6733917 58.8208277,33.0124537 C58.9670963,33.2872512 59.0531169,33.5222182 59.0531169,33.8398587 C59.0752079,33.9670488 59.0972988,34.0731521 59.116712,34.1792554 C59.180307,34.4346397 59.180307,34.753619 59.1582161,35.0086686 C59.1371293,35.2208752 58.9895219,35.3889 58.9670963,35.5823628 C58.924588,35.7323132 58.924588,35.8544826 58.881745,36.0258545 C58.9480178,36.0258545 58.9895219,36.0697017 59.0306913,36.0697017 C59.1582161,36.0697017 59.3074971,36.0476107 59.4551045,36.0258545 C60.3069434,35.897995 61.1112533,35.3889 61.7274558,34.7954579 C61.7686252,34.753619 61.8134764,34.6893545 61.8342285,34.6475157 C61.8740591,34.6046727 61.8958153,34.5417471 61.9386583,34.5183174 C62.0260178,34.4992388 62.1096955,34.4778174 62.1722864,34.5183174 C62.2797285,34.5628339 62.3640756,34.6046727 62.4293442,34.6893545 C62.3215674,35.0280818 61.41015,35.836743 61.1112533,35.9418421 C60.7303525,36.0697017 60.3886128,36.3217388 60.0080467,36.4703504 C59.6689847,36.5985446 59.3714269,36.7056521 59.0096045,36.6430612 C58.8606583,36.5985446 58.7130508,36.6641479 58.5637698,36.6855694 C58.4593401,36.7056521 58.3954103,36.8117554 58.3525674,36.9178587 C58.2461293,37.1083091 58.1601087,37.3215198 58.0771004,37.5337264 C57.9485715,37.8312843 57.6302616,38.0019868 57.4612326,38.2563669 C57.3327037,38.4264 57.1850963,38.6376025 57.0150632,38.7413628 C56.8242781,38.8715653 56.6760012,39.0422678 56.4838773,39.1674496 C56.230836,39.3177347 55.9941955,39.5091893 55.6762202,39.4854248 C55.3585798,39.466681 55.041274,39.2725488 54.7651376,39.125276 C54.2118607,38.8079702 53.5966624,38.3209661 53.2977657,37.7466025 C53.1508277,37.4487099 53.0892409,37.0882264 53.06715,36.7494992 C53.0253112,36.3665901 53.0018814,35.9840157 53.0253112,35.6014413 C53.06715,35.2409579 53.1508277,34.8801397 53.2596087,34.5417471 C53.4259599,34.0319826 53.6401748,33.5439744 53.8727988,33.0747099 C53.9380674,32.9257636 54.0210756,32.8005818 54.1482657,32.6733917 C54.2754558,32.5254496 54.4250715,32.3554165 54.5519269,32.184714 C54.6811252,32.037776 54.8501541,31.9504165 54.9987657,31.8449826 C55.2313897,31.6736107 55.4660219,31.5477595 55.7173897,31.3780612 C55.8047492,31.3124579 55.9101831,31.2933793 56.0370384,31.3124579 C56.2502492,31.3338793 56.4410343,31.3998174 56.6318194,31.5270074 C56.6535756,31.6960364 56.5682244,31.8245653 56.4611169,31.9276562" id="Fill-18" fill="#221F20"></path>
                        <path d="M72.5357343,34.5417471 C72.4697963,34.8801397 72.4292963,35.2208752 72.3456186,35.5401893 C72.3014368,35.6861231 72.3014368,35.8149868 72.1749161,35.9204207 C72.1116558,35.9840157 72.0711558,36.0887802 72.0711558,36.173462 C72.0052178,36.4084289 71.9212054,36.6430612 71.8147674,36.8740116 C71.7073252,37.0450488 71.6641475,37.2579248 71.581474,37.4487099 C71.5168748,37.6190777 71.4532798,37.8101975 71.3685979,37.9792264 C71.3280979,38.0866686 71.2832467,38.1914331 71.2407384,38.2982058 C71.1547178,38.5094083 71.0881103,38.7413628 71.0064409,38.9565818 C70.9217591,39.1674496 70.7731475,39.3605777 70.6459574,39.5510281 C70.5629492,39.7210612 70.4551723,39.8910942 70.3286517,40.0176149 C70.2222136,40.1434661 70.1586186,40.314838 70.0729326,40.4624455 C70.0304244,40.5072967 70.0103417,40.5698876 69.9691723,40.6123959 C69.7318624,40.8242678 69.5648417,41.0983959 69.3084533,41.291524 C69.1815979,41.397962 69.098255,41.5251521 68.9285566,41.587743 C68.8843748,41.6094992 68.8197756,41.6506686 68.8006971,41.6955198 C68.7347591,41.8662223 68.5874864,41.9057182 68.4378707,41.9057182 C68.2246599,41.9057182 68.0569698,41.9492306 67.8665194,42.0131603 C67.7169037,42.0543298 67.5689616,42.0329083 67.4200153,41.9920736 C66.9735112,41.8431273 66.6143665,41.5676603 66.2722921,41.2269248 C65.6781806,40.6756562 65.2105897,40.0176149 64.7446723,39.3796562 C64.6609946,39.2521314 64.574974,39.1041893 64.4896227,38.9565818 C64.4477839,38.9140736 64.4066145,38.8521521 64.3631021,38.7875529 C64.2991723,38.8297264 64.2580029,38.8715653 64.2141558,38.9140736 C64.1281351,38.9990901 64.0451269,39.0623504 63.9390236,39.125276 C63.9179368,39.125276 63.8734202,39.1477017 63.8523335,39.1674496 C63.6207136,39.4020818 63.3870855,39.6340364 63.152788,39.8472471 C63.1109492,39.9118463 63.0473541,39.9764455 62.9837591,40.0176149 C62.856569,40.1012926 62.7705483,40.2084 62.6858665,40.314838 C62.5998459,40.4426975 62.4934079,40.5461231 62.4120731,40.6559083 C62.3678913,40.7168256 62.3039616,40.7807554 62.2634616,40.8694537 C62.1356021,41.0796521 61.942474,41.2068421 61.7516888,41.3340322 C61.6880938,41.397962 61.6244988,41.397962 61.5388128,41.3340322 C61.5609037,41.2687636 61.5609037,41.2068421 61.6014037,41.1429124 C61.7741145,40.7168256 61.942474,40.314838 62.1356021,39.8910942 C62.3243789,39.5091893 62.5382591,39.125276 62.8117178,38.7661314 C63.0473541,38.4471521 63.3017343,38.1519372 63.5782054,37.8737926 C63.6207136,37.8312843 63.6605442,37.7666851 63.7030525,37.7248463 C63.7030525,37.5969868 63.6414657,37.5139785 63.5782054,37.4279579 C63.3017343,36.8974413 63.003507,36.3866727 62.7307178,35.8544826 C62.3886434,35.1987843 61.942474,34.5829165 61.5388128,33.9670488 C61.4126269,33.7953421 61.3041806,33.6494083 61.1800029,33.4813835 C61.0521434,33.3090074 60.9038665,33.1821521 60.733164,33.0536231 C60.6297384,32.969276 60.5390318,32.905681 60.4165277,32.8661851 C60.3298376,32.8427554 60.2431475,32.8005818 60.2223955,32.6934744 C60.479788,32.3554165 60.9038665,32.4176727 61.1800029,32.5448628 C61.3041806,32.6091273 61.4337136,32.6536438 61.5609037,32.6934744 C61.7516888,32.7353132 61.942474,32.8005818 62.1356021,32.8661851 C62.1767715,32.8661851 62.1965194,32.8839248 62.2196145,32.905681 C62.5382591,33.0988091 62.856569,33.2872512 63.1313665,33.5222182 C63.2575525,33.6494083 63.4071682,33.7531686 63.5340236,33.8810281 C63.8104946,34.1601769 64.1281351,34.3924661 64.3858624,34.6665942 C64.4688707,34.7318628 64.534474,34.8372967 64.6174822,34.9233174 C64.8079326,35.1773628 64.979974,35.4347554 65.1707591,35.6861231 C65.2537674,35.7918917 65.319036,35.9204207 65.380288,36.0258545 C65.4455566,36.0258545 65.4873955,35.9840157 65.5091517,35.9418421 C65.8067095,35.6014413 66.0808376,35.2620446 66.3804037,34.9233174 C66.4640814,34.8148711 66.5494326,34.7101066 66.6361227,34.6046727 C66.9544326,34.199338 67.271069,33.7765983 67.5261186,33.3314331 C67.610131,33.1821521 67.6974905,33.0747099 67.7784905,32.9498628 C67.8665194,32.8213339 68.0569698,32.7567347 68.1848293,32.8005818 C68.2701806,32.8213339 68.3120194,32.8661851 68.3120194,32.9498628 C68.3525194,33.1182223 68.3943583,33.3090074 68.4602963,33.4997926 C68.5024698,33.6494083 68.5024698,33.8398587 68.4171186,34.0105612 C68.3525194,34.138086 68.2895938,34.2860281 68.2470855,34.4346397 C68.1848293,34.6264289 68.0974698,34.7760446 68.0147963,34.9233174 C67.8869368,35.156276 67.7373211,35.3708256 67.5689616,35.5823628 C67.3785112,35.8149868 67.207474,36.0697017 67.0156847,36.3217388 C66.9544326,36.4084289 66.9095814,36.4703504 66.8459864,36.5152017 C66.6782963,36.7056521 66.5069244,36.8974413 66.3378955,37.0671397 C66.1675277,37.2579248 66.147445,37.3215198 66.2532136,37.5571562 C66.2940483,37.661586 66.3378955,37.7466025 66.4004864,37.8540446 C66.6361227,38.2356149 66.7626434,38.659024 66.929664,39.0827678 C66.929664,39.1041893 66.9544326,39.1477017 66.9544326,39.1674496 C66.9949326,39.4857595 67.1428748,39.7833174 67.2499822,40.1012926 C67.2918211,40.2084 67.3329905,40.3365942 67.3992632,40.4426975 C67.4625236,40.5909744 67.5485442,40.6977471 67.6753996,40.8028463 C67.7373211,40.843681 67.8025897,40.9079455 67.8461021,40.9511231 C67.9495277,41.0983959 68.1202302,41.1429124 68.2895938,41.185086 C68.3742756,41.2068421 68.4378707,41.185086 68.5235566,41.1429124 C68.5874864,41.0796521 68.6704946,41.0153876 68.7575194,40.9511231 C68.9908128,40.6977471 69.2247756,40.4232843 69.415226,40.1434661 C69.6923665,39.7833174 69.9249905,39.4020818 70.1368624,38.9990901 C70.3286517,38.6376025 70.5191021,38.2356149 70.6874616,37.8540446 C70.7125649,37.8312843 70.7313087,37.788776 70.7533996,37.7466025 C70.9629285,37.3857843 71.1135483,36.981119 71.3039988,36.5988793 C71.3280979,36.5540281 71.3478459,36.4944496 71.3685979,36.431524 C71.475036,36.1122099 71.5587136,35.7728132 71.6641475,35.4347554 C71.7073252,35.282462 71.7715897,35.156276 71.8345153,35.0280818 C71.8977756,34.9233174 71.9419574,34.8372967 71.9831269,34.7318628 C72.0463872,34.5628339 72.1528252,34.4992388 72.3215194,34.4778174 C72.4292963,34.4570653 72.4292963,34.4570653 72.5357343,34.4992388 L72.5357343,34.5417471 Z" id="Fill-20" fill="#221F20"></path>
                        <path d="M11.0261083,48.4541331 L11.452195,48.4541331 C11.6516826,48.4541331 11.8729264,48.4193231 11.8729264,48.1656124 C11.8729264,47.9199347 11.6416413,47.8854595 11.4451661,47.8854595 L11.0261083,47.8854595 L11.0261083,48.4541331 Z M11.0261083,47.775005 L11.4779678,47.775005 C11.6429802,47.775005 11.8183686,47.7154264 11.8183686,47.5172777 C11.8183686,47.2943603 11.6262446,47.2585463 11.4438273,47.2585463 L11.0261083,47.2585463 L11.0261083,47.775005 Z M11.5070876,47.1430711 C11.7407157,47.1430711 11.9535917,47.2444884 11.9535917,47.4988686 C11.9535917,47.6565174 11.8401248,47.7847116 11.7065752,47.8141661 C11.8655628,47.8449595 12.0098231,47.9436992 12.0098231,48.1626 C12.0098231,48.4400752 11.7899182,48.5726207 11.5248273,48.5726207 L10.8928934,48.5726207 L10.8928934,47.1430711 L11.5070876,47.1430711 Z" id="Fill-22" fill="#221F20"></path>
                        <polygon id="Fill-24" fill="#221F20" points="13.539719 47.7265388 14.2165041 48.5723529 14.0401116 48.5723529 13.4429876 47.8182496 13.1701983 48.0682785 13.1701983 48.5723529 13.0343058 48.5723529 13.0343058 47.143138 13.1701983 47.143138 13.1701983 47.9109645 14.0042975 47.143138 14.1850413 47.143138"></polygon>
                        <path d="M15.1309004,47.1430711 L15.5998302,48.0946537 L16.0627351,47.1430711 L16.2076649,47.1430711 L15.6376525,48.3225917 C15.5198343,48.5679347 15.4204252,48.6010711 15.279512,48.6010711 C15.2149128,48.6010711 15.1714004,48.585005 15.1309004,48.565257 L15.1309004,48.4487777 C15.1573426,48.4651785 15.2031979,48.4879388 15.2912269,48.4879388 C15.3916401,48.4879388 15.456574,48.3888645 15.5057764,48.2874471 L15.5235161,48.2506289 L14.9842971,47.1430711 L15.1309004,47.1430711 Z" id="Fill-26" fill="#221F20"></path>
                        <path d="M17.691538,48.6041839 C17.2952405,48.6041839 17.0365091,48.3116467 17.0365091,47.8587831 C17.0365091,47.458469 17.2681289,47.1076921 17.7022488,47.1076921 C17.9780504,47.1076921 18.256195,47.281407 18.2879926,47.5716012 L18.1507612,47.5716012 C18.1075835,47.3597293 17.9325298,47.2268492 17.6982322,47.2268492 C17.3826,47.2268492 17.1703934,47.4788864 17.1703934,47.8587831 C17.1703934,48.2390145 17.3769099,48.4877045 17.6958893,48.4877045 C17.9817322,48.4877045 18.1407198,48.2908946 18.1691702,48.025469 L18.3057322,48.025469 C18.2762777,48.3775847 18.0332777,48.6041839 17.691538,48.6041839" id="Fill-28" fill="#221F20"></path>
                        <polygon id="Fill-30" fill="#221F20" points="20.4447347 48.5724533 20.3095116 48.5724533 20.3095116 47.8809409 19.4553298 47.8809409 19.4553298 48.5724533 19.3180983 48.5724533 19.3180983 47.1429037 19.4553298 47.1429037 19.4553298 47.7647963 20.3095116 47.7647963 20.3095116 47.1429037 20.4447347 47.1429037"></polygon>
                        <path d="M21.6028339,47.8523901 C21.6028339,48.2363033 21.8140364,48.4876711 22.1393752,48.4876711 C22.4610322,48.4876711 22.676586,48.2363033 22.676586,47.8590843 C22.676586,47.4811959 22.4600281,47.2268157 22.1356934,47.2268157 C21.8177182,47.2268157 21.6028339,47.4788529 21.6028339,47.8523901 M22.8124785,47.8624314 C22.8124785,48.3075967 22.5406934,48.6064934 22.1356934,48.6064934 C21.7340405,48.6064934 21.4645983,48.3042496 21.4645983,47.8580802 C21.4645983,47.4109066 21.7363835,47.1076587 22.1393752,47.1076587 C22.5370116,47.1076587 22.8124785,47.413919 22.8124785,47.8624314" id="Fill-32" fill="#221F20"></path>
                        <mask id="mask-4" fill="white">
                            <use xlink:href="#path-3"></use>
                        </mask>
                        <g id="Clip-35"></g>
                        <polygon id="Fill-34" fill="#221F20" mask="url(#mask-4)" points="25.2191157 49.0009835 25.327562 49.0009835 25.327562 46.9940579 25.2191157 46.9940579"></polygon>
                        <polygon id="Fill-36" fill="#221F20" mask="url(#mask-4)" points="28.9318277 48.5724533 28.7959351 48.5724533 28.7959351 47.2583789 27.9410839 47.2583789 27.9410839 48.5724533 27.8045219 48.5724533 27.8045219 47.1429037 28.9318277 47.1429037"></polygon>
                        <path d="M30.0876174,47.8523901 C30.0876174,48.2363033 30.3018322,48.4876711 30.6244934,48.4876711 C30.9468198,48.4876711 31.1623736,48.2363033 31.1623736,47.8590843 C31.1623736,47.4811959 30.945481,47.2268157 30.6221504,47.2268157 C30.3018322,47.2268157 30.0876174,47.4788529 30.0876174,47.8523901 M31.299605,47.8624314 C31.299605,48.3075967 31.026481,48.6064934 30.6221504,48.6064934 C30.2204975,48.6064934 29.9527289,48.3042496 29.9527289,47.8580802 C29.9527289,47.4109066 30.2228405,47.1076587 30.6244934,47.1076587 C31.0248074,47.1076587 31.299605,47.413919 31.299605,47.8624314" id="Fill-37" fill="#221F20" mask="url(#mask-4)"></path>
                        <path d="M33.1899174,48.5724533 L33.1899174,47.2583789 L32.612876,47.2583789 L32.5877727,48.0991723 C32.5777314,48.3873583 32.5034256,48.6012384 32.2875372,48.6012384 C32.2316405,48.6012384 32.1787562,48.5915318 32.1426074,48.5724533 L32.1426074,48.461664 C32.1677107,48.4783996 32.2420165,48.4877715 32.2821818,48.4877715 C32.3846033,48.4877715 32.4455207,48.3850153 32.4572355,48.0205153 L32.4846818,47.1429037 L33.3251405,47.1429037 L33.3251405,48.5724533 L33.1899174,48.5724533 Z" id="Fill-38" fill="#221F20" mask="url(#mask-4)"></path>
                        <polygon id="Fill-39" fill="#221F20" mask="url(#mask-4)" points="35.408012 47.2584793 34.5508178 47.2584793 34.5508178 47.774938 35.3534541 47.774938 35.3534541 47.888405 34.5508178 47.888405 34.5508178 48.4540661 35.4147062 48.4540661 35.4147062 48.5725537 34.4142558 48.5725537 34.4142558 47.1430041 35.408012 47.1430041"></polygon>
                        <path d="M36.9161851,48.6012384 C36.5590488,48.6012384 36.3465074,48.4168128 36.3465074,48.112226 L36.3465074,48.0991723 L36.4760405,48.0991723 C36.4760405,48.3652674 36.6524331,48.4911186 36.9248876,48.4911186 C37.1665488,48.4911186 37.3141562,48.3381558 37.3141562,48.1533955 C37.3141562,47.9883831 37.1705653,47.8779285 36.9874785,47.8779285 L36.7585364,47.8779285 L36.7585364,47.7611145 L36.9874785,47.7611145 C37.1401066,47.7611145 37.2739909,47.6744244 37.2739909,47.5090773 C37.2739909,47.3099244 37.1227017,47.2195525 36.9272306,47.2195525 C36.7013008,47.2195525 36.5359537,47.3290029 36.5242388,47.5472343 L36.3923628,47.5472343 C36.4054165,47.2526888 36.6226438,47.1077591 36.9238835,47.1077591 C37.1946645,47.1077591 37.4128959,47.2289244 37.4128959,47.4973624 C37.4128959,47.6479822 37.3054537,47.7647963 37.2013587,47.8012798 L37.2013587,47.8073045 C37.3533174,47.846131 37.452057,47.9632798 37.452057,48.1533955 C37.452057,48.3294533 37.3175033,48.6012384 36.9161851,48.6012384" id="Fill-40" fill="#221F20" mask="url(#mask-4)"></path>
                        <polygon id="Fill-41" fill="#221F20" mask="url(#mask-4)" points="39.6046488 48.5724533 39.4687562 48.5724533 39.4687562 47.8809409 38.6145744 47.8809409 38.6145744 48.5724533 38.477343 48.5724533 38.477343 47.1429037 38.6145744 47.1429037 38.6145744 47.7647963 39.4687562 47.7647963 39.4687562 47.1429037 39.6046488 47.1429037"></polygon>
                        <path d="M40.7611079,47.8523901 C40.7611079,48.2363033 40.9736492,48.4876711 41.296645,48.4876711 C41.6203103,48.4876711 41.835864,48.2363033 41.835864,47.8590843 C41.835864,47.4811959 41.6183021,47.2268157 41.2949715,47.2268157 C40.9746533,47.2268157 40.7611079,47.4788529 40.7611079,47.8523901 M41.972426,47.8624314 C41.972426,48.3075967 41.6982979,48.6064934 41.2949715,48.6064934 C40.8936533,48.6064934 40.6225376,48.3042496 40.6225376,47.8580802 C40.6225376,47.4109066 40.8943227,47.1076587 41.296645,47.1076587 C41.6956202,47.1076587 41.972426,47.413919 41.972426,47.8624314" id="Fill-42" fill="#221F20" mask="url(#mask-4)"></path>
                        <polygon id="Fill-43" fill="#221F20" mask="url(#mask-4)" points="44.3786281 49.0009835 44.4867397 49.0009835 44.4867397 46.9940579 44.3786281 46.9940579"></polygon>
                        <path d="M47.0980525,48.4541331 L47.5254781,48.4541331 C47.724631,48.4541331 47.9458748,48.4193231 47.9458748,48.1656124 C47.9458748,47.9199347 47.7122467,47.8854595 47.517445,47.8854595 L47.0980525,47.8854595 L47.0980525,48.4541331 Z M47.0980525,47.775005 L47.5519202,47.775005 C47.7152591,47.775005 47.8916517,47.7154264 47.8916517,47.5172777 C47.8916517,47.2943603 47.6985236,47.2585463 47.5161062,47.2585463 L47.0980525,47.2585463 L47.0980525,47.775005 Z M47.5780277,47.1430711 C47.8123252,47.1430711 48.0258707,47.2444884 48.0258707,47.4988686 C48.0258707,47.6565174 47.9137426,47.7847116 47.7798583,47.8141661 C47.9388459,47.8449595 48.0817674,47.9436992 48.0817674,48.1626 C48.0817674,48.4400752 47.8621971,48.5726207 47.598445,48.5726207 L46.9661764,48.5726207 L46.9661764,47.1430711 L47.5780277,47.1430711 Z" id="Fill-44" fill="#221F20" mask="url(#mask-4)"></path>
                        <path d="M49.1720207,47.8523901 C49.1720207,48.2363033 49.384562,48.4876711 49.7088967,48.4876711 C50.032562,48.4876711 50.2464421,48.2363033 50.2464421,47.8590843 C50.2464421,47.4811959 50.0298843,47.2268157 49.7065537,47.2268157 C49.3872397,47.2268157 49.1720207,47.4788529 49.1720207,47.8523901 M50.3816653,47.8624314 C50.3816653,48.3075967 50.1105496,48.6064934 49.7065537,48.6064934 C49.303562,48.6064934 49.0354587,48.3042496 49.0354587,47.8580802 C49.0354587,47.4109066 49.3079132,47.1076587 49.7088967,47.1076587 C50.1075372,47.1076587 50.3816653,47.413919 50.3816653,47.8624314" id="Fill-45" fill="#221F20" mask="url(#mask-4)"></path>
                        <path d="M51.5349446,48.4541331 L51.9630397,48.4541331 C52.1625273,48.4541331 52.3814281,48.4193231 52.3814281,48.1656124 C52.3814281,47.9199347 52.1491388,47.8854595 51.9566802,47.8854595 L51.5349446,47.8854595 L51.5349446,48.4541331 Z M51.5349446,47.775005 L51.9894818,47.775005 C52.1514818,47.775005 52.3285438,47.7154264 52.3285438,47.5172777 C52.3285438,47.2943603 52.1360851,47.2585463 51.9529983,47.2585463 L51.5349446,47.2585463 L51.5349446,47.775005 Z M52.0155893,47.1430711 C52.2498868,47.1430711 52.4627628,47.2444884 52.4627628,47.4988686 C52.4627628,47.6565174 52.3506347,47.7847116 52.2154116,47.8141661 C52.3747339,47.8449595 52.5193289,47.9436992 52.5193289,48.1626 C52.5193289,48.4400752 52.2977504,48.5726207 52.0353372,48.5726207 L51.403738,48.5726207 L51.403738,47.1430711 L52.0155893,47.1430711 Z" id="Fill-46" fill="#221F20" mask="url(#mask-4)"></path>
                        <path d="M53.6909504,47.8461645 L54.1240661,47.8461645 C54.3195372,47.8461645 54.4795289,47.7658339 54.4795289,47.5553008 C54.4795289,47.349119 54.3422975,47.2584124 54.1371198,47.2584124 L53.6909504,47.2584124 L53.6909504,47.8461645 Z M54.1645661,47.1429372 C54.4326694,47.1429372 54.6157562,47.2781603 54.6157562,47.5445901 C54.6157562,47.8244083 54.4326694,47.9619744 54.1622231,47.9619744 L53.6909504,47.9619744 L53.6909504,48.5724868 L53.5523802,48.5724868 L53.5523802,47.1429372 L54.1645661,47.1429372 Z" id="Fill-47" fill="#221F20" mask="url(#mask-4)"></path>
                        <polygon id="Fill-48" fill="#221F20" mask="url(#mask-4)" points="56.6082223 47.2584793 55.7540405 47.2584793 55.7540405 47.774938 56.5560074 47.774938 56.5560074 47.888405 55.7540405 47.888405 55.7540405 48.4540661 56.6165901 48.4540661 56.6165901 48.5725537 55.6168091 48.5725537 55.6168091 47.1430041 56.6082223 47.1430041"></polygon>
                        <path d="M58.9995632,48.5724533 L58.8686913,48.5724533 L58.8686913,47.7075607 C58.8686913,47.5589492 58.8753855,47.4083293 58.8854269,47.2583789 C58.8569764,47.3443996 58.8248442,47.4341021 58.7917079,47.517445 L58.3689682,48.5724533 L58.2461293,48.5724533 L57.8200426,47.5291599 C57.7838938,47.4421351 57.752431,47.3537715 57.7243153,47.266412 C57.7356955,47.4140194 57.742055,47.5589492 57.742055,47.7035442 L57.742055,48.5724533 L57.6105136,48.5724533 L57.6105136,47.1429037 L57.7939351,47.1429037 L58.2116541,48.1624326 C58.2461293,48.2504616 58.2762533,48.3404988 58.3093897,48.4322095 C58.342526,48.342507 58.3689682,48.2521351 58.4037781,48.1681227 L58.8121252,47.1429037 L58.9995632,47.1429037 L58.9995632,48.5724533 Z" id="Fill-49" fill="#221F20" mask="url(#mask-4)"></path>
                        <path d="M60.9293715,47.2584793 L60.4952517,47.2584793 C60.2947599,47.2584793 60.1689087,47.3538719 60.1689087,47.5369587 C60.1689087,47.7220537 60.2947599,47.8207934 60.4952517,47.8207934 L60.9293715,47.8207934 L60.9293715,47.2584793 Z M60.1314211,48.5725537 L59.9536897,48.5725537 L60.4447103,47.9389463 C60.194012,47.928905 60.0326814,47.7846446 60.0326814,47.5369587 C60.0326814,47.2842521 60.202045,47.1430041 60.464793,47.1430041 L61.0662682,47.1430041 L61.0662682,48.5725537 L60.9293715,48.5725537 L60.9293715,47.9389463 L60.6224417,47.9389463 L60.1314211,48.5725537 Z" id="Fill-50" fill="#221F20" mask="url(#mask-4)"></path>
                    </g>
                </g>
            </g>
        </g>
    </g>
</svg>