<?xml version="1.0" encoding="UTF-8"?>
<svg width="224px" height="133px" viewBox="0 0 224 133" version="1.1" xmlns="http://www.w3.org/2000/svg" xmlns:xlink="http://www.w3.org/1999/xlink">
    <!-- Generator: Sketch 42 (36781) - http://www.bohemiancoding.com/sketch -->
    <title>Page 1</title>
    <desc>Created with Sketch.</desc>
    <defs></defs>
    <g id="Home" stroke="none" stroke-width="1" fill="none" fill-rule="evenodd">
        <g id="Home/home_768" transform="translate(-286.000000, -131.000000)" fill="#FFFFFF">
            <g id="header" transform="translate(-576.000000, 0.000000)">
                <g id="Page-1" transform="translate(861.500000, 131.575309)">
                    <path d="M223.600974,25.3052583 C223.668182,25.7263838 223.387662,26.1182646 222.966883,26.1796787 L213.043506,27.7472015 L213.049351,27.7647484 L211.448052,27.9870091 L211.453896,28.0016316 C208.347727,28.4724733 208.455844,25.3345031 206.366558,25.7263838 C199.073052,27.0979663 193.61461,28.1507802 189.117532,29.045672 C189.026948,29.7709437 188.591558,30.4523482 187.527922,31.0664897 C185.958766,31.9877018 183.670779,33.4674901 181.029221,33.7804098 C176.041234,36.9739452 167.958766,42.1649024 153.883117,42.9047965 C146.832143,43.852329 141.513961,40.6470957 129.293831,44.8203329 C122.727922,47.0663357 111.071753,49.0228148 99.6376623,47.624912 C89.9217532,48.3706551 85.2814935,50.7219394 77.7483766,49.338659 C68.9003247,47.2652006 67.3253247,41.2027475 59.4035714,42.0917903 C51.475974,42.992531 52.1042208,43.3142241 48.7818182,43.3844117 C46.1548701,43.9517614 44.8282468,42.6913093 44.7756494,41.4396306 C44.8048701,40.3487985 45.9970779,39.9890871 47.8555195,40.8225647 C51.3532468,41.4279327 53.0714286,40.6675671 56.1659091,39.8340895 C59.2662338,39.0093853 60.1983766,39.0912708 62.875,39.2521174 C65.5516234,39.407115 71.7464286,38.9333487 72.3863636,38.5999577 C73.0292208,38.2724156 72.1555195,36.7780048 66.7262987,36.3042386 C61.3642857,35.8421703 59.1055195,37.2810159 55.4061688,37.17281 C49.8366883,36.0907513 46.3652597,36.7575334 43.7850649,37.7518576 C41.3772727,38.5531659 39.5392857,34.774734 44.799026,34.3536085 C48.4516234,35.1666147 54.0912338,33.9354074 56.1162338,33.6195633 C58.1412338,33.2978701 59.5146104,32.9381587 65.087013,29.5282116 C65.6217532,29.2006696 66.1038961,28.8848254 66.5480519,28.5719057 C58.6350649,30.2359365 45.3133117,32.9586301 38.5253247,30.4377258 C30.7467532,27.5483367 26.9918831,31.6543107 17.3198052,27.8905012 C7.64188312,24.1296162 11.9519481,21.6964464 22.5561688,18.2718769 C33.1574675,14.8502318 33.3707792,12.4667783 49.0038961,11.2004772 C64.6282468,9.92247811 62.7347403,18.4356479 73.0292208,22.3866243 L76.5503247,23.5505685 C77.7688312,23.3809485 79.2006494,23.2698182 80.9275974,23.2405734 C90.924026,23.0592554 93.5042208,27.0365522 99.775,26.6300491 C104.330519,26.3376008 109.558117,24.9016797 114.651299,23.6880192 C112.109091,21.5326753 107.296429,17.909241 103.500649,17.8215065 C103.30487,17.7688658 98.5477273,18.8099817 96.063961,20.7693853 C93.5743506,22.7258644 89.6938312,22.1672881 87.6133117,21.681824 C85.5327922,21.1963598 85.8220779,20.1464704 85.9681818,18.7076248 C86.1230519,17.2570813 88.337987,18.1285772 91.0788961,19.0439404 C93.813961,19.9476056 94.0681818,18.33914 97.1626623,15.9147436 C100.254221,13.4961962 102.957143,12.7796979 107.974351,13.7301549 C117.365909,14.8239115 125.500974,17.9238634 129.314286,19.5703473 C129.805195,19.6376104 130.316558,19.6054411 130.827922,19.5235556 C129.287987,19.0936566 126.608442,17.9560327 125.457143,14.9291929 C127.338961,14.7244791 129.358117,15.0169274 130.652597,16.0024781 C129.805195,13.1715786 130.395455,10.8729351 132.478896,7.00676864 C135.199351,11.4432092 136.029221,15.2713574 133.405195,18.6140414 C135.199351,17.7103761 136.593182,16.5171871 136.593182,16.5171871 L137.989935,14.3998615 C137.989935,14.3998615 141.420455,12.6334738 143.547727,10.3026609 C139.152922,6.69092448 148.310714,-0.000292448292 148.310714,-0.000292448292 L152.334416,9.29956325 C153.278247,9.24107359 157.16461,10.6623723 158.231169,12.3497989 C158.099675,10.3903954 161.050974,7.16469072 164.794156,5.73461857 C165.203247,6.1908379 164.084091,17.2015161 164.034416,18.7865859 C164.238961,21.7754074 161.436688,28.7356768 160.995455,29.3147244 C160.560065,29.8966965 158.441558,30.9085676 156.647403,32.1310014 C155.303247,33.060987 152.842857,34.4150226 151.694481,35.0379375 C142.428571,36.9447003 135.476948,36.0205637 134.576948,34.7513381 C134.369481,34.4881347 134.159091,34.4471919 133.942857,34.4588899 C133.98961,36.0498086 133.901948,37.2810159 133.653571,37.1055469 C133.232792,36.8072496 132.727273,34.7220933 132.41461,32.7568408 C131.93539,29.9259413 131.42987,27.2090967 133.279545,18.757341 C133.279545,18.757341 132.662987,18.9825262 132.040584,19.18724 L132.03474,19.1813911 L132.03474,19.193089 C131.733766,19.2866724 131.42987,19.3744069 131.193182,19.4241231 C130.994481,19.5411025 124.212338,27.7208812 122.187338,30.9758307 C120.168182,34.2366291 117.903571,38.8192939 118.698377,43.1329062 C120.121429,43.0539452 122.605195,44.1886445 127.002922,42.1707513 C124.343831,41.4688754 122.906169,40.1996498 124.273701,40.4687023 C125.755195,40.9600154 126.959091,41.5273651 129.612338,41.629722 C131.841883,41.4571775 135.970779,40.9249216 139.915584,39.2755132 C140.508766,39.2579663 151.533766,36.4241424 151.688636,35.113974 C162.175974,37.0792266 169.849351,35.3128389 177.461364,31.4759173 C177.207143,31.528558 176.947078,31.5899721 176.684091,31.6455373 C174.261688,31.4554459 173.782468,29.9083944 176.307143,28.6976585 C178.516234,28.2940798 180.725325,27.8905012 183.209091,27.4342819 C185.716234,25.6503473 187.624351,24.4366869 188.287662,25.9749649 C188.35487,26.1387359 188.425,26.2995825 188.49513,26.4692025 C192.922078,25.6561962 198.365909,24.6443252 205.761688,23.2551958 C208.271753,22.784354 207.406818,19.6727042 209.913961,19.0293179 L209.913961,19.0205445 L211.386688,18.7865859 L211.395455,18.7924348 L221.806818,17.1517999 C222.224675,17.0874613 222.61039,17.3682116 222.677597,17.7864127 C222.747727,18.2016893 222.455519,18.59357 222.043506,18.6608331 L211.667208,20.301468 L211.851299,21.3016412 L222.113636,19.6785532 C222.528571,19.61129 222.92013,19.8978894 222.984416,20.3160904 C223.051623,20.7342915 222.76526,21.1232477 222.350325,21.1905108 L212.128896,22.8019009 L212.318831,23.8166965 L222.499351,22.2082309 C222.914286,22.1409678 223.305844,22.4304916 223.375974,22.8486926 C223.434416,23.2639692 223.150974,23.650001 222.736039,23.7172641 L212.590584,25.3228052 L212.762987,26.2469418 L222.730195,24.6706455 C223.150974,24.6063069 223.542532,24.8899817 223.600974,25.3052583 Z M23.5058442,22.3222857 C26.4425325,21.5677691 25.3262987,20.0207177 23.1522727,19.8452487 C20.9811688,19.6727042 16.4811688,21.506355 14.8155844,23.0768023 C12.0600649,25.4280866 23.3451299,28.9286926 22.3808442,27.4927715 C21.9133117,27.0160808 21.8636364,26.0919442 24.0376623,25.9749649 C25.4987013,25.69129 24.7974026,24.50395 22.9185065,23.9746186 C21.3464286,23.8459413 21.1331169,22.869164 23.5058442,22.3222857 Z M137.136688,28.2063454 C136.108117,31.358938 138.849026,32.3327908 140.798052,33.7599384 C142.747078,35.1929351 143.714286,33.5903184 145.835714,32.8445753 C147.948377,32.1017566 150.86461,31.358938 153.211039,30.2681058 C156.679545,29.0105782 157.158766,26.0919442 156.78474,25.7556287 C156.062987,23.9716941 153.707792,24.243671 152.755195,24.8256431 C151.802597,25.4193131 148.626299,27.7355036 148.401299,28.5368119 C148.328247,29.6627379 148.170455,31.17762 146.016883,30.5810255 C144.476948,29.9376392 145.622403,27.7267302 146.268182,27.3904146 C146.452273,26.9049505 146.633442,24.7115883 146.694805,22.9949168 C146.747403,21.2782453 146.858442,18.242632 145.835714,16.4119057 C144.804221,14.5782549 141.569481,15.6515402 140.573052,18.7865859 C140.573052,18.7865859 138.168182,25.0566772 137.136688,28.2063454 Z M131.353019,20.7629514 C131.616006,20.8828552 131.171851,21.1226628 130.751071,22.298305 C129.950422,24.520912 128.664708,28.966126 128.676396,34.3764194 C128.676396,34.7215084 128.787435,35.3619702 128.606266,35.4029129 C128.515682,35.4292333 128.346201,34.7390553 128.261461,34.4173622 C126.7975,28.7555633 128.030617,24.9537354 130.464708,21.7221818 C130.718929,21.3829418 131.08711,20.6430476 131.353019,20.7629514 Z" id="Combined-Shape"></path>
                    <g id="Group" transform="translate(0.000000, 58.489658)">
                        <path d="M8.05506494,47.5687619 C6.90668831,47.3962174 5.75538961,47.4547071 4.67422078,47.8582857 C3.35344156,48.2589399 2.60246753,49.2357172 2.26350649,50.4990938 C2.83623377,51.2448369 3.52292208,51.7624704 4.38493506,51.8736008 C5.01318182,51.9935046 5.64435065,52.0461453 6.28136364,52.1046349 C6.90668831,52.1689735 7.25441558,51.8736008 7.59922078,51.3647407 C8.34435065,50.2124945 8.40279221,48.9520423 8.34435065,47.6272516 C8.23038961,47.6272516 8.1661039,47.5687619 8.05506494,47.5687619 M16.1433766,46.1913304 C17.4086364,46.5364194 18.6125325,46.9399981 19.757987,47.3962174 C21.7654545,48.2033747 26.0112338,50.9611621 28.0216234,51.3647407 C29.3394805,51.5928504 30.0875325,51.1337066 31.1161039,50.385039 C31.5193506,50.1540048 31.8583117,49.9288196 32.32,49.8147648 C32.32,49.9288196 32.3755195,49.9814603 32.3755195,49.9814603 C31.5193506,50.9611621 30.9437013,52.1046349 30.032013,52.9673574 C29.8596104,53.201316 29.6258442,53.370936 29.395,53.4820664 C28.7024675,53.9441347 25.6109091,55.0349668 23.658961,54.5202578 C21.3651299,53.885645 19.1238961,53.0229226 17.0053896,51.9935046 C16.1433766,51.5343608 15.2872078,51.0196518 14.4222727,50.554659 C14.1943506,50.4376797 13.9635065,50.2680596 13.6800649,50.1540048 C13.2797403,50.7915421 12.8764935,51.3647407 12.5346104,51.9935046 C12.2424026,52.5082136 11.8391558,52.856227 11.2138312,53.0843367 C10.9800649,53.201316 10.6937013,53.370936 10.4073377,53.4820664 C8.05506494,54.2862992 5.69987013,54.7483675 3.35344156,53.370936 C2.60246753,52.9673574 2.14662338,52.2801039 1.5738961,51.7069052 C0.714805195,50.7915421 0.998246753,49.8147648 1.28168831,48.835063 C1.45993506,48.4314844 1.86318182,48.0249812 2.20214286,47.7413064 C3.52292208,46.6563232 4.95474026,46.0802001 6.62032468,45.9602963 C7.25441558,45.9076556 7.82714286,45.8520904 8.56935065,45.7906763 C8.56935065,45.3870976 8.68623377,44.9864435 8.62487013,44.5828648 C8.62487013,42.9831727 8.51675325,41.3717826 8.56935065,39.6989784 C8.62487013,37.7571217 8.7475974,35.7450774 8.85571429,33.7915228 C9.02811688,31.788252 9.25896104,29.7147937 9.54532468,27.7027494 C10.007013,24.2577085 10.6352597,20.8711573 11.7281169,17.5986609 C12.2424026,15.873216 12.9290909,14.2121097 13.9635065,12.6562848 C14.883961,11.2232881 15.9096104,9.91311977 17.4641558,9.04454834 C18.4401299,8.52691486 19.3605844,7.89522655 20.3307143,7.26353824 C21.1898052,6.69326407 22.1687013,6.69326407 23.1417532,6.62600096 C24.4625325,6.51779509 25.6109091,7.03835305 26.7592857,7.49457239 C27.5014935,7.78117172 28.1911039,8.07654449 28.7696753,8.6409697 C28.9391558,8.81643867 29.1729221,9.04454834 29.283961,9.26973353 C29.6258442,9.91311977 29.4563636,10.2465108 28.8251948,10.4746205 C28.6498701,10.5418836 28.4219481,10.5418836 28.3664286,10.4219798 C28.1297403,10.138305 27.7849351,10.1967946 27.445974,10.0798153 C26.356039,9.84878114 25.3216234,9.61774699 24.2346104,9.4452025 C23.3725974,9.33407215 22.5135065,9.16152766 21.7099351,9.26973353 C21.1898052,9.26973353 20.6784416,9.73472631 20.2781169,10.0798153 C19.3021429,10.8255584 18.4401299,11.7467706 17.9784416,12.9428841 C17.6920779,13.638911 17.4641558,14.3817297 17.2917532,15.1303973 C16.7161039,17.3676267 16.3157792,19.6633458 16.1433766,21.9619894 C16.0323377,23.6289447 15.7430519,25.2959 15.632013,26.9540818 C15.5735714,27.8226532 15.5735714,28.6824512 15.5735714,29.486684 C15.5735714,29.8844137 15.5122078,30.2324271 15.5122078,30.6360058 C15.4537662,30.8056258 15.3982468,30.9810948 15.3982468,31.2062799 C15.3427273,32.2473959 15.3427273,33.332379 15.2872078,34.367646 C15.2872078,34.5928312 15.2229221,34.8326388 15.1703247,35.057824 C14.8255195,36.3738413 14.9979221,37.6957076 14.883961,39.0175738 C14.8255195,39.9358615 14.77,40.9097143 14.8255195,41.8894161 C14.883961,42.8077037 14.7057143,43.7259913 14.6501948,44.644279 C14.6501948,44.9864435 14.5946753,45.3870976 14.5946753,45.8520904 C15.1703247,45.9602963 15.6875325,46.018786 16.1433766,46.1913304" id="Fill-6"></path>
                        <path d="M38.5884416,48.6054911 C38.8777273,48.1463473 39.2166883,47.7427686 39.5001299,47.2836248 C39.7923377,46.8800462 40.0202597,46.479392 40.2481818,46.0816623 C40.479026,45.7307244 40.6514286,45.3271457 40.8764286,44.9879057 C40.9933117,44.6983819 41.1657143,44.4731967 41.341039,44.2421626 C41.5134416,43.8385839 41.7413636,43.4964194 41.9692857,43.1513304 C42.6588961,41.943519 43.4098701,40.8000462 44.1520779,39.5922347 C45.2390909,37.7556595 46.1624675,35.8021049 47.3634416,34.0269437 C47.4218831,33.9070399 47.4218831,33.7929851 47.4774026,33.6760058 C47.5913636,33.4449716 47.7053247,33.1583723 47.8835714,32.8688485 C48.167013,32.3014988 48.5673377,31.7253757 48.7426623,31.0351977 C49.142987,30.9182184 49.5462338,30.8626532 49.9465584,30.9182184 C50.0020779,31.0907629 49.9465584,31.2633074 49.8296753,31.3802867 C49.5988312,31.6083963 49.5462338,31.8979202 49.6601948,32.2459336 C49.6601948,32.4155536 49.6601948,32.526684 49.5462338,32.702153 C49.4877922,32.8191323 49.4877922,32.9302626 49.4877922,32.9858278 C49.4293506,33.0998826 49.4293506,33.216862 49.3738312,33.2724271 C49.254026,33.4449716 49.1985065,33.6175161 49.254026,33.8456258 C49.3124675,33.9596806 49.254026,34.1351496 49.142987,34.2492044 C49.0874675,34.4275979 48.9092208,34.5942934 48.9092208,34.7639134 C48.7981818,35.4599404 48.3978571,35.9161597 47.9946104,36.4308687 C47.9946104,36.4893583 47.9390909,36.5449235 47.8835714,36.6648273 C47.4218831,37.5801905 46.8462338,38.3844233 46.3319481,39.3085599 C46.1624675,39.6477999 45.8731818,39.8203444 45.7592208,40.1098682 C45.5868182,40.5046734 45.4173377,40.8526869 45.2390909,41.2007003 C44.1520779,43.2683098 43.0650649,45.2715806 41.8553247,47.2251352 C41.7998052,47.3421145 41.6858442,47.3976797 41.6274026,47.4532448 C41.5134416,47.6287138 41.3965584,47.7427686 41.2796753,47.8568235 C40.8238312,48.3159673 40.4235065,48.7224704 40.0202597,49.1816142 C39.7923377,49.3570832 39.617013,49.5793439 39.392013,49.7518884 C39.0442857,50.1525426 38.6965584,50.4976316 38.2933117,50.9012102 C38.1325974,51.0737547 37.8959091,51.190734 37.6095455,51.2433747 C37.2062987,51.3018644 36.805974,51.3632785 36.4144156,51.2433747 C36.2361688,51.190734 36.0637662,51.190734 35.9468831,51.190734 C35.3157143,51.3018644 34.8598701,51.0181895 34.4011039,50.676025 C33.7114935,50.0940529 33.2527273,49.3570832 33.0832468,48.4943608 C32.8524026,47.4532448 32.7355195,46.4179779 32.7968831,45.3856354 C32.7968831,45.1604502 32.7968831,44.9294161 32.8524026,44.6457412 C32.9079221,43.6133987 32.9663636,42.5781318 33.0218831,41.6013545 C33.0832468,41.0807965 33.0832468,40.6245772 33.1329221,40.1683579 C33.1329221,39.8203444 33.1972078,39.4752554 33.2527273,39.1857316 L33.2527273,38.8464916 C33.1329221,38.9049812 33.0218831,38.9634709 32.9663636,39.0190361 C32.7355195,39.3085599 32.5631169,39.6477999 32.3351948,39.9899644 C32.2738312,40.0484541 32.2212338,40.1098682 32.1598701,40.1683579 C31.6981818,40.6245772 31.3562987,41.2007003 31.0144156,41.773899 C30.8449351,42.0604983 30.6140909,42.2856835 30.4387662,42.5781318 C30.2663636,42.7448273 30.1494805,42.9202963 29.9829221,43.0957653 C29.6351948,43.6133987 29.1793506,43.9584877 28.6650649,44.3532929 C28.2588961,44.6983819 27.7475325,44.8709264 27.2829221,45.1604502 C27.2274026,45.2160154 27.1718831,45.2715806 27.055,45.2715806 C26.6546753,45.2715806 26.2543506,45.3271457 25.8511039,45.3271457 C25.7371429,45.3856354 25.6173377,45.3856354 25.5062987,45.3271457 C25.217013,45.1604502 24.8780519,45.1604502 24.4748052,45.1604502 C24.0744805,45.1604502 23.7296753,44.9879057 23.3848701,44.8153612 C22.9816234,44.5814026 22.5842208,44.3532929 22.405974,43.9584877 C22.3504545,43.7800943 22.2364935,43.7245291 22.1196104,43.6133987 C21.5994805,42.8676556 21.3248052,42.0604983 21.0325974,41.2007003 C20.8017532,40.3379779 20.7433117,39.4196902 20.5767532,38.5598923 L20.5767532,38.0334853 L20.5767532,36.3197383 C20.5767532,35.5739952 20.6293506,34.8867417 20.8017532,34.1936392 C20.8601948,33.7929851 20.9215584,33.3923309 20.9215584,33.0443175 C20.9215584,32.4155536 21.0325974,31.8394305 21.1436364,31.2077422 C21.1436364,30.9182184 21.3248052,30.6345435 21.3803247,30.3479442 C21.4329221,29.9999307 21.4884416,29.6577662 21.5994805,29.3156017 C21.8361688,28.0551496 22.1196104,26.8444137 22.5228571,25.6395267 C22.5842208,25.3500029 22.6397403,25.0634036 22.6952597,24.7709553 C22.8092208,24.2591708 22.9231818,23.7415373 23.042987,23.2297528 C23.1511039,22.8788148 23.2709091,22.5395748 23.3848701,22.2471265 C23.5543506,21.904962 23.6741558,21.6183627 23.8436364,21.2761982 C23.9020779,21.0422395 24.0744805,20.9311092 24.3579221,20.9311092 C24.7611688,20.9311092 25.1614935,20.9311092 25.5062987,21.1036537 C25.5618182,21.2761982 25.6757792,21.4487427 25.7371429,21.6183627 C25.6757792,21.6710034 25.6757792,21.8523213 25.6173377,21.904962 C25.4537013,22.1389206 25.5062987,22.3670303 25.6173377,22.6009889 C25.6173377,22.6507051 25.6173377,22.6507051 25.6757792,22.7121193 C26.4209091,23.4052217 25.7371429,24.3703011 25.8511039,25.2359481 C25.8511039,25.5225474 26.0761039,25.8062222 26.1374675,26.0986705 C26.3069481,26.9029033 26.0761039,27.8241154 26.1959091,28.6195748 C26.4209091,30.6345435 26.5407143,32.6495123 26.3683117,34.6557076 C26.3069481,35.6851255 25.9650649,36.723317 25.9650649,37.8083001 C26.0235065,38.267444 26.1374675,38.7880019 26.1374675,39.3085599 C26.1374675,39.7618547 26.0761039,40.2209986 26.1374675,40.6245772 C26.2543506,41.0223069 26.4209091,41.4258855 26.4209091,41.8294642 L26.4209091,42.0604983 C26.4764286,42.4055873 26.5407143,42.7448273 26.8241558,42.9817104 C26.8796753,43.0402001 26.943961,43.1513304 27.055,43.2683098 C27.1718831,43.2098201 27.2274026,43.1513304 27.3413636,43.0957653 C27.7475325,42.7448273 28.0835714,42.4055873 28.4312987,42.0020087 C29.4627922,40.6772179 30.4942857,39.4196902 31.4176623,38.0334853 C31.5871429,37.8083001 31.7595455,37.5246253 31.9319481,37.2935911 C32.5631169,36.4308687 33.1329221,35.5739952 33.5975325,34.6557076 C33.767013,34.4275979 33.8225325,34.1936392 33.8225325,33.9596806 C33.9394156,33.216862 34.0562987,32.4155536 34.1673377,31.6639615 C34.3426623,30.8041635 34.5150649,29.94729 34.8043506,29.0816431 C35.0907143,28.2803348 35.2601948,27.4176123 35.4267532,26.5548899 C35.6079221,25.8734853 35.7744805,25.1774584 35.9468831,24.4902049 C36.0637662,24.2036056 36.1192857,23.9696469 36.1748052,23.6304069 C36.692013,23.4520135 37.2062987,23.4052217 37.7819481,23.5660683 C38.0127922,23.6304069 38.2933117,23.6888966 38.53,23.8058759 C38.8777273,23.86729 39.0998052,24.0924752 39.0998052,24.4902049 C39.0998052,24.8937835 39.1640909,25.2944377 39.3335714,25.6980164 C39.392013,25.8062222 39.392013,25.9846157 39.392013,26.0986705 C39.4475325,26.7888485 39.5001299,27.5316671 39.5001299,28.2247696 C39.4475325,29.1459817 39.8478571,29.8858759 39.9033766,30.7544473 C40.0202597,31.9564098 39.7923377,33.2724271 39.617013,34.4831631 C39.5614935,35.1119269 39.5614935,35.7465397 39.392013,36.372379 C39.2166883,36.9485022 38.8777273,37.5246253 38.8163636,38.1563136 C38.6965584,39.0190361 38.641039,39.9343992 38.5884416,40.8000462 C38.4774026,41.7095604 38.4131169,42.6395459 38.4131169,43.5490601 C38.4131169,43.9584877 38.53,44.4731967 38.4774026,44.8709264 C38.4131169,45.449974 38.1325974,45.9061934 38.1851948,46.479392 C38.2407143,46.9414603 38.1851948,47.3976797 38.1851948,47.8012583 C38.1851948,48.1463473 38.2407143,48.4300221 38.3575974,48.8336008 C38.4774026,48.7224704 38.53,48.6552073 38.5884416,48.6054911" id="Fill-9"></path>
                        <path d="M66.4238636,37.4044291 C65.9066558,40.1095758 65.7897727,42.8673632 65.6232143,45.5608119 C65.5589286,46.0813699 65.5063312,46.5375892 65.5589286,47.0522982 C65.5589286,47.1692775 65.5063312,47.341822 65.4478896,47.4529524 C65.4478896,47.6898355 65.4478896,47.7424762 65.6787338,48.026151 C65.7371753,47.9764348 65.7897727,47.9179452 65.8482143,47.856531 C65.9592532,47.7424762 66.0206169,47.6284214 66.1375,47.5143665 C66.8271104,46.4176854 67.5663961,45.385343 68.1420455,44.2974353 C69.0040584,42.8088735 69.7462662,41.3056893 70.4972403,39.8200519 C70.8362013,39.1854392 71.236526,38.5595998 71.6397727,37.9834767 C72.101461,37.3547128 72.4433442,36.6031207 72.8465909,35.9158672 C73.188474,35.3397441 73.4806818,34.7051313 73.8196429,34.1348571 C74.050487,33.7312785 74.2813312,33.3920385 74.5092532,32.9855354 C74.6875,32.6492198 74.9066558,32.3012063 75.0878247,31.9561174 C75.2543831,31.6081039 75.4297078,31.2630149 75.5991883,30.9822646 C75.7803571,30.7541549 76.0053571,30.6898163 76.3472403,30.8623608 C76.2362013,31.0904704 76.1748377,31.3215046 76.0053571,31.5525387 C75.7803571,31.8976277 75.7803571,32.3012063 75.7131494,32.7018605 L75.7131494,32.9855354 C75.6576299,33.4446792 75.5465909,33.9067475 75.3128247,34.3688158 C75.026461,35.0560693 74.9066558,35.8018124 74.5092532,36.3720866 C74.2228896,36.9482097 73.9394481,37.5243329 73.5917208,38.0331929 C72.6741883,39.5919423 71.9875,41.2004079 71.125487,42.7445349 C70.2079545,44.5343184 69.4073052,46.3621203 68.1420455,47.9764348 C66.8797078,49.4649966 64.6998377,50.9009177 62.6310065,50.4973391 C61.9443182,50.3277191 61.4855519,49.8714998 61.2021104,49.236887 C61.0297078,48.7806676 60.8047078,48.3156748 60.7404221,47.8009658 C60.5095779,46.5375892 60.4043831,45.2157229 60.4043831,43.9581953 L60.4043831,42.46086 C60.5095779,40.2733468 60.8047078,38.2115863 61.2605519,36.0884117 C61.4300325,35.2315382 61.5469156,34.3688158 61.7163961,33.5031688 C61.8887987,32.4152612 62.0670455,31.2630149 62.2306818,30.1751073 C62.4060065,29.3153093 62.5784091,28.4496623 62.6923701,27.5927888 C62.8647727,26.5545974 63.0342532,25.5807446 63.0342532,24.5425532 L63.0342532,24.2588783 C62.7508117,24.3700087 62.5258117,24.4899125 62.2862013,24.662457 C62.1751623,24.7209466 62.1225649,24.832077 62.0670455,24.9461318 C61.8887987,25.1216008 61.8303571,25.3497104 61.7163961,25.5251794 C61.6082792,25.6977239 61.5469156,25.8059298 61.4300325,25.9229091 C60.5709416,26.4463915 60.1121753,27.6512785 59.5978896,28.508152 C58.9053571,29.5463434 58.1047078,30.5786859 57.3537338,31.6081039 C56.6699675,32.5907302 56.1498377,33.6757133 55.638474,34.7051313 C55.1767857,35.6848331 54.5456169,36.6645349 54.2066558,37.6354632 C54.2066558,37.6354632 54.2066558,37.6968773 54.1394481,37.6968773 C53.8034091,38.1033805 53.7449675,38.615165 53.5725649,39.1327985 C53.5141234,39.474963 53.3475649,39.8200519 53.1693182,40.1095758 C52.9969156,40.4517403 52.7689935,40.7383396 52.9443182,41.1389937 C52.9443182,41.2530486 52.8800325,41.3700279 52.824513,41.4840827 C52.6550325,41.8876614 52.4241883,42.2853911 52.1933442,42.7445349 C52.076461,42.981418 51.9654221,43.0399076 51.6790584,42.981418 C51.3897727,42.8673632 51.2173701,42.9200038 50.9894481,43.0954728 C50.9339286,43.151038 50.8170455,43.2680173 50.7586039,43.2680173 C50.2998377,43.2095277 49.9550325,43.4405618 49.6131494,43.6131063 C48.9849026,43.8997056 48.4676948,43.7798018 47.8920455,43.6131063 C47.5998377,43.5487677 47.4887987,43.320658 47.3777597,43.0399076 C47.3163961,42.8088735 47.3163961,42.5807638 47.2579545,42.3438807 C47.1965909,41.7736065 47.1469156,41.2530486 47.1469156,40.6769254 C47.1469156,40.504381 47.1469156,40.2733468 47.0855519,40.1095758 C47.0855519,39.9341068 47.1469156,39.7615623 47.0855519,39.5919423 C46.9774351,38.615165 46.9774351,37.6354632 46.9774351,36.6645349 C46.9774351,36.4919904 46.9774351,36.3194459 46.9189935,36.1469014 C46.8605519,35.5152131 46.8605519,34.8308841 46.8605519,34.1348571 L46.8605519,32.7545012 C46.8021104,31.7864974 46.8021104,30.8623608 46.8021104,29.8855835 C46.8021104,29.5463434 46.8021104,29.2568196 46.7407468,28.9146551 L46.7407468,28.508152 C46.8605519,26.9552516 46.9774351,25.3497104 47.0855519,23.7412448 C47.1469156,22.8258817 47.2579545,21.8520289 47.3777597,20.9308167 C47.4332792,20.5272381 47.5443182,20.1265839 47.6641234,19.7230053 C47.7196429,19.436406 47.9475649,19.266786 48.2368506,19.2053718 C48.9849026,19.0942415 49.6131494,19.1468822 50.2998377,19.4948956 C50.3553571,19.4948956 50.4137987,19.5533853 50.4137987,19.6089505 C50.5920455,19.8984743 50.8725649,20.0125291 51.1034091,20.1850736 C51.1589286,20.4102588 51.2728896,20.6997826 51.3342532,20.9308167 C51.3897727,20.9922309 51.3897727,21.0419471 51.4511364,21.0419471 C51.9654221,21.2759057 52.1933442,21.6707109 52.2576299,22.2468341 C52.2576299,22.942861 52.1378247,23.6886041 52.3657468,24.3700087 C52.5381494,24.9461318 52.824513,25.5251794 52.713474,26.1480943 C52.6550325,26.9552516 52.5965909,27.7039192 52.4767857,28.4496623 C52.3657468,29.3708745 52.1933442,30.2335969 52.2576299,31.1518846 C52.2576299,31.4969735 52.4241883,31.839138 52.4241883,32.1871515 C52.4241883,32.5907302 52.3102273,32.9855354 52.3657468,33.3920385 C52.4241883,33.9067475 52.4241883,34.4273054 52.3657468,34.9361655 C52.3657468,35.3953093 52.3657468,35.8018124 52.4241883,36.2638807 C52.6550325,36.2638807 52.6550325,36.0884117 52.713474,35.9714324 C53.1693182,35.1116344 53.5725649,34.248912 54.0284091,33.3920385 C54.1394481,33.0995902 54.3176948,32.868556 54.4316558,32.5907302 C54.5456169,32.3509226 54.6566558,32.0672477 54.7793831,31.7864974 C54.9430195,31.3799942 55.1241883,30.9179259 55.3433442,30.5231207 C55.5215909,30.2833131 55.638474,30.0552035 55.7465909,29.8329428 C56.386526,28.683621 57.0147727,27.5313747 57.6430195,26.3791284 C57.9936688,25.8059298 58.3326299,25.1771659 58.7329545,24.6068918 C59.1362013,24.0336931 59.5394481,23.4049293 59.9368506,22.8258817 C60.3400974,22.3082482 60.7404221,21.8520289 61.2021104,21.4484502 C62.0670455,20.6997826 63.0926948,20.4102588 64.1826299,20.4687484 L65.5589286,20.4687484 C66.0206169,20.4102588 66.4238636,20.5857278 66.7599026,20.8723271 C67.1076299,21.2759057 67.5137987,21.6180702 67.8586039,21.9631592 C68.0280844,22.1912689 68.200487,22.4164541 68.1420455,22.6504127 C68.0836039,22.9955017 68.200487,23.282101 68.311526,23.6301145 C68.7176948,24.7735873 68.7176948,26.7300664 68.5511364,27.9905185 C68.4897727,28.508152 68.3699675,29.0813506 68.2589286,29.6019086 C67.6862013,32.1871515 66.9381494,34.763621 66.4238636,37.4044291" id="Fill-11"></path>
                        <path d="M73.7816558,35.2309533 C73.8956169,34.8302992 73.8956169,34.3682309 73.9540584,33.9588033 C73.9540584,33.3329639 74.0125,32.7539163 74.126461,32.122228 C74.2433442,30.75357 74.7605519,29.4872689 74.9300325,28.1069129 C74.9855519,27.9899336 74.9855519,27.9343684 75.0410714,27.8232381 C75.2163961,27.1944743 75.3858766,26.5013718 75.6751623,25.872608 C75.9586039,25.176581 76.3063312,24.4893276 76.5926948,23.8664127 C76.8819805,23.2815161 77.1654221,22.8252968 77.4488636,22.3076633 C77.5102273,22.190684 77.5686688,22.0795536 77.5686688,22.0239885 C77.9163961,21.3893757 78.4277597,20.991646 79.0034091,20.640708 C79.748539,20.2926946 80.4352273,19.9505301 81.1832792,19.6639307 C81.5836039,19.4943107 81.9897727,19.4387456 82.448539,19.3217662 C82.8488636,19.2662011 83.3076299,19.2077114 83.7050325,19.1462973 C83.9358766,19.0936566 84.1696429,19.0936566 84.3887987,19.0936566 C85.598539,18.9796017 86.6943182,19.3217662 87.7228896,19.8393997 C87.8952922,19.8978894 88.0618506,20.0645849 88.2430195,20.1844887 C88.4095779,20.2926946 88.526461,20.4681635 88.526461,20.6991977 C88.5849026,20.9302318 88.7017857,21.161266 88.7573052,21.3893757 C88.9297078,21.7900298 89.0465909,22.1380433 88.9823052,22.6030361 C88.9297078,22.6498278 88.9297078,22.7697316 88.9823052,22.8779375 C88.9823052,23.4540606 88.7573052,23.9687696 88.526461,24.4366869 C88.2430195,24.8929062 87.4394481,25.1210159 87.0362013,24.9455469 C86.9251623,24.8929062 86.8053571,24.8314921 86.8579545,24.6618721 C86.9251623,24.2582934 86.9251623,23.9161289 87.0362013,23.5154747 C87.1501623,23.0534064 87.0362013,22.6498278 86.9719156,22.190684 C86.9719156,21.9625743 86.8579545,21.7900298 86.6943182,21.6204098 C86.4547078,21.4478653 86.2326299,21.2226801 85.8878247,21.1027763 C85.5430195,20.9302318 85.2537338,20.7606118 84.9118506,20.640708 C84.6839286,20.5295777 84.5086039,20.5295777 84.3332792,20.640708 C84.0498377,20.8717422 83.7693182,21.0413622 83.4741883,21.2782453 C83.3076299,21.3893757 83.1849026,21.5619202 83.1323052,21.670126 C82.901461,22.3690774 82.5625,22.9422761 82.1037338,23.4540606 C81.7560065,23.8664127 81.4667208,24.3694238 81.3001623,24.9455469 C81.1248377,25.5245945 80.8998377,26.042228 80.7186688,26.6125022 C80.6631494,26.7294815 80.6076299,26.8435363 80.6076299,27.0131563 C80.4936688,27.755975 80.2628247,28.5075671 80.0319805,29.2562347 C79.8625,29.7124541 79.6959416,30.233012 79.6345779,30.75357 C79.6345779,30.917341 79.5176948,31.1512997 79.4592532,31.3209197 C79.2313312,31.8970428 79.1144481,32.4146763 79.0560065,32.9849505 C79.0034091,33.5639981 78.8368506,34.1342722 78.7112013,34.7630361 C78.6556818,34.8302992 78.6556818,34.9355806 78.6556818,34.9969947 C78.5972403,35.8012275 78.5446429,36.6025358 78.5446429,37.3570524 C78.4862013,37.6348783 78.5446429,37.8659125 78.5972403,38.1027956 C78.5972403,38.2139259 78.6556818,38.3309052 78.5972403,38.3835459 C78.4862013,38.8456142 78.6556818,39.310607 78.6556818,39.7609774 L78.6556818,40.3955902 C78.5972403,40.7991688 78.5972403,41.199823 78.7784091,41.6004772 C78.8894481,41.8285868 78.9478896,42.1151861 79.0560065,42.40471 C79.1144481,42.6883848 79.2313312,43.0393228 79.3452922,43.3756383 C79.4592532,43.6710111 79.6345779,43.8991207 79.8625,44.1243059 C80.2073052,44.4138297 80.5521104,44.5337335 80.9582792,44.3524156 C81.1248377,44.2997749 81.3001623,44.2412852 81.4667208,44.2412852 C82.448539,44.0716652 83.3660714,43.6710111 84.2806818,43.1504531 C84.6839286,42.919419 84.9761364,42.5801789 85.2537338,42.229241 C85.7154221,41.708683 86.1771104,41.2553882 86.6358766,40.7991688 C87.2612013,40.170405 87.8397727,39.5328677 88.4650974,38.9041039 C89.3329545,37.9828918 90.1891234,37.0646041 90.9313312,36.0234882 C90.9956169,35.9708475 90.9956169,35.9152823 91.0482143,35.8597172 C91.9131494,35.1110495 92.4829545,34.0757826 93.1228896,33.1574949 C93.2836039,32.9849505 93.3391234,32.7539163 93.4589286,32.5258066 C93.6313312,32.1865666 93.8037338,31.8385532 94.0930195,31.4993131 C94.3180195,31.0898855 94.7212662,30.8617759 95.238474,30.9816797 C95.5277597,31.0343203 95.6387987,31.2068648 95.5862013,31.4993131 C95.5277597,31.8385532 95.349513,32.122228 95.1186688,32.4146763 C94.8381494,32.7539163 94.5488636,33.1574949 94.2011364,33.5025839 C94.0930195,33.6751284 94.0345779,33.7921077 93.8621753,33.9061626 C93.6313312,34.1342722 93.400487,34.3682309 93.3391234,34.6548302 C93.3391234,34.7630361 93.2310065,34.8858644 93.175487,34.9355806 C93.0060065,35.1636902 92.7751623,35.3976489 92.6027597,35.634532 C92.6524351,35.9708475 92.3719156,36.149241 92.2550325,36.3744262 C92.0797078,36.7224396 91.8547078,37.0646041 91.6267857,37.4038442 C91.5683442,37.523748 91.5157468,37.5793131 91.451461,37.6348783 C90.9956169,37.9273266 90.7647727,38.4361866 90.361526,38.8456142 L90.3060065,38.9041039 C89.7917208,39.8194671 88.8683442,40.3371005 88.1787338,41.0799192 C88.0092532,41.3051044 87.8397727,41.5478365 87.6644481,41.7730216 C87.0362013,42.5801789 86.4021104,43.3756383 85.4845779,43.8991207 C84.3887987,44.5805253 83.3076299,45.215138 82.0423701,45.6187167 C81.0693182,45.905316 80.0319805,46.1919153 79.0034091,46.3644598 C78.7112013,46.3644598 78.4277597,46.3644598 78.1443182,46.2533295 C77.9163961,46.1363502 77.6826299,46.0193709 77.4488636,45.9608812 C76.826461,45.6772063 76.3647727,45.3262684 75.9089286,44.8700491 C75.7862013,44.6975046 75.7306818,44.5805253 75.6196429,44.4723194 C74.8715909,43.7792169 74.5297078,42.919419 74.2433442,42.0011313 C74.126461,41.708683 74.0709416,41.4864223 73.9540584,41.199823 C73.8400974,40.7991688 73.7816558,40.3371005 73.7816558,39.9335219 C73.7232143,39.0181587 73.7232143,38.1027956 73.7232143,37.2342241 C73.6121753,36.4914055 73.7232143,35.8597172 73.7816558,35.2309533" id="Fill-13"></path>
                        <path d="M98.5182143,30.1160327 C99.2049026,29.6568889 99.9471104,29.1977451 100.587045,28.7415257 C101.560097,27.9899336 102.474708,27.241266 103.39224,26.5540125 C104.710097,25.5245945 105.805877,24.3694238 106.889968,23.1733102 C107.065292,22.9422761 107.290292,22.7112419 107.471461,22.4802078 C108.158149,21.7900298 108.838994,21.0413622 109.531526,20.3570332 C109.698084,20.1844887 109.81789,20.0119442 109.98737,19.8393997 C110.510422,19.2662011 110.907825,18.5730986 111.308149,17.8887696 C112.16724,16.5084137 112.915292,15.0724925 113.549383,13.5839307 C113.715942,13.118938 113.835747,12.7153593 114.005227,12.2562155 C114.066591,11.914051 114.116266,11.5104723 114.17763,11.1712323 C114.297435,10.5424685 114.352955,9.91370467 114.408474,9.33173256 C114.408474,8.86673978 114.408474,8.41636941 114.463994,7.95430111 C114.522435,7.72619144 114.522435,7.43374315 114.463994,7.19978451 C114.408474,7.03601347 114.352955,6.92195863 114.408474,6.75233862 C114.408474,6.23178066 114.297435,5.77263684 114.066591,5.31056854 C114.005227,5.19651371 113.95263,5.08245887 113.95263,4.96840404 C113.885422,4.50633574 113.660422,4.10568158 113.374058,3.70502742 C113.2075,3.41550361 113.032175,3.1259798 112.915292,2.78673978 C112.801331,2.38316114 112.564643,2.1492025 112.228604,1.92401732 C112.003604,1.807038 111.766916,1.75732179 111.600357,1.5847773 C111.138669,1.28940452 110.621461,1.28940452 110.159773,1.4122328 C109.478929,1.5847773 108.838994,1.92401732 108.269188,2.26618182 C108.093864,2.44165079 107.927305,2.61419529 107.754903,2.78673978 C107.524058,3.07626359 107.290292,3.41550361 107.065292,3.70502742 C106.889968,3.9302126 106.717565,4.16417124 106.717565,4.50633574 C106.717565,4.62331506 106.664968,4.73444541 106.61237,4.804633 C106.150682,5.54452718 105.858474,6.28734584 105.513669,7.09742761 C105.461071,7.26412314 105.341266,7.38110245 105.341266,7.61506109 C105.341266,7.72619144 105.230227,7.89581145 105.171786,8.00986628 C104.999383,8.24090043 104.940942,8.47485907 104.885422,8.70589322 C104.768539,9.4457874 104.537695,10.0774757 104.140292,10.709164 C104.020487,10.9372737 103.962045,11.1712323 103.851006,11.3467013 C103.620162,12.0281058 103.39224,12.7767734 103.155552,13.4113862 C102.880877,14.0401501 102.761071,14.730328 102.530227,15.3620164 C102.296461,15.759746 102.243864,16.2832285 102.071461,16.7394478 C101.788019,17.5992458 101.440292,18.4648927 101.148084,19.2662011 C101.04289,19.6083656 100.928929,19.8978894 100.864643,20.2371294 C100.750682,21.2226801 100.347435,22.0795536 99.8915909,22.9422761 C99.7221104,23.2815161 99.5497078,23.6880192 99.4912662,24.0915979 C99.3743831,24.6618721 99.2633442,25.2350707 99.0880195,25.872608 C99.0325,26.1475094 98.9126948,26.4458066 98.8630195,26.7879711 C98.7490584,27.2997557 98.7490584,27.8232381 98.4626948,28.2794574 C98.4042532,28.3320981 98.4042532,28.4520019 98.4042532,28.5075671 C98.4042532,28.8526561 98.3399675,29.1977451 98.1149675,29.4872689 C98.0010065,29.7124541 97.945487,29.9464127 98.0623701,30.2856527 C98.2289286,30.233012 98.4042532,30.1745224 98.5182143,30.1160327 L98.5182143,30.1160327 Z M97.1974351,41.3051044 L97.1974351,41.2553882 L97.1974351,41.3051044 Z M103.333799,34.1956864 C103.155552,34.7045464 102.936396,35.2309533 102.416266,35.5146282 C102.357825,35.5731178 102.243864,35.6842482 102.243864,35.8012275 C101.954578,36.5440462 101.440292,37.178659 101.21237,37.9828918 C101.148084,38.2110014 100.928929,38.4361866 100.750682,38.6701453 C100.46724,39.1877787 100.122435,39.649847 100.122435,40.3371005 C100.122435,40.4511554 100.063994,40.5037961 100.005552,40.6236999 C99.6023052,41.6004772 99.4912662,42.6883848 99.4357468,43.7236518 C99.4357468,44.3524156 99.2633442,44.9285387 99.0880195,45.5075863 C98.9126948,45.9608812 98.8630195,46.4171005 99.0325,46.8791688 C99.0880195,47.1686926 99.0325,47.455292 98.9799026,47.7418913 C98.6906169,48.5461241 98.4042532,49.2889428 98.2289286,50.0376104 C98.1149675,50.4996787 97.8782792,50.9003329 97.6620455,51.3653256 C97.6620455,51.4179663 97.4808766,51.470607 97.4253571,51.5349456 C96.9665909,51.5349456 96.6247078,51.1898567 96.218539,51.131367 C96.1045779,51.2454218 95.996461,51.4179663 95.8737338,51.5934353 C95.6487338,51.5934353 95.5347727,51.470607 95.4149675,51.3653256 C95.1958117,51.0728773 94.9006818,51.0728773 94.6143182,51.131367 C94.5617208,51.131367 94.5032792,51.1898567 94.4477597,51.1898567 C94.1000325,51.2454218 93.9860714,51.1898567 93.8691883,50.8418432 C93.8691883,50.7892025 93.8078247,50.7307128 93.8078247,50.6751477 C93.8691883,50.0931756 93.5886688,49.6369562 93.4688636,49.0579086 C93.2993831,48.4320693 93.2380195,47.7418913 93.1854221,47.1131275 C93.1240584,46.2533295 93.1854221,45.3876825 93.068539,44.5805253 L93.068539,44.5337335 C93.068539,43.3229976 92.9516558,42.1766003 92.8902922,41.0214295 C92.8406169,40.4511554 92.9516558,39.8779567 93.0071753,39.3603232 C93.0071753,38.9041039 93.068539,38.5005253 93.068539,38.032608 C93.068539,37.2342241 93.068539,36.4299913 93.1854221,35.6842482 C93.2380195,34.9969947 93.2380195,34.3682309 93.1854221,33.7306936 C93.1240584,32.7012756 93.1854221,31.6630842 93.3519805,30.6365907 C93.4688636,30.0546186 93.5243831,29.4872689 93.6441883,28.9140702 C93.8078247,27.8232381 93.9860714,26.6739163 94.1555519,25.5801597 C94.3893182,24.4893276 94.5032792,23.4043444 94.7312013,22.3076633 C94.7312013,22.0239885 94.7925649,21.7315402 94.9006818,21.4478653 C95.1286039,20.4125984 95.4149675,19.3802559 95.7042532,18.4034786 C95.7042532,18.3449889 95.7656169,18.2309341 95.7656169,18.1753689 C96.218539,16.6838826 96.6773052,15.1865474 97.1389935,13.6979856 C97.5422403,12.4930986 98.0010065,11.2852872 98.4626948,10.1388899 C98.6906169,9.51012602 98.9799026,8.92815392 99.2633442,8.35495527 C99.4357468,7.83732179 99.7221104,7.38110245 100.005552,6.98044829 C100.233474,6.57394517 100.46724,6.17036652 100.639643,5.7112227 C100.928929,5.08245887 101.21237,4.45369505 101.788019,3.99455123 C102.132825,3.70502742 102.357825,3.30144877 102.588669,2.83938047 C102.819513,2.38316114 103.102955,1.98543146 103.558799,1.63741799 C104.824058,0.663565176 106.320162,0.204421356 107.927305,0.0845175565 C108.269188,0.0845175565 108.613994,0.0318768639 108.958799,0.0318768639 C109.587045,-0.0324617605 110.279578,0.0845175565 110.907825,0.257062049 C112.056201,0.485171717 113.146136,0.830260702 114.116266,1.4122328 C114.744513,1.75732179 115.212045,2.26618182 115.670812,2.90079461 C116.015617,3.41550361 116.246461,3.99455123 116.418864,4.62331506 C116.471461,4.804633 116.529903,4.91576335 116.588344,5.08245887 C116.708149,5.37198268 116.819188,5.7112227 116.819188,6.05923617 C116.819188,6.28734584 116.874708,6.46281481 116.874708,6.69384897 C116.933149,6.98044829 116.985747,7.26412314 116.933149,7.55072246 C116.754903,8.52749976 116.819188,9.51012602 116.708149,10.4225647 C116.588344,11.5104723 116.3575,12.5398903 116.126656,13.5195921 C115.273409,16.7979375 112.631851,19.3802559 110.682825,21.9625743 C109.76237,23.1733102 109.011396,24.1383896 107.868864,25.0625262 C106.778929,25.872608 105.62763,26.6739163 104.537695,27.5307898 C102.650032,29.0252006 101.04289,30.578101 98.6321753,31.2068648 C97.7175649,31.437899 97.8286039,31.437899 97.6620455,32.3006215 C97.5422403,32.7539163 97.4808766,33.1574949 97.4808766,33.6166388 C97.4253571,34.0757826 97.4808766,34.4822857 97.4808766,34.8858644 C97.5422403,35.2309533 97.4808766,35.5146282 97.4808766,35.8012275 C97.4253571,36.149241 97.4253571,36.5440462 97.3698377,36.8920596 C97.1974351,37.6348783 97.2558766,38.3835459 97.2558766,39.1322136 C97.1974351,39.649847 97.1389935,40.170405 97.1974351,40.6763405 C97.2558766,40.7991688 97.2558766,40.8518095 97.3113961,41.0214295 C97.4253571,40.8518095 97.4808766,40.7377547 97.5422403,40.6236999 C98.0010065,39.4217374 98.7490584,38.2665666 99.3247078,37.0646041 C99.6023052,36.4914055 100.005552,36.0234882 100.347435,35.459063 C100.587045,35.1110495 100.864643,34.7045464 101.148084,34.3097412 C101.384773,34.0757826 101.615617,33.7921077 101.840617,33.5639981 C102.474708,32.9293853 103.216916,32.4146763 103.962045,31.9555325 C104.654578,31.5519538 105.461071,31.3823338 106.261721,31.4993131 C106.664968,31.4993131 106.889968,31.7244983 107.120812,32.0140221 C107.234773,32.2479808 107.407175,32.4790149 107.576656,32.7012756 C107.8075,32.9293853 107.927305,33.2189091 107.979903,33.5639981 C108.441591,35.5146282 109.189643,37.178659 109.189643,39.3076825 C109.128279,42.6883848 108.093864,46.080785 108.330552,49.5258259 C108.441591,50.4996787 108.49711,51.470607 108.555552,52.4503088 C108.555552,52.7953978 108.49711,53.0849216 108.49711,53.3715209 C108.49711,54.0616989 108.727955,54.637822 109.128279,55.2022472 C109.239318,55.3777162 109.414643,55.4362059 109.645487,55.4362059 C110.159773,55.4362059 110.557175,55.2022472 110.960422,54.9127234 C111.249708,54.6904627 111.541916,54.4009389 111.766916,54.1143396 C112.16724,53.5411409 112.564643,52.9650178 112.915292,52.3947436 C113.835747,50.9003329 114.580877,49.2889428 115.273409,47.6892506 C115.381526,47.5137816 115.439968,47.2827475 115.498409,47.1131275 C115.553929,46.940583 115.618214,46.7153978 115.670812,46.5370043 C116.246461,45.3262684 116.529903,44.0687407 117.105552,42.8667783 C117.222435,42.5801789 117.336396,42.2848062 117.388994,42.0011313 C117.561396,41.3723675 117.844838,40.8518095 118.081526,40.2756864 C118.651331,39.0678749 119.171461,37.7547821 119.451981,36.4299913 C119.688669,35.3976489 119.977955,34.3097412 120.255552,33.2715498 C120.430877,32.8182549 120.661721,32.3532621 120.892565,31.8970428 C121.056201,31.5519538 121.29289,31.2653545 121.520812,30.917341 C121.7575,30.578101 122.032175,30.402632 122.496786,30.4611217 C122.721786,30.8032862 122.616591,31.2068648 122.496786,31.5519538 C122.435422,31.8970428 122.263019,32.2479808 122.151981,32.5901453 C122.032175,32.7539163 121.976656,32.9293853 122.032175,33.1574949 C122.093539,33.3329639 122.032175,33.5025839 121.976656,33.6166388 C121.807175,34.2483271 121.631851,34.8858644 121.459448,35.5731178 C121.354253,35.9152823 121.234448,36.2632958 121.056201,36.66395 C120.369513,38.3835459 119.913669,40.0475767 119.627305,41.9426417 C119.171461,44.6975046 117.903279,47.2271823 116.643864,49.6895969 C115.618214,51.646076 114.700682,54.3453737 112.751656,55.5531852 C112.056201,55.9538393 111.425032,56.357418 110.682825,56.527038 C110.510422,56.5884521 110.390617,56.702507 110.218214,56.7551477 C109.934773,56.872127 109.645487,56.9891063 109.300682,56.9306166 C109.128279,56.9306166 109.011396,56.9891063 108.838994,56.9891063 C107.524058,57.3312708 106.025032,56.527038 105.341266,55.3250755 C104.999383,54.6904627 104.710097,54.0616989 104.537695,53.3101068 C104.257175,51.470607 104.365292,49.6369562 104.140292,47.7418913 C104.081851,46.7153978 104.140292,45.5075863 104.140292,44.4723194 C104.312695,41.4864223 104.940942,38.7286349 105.110422,35.7456623 C105.110422,34.9355806 105.230227,34.0757826 105.171786,33.2189091 C105.171786,33.0434401 105.171786,32.8679711 104.999383,32.7539163 C104.365292,32.9849505 103.558799,33.6166388 103.333799,34.1956864 L103.333799,34.1956864 Z" id="Fill-15"></path>
                        <path d="M133.096623,61.3000866 C132.976818,61.1860317 132.871623,61.0164117 132.871623,60.8467917 C132.81026,60.2618951 132.751818,59.6331313 132.751818,59.0570082 C132.81026,58.1445695 132.871623,57.281847 132.871623,56.4162001 C132.924221,55.3312169 132.976818,54.2930255 132.976818,53.2051178 C133.029416,52.4593747 132.924221,51.7136316 132.924221,50.9678884 C132.976818,49.8770563 133.155065,42.3552862 133.213506,41.3200192 C133.269026,41.1474747 133.269026,40.9749303 133.269026,40.8023858 C133.029416,38.7377008 133.213506,36.6730159 133.382987,34.6054064 C133.438506,33.742684 133.382987,32.8273208 133.438506,31.8973353 C133.438506,29.8969889 133.438506,27.826455 133.675195,25.7588456 C133.72487,25.1827225 133.783312,24.6124483 133.783312,23.9778355 C133.49987,23.8667051 133.213506,23.8082155 132.924221,23.7497258 C132.012532,23.5801058 131.033636,23.4631265 130.113182,23.2876575 C129.601818,23.2320924 129.482013,23.120962 129.765455,22.6033285 C130.168701,21.746455 130.966429,21.3399519 131.834286,21.1089177 C132.699221,20.9363733 133.49987,20.7053391 134.364805,20.474305 C134.423247,17.7750072 134.423247,15.1371236 134.478766,12.4407504 C134.02,12.3208466 133.552468,12.1570755 133.029416,12.0956614 C130.802792,11.5838769 128.561558,11.1218086 126.329091,10.7153054 C123.51513,10.1450313 120.876494,13.8240308 122.603442,16.2864454 C123.059286,17.035113 123.573571,17.7750072 124.374221,18.2984897 C125.125195,18.8161231 125.925844,19.1641366 126.843377,19.2723425 C127.416104,19.3893218 128.047273,19.5647908 128.622922,19.7344108 C129.078766,19.9625204 129.143052,20.3690236 128.675519,20.6556229 C128.511883,20.8223184 128.219675,20.8778836 127.994675,20.9363733 C126.673896,21.1674074 124.94987,21.5124964 123.804416,20.8223184 C121.910909,19.7899759 120.192727,18.40962 119.847922,16.1168254 C119.675519,15.1926888 119.900519,14.2246849 120.251169,13.359038 C121.507662,10.4813468 124.207662,8.53949014 127.018701,7.44865801 C127.994675,7.10356902 129.143052,6.93102453 130.168701,6.87838384 L133.841753,6.87838384 C136.024545,6.93102453 138.148896,7.1591342 140.264481,7.55978836 C141.58526,7.78789803 142.906039,8.18855219 144.226818,8.478076 C145.72,8.81731602 147.21026,8.9401443 148.761883,8.88165464 C149.673571,8.88165464 150.652468,8.71203463 151.57,8.478076 C152.884935,8.24996633 153.860909,7.32875421 154.550519,6.24377104 C154.72,6.00981241 154.839805,5.78170274 154.950844,5.54774411 C155.126169,5.31670996 155.304416,5.14708995 155.698896,5.26699375 C155.646299,5.89575758 155.871299,6.52744589 155.698896,7.21469937 C155.468052,8.24996633 154.901169,9.05127465 154.202792,9.80286676 C153.922273,10.1450313 153.630065,10.4813468 153.288182,10.7737951 C152.832338,11.1218086 152.262532,11.4668975 151.742403,11.6920827 C148.300195,12.844329 144.80539,13.359038 141.184935,13.1250794 L140.556688,13.1250794 C140.495325,13.1250794 140.442727,13.1864935 140.378442,13.2449832 C140.378442,14.1603463 140.442727,15.1371236 140.442727,16.1168254 C140.442727,16.7485137 140.325844,17.4328427 140.264481,18.1230207 C140.214805,18.7020683 140.214805,19.2723425 140.214805,19.9128042 C140.214805,20.5386436 140.264481,20.5942088 140.898571,20.7726022 C141.699221,20.9363733 142.564156,21.1089177 143.364805,21.2814622 C143.826494,21.3984416 144.282338,21.5124964 144.744026,21.5709861 C145.202792,21.6265512 145.72,21.6850409 146.178766,21.6850409 C146.748571,21.746455 147.321299,21.7961712 147.95539,21.7961712 C148.013831,22.3196537 148.121948,22.7173834 148.121948,23.1794517 C148.121948,23.635671 148.013831,23.8667051 147.499545,23.9778355 C146.804091,24.156229 146.058961,24.2702838 145.372273,24.3229245 C143.884935,24.4369793 142.450195,24.4925445 140.962857,24.5568831 C140.325844,24.5568831 140.264481,24.6124483 140.325844,25.2938528 C140.378442,26.2267629 140.442727,27.2006157 140.495325,28.1744685 C140.556688,29.2038865 140.61513,30.2947186 140.556688,31.3329101 C140.495325,32.368177 140.378442,33.4590091 140.214805,34.4884271 C139.975195,35.7518038 139.697597,36.9625397 139.460909,38.2171429 C139.352792,38.8459067 139.232987,39.4746705 139.174545,40.0566426 C139.113182,40.4046561 139.007987,40.6912554 138.949545,40.9749303 C138.888182,41.1474747 138.777143,41.3200192 138.777143,41.4984127 C138.718701,42.1885907 138.66026,49.3038576 138.148896,49.8127177 C138.148896,50.3917653 138.029091,50.9678884 137.748571,51.5410871 C137.628766,51.9446657 137.798247,52.4593747 137.517727,52.8629533 C137.450519,52.9185185 137.517727,53.0881385 137.576169,53.1495527 C137.798247,53.5472823 137.798247,53.8894468 137.576169,54.2403848 C137.576169,54.2930255 137.517727,54.3515152 137.576169,54.4158538 C137.912208,55.3312169 137.403766,56.1910149 137.345325,57.0566619 C137.286883,57.626936 137.053117,58.2001347 136.939156,58.7177682 C136.769675,59.2938913 136.486234,59.8086003 136.135584,60.3233093 C135.898896,60.7356614 135.501494,61.0719769 135.220974,61.4199904 C134.984286,61.6451756 134.820649,61.8762097 134.528442,62.2242232 C134.02,61.9288504 133.552468,61.6451756 133.096623,61.3000866" id="Fill-17"></path>
                        <path d="M158.413506,36.7847311 C158.413506,36.6736008 158.413506,36.5566215 158.469026,36.4484156 C158.92487,35.9220087 158.986234,34.9452314 158.92487,34.3164675 C158.863506,33.459594 158.92487,32.3073478 158.469026,31.503115 C158.182662,31.0439711 157.840779,30.5848273 157.726818,30.0087042 L157.726818,29.953139 C157.609935,29.8975738 157.554416,29.77767 157.443377,29.77767 C157.323571,29.77767 157.20961,29.8390842 157.151169,30.0087042 C157.092727,30.1812487 157.037208,30.4093583 156.920325,30.5848273 C156.636883,31.2165156 156.458636,31.8511284 156.344675,32.4769678 C156.344675,32.5939471 156.286234,32.7080019 156.233636,32.8249812 C155.891753,33.5736489 155.83039,34.2638268 156.05539,35.0066455 C156.286234,35.7494642 156.636883,36.4484156 157.092727,37.0128408 C157.376169,37.311138 157.609935,37.6416046 158.01026,37.7000943 C158.241104,37.4134949 158.469026,37.1795363 158.413506,36.7847311 M153.592078,26.9643175 C153.478117,27.0842213 153.364156,27.2012006 153.305714,27.3123309 C153.188831,27.5989303 153.080714,27.8241154 152.785584,27.9995844 C152.677468,28.4031631 152.382338,28.6283482 152.215779,28.923721 C151.984935,29.3799404 151.759935,29.8975738 151.648896,30.4707725 C151.356688,31.672735 151.064481,32.9419606 150.664156,34.143923 C150.377792,34.9452314 150.199545,35.8079538 149.974545,36.6092621 C149.749545,37.4134949 149.346299,38.1650871 149.176818,38.9663954 C149.176818,39.0219606 149.115455,39.1447888 149.057013,39.2500702 C148.604091,39.8817585 148.548571,40.6304262 148.604091,41.3761693 C148.653766,42.1891756 148.71513,42.9904839 148.834935,43.7976412 C148.834935,44.0783915 149.004416,44.3065012 149.229416,44.4819702 C149.46026,44.7071554 149.749545,44.941114 149.974545,45.1662992 C150.266753,45.3914844 150.553117,45.4587475 150.833636,45.3388437 C151.812532,44.9908302 152.785584,44.765645 153.592078,44.0783915 C153.992403,43.7976412 154.50961,43.5022684 154.912857,43.1542549 C155.196299,42.9904839 155.368701,42.7536008 155.599545,42.5225666 C156.05539,42.0721962 156.458636,41.6101279 156.800519,41.0340048 C156.800519,41.0340048 156.861883,40.9755152 156.861883,40.91995 C156.972922,40.5192958 157.151169,40.235621 157.376169,39.9431727 C157.443377,39.8291178 157.443377,39.7179875 157.495974,39.5425185 C157.151169,39.3670495 156.800519,39.1447888 156.458636,38.9108302 C155.485584,38.2791419 154.626494,37.5363232 153.933961,36.6092621 C153.650519,36.208608 153.364156,35.8079538 153.133312,35.4072997 C152.382338,33.9684541 152.32974,32.4769678 152.677468,30.988406 C152.844026,30.0613449 153.305714,29.262961 153.650519,28.4616527 C153.650519,28.4031631 153.708961,28.3417489 153.708961,28.3417489 C154.170649,28.1750534 154.389805,27.6574199 154.912857,27.5989303 C155.143701,27.5989303 155.368701,27.5433651 155.599545,27.4848754 C156.406039,27.3708206 156.972922,27.7743992 157.665455,28.1194882 C158.524545,28.5757076 159.503442,28.9792862 159.959286,29.8975738 C160.362532,30.637468 160.593377,31.2720808 160.593377,32.1318788 C160.648896,32.4769678 160.707338,32.7635671 160.765779,33.0530909 C160.938182,33.7432689 160.938182,34.6059913 160.873896,35.2932448 C160.818377,35.8664435 160.420974,36.3226628 160.362532,36.8461453 C160.245649,37.2497239 160.245649,37.583115 160.125844,38.0451833 C160.307013,38.0451833 160.420974,38.1650871 160.534935,38.1650871 C160.873896,38.1650871 161.280065,38.1036729 161.677468,38.0451833 C163.977143,37.7000943 166.157013,36.3226628 167.816753,34.7171217 C167.936558,34.6059913 168.053442,34.4305224 168.106039,34.3164675 C168.217078,34.2024127 168.278442,34.0327927 168.392403,33.9684541 C168.623247,33.9128889 168.851169,33.8602482 169.026494,33.9684541 C169.309935,34.0883579 169.540779,34.2024127 169.713182,34.4305224 C169.42974,35.3458855 166.957662,37.5363232 166.157013,37.8199981 C165.125519,38.1650871 164.202143,38.8464916 163.170649,39.2500702 C162.250195,39.5951592 161.452468,39.8817585 160.476494,39.7179875 C160.070325,39.5951592 159.675844,39.7706282 159.272597,39.8291178 C158.986234,39.8817585 158.810909,40.1712823 158.69987,40.4578817 C158.413506,40.9755152 158.182662,41.5487138 157.957662,42.1248369 C157.609935,42.9290697 156.750844,43.391138 156.286234,44.0783915 C155.941429,44.5375354 155.546948,45.110734 155.082338,45.3914844 C154.568052,45.7424223 154.170649,46.2044906 153.650519,46.5437306 C152.969675,46.9502338 152.32974,47.4678672 151.470649,47.4035286 C150.608636,47.3479634 149.749545,46.8274055 149.004416,46.4296758 C147.514156,45.5698778 145.845649,44.2538605 145.042078,42.6980356 C144.644675,41.8938028 144.472273,40.91995 144.419675,40.0016623 C144.29987,38.9663954 144.238506,37.9340529 144.29987,36.898786 C144.419675,35.9220087 144.644675,34.9452314 144.928117,34.0327927 C145.383961,32.6524367 145.965455,31.3334949 146.593701,30.0613449 C146.766104,29.6606907 146.991104,29.3214507 147.338831,28.9792862 C147.683636,28.5757076 148.086883,28.1194882 148.422922,27.6574199 C148.779416,27.2567658 149.229416,27.0228071 149.632662,26.7362078 C150.266753,26.2741395 150.900844,25.931975 151.581688,25.4757557 C151.812532,25.2944377 152.098896,25.247646 152.440779,25.2944377 C153.022273,25.3558519 153.530714,25.5313208 154.053766,25.8764098 C154.103442,26.3326291 153.881364,26.6835671 153.592078,26.9643175" id="Fill-19"></path>
                        <path d="M197.034026,34.0316229 C196.852857,34.9440616 196.741818,35.8681982 196.510974,36.7279962 C196.391169,37.1286503 196.391169,37.4766638 196.049286,37.7603386 C195.885649,37.9328831 195.768766,38.2194824 195.768766,38.4475921 C195.593442,39.0822049 195.368442,39.7168177 195.076234,40.3397326 C194.78987,40.8018009 194.672987,41.377924 194.447987,41.892633 C194.278506,42.3576258 194.10026,42.8723348 193.87526,43.3285541 C193.761299,43.6180779 193.644416,43.9046772 193.530455,44.1942011 C193.29961,44.7644752 193.121364,45.3932391 192.896364,45.9752112 C192.665519,46.5425608 192.268117,47.0660433 191.926234,47.5807523 C191.701234,48.0398961 191.403182,48.4990399 191.067143,48.8412044 C190.774935,49.1862934 190.605455,49.6483617 190.37461,50.0490159 C190.260649,50.1689197 190.202208,50.3326907 190.094091,50.44967 C189.454156,51.0257932 188.998312,51.7656873 188.311623,52.2891698 C187.966818,52.5786936 187.741818,52.9179336 187.28013,53.0904781 C187.160325,53.1489678 186.987922,53.2600981 186.929481,53.3800019 C186.757078,53.8420702 186.356753,53.9502761 185.959351,53.9502761 C185.383701,53.9502761 184.922013,54.0701799 184.413571,54.2397999 C184.010325,54.3509303 183.607078,54.2924406 183.203831,54.1842347 C181.999935,53.7806561 181.026883,53.0349129 180.103506,52.1166253 C178.499286,50.6222145 177.23987,48.8412044 175.97461,47.118684 C175.743766,46.773595 175.512922,46.3700164 175.287922,45.9752112 C175.171039,45.8582318 175.06,45.6886118 174.937273,45.5189918 C174.773636,45.6301222 174.653831,45.7412525 174.536948,45.8582318 C174.311948,46.0863415 174.081104,46.258886 173.79474,46.428506 C173.739221,46.428506 173.616494,46.4899202 173.563896,46.5425608 C172.935649,47.1771736 172.301558,47.8059375 171.667468,48.3791361 C171.559351,48.5575296 171.38987,48.7300741 171.211623,48.8412044 C170.875584,49.0693141 170.635974,49.3588379 170.413896,49.6483617 C170.183052,49.9934507 169.890844,50.2742011 169.671688,50.5666494 C169.554805,50.7362694 169.379481,50.9088139 169.268442,51.145697 C168.917792,51.7130467 168.403506,52.0581356 167.880455,52.4003001 C167.716818,52.5786936 167.544416,52.5786936 167.313571,52.4003001 C167.372013,52.2277557 167.372013,52.0581356 167.48013,51.8855911 C167.941818,50.7362694 168.403506,49.6483617 168.917792,48.4990399 C169.435,47.4696219 170.007727,46.428506 170.749935,45.4575777 C171.38987,44.5948552 172.076558,43.7993959 172.82461,43.0448793 C172.935649,42.9279 173.04961,42.752431 173.160649,42.6383761 C173.160649,42.2962116 172.994091,42.0710265 172.82461,41.8370678 C172.076558,40.4069957 171.272987,39.0207908 170.530779,37.5848696 C169.604481,35.806784 168.403506,34.1427532 167.313571,32.4787225 C166.968766,32.0166542 166.676558,31.616 166.340519,31.1597807 C165.998636,30.6977124 165.59539,30.3526234 165.133701,30.0075344 C164.847338,29.7794247 164.610649,29.6068802 164.27461,29.4986744 C164.043766,29.4343357 163.812922,29.3232054 163.751558,29.0307571 C164.447013,28.1212429 165.59539,28.2879384 166.340519,28.6271785 C166.676558,28.8055719 167.021364,28.9254757 167.372013,29.0307571 C167.880455,29.1448119 168.403506,29.3232054 168.917792,29.4986744 C169.031753,29.4986744 169.084351,29.5483906 169.148636,29.6068802 C170.007727,30.1303627 170.875584,30.6392227 171.61487,31.2738355 C171.956753,31.616 172.362922,31.8996748 172.704805,32.2476883 C173.452857,32.9963559 174.311948,33.6251198 175.004481,34.3679384 C175.229481,34.5463319 175.407727,34.8300067 175.626883,35.0610409 C176.147013,35.7512189 176.608701,36.4472458 177.122987,37.1286503 C177.350909,37.4123252 177.526234,37.7603386 177.692792,38.0440135 C177.871039,38.0440135 177.982078,37.9328831 178.043442,37.8188283 C178.841169,36.8976162 179.589221,35.982253 180.38987,35.0610409 C180.620714,34.7715171 180.851558,34.4878422 181.082403,34.2041674 C181.941494,33.1074863 182.800584,31.961089 183.487273,30.7591265 C183.718117,30.3526234 183.948961,30.0630996 184.176883,29.7238595 C184.413571,29.3787706 184.922013,29.2062261 185.272662,29.3232054 C185.497662,29.3787706 185.614545,29.4986744 185.614545,29.7238595 C185.728506,30.1830034 185.839545,30.6977124 186.017792,31.2153458 C186.131753,31.616 186.131753,32.130709 185.897987,32.5957018 C185.728506,32.9407908 185.556104,33.3414449 185.436299,33.7420991 C185.272662,34.262657 185.035974,34.6662357 184.813896,35.0610409 C184.466169,35.6927292 184.062922,36.2717768 183.607078,36.8479 C183.092792,37.4766638 182.628182,38.1639173 182.113896,38.8453218 C181.941494,39.0822049 181.82461,39.2489004 181.65513,39.3658797 C181.196364,39.8835132 180.740519,40.4069957 180.284675,40.863215 C179.820065,41.377924 179.761623,41.547544 180.050909,42.1880058 C180.16487,42.4687561 180.284675,42.6997903 180.448312,42.9893141 C181.082403,44.0216566 181.424286,45.1680539 181.88013,46.3144512 C181.88013,46.3700164 181.941494,46.4899202 181.941494,46.5425608 C182.055455,47.4023588 182.458701,48.2095161 182.747987,49.0693141 C182.859026,49.3588379 182.972987,49.7039269 183.151234,49.9934507 C183.323636,50.3941049 183.554481,50.6807042 183.890519,50.9673035 C184.062922,51.0755094 184.235325,51.2509784 184.358052,51.3708822 C184.638571,51.7656873 185.094416,51.8855911 185.556104,52.0025705 C185.786948,52.0581356 185.959351,52.0025705 186.184351,51.8855911 C186.356753,51.7130467 186.587597,51.5405022 186.818442,51.3708822 C187.446688,50.6807042 188.083701,49.9378855 188.595065,49.1862934 C189.348961,48.2095161 189.977208,47.1771736 190.544091,46.0863415 C191.067143,45.1095642 191.581429,44.0216566 192.037273,42.9893141 C192.098636,42.9279 192.157078,42.8167696 192.209675,42.6997903 C192.779481,41.7259375 193.182727,40.6321809 193.702857,39.5939894 C193.761299,39.4740856 193.813896,39.3161635 193.87526,39.143619 C194.167468,38.2779721 194.383701,37.35676 194.672987,36.4472458 C194.78987,36.0378182 194.965195,35.6927292 195.137597,35.3447157 C195.307078,35.0610409 195.421039,34.8300067 195.537922,34.5463319 C195.713247,34.0901126 195.996688,33.9146436 196.452532,33.8590784 C196.741818,33.8035132 196.741818,33.8035132 197.034026,33.9146436 L197.034026,34.0316229 Z" id="Fill-21"></path>
                    </g>
                    <g id="Group-2" transform="translate(30.220779, 125.752766)">
                        <path d="M0.575941558,4.39812987 L1.73016234,4.39812987 C2.26782468,4.39812987 2.86685065,4.30454642 2.86685065,3.61436845 C2.86685065,2.95343531 2.24152597,2.85985185 1.70970779,2.85985185 L0.575941558,2.85985185 L0.575941558,4.39812987 Z M0.575941558,2.55863011 L1.80029221,2.55863011 C2.24152597,2.55863011 2.71782468,2.39778355 2.71782468,1.86845214 C2.71782468,1.26308418 2.20061688,1.16657624 1.70678571,1.16657624 L0.575941558,1.16657624 L0.575941558,2.55863011 Z M1.87334416,0.850732083 C2.50743506,0.850732083 3.08308442,1.12563348 3.08308442,1.81288696 C3.08308442,2.23986147 2.77626623,2.58787494 2.41685065,2.66683598 C2.84347403,2.75164598 3.23503247,3.01484945 3.23503247,3.60851948 C3.23503247,4.35718711 2.63892857,4.71689851 1.92594156,4.71689851 L0.219448052,4.71689851 L0.219448052,0.850732083 L1.87334416,0.850732083 Z" id="Fill-23"></path>
                        <polygon id="Fill-25" points="7.37035714 2.43053776 9.19957792 4.71748341 8.72327922 4.71748341 7.10737013 2.67911881 6.37100649 3.35467436 6.37100649 4.71748341 6.00866883 4.71748341 6.00866883 0.851316979 6.37100649 0.851316979 6.37100649 2.92769986 8.62392857 0.851316979 9.11483766 0.851316979"></polygon>
                        <path d="M11.6707792,0.851316979 L12.936039,3.42778644 L14.1896104,0.851316979 L14.5811688,0.851316979 L13.0383117,4.04485233 C12.7227273,4.70578547 12.4538961,4.79644444 12.074026,4.79644444 C11.8987013,4.79644444 11.7788961,4.7525772 11.6707792,4.69993651 L11.6707792,4.38409235 C11.7409091,4.4279596 11.8665584,4.48644925 12.1032468,4.48644925 C12.375,4.48644925 12.5503247,4.22032131 12.6847403,3.9483444 L12.7314935,3.84598749 L11.2733766,0.851316979 L11.6707792,0.851316979 Z" id="Fill-27"></path>
                        <path d="M18.5890909,4.80375565 C17.5196104,4.80375565 16.8183117,4.01414526 16.8183117,2.78878692 C16.8183117,1.70672823 17.4465584,0.756271284 18.6212338,0.756271284 C19.3663636,0.756271284 20.1144156,1.22418855 20.1991558,2.01087446 L19.830974,2.01087446 C19.7140909,1.43767581 19.2436364,1.07796441 18.6095455,1.07796441 C17.7533766,1.07796441 17.1835714,1.75936893 17.1835714,2.78878692 C17.1835714,3.81528042 17.7416883,4.4879115 18.6007792,4.4879115 C19.3751299,4.4879115 19.8046753,3.95858009 19.8835714,3.2362328 L20.2488312,3.2362328 C20.1699351,4.19253872 19.5153896,4.80375565 18.5890909,4.80375565" id="Fill-29"></path>
                        <polygon id="Fill-31" points="26.0357143 4.7180683 25.6646104 4.7180683 25.6646104 2.84639923 23.3561688 2.84639923 23.3561688 4.7180683 22.9909091 4.7180683 22.9909091 0.851901876 23.3561688 0.851901876 23.3561688 2.53347956 25.6646104 2.53347956 25.6646104 0.851901876 26.0357143 0.851901876"></polygon>
                        <path d="M29.1573701,2.77036267 C29.1573701,3.80855411 29.7330195,4.48703415 30.6096429,4.48703415 C31.4804221,4.48703415 32.0619156,3.80855411 32.0619156,2.78790957 C32.0619156,1.76434055 31.4745779,1.07708706 30.6037987,1.07708706 C29.7388636,1.07708706 29.1573701,1.75849158 29.1573701,2.77036267 M32.4330195,2.7996075 C32.4330195,4.00156999 31.6937338,4.80872727 30.6037987,4.80872727 C29.5138636,4.80872727 28.7891883,3.99279654 28.7891883,2.78498509 C28.7891883,1.57717364 29.5226299,0.755393939 30.6096429,0.755393939 C31.6878896,0.755393939 32.4330195,1.58594709 32.4330195,2.7996075" id="Fill-33"></path>
                        <polygon id="Fill-35" points="38.9337662 5.87762578 39.2288961 5.87762578 39.2288961 0.449785474 38.9337662 0.449785474"></polygon>
                        <polygon id="Fill-37" points="48.9713961 4.7180683 48.6002922 4.7180683 48.6002922 1.16482155 46.2947727 1.16482155 46.2947727 4.7180683 45.9236688 4.7180683 45.9236688 0.851901876 48.9713961 0.851901876"></polygon>
                        <path d="M52.0933442,2.77036267 C52.0933442,3.80855411 52.6689935,4.48703415 53.5456169,4.48703415 C54.4163961,4.48703415 54.9978896,3.80855411 54.9978896,2.78790957 C54.9978896,1.76434055 54.4105519,1.07708706 53.5368506,1.07708706 C52.6748377,1.07708706 52.0933442,1.75849158 52.0933442,2.77036267 M55.3631494,2.7996075 C55.3631494,4.00156999 54.6297078,4.80872727 53.5368506,4.80872727 C52.4498377,4.80872727 51.7251623,3.99279654 51.7251623,2.78498509 C51.7251623,1.57717364 52.4556818,0.755393939 53.5456169,0.755393939 C54.6238636,0.755393939 55.3631494,1.58594709 55.3631494,2.7996075" id="Fill-38"></path>
                        <path d="M60.4770779,4.7180683 L60.4770779,1.16482155 L58.9196104,1.16482155 L58.8465584,3.44006926 C58.8261039,4.21798172 58.6215584,4.79410486 58.0371429,4.79410486 C57.8851948,4.79410486 57.7449351,4.77070899 57.6455844,4.7180683 L57.6455844,4.41977104 C57.7127922,4.46363829 57.9144156,4.48703415 58.0225325,4.48703415 C58.2972078,4.48703415 58.4637662,4.21213276 58.4988312,3.22365753 L58.568961,0.851901876 L60.8452597,0.851901876 L60.8452597,4.7180683 L60.4770779,4.7180683 Z" id="Fill-39"></path>
                        <polygon id="Fill-40" points="66.4711364 1.16540645 64.1510065 1.16540645 64.1510065 2.5603848 66.3221104 2.5603848 66.3221104 2.86745551 64.1510065 2.86745551 64.1510065 4.39696008 66.4915909 4.39696008 66.4915909 4.7186532 63.7857468 4.7186532 63.7857468 0.852486772 66.4711364 0.852486772"></polygon>
                        <path d="M70.5415909,4.79527465 C69.5831494,4.79527465 69.0104221,4.29811255 69.0104221,3.47340837 L69.0104221,3.43831457 L69.3581494,3.43831457 C69.3581494,4.15773737 69.8373701,4.49990188 70.5737338,4.49990188 C71.2224351,4.49990188 71.6198377,4.0846253 71.6198377,3.58161424 C71.6198377,3.14001732 71.2341234,2.83879557 70.7373701,2.83879557 L70.1237338,2.83879557 L70.1237338,2.5258759 L70.7373701,2.5258759 C71.1523052,2.5258759 71.5146429,2.29191727 71.5146429,1.8415469 C71.5146429,1.30344204 71.1055519,1.06070996 70.5795779,1.06070996 C69.9688636,1.06070996 69.5159416,1.35608273 69.4896429,1.94097932 L69.1273052,1.94097932 C69.1623701,1.14844444 69.7526299,0.756563733 70.5678896,0.756563733 C71.295487,0.756563733 71.8886688,1.08410582 71.8886688,1.81230207 C71.8886688,2.21880519 71.596461,2.53464935 71.3188636,2.63115729 L71.3188636,2.65162867 C71.7191883,2.75398557 71.9880195,3.06982973 71.9880195,3.58161424 C71.9880195,4.06122944 71.631526,4.79527465 70.5415909,4.79527465" id="Fill-41"></path>
                        <polygon id="Fill-42" points="77.8125974 4.7180683 77.4444156 4.7180683 77.4444156 2.84639923 75.1330519 2.84639923 75.1330519 4.7180683 74.7677922 4.7180683 74.7677922 0.851901876 75.1330519 0.851901876 75.1330519 2.53347956 77.4444156 2.53347956 77.4444156 0.851901876 77.8125974 0.851901876"></polygon>
                        <path d="M80.9345455,2.77036267 C80.9345455,3.80855411 81.5101948,4.48703415 82.380974,4.48703415 C83.2575974,4.48703415 83.8390909,3.80855411 83.8390909,2.78790957 C83.8390909,1.76434055 83.2517532,1.07708706 82.380974,1.07708706 C81.516039,1.07708706 80.9345455,1.75849158 80.9345455,2.77036267 M84.2101948,2.7996075 C84.2101948,4.00156999 83.4709091,4.80872727 82.380974,4.80872727 C81.2968831,4.80872727 80.5605195,3.99279654 80.5605195,2.78498509 C80.5605195,1.57717364 81.2968831,0.755393939 82.380974,0.755393939 C83.4650649,0.755393939 84.2101948,1.58594709 84.2101948,2.7996075" id="Fill-43"></path>
                        <polygon id="Fill-44" points="90.7100649 5.87762578 91.0081169 5.87762578 91.0081169 0.449785474 90.7100649 0.449785474"></polygon>
                        <path d="M98.0646429,4.39812987 L99.2188636,4.39812987 C99.7536039,4.39812987 100.349708,4.30454642 100.349708,3.61436845 C100.349708,2.95343531 99.721461,2.85985185 99.195487,2.85985185 L98.0646429,2.85985185 L98.0646429,4.39812987 Z M98.0646429,2.55863011 L99.2919156,2.55863011 C99.7273052,2.55863011 100.206526,2.39778355 100.206526,1.86845214 C100.206526,1.26308418 99.6893182,1.16657624 99.1896429,1.16657624 L98.0646429,1.16657624 L98.0646429,2.55863011 Z M99.3620455,0.850732083 C99.9961364,0.850732083 100.568864,1.12563348 100.568864,1.81288696 C100.568864,2.23986147 100.26789,2.58787494 99.908474,2.66683598 C100.332175,2.75164598 100.723734,3.01484945 100.723734,3.60851948 C100.723734,4.35718711 100.124708,4.71689851 99.4146429,4.71689851 L97.7081494,4.71689851 L97.7081494,0.850732083 L99.3620455,0.850732083 Z" id="Fill-45"></path>
                        <path d="M103.668896,2.77036267 C103.668896,3.80855411 104.241623,4.48703415 105.115325,4.48703415 C105.991948,4.48703415 106.570519,3.80855411 106.570519,2.78790957 C106.570519,1.76434055 105.986104,1.07708706 105.115325,1.07708706 C104.25039,1.07708706 103.668896,1.75849158 103.668896,2.77036267 M106.938701,2.7996075 C106.938701,4.00156999 106.199416,4.80872727 105.115325,4.80872727 C104.02539,4.80872727 103.300714,3.99279654 103.300714,2.78498509 C103.300714,1.57717364 104.031234,0.755393939 105.115325,0.755393939 C106.199416,0.755393939 106.938701,1.58594709 106.938701,2.7996075" id="Fill-46"></path>
                        <path d="M110.05539,4.39812987 L111.20961,4.39812987 C111.750195,4.39812987 112.343377,4.30454642 112.343377,3.61436845 C112.343377,2.95343531 111.71513,2.85985185 111.189156,2.85985185 L110.05539,2.85985185 L110.05539,4.39812987 Z M110.05539,2.55863011 L111.282662,2.55863011 C111.720974,2.55863011 112.200195,2.39778355 112.200195,1.86845214 C112.200195,1.26308418 111.680065,1.16657624 111.183312,1.16657624 L110.05539,1.16657624 L110.05539,2.55863011 Z M111.352792,0.850732083 C111.986883,0.850732083 112.562532,1.12563348 112.562532,1.81288696 C112.562532,2.23986147 112.261558,2.58787494 111.893377,2.66683598 C112.32,2.75164598 112.717403,3.01484945 112.717403,3.60851948 C112.717403,4.35718711 112.118377,4.71689851 111.408312,4.71689851 L109.695974,4.71689851 L109.695974,0.850732083 L111.352792,0.850732083 Z" id="Fill-47"></path>
                        <path d="M115.879675,2.75310823 L117.045584,2.75310823 C117.580325,2.75310823 118.012792,2.53669649 118.012792,1.9693468 C118.012792,1.41077056 117.638766,1.165114 117.089416,1.165114 L115.879675,1.165114 L115.879675,2.75310823 Z M117.159545,0.852194324 C117.884221,0.852194324 118.380974,1.21483021 118.380974,1.93717749 C118.380974,2.69461857 117.884221,3.0660279 117.153701,3.0660279 L115.879675,3.0660279 L115.879675,4.71836075 L115.508571,4.71836075 L115.508571,0.852194324 L117.159545,0.852194324 Z" id="Fill-48"></path>
                        <polygon id="Fill-49" points="123.766948 1.16540645 121.44974 1.16540645 121.44974 2.5603848 123.617922 2.5603848 123.617922 2.86745551 121.44974 2.86745551 121.44974 4.39696008 123.790325 4.39696008 123.790325 4.7186532 121.087403 4.7186532 121.087403 0.852486772 123.766948 0.852486772"></polygon>
                        <path d="M130.230292,4.7180683 L129.876721,4.7180683 L129.876721,2.37848196 C129.876721,1.97197884 129.894253,1.57132468 129.91763,1.16482155 C129.838734,1.39878018 129.756916,1.63858778 129.663409,1.86669745 L128.523799,4.7180683 L128.193604,4.7180683 L127.036461,1.89594228 C126.93711,1.66198365 126.861136,1.42217605 126.776396,1.18529293 C126.805617,1.58594709 126.823149,1.97197884 126.823149,2.36678403 L126.823149,4.7180683 L126.475422,4.7180683 L126.475422,0.851901876 L126.972175,0.851901876 L128.097175,3.60968927 C128.193604,3.84657239 128.275422,4.08930447 128.35724,4.33788552 C128.447825,4.09515344 128.523799,3.85242136 128.620227,3.62138721 L129.721851,0.851901876 L130.230292,0.851901876 L130.230292,4.7180683 Z" id="Fill-50"></path>
                        <path d="M135.443864,1.16540645 L134.27211,1.16540645 C133.725682,1.16540645 133.383799,1.42276094 133.383799,1.91699856 C133.383799,2.41708514 133.725682,2.68613757 134.27211,2.68613757 L135.443864,2.68613757 L135.443864,1.16540645 Z M133.290292,4.7186532 L132.808149,4.7186532 L134.137695,3.0049062 C133.453929,2.97858586 133.015617,2.58670515 133.015617,1.91699856 C133.015617,1.23266955 133.477305,0.852486772 134.18737,0.852486772 L135.812045,0.852486772 L135.812045,4.7186532 L135.443864,4.7186532 L135.443864,3.0049062 L134.616916,3.0049062 L133.290292,4.7186532 Z" id="Fill-51"></path>
                    </g>
                </g>
            </g>
        </g>
    </g>
</svg>