<?xml version="1.0" encoding="UTF-8"?>
<svg width="21px" height="21px" viewBox="0 0 21 21" version="1.1" xmlns="http://www.w3.org/2000/svg" xmlns:xlink="http://www.w3.org/1999/xlink">
    <!-- Generator: Sketch 42 (36781) - http://www.bohemiancoding.com/sketch -->
    <title>Shape</title>
    <desc>Created with Sketch.</desc>
    <defs></defs>
    <g id="Home" stroke="none" stroke-width="1" fill="none" fill-rule="evenodd">
        <g id="Home/global_menu_320" transform="translate(-39.000000, -530.000000)" fill-rule="nonzero" fill="#FFFFFF">
            <g id="Group-4">
                <g id="Group" transform="translate(39.000000, 526.000000)">
                    <path d="M11.369988,17.7198005 C9.56563894,16.6625857 8.32416193,15.421856 7.27968006,13.6322318 L8.43705334,12.0944223 C9.05844531,11.4330546 9.27394787,10.4905024 9.00044893,9.61562566 C8.66687045,8.60617393 8.5,7.56311935 8.5,6.5 C8.5,5.12071525 7.37928475,4 6,4 L2.5,4 C1.12071525,4 0,5.12071525 0,6.5 C0,16.7012847 8.29871525,25 18.5,25 C19.8792847,25 21,23.8792847 21,22.5 L21,19.01 C21,17.6307153 19.8792847,16.51 18.5,16.51 C17.4349441,16.51 16.3926728,16.3441425 15.405346,16.018361 C14.582927,15.7314736 13.5704767,15.9432794 12.9553339,16.5225225 L11.369988,17.7198005 Z M18.5,18.51 C18.7747153,18.51 19,18.7352847 19,19.01 L19,22.5 C19,22.7747153 18.7747153,23 18.5,23 C9.40328475,23 2,15.5967153 2,6.5 C2,6.22528475 2.22528475,6 2.5,6 L6,6 C6.27471525,6 6.5,6.22528475 6.5,6.5 C6.5,7.77575462 6.70078049,9.03077019 7.09653921,10.2278857 C7.15157427,10.4043784 7.10376141,10.601025 6.96789322,10.7368932 L6.87600271,10.8426654 L4.90862175,13.4567375 L5.20654466,14.0185154 C6.60276027,16.6512873 8.3303558,18.3783853 10.9811343,19.7932049 L11.5447984,20.0940535 L14.2116604,18.0799978 L14.3279522,17.9770595 C14.3864306,17.9165709 14.622482,17.8633371 14.7627779,17.9122525 C15.9691877,18.3104714 17.2230531,18.51 18.5,18.51 Z" id="Shape"></path>
                </g>
            </g>
        </g>
    </g>
</svg>