<?xml version="1.0" encoding="utf-8"?>
<!-- Generator: Adobe Illustrator 16.0.0, SVG Export Plug-In . SVG Version: 6.00 Build 0)  -->
<!DOCTYPE svg PUBLIC "-//W3C//DTD SVG 1.1//EN" "http://www.w3.org/Graphics/SVG/1.1/DTD/svg11.dtd">
<svg version="1.1" id="Layer_1" xmlns="http://www.w3.org/2000/svg" xmlns:xlink="http://www.w3.org/1999/xlink" x="0px" y="0px"
	 width="22px" height="10.542px" viewBox="0 0 22 10.542" enable-background="new 0 0 22 10.542" xml:space="preserve">

<g fill="#ffffff">
	<path id="SVGID_1_" d="M1,6.293c-0.555,0-1-0.45-1-1c0-0.554,0.445-1,1-1h18c0.55,0,1,0.446,1,1c0,0.55-0.45,1-1,1H1"/>
	<path id="SVGID_3_" d="M15.586,1.707c-0.391-0.391-0.391-1.023,0-1.414c0.392-0.391,1.023-0.391,1.414,0l5,5l-1.414,1.414
			L15.586,1.707 M20.586,3.879L22,5.293l-5,5c-0.391,0.391-1.022,0.391-1.414,0c-0.391-0.391-0.391-1.023,0-1.414L20.586,3.879
			 M20.586,6.707L22,5.293l0,0L20.586,6.707L20.586,6.707L20.586,6.707z M22,5.293l-1.414-1.414L22,5.293L22,5.293L22,5.293
			L22,5.293z"/>
</g>
</svg>
