<?xml version="1.0" encoding="utf-8"?>
<!-- Generator: Adobe Illustrator 16.0.0, SVG Export Plug-In . SVG Version: 6.00 Build 0)  -->
<!DOCTYPE svg PUBLIC "-//W3C//DTD SVG 1.1//EN" "http://www.w3.org/Graphics/SVG/1.1/DTD/svg11.dtd">
<svg version="1.1" id="Layer_1" xmlns="http://www.w3.org/2000/svg" xmlns:xlink="http://www.w3.org/1999/xlink" x="0px" y="0px"
	 width="22px" height="10.542px" viewBox="0 0 22 10.542" enable-background="new 0 0 22 10.542" xml:space="preserve">

<g fill="#ffffff">
	<path id="SVGID_1_" d="M21,4.293c0.55,0,1,0.446,1,1c0,0.55-0.45,1-1,1H3c-0.55,0-1-0.45-1-1c0-0.554,0.45-1,1-1H21"/>
	<path id="SVGID_3_" d="M6.414,8.879c0.391,0.391,0.391,1.023,0,1.414s-1.023,0.391-1.414,0l-5-5l1.414-1.414L6.414,8.879
			 M1.414,6.707L0,5.293l5-5c0.391-0.391,1.022-0.391,1.414,0s0.391,1.022,0,1.414L1.414,6.707 M1.414,6.707L0,5.293l0,0
			L1.414,6.707L1.414,6.707L1.414,6.707z M0,5.293l1.414-1.414L0,5.293L0,5.293L0,5.293z"/>
</g>
</svg>
