<?xml version="1.0" encoding="utf-8"?>
<!-- Generator: Adobe Illustrator 16.0.0, SVG Export Plug-In . SVG Version: 6.00 Build 0)  -->
<!DOCTYPE svg PUBLIC "-//W3C//DTD SVG 1.1//EN" "http://www.w3.org/Graphics/SVG/1.1/DTD/svg11.dtd">
<svg version="1.1" id="Layer_1" xmlns="http://www.w3.org/2000/svg" xmlns:xlink="http://www.w3.org/1999/xlink" x="0px" y="0px"
	 width="22.062px" height="17.688px" viewBox="0 0 22.062 17.688" enable-background="new 0 0 22.062 17.688" xml:space="preserve">
<g>
	<path fill="#ffffff" id="SVGID_1_" d="M14.818,0c0.228,0,0.45,0,0.677,0c0.032,0.027,0.06,0.037,0.092,0c0.036,0,0.072,0,0.109,0
			c-0.005,0.059,0.045,0.037,0.067,0.041c0.114,0.023,0.231,0.036,0.346,0.06c0.877,0.19,1.632,0.6,2.264,1.231
			c0.041,0.045,0.077,0.073,0.149,0.055c0.755-0.159,1.478-0.4,2.169-0.741c0.195-0.095,0.391-0.2,0.604-0.309
			c-0.173,0.518-0.423,0.972-0.75,1.381c-0.332,0.418-0.732,0.759-1.178,1.05c0.869-0.1,1.7-0.327,2.532-0.682
			c-0.05,0.068-0.073,0.104-0.101,0.146c-0.572,0.805-1.259,1.505-2.059,2.086c-0.064,0.045-0.082,0.091-0.082,0.159
			c0.005,0.277,0.014,0.55,0.01,0.823c-0.019,0.718-0.109,1.427-0.255,2.131c-0.296,1.4-0.805,2.723-1.527,3.959
			c-0.695,1.191-1.563,2.25-2.604,3.164c-0.955,0.827-2.014,1.496-3.178,1.996c-0.968,0.414-1.973,0.7-3.014,0.859
			c-0.387,0.059-0.777,0.109-1.172,0.132c-0.027,0-0.082-0.022-0.096,0.036c-0.055,0-0.113,0-0.173,0
			c-0.046-0.032-0.091-0.027-0.132,0c-0.409,0-0.818,0-1.228,0c-0.032-0.027-0.06-0.032-0.087,0c-0.076,0-0.149,0-0.223,0
			c0.005,0,0.005-0.004,0.01-0.004c0-0.005,0.004-0.01,0.004-0.01c-0.035-0.027-0.076-0.022-0.117-0.027
			c-0.741-0.055-1.473-0.177-2.195-0.359c-1.15-0.296-2.242-0.746-3.264-1.337C0.286,15.764,0.159,15.682,0,15.586
			c2.473,0.246,4.669-0.359,6.646-1.832c-2.322-0.091-3.768-1.687-4.182-3.087c0.664,0.114,1.318,0.101,1.973-0.077
			c-1.041-0.236-1.904-0.754-2.568-1.577c-0.672-0.823-0.99-1.764-0.99-2.836c0.318,0.177,0.636,0.309,0.973,0.396
			c0.332,0.095,0.677,0.15,1.045,0.159C0.541,5.096,0.573,2.296,1.532,0.823C1.8,1.15,2.087,1.459,2.387,1.755
			c0.817,0.813,1.736,1.504,2.745,2.072c1.732,0.964,3.596,1.5,5.578,1.618c0.059,0.005,0.076-0.004,0.059-0.072
			c-0.051-0.214-0.082-0.437-0.092-0.659c-0.049-0.964,0.169-1.859,0.705-2.669c0.755-1.136,1.818-1.808,3.187-2.004
			C14.596,0.037,14.646,0.059,14.642,0c0.035,0,0.072,0,0.108,0C14.772,0.027,14.796,0.027,14.818,0L14.818,0L14.818,0z"/>
</g>
</svg>
