<?xml version="1.0" encoding="utf-8"?>
<!-- Generator: Adobe Illustrator 16.0.0, SVG Export Plug-In . SVG Version: 6.00 Build 0)  -->
<!DOCTYPE svg PUBLIC "-//W3C//DTD SVG 1.1//EN" "http://www.w3.org/Graphics/SVG/1.1/DTD/svg11.dtd">
<svg version="1.1" id="Layer_1" xmlns="http://www.w3.org/2000/svg" xmlns:xlink="http://www.w3.org/1999/xlink" x="0px" y="0px"
	 width="23.583px" height="13.419px" viewBox="0 0 23.583 13.419" enable-background="new 0 0 23.583 13.419" xml:space="preserve">
<path  fill="#ffffff" id="SVGID_1_" d="M11.467,13.312h1.4c0,0,0.422-0.045,0.636-0.277c0.2-0.213,0.196-0.617,0.196-0.617
		s-0.027-1.878,0.845-2.155c0.859-0.272,1.964,1.818,3.132,2.618c0.887,0.609,1.559,0.478,1.559,0.478l3.133-0.046
		c0,0,1.636-0.1,0.859-1.386c-0.064-0.104-0.451-0.954-2.328-2.691c-1.963-1.822-1.699-1.526,0.664-4.682
		c1.441-1.918,2.018-3.086,1.836-3.591c-0.172-0.478-1.231-0.35-1.231-0.35l-3.522,0.023c0,0-0.26-0.037-0.455,0.077
		c-0.191,0.113-0.309,0.377-0.309,0.377s-0.56,1.486-1.305,2.75c-1.568,2.664-2.195,2.805-2.45,2.642
		c-0.601-0.387-0.45-1.55-0.45-2.378c0-2.582,0.391-3.659-0.764-3.936c-0.382-0.095-0.664-0.155-1.645-0.164
		C10.012-0.01,8.95,0.008,8.344,0.298c-0.4,0.2-0.709,0.637-0.522,0.664c0.231,0.027,0.764,0.141,1.041,0.522
		c0.358,0.491,0.351,1.591,0.351,1.591s0.204,3.041-0.486,3.419C8.253,6.753,7.599,6.226,6.2,3.808
		C5.485,2.567,4.944,1.199,4.944,1.199S4.84,0.944,4.654,0.808C4.426,0.644,4.113,0.589,4.113,0.589L0.762,0.612
		c0,0-0.504,0.013-0.686,0.232C-0.087,1.04,0.063,1.439,0.063,1.439s2.623,6.136,5.591,9.228
		C8.376,13.499,11.467,13.312,11.467,13.312L11.467,13.312L11.467,13.312L11.467,13.312z"/>
</svg>
