<?xml version="1.0" encoding="utf-8"?>
<!-- Generator: Adobe Illustrator 16.0.0, SVG Export Plug-In . SVG Version: 6.00 Build 0)  -->
<!DOCTYPE svg PUBLIC "-//W3C//DTD SVG 1.1//EN" "http://www.w3.org/Graphics/SVG/1.1/DTD/svg11.dtd">
<svg version="1.1" id="Layer_1" xmlns="http://www.w3.org/2000/svg" xmlns:xlink="http://www.w3.org/1999/xlink" x="0px" y="0px"
	 width="25.956px" height="16.5px" viewBox="0 0 25.956 16.5" enable-background="new 0 0 25.956 16.5" xml:space="preserve">
<g>
	<path fill="#ffffff" id="SVGID_1_" d="M8.237,7.079c2.627-0.004,5.255-0.014,7.887,0.014c0.163,2.295-0.178,4.75-1.668,6.591
			c-2.046,2.632-5.823,3.404-8.892,2.372c-3.259-1.072-5.632-4.354-5.559-7.795c-0.164-4.255,3.563-8.182,7.818-8.236
			c2.168-0.182,4.281,0.659,5.922,2.031c-0.672,0.742-1.358,1.473-2.091,2.16C10.209,3.338,8.469,2.67,6.783,3.261
			C4.055,4.038,2.405,7.256,3.415,9.919c0.836,2.787,4.223,4.314,6.872,3.146c1.378-0.496,2.282-1.764,2.678-3.123
			c-1.572-0.031-3.15-0.014-4.723-0.054C8.237,8.947,8.232,8.016,8.237,7.079L8.237,7.079z M23.6,9.442
			c-0.009,0.791-0.014,1.573-0.014,2.359c-0.786-0.004-1.567,0-2.35,0c-0.004-0.786-0.004-1.568-0.014-2.354
			c-0.781-0.005-1.572-0.009-2.354-0.014c0-0.786,0-1.563,0-2.35c0.782,0,1.568-0.004,2.354-0.013
			c0.005-0.782,0.014-1.573,0.019-2.354c0.781,0,1.559,0,2.345,0c0,0.782,0.01,1.573,0.014,2.354
			c0.782,0.009,1.573,0.013,2.355,0.018c0,0.782,0,1.56,0,2.345C25.173,9.438,24.382,9.442,23.6,9.442L23.6,9.442z M8.237,7.079
			c2.627-0.004,5.255-0.014,7.887,0.009c0.163,2.3-0.178,4.755-1.668,6.596c-2.046,2.632-5.823,3.404-8.892,2.372
			c-3.259-1.072-5.632-4.354-5.559-7.795c-0.164-4.255,3.563-8.182,7.818-8.236c2.168-0.182,4.281,0.659,5.922,2.031
			c-0.672,0.742-1.358,1.473-2.091,2.16C10.209,3.338,8.469,2.67,6.778,3.261C4.055,4.038,2.405,7.256,3.415,9.919
			c0.836,2.787,4.218,4.314,6.872,3.146c1.378-0.496,2.282-1.764,2.678-3.123c-1.572-0.031-3.15-0.014-4.723-0.059
			C8.237,8.947,8.232,8.016,8.237,7.079L8.237,7.079z M23.6,9.442c-0.009,0.791-0.014,1.573-0.014,2.359
			c-0.786-0.004-1.567,0-2.35,0c-0.004-0.786-0.004-1.568-0.014-2.354c-0.781-0.009-1.572-0.009-2.354-0.014c0-0.786,0-1.563,0-2.35
			c0.782,0,1.568-0.004,2.354-0.013c0.005-0.782,0.01-1.573,0.019-2.354c0.781,0,1.559,0,2.345,0c0,0.782,0.01,1.573,0.014,2.354
			c0.782,0.009,1.573,0.013,2.355,0.013c0,0.787,0,1.564,0,2.35C25.173,9.438,24.382,9.442,23.6,9.442L23.6,9.442z"/>
</g>
</svg>
