<?xml version="1.0" encoding="iso-8859-1"?>
<!-- Generator: Adobe Illustrator 16.0.0, SVG Export Plug-In . SVG Version: 6.00 Build 0)  -->
<!DOCTYPE svg PUBLIC "-//W3C//DTD SVG 1.1//EN" "http://www.w3.org/Graphics/SVG/1.1/DTD/svg11.dtd">
<svg width="28px" height="27px" viewBox="1175 140 28 27" version="1.1" xmlns="http://www.w3.org/2000/svg" xmlns:xlink="http://www.w3.org/1999/xlink">
    <!-- Generator: Sketch 3.8.3 (29802) - http://www.bohemiancoding.com/sketch -->
    <desc>Created with Sketch.</desc>
    <defs></defs>
    <path d="M1187.66098,153.504142 L1175.26699,165.538979 C1174.92267,165.873327 1174.92267,166.414997 1175.26699,166.749345 C1175.43894,166.916732 1175.6647,167 1175.89002,167 C1176.11578,167 1176.3411,166.916732 1176.51304,166.749345 L1189.00022,154.624018 L1201.48739,166.749345 C1201.65978,166.916732 1201.8851,167 1202.11042,167 C1202.33574,167 1202.5615,166.916732 1202.73344,166.749345 C1203.07777,166.414997 1203.07777,165.873327 1202.73344,165.538979 L1190.3399,153.504142 L1202.74176,141.460809 C1203.08608,141.12646 1203.08608,140.584791 1202.74176,140.250443 C1202.39743,139.916519 1201.8396,139.916519 1201.49571,140.250443 L1189.00066,152.384267 L1176.50429,140.250867 C1176.15997,139.916944 1175.60257,139.916944 1175.25824,140.250867 C1174.91392,140.585216 1174.91392,141.126885 1175.25824,141.461233 L1187.66098,153.504142 L1187.66098,153.504142 Z" id="x" stroke="none" fill="#FFFFFF" fill-rule="evenodd"></path>
</svg>
