<?xml version="1.0" encoding="iso-8859-1"?>
<!-- Generator: Adobe Illustrator 16.0.0, SVG Export Plug-In . SVG Version: 6.00 Build 0)  -->
<!DOCTYPE svg PUBLIC "-//W3C//DTD SVG 1.1//EN" "http://www.w3.org/Graphics/SVG/1.1/DTD/svg11.dtd">
<svg width="76px" height="75px" viewBox="-1 0 76 75" version="1.1" xmlns="http://www.w3.org/2000/svg" xmlns:xlink="http://www.w3.org/1999/xlink">
    <!-- Generator: Sketch 3.8.3 (29802) - http://www.bohemiancoding.com/sketch -->
    <desc>Created with Sketch.</desc>
    <defs></defs>
    <g id="2" stroke="none" stroke-width="1" fill="none" fill-rule="evenodd">
        <g id="Capa_1" fill="#57BFDF">
            <g id="Group">
                <path d="M37.2600325,60.3810326 C33.2904013,60.3810326 30.0528742,63.6419022 30.0528742,67.6364674 C30.0528742,71.6310326 33.2904013,74.8919022 37.2600325,74.8919022 C41.2296638,74.8919022 44.4671909,71.6310326 44.4671909,67.6364674 C44.4671909,63.6419022 41.2296638,60.3810326 37.2600325,60.3810326 L37.2600325,60.3810326 Z M37.2600325,70.9788587 C35.4379067,70.9788587 33.9574295,69.4788587 33.9574295,67.6364674 C33.9574295,65.7940761 35.4379067,64.2940761 37.2600325,64.2940761 C39.0821584,64.2940761 40.5626356,65.7940761 40.5626356,67.6364674 C40.5626356,69.4788587 39.0821584,70.9788587 37.2600325,70.9788587 L37.2600325,70.9788587 Z" id="Shape"></path>
                <path d="M10.8229393,13.7344565 C11.1971258,14.1094565 11.7014642,14.3051087 12.2058026,14.3051087 C12.710141,14.3051087 13.1982104,14.1094565 13.5886659,13.7344565 C14.353308,12.9681522 14.353308,11.7290217 13.5886659,10.9627174 L9.84680043,7.21271739 L13.5886659,3.46271739 C14.353308,2.69641304 14.353308,1.45728261 13.5886659,0.690978261 C12.8240239,-0.075326087 11.5875813,-0.075326087 10.8229393,0.690978261 L7.08107375,4.44097826 L3.33920824,0.690978261 C2.57456616,-0.075326087 1.33812364,-0.075326087 0.573481562,0.690978261 C-0.191160521,1.45728261 -0.191160521,2.69641304 0.573481562,3.46271739 L4.31534707,7.21271739 L0.573481562,10.9627174 C-0.191160521,11.7290217 -0.191160521,12.9681522 0.573481562,13.7344565 C0.947668113,14.1094565 1.45200651,14.3051087 1.9563449,14.3051087 C2.4606833,14.3051087 2.94875271,14.1094565 3.33920824,13.7344565 L7.08107375,9.98445652 L10.8229393,13.7344565 L10.8229393,13.7344565 Z" id="Shape"></path>
                <path d="M33.534436,13.7344565 C33.9086226,14.1094565 34.396692,14.3051087 34.9172993,14.3051087 C35.4379067,14.3051087 35.9259761,14.0931522 36.3001627,13.7344565 L46.5496204,3.46271739 C47.3142625,2.69641304 47.3142625,1.45728261 46.5496204,0.690978261 C45.7849783,-0.075326087 44.5485358,-0.075326087 43.7838937,0.690978261 L34.9172993,9.57684783 L32.1027657,6.75619565 C31.3381236,5.9898913 30.1016811,5.9898913 29.337039,6.75619565 C28.572397,7.5225 28.572397,8.76163043 29.337039,9.52793478 L33.534436,13.7344565 L33.534436,13.7344565 Z" id="Shape"></path>
                <path d="M37.2600325,56.7616304 C38.3337852,56.7616304 39.2123102,55.8811957 39.2123102,54.8051087 C39.2123102,53.7290217 38.3337852,52.848587 37.2600325,52.848587 C36.1862798,52.848587 35.3077549,53.7290217 35.3077549,54.8051087 C35.3077549,55.8811957 36.1700108,56.7616304 37.2600325,56.7616304 L37.2600325,56.7616304 Z" id="Shape"></path>
                <path d="M37.2600325,49.2779348 C38.3337852,49.2779348 39.2123102,48.3975 39.2123102,47.321413 C39.2123102,46.2453261 38.3337852,45.3648913 37.2600325,45.3648913 C36.1862798,45.3648913 35.3077549,46.2453261 35.3077549,47.321413 C35.3077549,48.3975 36.1700108,49.2779348 37.2600325,49.2779348 L37.2600325,49.2779348 Z" id="Shape"></path>
                <path d="M37.2600325,41.7940761 C38.3337852,41.7940761 39.2123102,40.9136413 39.2123102,39.8375543 C39.2123102,38.7614674 38.3337852,37.8810326 37.2600325,37.8810326 C36.1862798,37.8810326 35.3077549,38.7614674 35.3077549,39.8375543 C35.3077549,40.9301087 36.1700108,41.7940761 37.2600325,41.7940761 L37.2600325,41.7940761 Z" id="Shape"></path>
                <path d="M70.5300976,7.21271739 L74.2719631,3.46271739 C75.0366052,2.69641304 75.0366052,1.45728261 74.2719631,0.690978261 C73.507321,-0.075326087 72.2708785,-0.075326087 71.5062364,0.690978261 L67.7643709,4.44097826 L64.0225054,0.690978261 C63.2578633,-0.075326087 62.0214208,-0.075326087 61.2567787,0.690978261 C60.4921367,1.45728261 60.4921367,2.69641304 61.2567787,3.46271739 L64.9986443,7.21271739 L61.2567787,10.9627174 C60.4921367,11.7290217 60.4921367,12.9681522 61.2567787,13.7344565 C61.6309653,14.1094565 62.1353037,14.3051087 62.6396421,14.3051087 C63.1439805,14.3051087 63.6320499,14.1094565 64.0225054,13.7344565 L67.7643709,9.98445652 L71.5062364,13.7344565 C71.880423,14.1094565 72.3847614,14.3051087 72.8890998,14.3051087 C73.3934382,14.3051087 73.8815076,14.1094565 74.2719631,13.7344565 C75.0366052,12.9681522 75.0366052,11.7290217 74.2719631,10.9627174 L70.5300976,7.21271739 L70.5300976,7.21271739 Z" id="Shape"></path>
                <path d="M67.7643709,17.8105435 C66.6906182,17.8105435 65.8120933,18.6909783 65.8120933,19.7670652 L65.8120933,30.3975 L39.2123102,30.3975 L39.2123102,19.7670652 C39.2123102,18.6909783 38.3337852,17.8105435 37.2600325,17.8105435 C36.1862798,17.8105435 35.3077549,18.6909783 35.3077549,19.7670652 L35.3077549,30.3975 L9.03335141,30.3975 L9.03335141,19.7670652 C9.03335141,18.6909783 8.15482646,17.8105435 7.08107375,17.8105435 C6.00732104,17.8105435 5.1287961,18.6909783 5.1287961,19.7670652 L5.1287961,32.3540217 C5.1287961,33.4301087 6.00732104,34.3105435 7.08107375,34.3105435 L67.7643709,34.3105435 C68.8381236,34.3105435 69.7166486,33.4301087 69.7166486,32.3540217 L69.7166486,19.7670652 C69.7166486,18.6909783 68.8381236,17.8105435 67.7643709,17.8105435 L67.7643709,17.8105435 Z" id="Shape"></path>
            </g>
        </g>
    </g>
</svg>
