<?xml version="1.0" encoding="iso-8859-1"?>
<!-- Generator: Adobe Illustrator 16.0.0, SVG Export Plug-In . SVG Version: 6.00 Build 0)  -->
<!DOCTYPE svg PUBLIC "-//W3C//DTD SVG 1.1//EN" "http://www.w3.org/Graphics/SVG/1.1/DTD/svg11.dtd">
<svg width="80px" height="63px" viewBox="2 -1 80 63" version="1.1" xmlns="http://www.w3.org/2000/svg" xmlns:xlink="http://www.w3.org/1999/xlink">
    <!-- Generator: Sketch 3.8.3 (29802) - http://www.bohemiancoding.com/sketch -->
    <desc>Created with Sketch.</desc>
    <defs></defs>
    <g id="5" stroke="none" stroke-width="1" fill="none" fill-rule="evenodd" transform="translate(3.000000, 0.000000)">
        <g id="Capa_1" stroke="#58BFDE" fill="#57BFDF">
            <path d="M77.5352911,18.3975013 C77.1178101,17.9800377 76.4404937,17.9800377 76.0226835,18.3975013 L69.3602658,25.054558 C69.1868228,25.2278571 69.0783797,25.4554151 69.0528734,25.6992507 C68.5225063,30.7699784 66.243557,35.5480377 62.6353165,39.1531213 L61.0521139,40.7350108 L49.5482658,29.2407035 C50.2759367,29.4123585 50.9881392,29.4991725 51.6797722,29.4991725 C52.6942658,29.4991725 53.6651519,29.3138706 54.5771266,28.940965 C55.1239494,28.7175175 55.3857595,28.0933774 55.1621266,27.5471725 C54.9384937,27.0006388 54.3136709,26.7393747 53.7671772,26.9626577 C49.3623165,28.7632264 44.2840886,23.971027 43.6444557,23.3417898 L40.5878101,20.2876792 C40.9672785,18.6796469 40.6396456,16.9538895 39.6638228,15.551876 C38.5606329,13.9671914 36.8067848,13.0584394 34.844443,13.0584394 L27.4408608,13.1113827 L27.4212785,13.1113827 C26.7125316,13.1113827 26.0460759,12.836965 25.5426962,12.3374555 C25.0347089,11.8333423 24.754962,11.1616846 24.7551266,10.4459623 L24.7551266,10.3346496 C24.7554557,8.8987655 25.8806962,7.72957143 27.3167848,7.67301078 L40.7994304,7.14226146 C45.6652152,6.95087601 50.5152025,8.42737197 54.4487722,11.2996334 C54.8746456,11.6103881 55.4634304,11.5650081 55.8361519,11.1924313 L62.9173671,4.11708895 C63.3351772,3.69978976 63.3351772,3.02303504 62.9175316,2.60573585 C62.4997215,2.18827224 61.8225696,2.18827224 61.4047595,2.60573585 L54.9585696,9.04674394 C50.7791519,6.23860647 45.7567089,4.80831267 40.7151772,5.00643935 L27.2325316,5.53718868 C27.2007722,5.53850404 27.1696709,5.54129919 27.1382405,5.54327224 L22.0226582,0.432097035 C21.6050127,0.0146334232 20.9276962,0.0146334232 20.5100506,0.432097035 C20.0922405,0.849396226 20.0922405,1.52615094 20.5100506,1.94345013 L24.8464557,6.27625876 C23.5007089,7.12697035 22.6163797,8.62566307 22.6158861,10.3344852 L22.6158861,10.4457978 C22.615557,11.7351833 23.1197595,12.9456469 24.0351899,13.8542345 C24.9507848,14.7628221 26.1647215,15.258221 27.4561646,15.2488491 L34.8520127,15.1959057 C36.5556709,15.1959057 37.4975949,16.1835795 37.9073418,16.7723693 C38.2195063,17.2207439 38.4286582,17.718938 38.530519,18.2322588 L38.1638861,17.8659299 C37.7462405,17.4484663 37.0689241,17.4484663 36.6512785,17.8659299 C36.2334684,18.2832291 36.2334684,18.9599838 36.6512785,19.377283 L60.7861899,43.4921779 C61.8284937,44.5334528 61.8284937,46.2279704 60.7861899,47.2692453 C59.7445443,48.3101914 58.0496076,48.3103558 57.0076329,47.2705606 L41.6347215,31.9105633 C41.2172405,31.4930997 40.5397595,31.4930997 40.1222785,31.9105633 C39.7044684,32.3278625 39.7044684,33.0046173 40.1222785,33.4219164 L56.6803291,49.9663989 C57.7226329,51.0076739 57.7226329,52.7021914 56.6803291,53.7434663 C56.1756329,54.2479084 55.5044051,54.525779 54.7902278,54.525779 C54.0762152,54.525779 53.4049873,54.2479084 52.9002911,53.7434663 L37.2036962,38.0598895 C36.7858861,37.6425903 36.1087342,37.6425903 35.6910886,38.0598895 C35.273443,38.4771887 35.2732785,39.1539434 35.6910886,39.5712426 L48.5530253,52.4226765 C49.5943418,53.4641159 49.5940127,55.1576469 48.5522025,56.198593 C47.5097342,57.2400323 45.8139747,57.2398679 44.7718354,56.198593 L30.8029241,42.2412668 C30.3852785,41.8238032 29.707962,41.8238032 29.2903165,42.2412668 C28.8725063,42.658566 28.8725063,43.3353208 29.2903165,43.7526199 L39.6519747,54.1056846 L39.6521392,54.1058491 C40.694443,55.147124 40.694443,56.8414771 39.6521392,57.8829164 C38.6101646,58.9241914 36.9142405,58.9241914 35.8721013,57.8829164 L17.1259367,39.1531213 C13.5178608,35.5480377 11.2387468,30.7699784 10.7085443,25.6992507 C10.683038,25.4554151 10.5745949,25.2278571 10.4009873,25.054558 L1.82592405,16.486442 C1.40827848,16.0689784 0.730962025,16.0689784 0.313316456,16.486442 C-0.104493671,16.9037412 -0.104493671,17.580496 0.313316456,17.9977951 L8.62377215,26.3013585 C9.27673418,31.7163827 11.7496962,36.8038814 15.6133291,40.66431 L17.1907722,42.2404447 C16.6034684,43.0528464 16.2857089,44.0253935 16.2857089,45.0472668 C16.2857089,46.3315553 16.7862911,47.5390593 17.6951392,48.4471536 C18.6332785,49.3845148 19.865481,49.8532776 21.0978481,49.8532776 C21.2191266,49.8532776 21.3402405,49.8473585 21.4611899,49.8383154 C21.4198861,50.093496 21.3976709,50.3536092 21.3976709,50.6171752 C21.3976709,51.9014636 21.8982532,53.1089677 22.8071013,54.017062 C23.7452405,54.9544232 24.977443,55.423186 26.2098101,55.423186 C26.4495696,55.423186 26.6893291,55.4049353 26.9269494,55.3694205 C26.7089114,56.8270081 27.1596329,58.3661482 28.2802658,59.4858518 C29.1891139,60.3939461 30.3976203,60.8941132 31.6829747,60.8941132 C32.8286203,60.8941132 33.912557,60.4958868 34.7784557,59.7663531 C35.6496203,60.4554394 36.7054177,60.8010512 37.762038,60.8010512 C38.9942405,60.8010512 40.2267722,60.3322884 41.1649114,59.3949272 C41.8637848,58.6966334 42.3018354,57.8350701 42.4800506,56.9320728 L43.2588987,57.7102749 C44.1972025,58.6478005 45.4292405,59.1163989 46.6617722,59.1163989 C47.8939747,59.1163989 49.1266709,58.6476361 50.0648101,57.7102749 C50.7636835,57.0119811 51.2017342,56.1505822 51.3799494,55.2475849 L51.3873544,55.2549838 C52.2962025,56.1630782 53.5047089,56.6632453 54.7902278,56.6632453 C56.0759114,56.6632453 57.2842532,56.1630782 58.1932658,55.2549838 C59.5671519,53.8822372 59.9336203,51.8794313 59.2954684,50.1691294 C60.3914177,50.0786981 61.4623544,49.6166765 62.298962,48.7805984 C64.0857215,46.9953208 64.1696456,44.1447628 62.5533671,42.2577089 L64.1479241,40.66431 C68.011557,36.8038814 70.484519,31.7162183 71.1376456,26.3011941 L77.5354557,19.90869 C77.9531013,19.4913908 77.9531013,18.8148005 77.5352911,18.3975013 L77.5352911,18.3975013 Z M19.2079114,46.9358005 C18.7030506,46.4313585 18.4249494,45.7606873 18.4249494,45.0472668 C18.4249494,44.6005364 18.5340506,44.1707412 18.7394177,43.7878059 L22.3583544,47.4037412 C21.9752658,47.608938 21.5449494,47.7179488 21.0978481,47.7179488 C20.384,47.7182776 19.7127722,47.440407 19.2079114,46.9358005 L19.2079114,46.9358005 Z M24.3198734,52.5058733 C23.8150127,52.0014313 23.5369114,51.3307601 23.5369114,50.6173396 C23.5369114,50.0561725 23.7111772,49.5229569 24.0304177,49.0747466 L27.7533544,52.7945957 C26.710557,53.5331725 25.2535696,53.4386307 24.3198734,52.5058733 L24.3198734,52.5058733 Z M29.793038,57.9744987 C28.8593418,57.0415768 28.7648861,55.5859623 29.5040759,54.5438652 L33.2270127,58.2637143 C32.7784304,58.5825256 32.2446076,58.7568113 31.6829747,58.7568113 C30.9691266,58.7568113 30.2978987,58.4789407 29.793038,57.9744987 L29.793038,57.9744987 Z" id="Shape"></path>
        </g>
    </g>
</svg>
