<?xml version="1.0" encoding="iso-8859-1"?>
<!-- Generator: Adobe Illustrator 16.0.0, SVG Export Plug-In . SVG Version: 6.00 Build 0)  -->
<!DOCTYPE svg PUBLIC "-//W3C//DTD SVG 1.1//EN" "http://www.w3.org/Graphics/SVG/1.1/DTD/svg11.dtd">
<svg width="63px" height="86px" viewBox="319 0 63 86" version="1.1" xmlns="http://www.w3.org/2000/svg" xmlns:xlink="http://www.w3.org/1999/xlink">
    <!-- Generator: Sketch 3.8.3 (29802) - http://www.bohemiancoding.com/sketch -->
    <desc>Created with Sketch.</desc>
    <defs></defs>
    <g id="3" stroke="none" stroke-width="1" fill="none" fill-rule="evenodd" transform="translate(319.000000, 0.000000)">
        <g id="Capa_1" fill="#57BFDF">
            <g id="Group">
                <path d="M62.5313784,30.2629075 L57.9876216,24.3192467 L58.9581622,16.8965374 C59.0694054,16.0469559 58.5968108,15.2282511 57.806,14.9005419 L50.8987027,12.0371586 L48.0391081,5.1211674 C47.712,4.32936123 46.8950811,3.85674009 46.0456216,3.96755507 L38.6320541,4.93931718 L32.6960541,0.390030837 C32.0172432,-0.129947137 31.0750811,-0.129947137 30.3962703,0.390030837 L24.4600811,4.93950661 L17.0467027,3.96774449 C16.1983784,3.85674009 15.3805135,4.32955066 15.0532162,5.12135683 L12.1934324,12.037348 L5.28613514,14.9005419 C4.49532432,15.2284405 4.02272973,16.0469559 4.13397297,16.8967269 L5.10451351,24.3196256 L0.560756757,30.2629075 C0.0412432432,30.9423833 0.0412432432,31.8861101 0.560756757,32.5655859 L5.10451351,38.5092467 L4.13397297,45.9319559 C4.02272973,46.7815374 4.49532432,47.6002423 5.28613514,47.9279515 L12.1934324,50.7911454 L15.053027,57.707326 C15.3063514,58.3205022 15.8536757,58.7414097 16.4821622,58.848815 L16.4821622,84.0083612 C16.4821622,84.6992026 16.8577027,85.3352996 17.4625405,85.6683128 C18.0668108,86.0011366 18.8048378,85.9780264 19.3875405,85.6080749 L31.5463514,77.8862599 L43.7051622,85.6080749 C44.0139189,85.8041322 44.3658108,85.9028238 44.7184595,85.9028238 C45.0317568,85.9028238 45.3456216,85.8249692 45.629973,85.6685022 C46.2346216,85.335489 46.6103514,84.6993921 46.6103514,84.0085507 L46.6103514,58.8486256 C47.2377027,58.740652 47.785973,58.3201233 48.0392973,57.7075154 L50.8990811,50.7915242 L57.8063784,47.9283304 C58.5971892,47.6004317 59.0697838,46.7819163 58.9585405,45.9321454 L57.988,38.5092467 L62.5317568,32.5655859 C63.0508919,31.8862996 63.0508919,30.9423833 62.5313784,30.2629075 L62.5313784,30.2629075 Z M32.5594595,74.0437269 C31.9408108,73.6508546 31.1513243,73.6508546 30.5326757,74.0437269 L20.2657568,80.5640044 L20.2657568,58.4390837 L24.4598919,57.8893656 L30.3960811,62.4388414 C30.7354865,62.6989251 31.1407297,62.8288722 31.545973,62.8288722 C31.9512162,62.8288722 32.3564595,62.6987357 32.6958649,62.4388414 L38.6320541,57.8893656 L42.8261892,58.4392731 L42.8261892,80.5640044 L32.5594595,74.0437269 L32.5594595,74.0437269 Z M54.5082432,36.8280793 C54.204027,37.2260661 54.0697027,37.7284273 54.1345946,38.2252952 L55.0181081,44.9834934 L48.727,47.5913392 C48.2632973,47.7836079 47.8947568,48.1524229 47.7027297,48.6168987 L45.097973,54.9159251 L38.3482703,54.0311101 C37.8522162,53.966326 37.3502973,54.10063 36.9528108,54.4052291 L31.545973,58.5489515 L26.1391351,54.4052291 C25.8072973,54.1508282 25.4026216,54.0151982 24.9892432,54.0151982 C24.9075135,54.0151982 24.8255946,54.0205022 24.7436757,54.0311101 L17.9937838,54.9159251 L15.3892162,48.6167093 C15.1971892,48.1522335 14.8286486,47.7834185 14.3649459,47.5909604 L8.07383784,44.9831145 L8.95735135,38.2251057 C9.02243243,37.7282379 8.88810811,37.2258767 8.5837027,36.8278899 L4.44518919,31.4140573 L8.5837027,26.0004141 C8.88791892,25.6024273 9.02224324,25.1000661 8.95735135,24.6031982 L8.07383784,17.845 L14.3651351,15.237533 C14.8288378,15.0452643 15.1973784,14.6764493 15.3894054,14.2119736 L17.9941622,7.91294714 L24.7438649,8.79776211 C25.2402973,8.86292511 25.7418378,8.72824229 26.1393243,8.42364317 L31.5461622,4.2799207 L36.953,8.42364317 C37.3504865,8.72824229 37.8525946,8.86292511 38.3484595,8.79776211 L45.0983514,7.91294714 L47.7029189,14.2119736 C47.8949459,14.6764493 48.2632973,15.0452643 48.7271892,15.237533 L55.0182973,17.8455683 L54.1347838,24.6035771 C54.0697027,25.1004449 54.204027,25.6028062 54.5084324,26.000793 L58.6469459,31.4144361 L54.5082432,36.8280793 L54.5082432,36.8280793 Z" id="Shape"></path>
                <path d="M19.9899189,19.1931542 C20.4121892,19.1931542 20.8372973,19.0522203 21.1891892,18.7629648 C24.0975946,16.3727709 27.7756216,15.0564405 31.5461622,15.0564405 C32.5908649,15.0564405 33.4380541,14.2083744 33.4380541,13.1621674 C33.4380541,12.1159604 32.5908649,11.2678943 31.5461622,11.2678943 C26.9027027,11.2678943 22.372,12.8897709 18.7883784,15.8344185 C17.9807297,16.4981718 17.8634324,17.6917533 18.5263514,18.5004185 C18.9003784,18.9569383 19.442973,19.1931542 19.9899189,19.1931542 L19.9899189,19.1931542 Z" id="Shape"></path>
                <path d="M38.2924595,12.4288943 C37.3079189,12.0784537 36.2261351,12.5931278 35.8757568,13.5785286 C35.5255676,14.5641189 36.0395946,15.6474537 37.0239459,15.9980837 C43.5193784,18.3119383 47.8834054,24.507348 47.8834054,31.4142467 C47.8834054,40.4340176 40.5545946,47.7720529 31.5461622,47.7720529 C22.5377297,47.7720529 15.2089189,40.4340176 15.2089189,31.4142467 C15.2089189,28.2057269 16.1357568,25.1000661 17.8893514,22.4327401 C18.4639189,21.5589119 18.2221351,20.3842731 17.3494054,19.8089824 C16.4768649,19.2338811 15.3035135,19.4755903 14.7289459,20.3496079 C12.5674595,23.6371189 11.4251351,27.4631718 11.4251351,31.4142467 C11.4251351,42.523022 20.4513514,51.5605991 31.5461622,51.5605991 C42.640973,51.5605991 51.6671892,42.523022 51.6671892,31.4142467 C51.6671892,22.9085815 46.2923243,15.2788282 38.2924595,12.4288943 L38.2924595,12.4288943 Z" id="Shape"></path>
            </g>
        </g>
    </g>
</svg>
