<?xml version="1.0" encoding="iso-8859-1"?>
<!-- Generator: Adobe Illustrator 16.0.0, SVG Export Plug-In . SVG Version: 6.00 Build 0)  -->
<!DOCTYPE svg PUBLIC "-//W3C//DTD SVG 1.1//EN" "http://www.w3.org/Graphics/SVG/1.1/DTD/svg11.dtd">
<svg width="81px" height="74px" viewBox="57 0 81 74" version="1.1" xmlns="http://www.w3.org/2000/svg" xmlns:xlink="http://www.w3.org/1999/xlink">
    <!-- Generator: Sketch 3.8.3 (29802) - http://www.bohemiancoding.com/sketch -->
    <desc>Created with Sketch.</desc>
    <defs></defs>
    <g id="1" stroke="none" stroke-width="1" fill="none" fill-rule="evenodd" transform="translate(57.000000, 0.000000)">
        <g id="Group" fill="#57BFDF">
            <path d="M40.5,48.4007902 C39.5187429,48.4007902 38.7241163,49.1957946 38.7241163,50.1762946 C38.7241163,51.1567946 39.5189082,51.9521295 40.5,51.9521295 C41.4815878,51.9521295 42.2770408,51.1567946 42.2770408,50.1762946 C42.2770408,49.1957946 41.4815878,48.4007902 40.5,48.4007902 L40.5,48.4007902 Z" id="Shape"></path>
            <path d="M79.3469388,0.000495535714 L1.65306122,0.000495535714 C0.74007551,0.000495535714 0,0.74 0,1.65228125 L0,55.7409955 C0,56.6531116 0.74007551,57.3927813 1.65306122,57.3927813 L30.5338592,57.3927813 L27.6423245,64.401308 L22.2070592,64.401308 C21.2942388,64.401308 20.553998,65.1409777 20.553998,66.0530938 L20.553998,72.3477188 C20.553998,73.26 21.2942388,73.9995045 22.2070592,73.9995045 L58.7931061,73.9995045 C59.7059265,73.9995045 60.4461673,73.26 60.4461673,72.3477188 L60.4461673,66.0530938 C60.4461673,65.1409777 59.7059265,64.401308 58.7931061,64.401308 L53.3580061,64.401308 L50.4663061,57.3927813 L79.3469388,57.3927813 C80.2597592,57.3927813 81,56.6531116 81,55.7409955 L81,1.65228125 C81,0.739834821 80.2597592,0.000495535714 79.3469388,0.000495535714 L79.3469388,0.000495535714 Z M77.6938776,3.30406696 L77.6938776,43.09575 L3.30612245,43.09575 L3.30612245,3.30406696 L77.6938776,3.30406696 L77.6938776,3.30406696 Z M57.1400449,70.695933 L23.8601204,70.695933 L23.8601204,67.7048795 L57.1400449,67.7048795 L57.1400449,70.695933 L57.1400449,70.695933 Z M49.7817735,64.401308 L31.2183918,64.401308 L34.1099265,57.3927813 L46.8900735,57.3927813 L49.7817735,64.401308 L49.7817735,64.401308 Z M3.30612245,54.0892098 L3.30612245,46.3993214 L77.6938776,46.3993214 L77.6938776,54.0892098 L3.30612245,54.0892098 L3.30612245,54.0892098 Z" id="Shape"></path>
            <path d="M53.4279306,23.1397009 L53.4279306,23.1397009 L53.4279306,23.1397009 C53.4279306,22.2275848 52.6876898,21.4879152 51.7747041,21.4880804 L50.0118796,21.4882455 C49.9122,20.9145804 49.7644163,20.357433 49.5678673,19.8232455 L51.0921551,18.9438348 C51.882649,18.4874464 52.1535857,17.4772143 51.6968449,16.6873304 C51.2401041,15.8974464 50.2294224,15.6263884 49.4387633,16.082942 L47.9100122,16.9653259 C47.5408837,16.5244643 47.1332388,16.1171339 46.6920367,15.748125 L47.575102,14.2207188 C48.0318429,13.4308348 47.7610714,12.4204375 46.9705776,11.9642143 C46.1800837,11.5076607 45.1690714,11.7783884 44.7123306,12.5682723 L43.8320755,14.0912188 C43.2974755,13.8948214 42.739898,13.7469866 42.1657898,13.6472188 L42.1657898,11.8865804 C42.1657898,10.9742991 41.4257143,10.2347946 40.5127286,10.2347946 C40.5085959,10.2347946 40.504298,10.2354554 40.5001653,10.2354554 C40.4960327,10.2354554 40.4917347,10.2347946 40.487602,10.2347946 C39.5747816,10.2347946 38.8345408,10.9742991 38.8345408,11.8865804 L38.8345408,13.6470536 C38.2604327,13.7468214 37.7028551,13.8944911 37.1682551,14.0910536 L36.288,12.5681071 C35.8312592,11.7782232 34.8202469,11.5074955 34.0297531,11.9640491 C33.2392592,12.4202723 32.9684878,13.4306696 33.4252286,14.2205536 L34.3082939,15.7479598 C33.8670918,16.1169688 33.4594469,16.5242991 33.0903184,16.9651607 L31.5615673,16.0827768 C30.7709082,15.6262232 29.7602265,15.8972813 29.3034857,16.6871652 C28.8467449,17.4770491 29.1176816,18.4872813 29.9081755,18.9436696 L31.4324633,19.8230804 C31.2359143,20.3572679 31.0881306,20.9144152 30.988451,21.4880804 L29.2256265,21.4879152 C28.3126408,21.48775 27.5724,22.2274196 27.5724,23.1395357 L27.5724,23.1395357 L27.5724,23.1395357 L27.5724,23.1395357 L27.5724,23.1395357 C27.5724,24.051817 28.3126408,24.7913214 29.2256265,24.7913214 L30.988451,24.7911563 C31.0879653,25.3646563 31.2359143,25.9218036 31.4324633,26.4559911 L29.9081755,27.335567 C29.1176816,27.7919554 28.8467449,28.8020223 29.3034857,29.5920714 C29.7602265,30.3817902 30.7709082,30.6528482 31.5615673,30.1962946 L33.0903184,29.3139107 C33.4594469,29.7549375 33.8670918,30.1622679 34.3082939,30.5311116 L33.4252286,32.058683 C32.9684878,32.848567 33.2392592,33.8587991 34.0297531,34.3150223 C34.8202469,34.7715759 35.8312592,34.5008482 36.288,33.7111295 L37.1682551,32.1880179 C37.7028551,32.3844152 38.2604327,32.5324152 38.8345408,32.6320179 L38.8345408,34.3924911 C38.8345408,35.3047723 39.5747816,36.0442768 40.487602,36.0442768 C40.4917347,36.0442768 40.4960327,36.0436161 40.5001653,36.0436161 C40.504298,36.0436161 40.5085959,36.0442768 40.5127286,36.0442768 C41.4257143,36.0442768 42.1657898,35.3047723 42.1657898,34.3924911 L42.1657898,32.6320179 C42.739898,32.5324152 43.2974755,32.3845804 43.8320755,32.1880179 L44.7123306,33.7111295 C45.1690714,34.5008482 46.1800837,34.7715759 46.9705776,34.3150223 C47.7610714,33.8587991 48.0318429,32.848567 47.575102,32.058683 L46.6920367,30.5311116 C47.1332388,30.1622679 47.5408837,29.7549375 47.9100122,29.3139107 L49.4387633,30.1962946 C50.2294224,30.6528482 51.2402694,30.3817902 51.6968449,29.5920714 C52.1535857,28.8020223 51.882649,27.7919554 51.0921551,27.335567 L49.5678673,26.4559911 C49.7644163,25.9218036 49.9122,25.3646563 50.0118796,24.7911563 L51.7747041,24.7913214 C52.6876898,24.7914866 53.4279306,24.0519821 53.4279306,23.1397009 L53.4279306,23.1397009 L53.4279306,23.1397009 L53.4279306,23.1397009 Z M40.5125633,29.473308 C40.5084306,29.473308 40.5041327,29.4729777 40.5,29.4729777 C40.4958673,29.4729777 40.4915694,29.473308 40.4874367,29.473308 C36.9927,29.473308 34.1496,26.6322366 34.1496,23.1397009 C34.1496,19.6473304 36.9927,16.8060937 40.4874367,16.8060937 C40.4915694,16.8060937 40.4958673,16.8064241 40.5,16.8064241 C40.5041327,16.8064241 40.5084306,16.8060937 40.5125633,16.8060937 C44.0073,16.8060937 46.8504,19.6473304 46.8504,23.1397009 C46.8504,26.6320714 44.0073,29.473308 40.5125633,29.473308 L40.5125633,29.473308 Z" id="Shape"></path>
        </g>
    </g>
</svg>
