<?xml version="1.0" encoding="iso-8859-1"?>
<!-- Generator: Adobe Illustrator 16.0.0, SVG Export Plug-In . SVG Version: 6.00 Build 0)  -->
<!DOCTYPE svg PUBLIC "-//W3C//DTD SVG 1.1//EN" "http://www.w3.org/Graphics/SVG/1.1/DTD/svg11.dtd">
<svg width="66px" height="73px" viewBox="0 -1 66 73" version="1.1" xmlns="http://www.w3.org/2000/svg" xmlns:xlink="http://www.w3.org/1999/xlink">
    <!-- Generator: Sketch 3.8.3 (29802) - http://www.bohemiancoding.com/sketch -->
    <desc>Created with Sketch.</desc>
    <defs></defs>
    <g id="4" stroke="none" stroke-width="1" fill="none" fill-rule="evenodd" transform="translate(1.000000, 0.000000)">
        <g id="Group" stroke="#58BFDE" fill="#57BFDF">
            <path d="M63.7869384,14.6991059 L58.6038896,0.847186441 C58.388518,0.271514831 57.7922718,-0.0021059322 57.2723907,0.236616525 L40.1053079,8.1085911 C39.5852909,8.34701271 39.338259,9.00707203 39.5537665,9.58259322 L39.6889682,9.94391102 L11.6769427,22.7885932 C11.4271932,22.9030657 11.2288068,23.1226843 11.1254013,23.3991631 C11.0218599,23.6756419 11.0218599,23.9861165 11.1254013,24.2625953 L11.260603,24.6240636 L0.629537155,29.4991462 C0.10952017,29.7375678 -0.137511677,30.3976271 0.0779957537,30.9731483 L3.16005096,39.2102013 C3.26345648,39.4866801 3.46184289,39.7062987 3.71159236,39.8207712 C3.83646709,39.8779322 3.96908705,39.9066631 4.10157113,39.9066631 C4.2340552,39.9066631 4.36667516,39.8780826 4.49154989,39.8207712 L15.1227516,34.9459894 L15.2579533,35.3074576 C15.4204671,35.7418814 15.7998471,36.0042203 16.1998811,36.0042203 C16.3297834,36.0042203 16.4619958,35.9765424 16.5894522,35.9180275 L41.7767813,24.3684936 C42.2967983,24.130072 42.5438301,23.4700127 42.3283227,22.8944915 C42.1129512,22.3188199 41.5169766,22.0451992 40.9968238,22.2839216 L16.750879,33.4017394 L13.3982845,24.4419004 L40.4689257,12.0289343 L44.7365435,23.4348136 C44.839949,23.7112924 45.0383355,23.930911 45.2880849,24.0453835 C45.4129597,24.1025445 45.5455796,24.1312754 45.6780637,24.1312754 C45.8105478,24.1312754 45.9431677,24.1026949 46.0680425,24.0453835 L49.8337155,22.3186695 C49.8346667,22.3182182 63.2352611,16.1734089 63.2352611,16.1734089 C63.4850106,16.0589364 63.683397,15.8393178 63.7868025,15.562839 C63.8904798,15.2860593 63.8904798,14.9755847 63.7869384,14.6991059 L63.7869384,14.6991059 Z M14.3427941,32.8612669 L4.65311253,37.3043326 L2.35115074,31.1518517 L12.0408323,26.708786 L14.3427941,32.8612669 L14.3427941,32.8612669 Z M46.2296051,21.5287945 L41.9619873,10.1230657 C41.9618514,10.1229153 41.8267856,9.76159746 41.8267856,9.76159746 L43.7099618,8.89801483 L48.1127813,20.6652119 L46.2296051,21.5287945 L46.2296051,21.5287945 Z M49.9958217,19.8017797 L45.5930021,8.03458263 L57.1110998,2.75305508 L61.5140552,14.5202521 L49.9958217,19.8017797 L49.9958217,19.8017797 Z" id="Shape"></path>
            <path d="M38.3812484,48.3133941 L38.398913,48.3133941 C38.9618684,48.3133941 39.4180212,47.8082712 39.4180212,47.1852161 C39.4180212,46.562161 38.9618684,46.0570381 38.398913,46.0570381 L37.8144883,46.0570381 L36.8884586,42.370303 C36.7658938,41.882178 36.3643652,41.5443263 35.9065817,41.5443263 L32.9515754,41.5443263 L32.9515754,33.2997521 L36.2964246,31.7658814 C36.8164416,31.5274597 37.0634735,30.8674004 36.847966,30.2918792 C36.6324586,29.7163581 36.0364841,29.4428877 35.5164671,29.6813093 L31.5409936,31.5042945 C31.5380042,31.5056483 31.534879,31.5070021 31.5318896,31.5085064 L27.5682378,33.3260763 C27.0482208,33.5644979 26.801189,34.2245572 27.0166964,34.8000784 C27.1792102,35.2345021 27.5585902,35.4968411 27.9586242,35.4968411 C28.0885265,35.4968411 28.2207389,35.4691631 28.3481953,35.4106483 L30.9132229,34.2344852 L30.9132229,41.5444767 L27.9582166,41.5444767 C27.500569,41.5444767 27.0990403,41.8823284 26.9763397,42.3704534 L26.05031,46.0571886 L25.4658854,46.0571886 C24.9029299,46.0571886 24.4467771,46.5623114 24.4467771,47.1853665 C24.4467771,47.8084216 24.9029299,48.3135445 25.4658854,48.3135445 L25.4835499,48.3135445 L20.1822845,69.4197987 C20.0314565,70.0201398 20.3488747,70.6419915 20.8911762,70.8089619 C21.4332059,70.9754809 21.9952102,70.6243919 22.1459023,70.0242013 L27.5990828,48.3135445 L30.9132229,48.3135445 L30.9132229,69.722 C30.9132229,70.3450551 31.3693758,70.850178 31.9323312,70.850178 C32.4952866,70.850178 32.9514395,70.3450551 32.9514395,69.722 L32.9514395,48.3133941 L36.2655796,48.3133941 L41.7187601,70.0240508 C41.8441783,70.5233072 42.2538599,70.8503284 42.7000934,70.8503284 C42.7904544,70.8503284 42.88231,70.8369407 42.9736221,70.8088114 C43.5159236,70.6418411 43.8333418,70.019839 43.6825138,69.4196483 L38.3812484,48.3133941 L38.3812484,48.3133941 Z M28.1661146,46.0570381 L28.7328747,43.8006822 L35.1323312,43.8006822 L35.6990913,46.0570381 L28.1661146,46.0570381 L28.1661146,46.0570381 Z" id="Shape"></path>
        </g>
    </g>
</svg>
