<?xml version="1.0" encoding="utf-8"?>
<!-- Generator: Adobe Illustrator 16.0.0, SVG Export Plug-In . SVG Version: 6.00 Build 0)  -->
<!DOCTYPE svg PUBLIC "-//W3C//DTD SVG 1.1//EN" "http://www.w3.org/Graphics/SVG/1.1/DTD/svg11.dtd">
<svg version="1.1" id="Layer_1" xmlns="http://www.w3.org/2000/svg" xmlns:xlink="http://www.w3.org/1999/xlink" x="0px" y="0px"
	 width="22px" height="33.681px" viewBox="0 0 22 33.681" enable-background="new 0 0 22 33.681" xml:space="preserve">
<g id="tdKKK0_1_">
	<g>
		<g>
			<path fill="#fff" d="M16.482,0.036c0.263,0,0.526,0,0.789,0c0.033,0.011,0.066,0.027,0.1,0.03c1.155,0.114,2.167,0.561,3.005,1.36
				c1.316,1.255,1.832,2.805,1.573,4.596c-0.164,1.132-0.699,2.089-1.51,2.898c-2.599,2.595-5.192,5.195-7.789,7.792
				c-0.05,0.05-0.115,0.085-0.181,0.133c0.083,0.086,0.13,0.138,0.18,0.188c2.608,2.611,5.22,5.218,7.823,7.833
				c1.236,1.242,1.722,2.75,1.483,4.478c-0.275,1.993-1.807,3.683-3.775,4.189c-0.344,0.089-0.702,0.125-1.053,0.185
				c-0.179,0-0.358,0-0.538,0c-0.045-0.011-0.091-0.027-0.137-0.031c-1.229-0.098-2.3-0.568-3.17-1.437
				C9.365,28.342,5.458,24.427,1.55,20.511c-0.707-0.708-1.173-1.556-1.376-2.54c-0.062-0.302-0.093-0.61-0.138-0.916
				c0-0.119,0-0.239,0-0.358c0.011-0.059,0.027-0.116,0.031-0.175c0.086-1.278,0.579-2.379,1.48-3.283
				C5.453,9.321,9.366,5.408,13.279,1.496c0.637-0.637,1.402-1.064,2.276-1.284C15.86,0.136,16.173,0.094,16.482,0.036z"/>
		</g>
	</g>
</g>
</svg>
