<?xml version="1.0" encoding="utf-8"?>
<!-- Generator: Adobe Illustrator 16.0.0, SVG Export Plug-In . SVG Version: 6.00 Build 0)  -->
<!DOCTYPE svg PUBLIC "-//W3C//DTD SVG 1.1//EN" "http://www.w3.org/Graphics/SVG/1.1/DTD/svg11.dtd">
<svg version="1.1" id="Layer_1" xmlns="http://www.w3.org/2000/svg" xmlns:xlink="http://www.w3.org/1999/xlink" x="0px" y="0px"
	 width="33.681px" height="22px" viewBox="0 0 33.681 22" enable-background="new 0 0 33.681 22" xml:space="preserve">
<g id="tdKKK0_1_">
	<g>
		<g>
			<path fill="#fff" d="M0.036,5.518c0-0.262,0-0.525,0-0.788c0.011-0.034,0.027-0.066,0.03-0.101c0.114-1.155,0.561-2.166,1.36-3.004
				c1.255-1.316,2.805-1.832,4.596-1.573c1.132,0.164,2.089,0.699,2.898,1.51c2.595,2.599,5.195,5.192,7.792,7.789
				c0.05,0.05,0.085,0.115,0.133,0.181c0.086-0.083,0.138-0.13,0.188-0.18c2.611-2.608,5.218-5.22,7.833-7.823
				c1.242-1.236,2.75-1.723,4.478-1.483c1.993,0.275,3.683,1.807,4.189,3.775c0.089,0.344,0.125,0.701,0.185,1.053
				c0,0.179,0,0.358,0,0.537c-0.011,0.046-0.027,0.091-0.031,0.138c-0.098,1.229-0.568,2.3-1.437,3.17
				c-3.907,3.917-7.823,7.824-11.738,11.732c-0.708,0.707-1.556,1.172-2.54,1.375c-0.302,0.063-0.61,0.093-0.916,0.139
				c-0.119,0-0.239,0-0.358,0c-0.059-0.011-0.116-0.027-0.175-0.031c-1.278-0.086-2.379-0.579-3.283-1.479
				C9.321,16.547,5.408,12.634,1.496,8.721C0.859,8.083,0.432,7.319,0.212,6.445C0.136,6.14,0.094,5.827,0.036,5.518z"/>
		</g>
	</g>
</g>
</svg>
