<?xml version="1.0" encoding="utf-8"?>
<!-- Generator: Adobe Illustrator 16.0.0, SVG Export Plug-In . SVG Version: 6.00 Build 0)  -->
<!DOCTYPE svg PUBLIC "-//W3C//DTD SVG 1.1//EN" "http://www.w3.org/Graphics/SVG/1.1/DTD/svg11.dtd">
<svg version="1.1" id="Layer_1" xmlns="http://www.w3.org/2000/svg" xmlns:xlink="http://www.w3.org/1999/xlink" x="0px" y="0px"
	 width="22px" height="33.681px" viewBox="0 0 22 33.681" enable-background="new 0 0 22 33.681" xml:space="preserve">
<g id="tdKKK0_1_">
	<g>
		<g>
			<path fill="#fff" d="M5.589,33.717c-0.262,0-0.525,0-0.788,0c-0.034-0.011-0.066-0.027-0.101-0.03c-1.155-0.114-2.166-0.561-3.004-1.36
				c-1.316-1.255-1.832-2.805-1.573-4.596c0.164-1.132,0.699-2.089,1.51-2.898c2.599-2.595,5.192-5.195,7.789-7.792
				c0.05-0.05,0.115-0.085,0.181-0.133c-0.083-0.086-0.13-0.138-0.18-0.188C6.815,14.11,4.204,11.503,1.6,8.888
				C0.364,7.646-0.123,6.138,0.117,4.41c0.275-1.993,1.807-3.683,3.775-4.189c0.344-0.089,0.701-0.125,1.053-0.185
				c0.179,0,0.358,0,0.537,0C5.528,0.046,5.573,0.063,5.62,0.067c1.229,0.098,2.3,0.568,3.17,1.437
				c3.917,3.907,7.824,7.823,11.732,11.738c0.707,0.708,1.172,1.556,1.375,2.54c0.063,0.302,0.093,0.61,0.139,0.916
				c0,0.119,0,0.239,0,0.358c-0.011,0.059-0.027,0.116-0.031,0.175c-0.086,1.278-0.579,2.379-1.479,3.283
				c-3.907,3.919-7.819,7.832-11.733,11.744c-0.637,0.637-1.401,1.064-2.276,1.284C6.212,33.617,5.899,33.659,5.589,33.717z"/>
		</g>
	</g>
</g>
</svg>
