<?xml version="1.0" encoding="utf-8"?>
<!-- Generator: Adobe Illustrator 16.0.0, SVG Export Plug-In . SVG Version: 6.00 Build 0)  -->
<!DOCTYPE svg PUBLIC "-//W3C//DTD SVG 1.1//EN" "http://www.w3.org/Graphics/SVG/1.1/DTD/svg11.dtd">
<svg version="1.1" id="Layer_1" xmlns="http://www.w3.org/2000/svg" xmlns:xlink="http://www.w3.org/1999/xlink" x="0px" y="0px"
	 width="27.953px" height="15.723px" viewBox="0 0 27.953 15.723" enable-background="new 0 0 27.953 15.723" xml:space="preserve">
<g>
	<path fill="#ffffff" id="SVGID_1_" d="M17.314,15.723v-1.568h10.639v1.568H17.314L17.314,15.723z M23.929,12.918l-1.397-6.701l-1.415,6.701
			h-1.849l-2.04-9.116h1.831l1.247,6.681l1.303-6.681h1.736l1.377,6.681l1.265-6.681h1.849l-2.058,9.116H23.929L23.929,12.918z M0,0
			h15.744v15.735H0V0L0,0z M4.664,12.785h1.851l1.416-6.699l1.397,6.699h1.849l2.058-9.116h-1.852l-1.262,6.681L8.742,3.669H7.005
			l-1.3,6.681L4.458,3.669H2.626L4.664,12.785L4.664,12.785z"/>
</g>
</svg>
