<?xml version="1.0" encoding="utf-8"?>
<!-- Generator: Adobe Illustrator 16.0.0, SVG Export Plug-In . SVG Version: 6.00 Build 0)  -->
<!DOCTYPE svg PUBLIC "-//W3C//DTD SVG 1.1//EN" "http://www.w3.org/Graphics/SVG/1.1/DTD/svg11.dtd">
<svg version="1.1" id="Layer_1" xmlns="http://www.w3.org/2000/svg" xmlns:xlink="http://www.w3.org/1999/xlink" x="0px" y="0px"
	 width="19px" height="15.417px" viewBox="0 0 19 15.417" enable-background="new 0 0 19 15.417" xml:space="preserve">
<g>
	<path fill="#ffffff" id="SVGID_1_" d="M16.799,2.374c0,0,0.584-0.039,1.143-0.179c0.51-0.128,1-0.357,1-0.357s-0.426,0.653-0.951,1.206
			c-0.393,0.413-0.852,0.763-1.01,0.878c-0.031-0.286-0.077-0.541-0.123-0.755c0.036,0.214,0.059,0.436,0.059,0.663
			c0,0.043-0.002,0.086-0.005,0.13l0.013,0.002c0,0,0.021-0.013,0.057-0.04c0.193,1.716-0.049,4.631-2.77,7.879
			c-1.277,1.525-4.177,3.486-7.714,3.583C2.027,15.509,0,13.622,0,13.622s1.608,0.224,3.09-0.179
			c1.372-0.372,2.622-1.375,2.622-1.375s-1.168-0.007-2.344-0.902c-0.864-0.66-1.244-1.811-1.244-1.811s0.548,0.069,0.999,0.03
			c0.411-0.033,0.732-0.173,0.732-0.173s-1.271-0.057-2.27-1.313C0.787,6.895,0.768,5.411,0.768,5.411s0.413,0.234,0.864,0.364
			c0.37,0.107,0.796,0.117,0.796,0.117s-1.334-0.921-1.571-2.69C0.688,1.94,1.303,0.749,1.303,0.749S3.121,2.708,5.194,3.73
			c1.825,0.9,3.868,1.007,4.174,1.018C9.294,4.454,9.256,4.146,9.256,3.83c0-2.114,1.714-3.83,3.83-3.83
			c1.122,0,2.132,0.484,2.833,1.254c0.179-0.038,0.688-0.15,1.199-0.349c0.643-0.245,1.287-0.62,1.287-0.62
			s-0.147,0.589-0.507,1.112C17.429,2.08,16.799,2.374,16.799,2.374L16.799,2.374z"/>
</g>
</svg>
