<?xml version="1.0" encoding="utf-8"?>
<!-- Generator: Adobe Illustrator 16.0.0, SVG Export Plug-In . SVG Version: 6.00 Build 0)  -->
<!DOCTYPE svg PUBLIC "-//W3C//DTD SVG 1.1//EN" "http://www.w3.org/Graphics/SVG/1.1/DTD/svg11.dtd">
<svg version="1.1" id="Layer_1" xmlns="http://www.w3.org/2000/svg" xmlns:xlink="http://www.w3.org/1999/xlink" x="0px" y="0px"
	 width="20.25px" height="14.375px" viewBox="0 0 20.25 14.375" enable-background="new 0 0 20.25 14.375" xml:space="preserve">
<g>
	<path fill="#00aeef" id="SVGID_1_" d="M20.198,5.519c0.005,0.402,0.01,0.964,0.01,1.681c0,0.716-0.005,1.277-0.01,1.683
			c-0.01,0.403-0.041,0.913-0.097,1.53c-0.056,0.614-0.14,1.165-0.252,1.649c-0.12,0.549-0.377,1.008-0.772,1.382
			c-0.398,0.373-0.859,0.59-1.39,0.648c-1.66,0.188-4.167,0.28-7.522,0.28c-3.356,0-5.863-0.092-7.52-0.28
			c-0.53-0.059-0.997-0.275-1.395-0.648c-0.4-0.374-0.661-0.833-0.78-1.382c-0.104-0.484-0.184-1.035-0.24-1.649
			C0.173,9.795,0.14,9.286,0.132,8.882C0.125,8.477,0.122,7.916,0.122,7.2c0-0.717,0.002-1.278,0.01-1.681
			c0.008-0.405,0.041-0.913,0.097-1.53S0.37,2.821,0.481,2.336C0.599,1.789,0.859,1.33,1.254,0.955
			c0.395-0.372,0.859-0.589,1.39-0.647c1.657-0.189,4.164-0.281,7.52-0.281c3.355,0,5.862,0.092,7.522,0.281
			c0.53,0.059,0.995,0.275,1.395,0.647c0.4,0.375,0.661,0.834,0.78,1.382c0.105,0.484,0.184,1.035,0.24,1.652
			S20.188,5.114,20.198,5.519L20.198,5.519z M14.468,7.2c0-0.275-0.112-0.479-0.336-0.604L8.394,3.007
			C8.162,2.857,7.92,2.851,7.665,2.984c-0.248,0.136-0.37,0.345-0.37,0.628v7.175c0,0.283,0.123,0.493,0.37,0.628
			c0.12,0.059,0.234,0.089,0.347,0.089c0.15,0,0.278-0.038,0.382-0.112l5.738-3.588C14.356,7.676,14.468,7.477,14.468,7.2
			L14.468,7.2z"/>
</g>
</svg>
