<?xml version="1.0" encoding="utf-8"?>
<!-- Generator: Adobe Illustrator 16.0.0, SVG Export Plug-In . SVG Version: 6.00 Build 0)  -->
<!DOCTYPE svg PUBLIC "-//W3C//DTD SVG 1.1//EN" "http://www.w3.org/Graphics/SVG/1.1/DTD/svg11.dtd">
<svg version="1.1" id="Layer_1" xmlns="http://www.w3.org/2000/svg" xmlns:xlink="http://www.w3.org/1999/xlink" x="0px" y="0px"
	 width="21.625px" height="12.417px" viewBox="0 0 21.625 12.417" enable-background="new 0 0 21.625 12.417" xml:space="preserve">
<g>
	<path fill="#00aeef" id="SVGID_1_" d="M10.375,0C9.699,0.005,8.539,0.005,7.807,0.248c-0.495,0.16-0.732,0.589-0.732,0.589S8.228,1.129,8.32,1.9
			c0.089,0.768,0.27,4.093-0.408,4.11C7.098,6.034,6.399,4.587,5.833,3.639C5.267,2.69,4.726,1.403,4.591,1.129
			C4.454,0.86,4.476,0.566,3.416,0.566c-1.063,0-2.058,0-2.44,0c-0.385,0-1.176,0.09-0.928,0.813
			c0.15,0.432,1.815,4.254,4.014,7.143c1.477,1.938,2.787,3.108,4.482,3.567c1.15,0.312,2.51,0.294,2.871,0.294
			c0.362,0,1.288-0.066,1.288-0.903c0-0.836,0.069-1.92,0.679-1.92s0.948,0.405,1.469,1.038c0.52,0.632,1.515,1.831,2.96,1.808
			c1.446-0.022,2.078-0.022,2.599-0.022s1.627-0.248,1.041-1.312c-0.316-0.57-1.095-1.443-1.91-2.271
			c-0.701-0.712-1.481-1.4-1.481-1.703c0-0.656,0.204-0.837,0.565-1.268c0.362-0.429,2.553-3.274,2.757-3.887
			c0.204-0.609,0.587-1.354-0.679-1.354c-1.265,0-2.644-0.046-3.23-0.046c-0.589,0-0.905,0.089-1.176,0.609
			c-0.122,0.234-0.525,1.32-1.104,2.379c-0.699,1.277-1.614,2.532-2.061,2.458c-0.813-0.138-0.541-2.262-0.541-2.601
			s0.089-1.13,0.089-1.647C12.679,1.221,12.973-0.023,10.375,0L10.375,0z"/>
</g>
</svg>
