<?xml version="1.0" encoding="utf-8"?>
<!-- Generator: Adobe Illustrator 16.0.0, SVG Export Plug-In . SVG Version: 6.00 Build 0)  -->
<!DOCTYPE svg PUBLIC "-//W3C//DTD SVG 1.1//EN" "http://www.w3.org/Graphics/SVG/1.1/DTD/svg11.dtd">
<svg version="1.1" id="Layer_1" xmlns="http://www.w3.org/2000/svg" xmlns:xlink="http://www.w3.org/1999/xlink" x="0px" y="0px"
	 width="244px" height="41px" viewBox="0 0 244 41" enable-background="new 0 0 244 41" xml:space="preserve">
<g fill="#00aeef">
	<path id="SVGID_1_" d="M14.827,7.142c1.95-3.746,7.001-6.809,11.221-6.809h212.797c4.225,0,6.078,3.062,4.133,6.809
			l-13.889,26.653c-1.951,3.742-6.996,6.804-11.217,6.804H5.07c-4.22,0-6.079-3.062-4.128-6.804"/>
</g>
<g fill="#ffffff">
	<path id="SVGID_3_" d="M53.783,14.948l-1.095,1.792c-0.139,0.218-0.462,0.402-0.718,0.402H37.142c-0.256,0-0.574,0.18-0.713,0.403
			l-0.734,1.233c-0.126,0.223-0.03,0.403,0.23,0.403h14.82c0.256,0,0.356,0.185,0.222,0.402l-1.078,1.77
			c-0.134,0.223-0.458,0.403-0.718,0.403h-14.82c-0.26,0-0.579,0.18-0.717,0.402l-2.329,3.826c-0.138,0.223-0.461,0.403-0.717,0.403
			h-6.125c-0.26,0-0.361-0.18-0.227-0.403l5.764-9.488c0.134-0.227,0.088-0.542-0.109-0.713l-1.066-0.923
			c-0.197-0.172-0.142-0.311,0.122-0.311h24.61C53.82,14.549,53.921,14.729,53.783,14.948L53.783,14.948z M71.761,24.214
			l-1.065,1.77c-0.134,0.223-0.457,0.403-0.713,0.403H52.335c-0.26,0-0.361-0.18-0.227-0.403l5.764-9.488
			c0.134-0.227,0.084-0.542-0.113-0.713l-1.057-0.923c-0.201-0.172-0.151-0.311,0.109-0.311h8.855c0.26,0,0.361,0.181,0.227,0.399
			l-5.172,8.465c-0.134,0.218-0.034,0.398,0.227,0.398h10.587C71.794,23.811,71.895,23.996,71.761,24.214L71.761,24.214z
			 M130.575,14.948l-1.099,1.787c-0.134,0.223-0.461,0.403-0.721,0.403h-14.815c-0.265,0-0.587,0.18-0.722,0.398l-3.578,5.873
			c-0.134,0.218-0.029,0.398,0.227,0.398h7.756c0.264,0,0.579-0.18,0.717-0.398l1.162-1.95c0.134-0.214,0.029-0.398-0.227-0.398
			h-2.907c-0.26,0-0.361-0.185-0.231-0.403l0.701-1.153c0.134-0.222,0.453-0.402,0.713-0.402h9.946c0.256,0,0.365,0.18,0.235,0.402
			l-2.211,3.712c-0.134,0.227-0.335,0.596-0.453,0.827c0,0-0.52,1.057-1.862,1.804c-1.037,0.57-2.853,0.549-2.853,0.549
			c-0.256-0.008-0.68-0.012-0.939-0.012h-18.159c-0.264,0-0.356-0.181-0.227-0.403l5.768-9.488c0.13-0.222,0.08-0.537-0.109-0.708
			l-1.069-0.932c-0.193-0.167-0.147-0.311,0.117-0.311h24.619C130.608,14.541,130.709,14.726,130.575,14.948L130.575,14.948z
			 M219.571,18.019c-0.139,0.218-0.357,0.578-0.492,0.801l-4.328,7.165c-0.139,0.223-0.461,0.403-0.717,0.403h-6.125
			c-0.26,0-0.361-0.18-0.227-0.403l5.152-8.461c0.133-0.222,0.029-0.402-0.227-0.402h-7.777c-0.26,0-0.584,0.18-0.717,0.402
			l-5.174,8.461c-0.133,0.223-0.457,0.403-0.717,0.403H192.1c-0.262,0-0.357-0.18-0.223-0.403l5.768-9.488
			c0.129-0.227,0.08-0.542-0.113-0.713l-1.066-0.923c-0.197-0.172-0.143-0.311,0.117-0.311h19.342c0.256,0,0.684,0.004,0.945,0.004
			c0,0,1.92,0.029,2.549,1.405C220.028,17.28,219.571,18.019,219.571,18.019L219.571,18.019z M192.641,18.019
			c-0.139,0.218-0.361,0.578-0.496,0.801l-4.328,7.165c-0.135,0.223-0.252,0.403-0.256,0.403s-0.223,0-0.479,0h-6.104
			c-0.26,0-0.479,0-0.486,0c-0.004,0,0.105-0.18,0.238-0.403l1.9-3.138c0.139-0.23,0.033-0.407-0.227-0.407h-7.756
			c-0.26,0-0.582,0.176-0.713,0.398l-1.926,3.146c-0.139,0.223-0.246,0.403-0.246,0.403s-0.211,0-0.467,0h-6.123
			c-0.262,0-0.365-0.18-0.232-0.403l5.764-9.488c0.139-0.227,0.084-0.542-0.109-0.713l-1.061-0.923
			c-0.201-0.172-0.146-0.311,0.117-0.311h19.342c0.256,0,0.68,0.004,0.939,0.004c0,0,1.926,0.029,2.555,1.405
			C193.094,17.28,192.641,18.019,192.641,18.019L192.641,18.019z M185.631,17.142h-7.748c-0.256,0-0.578,0.18-0.713,0.403
			l-1.18,1.92c-0.129,0.219-0.033,0.403,0.227,0.403h7.766c0.256,0,0.578-0.185,0.713-0.403l1.162-1.92
			C185.993,17.322,185.891,17.142,185.631,17.142L185.631,17.142z M101.749,18.019c-0.139,0.218-0.357,0.578-0.491,0.801
			l-4.333,7.165c-0.134,0.223-0.248,0.403-0.256,0.403c-0.004,0-0.222,0-0.482,0h-6.099c-0.26,0-0.479,0-0.482,0
			c-0.004,0,0.104-0.18,0.235-0.403l1.904-3.138c0.134-0.23,0.029-0.407-0.23-0.407h-7.756c-0.264,0-0.583,0.176-0.717,0.398
			l-1.921,3.146c-0.134,0.223-0.243,0.403-0.243,0.403c0,0-0.214,0-0.47,0h-6.128c-0.256,0-0.356-0.18-0.227-0.403l5.768-9.488
			c0.139-0.227,0.084-0.542-0.109-0.713l-1.065-0.923c-0.197-0.172-0.143-0.311,0.113-0.311h19.346c0.264,0,0.684,0.004,0.939,0.004
			c0,0,1.925,0.029,2.555,1.405C102.21,17.28,101.749,18.019,101.749,18.019L101.749,18.019z M94.74,17.142h-7.744
			c-0.26,0-0.579,0.18-0.717,0.403l-1.174,1.92c-0.134,0.219-0.034,0.403,0.222,0.403h7.765c0.256,0,0.583-0.185,0.717-0.403
			l1.162-1.92C95.104,17.322,95.004,17.142,94.74,17.142L94.74,17.142z M165.522,18.019c-0.139,0.218-0.357,0.578-0.496,0.801
			l-4.324,7.165c-0.139,0.223-0.457,0.403-0.717,0.403h-6.121c-0.264,0-0.486,0-0.502,0c-0.018,0,0.08-0.18,0.213-0.403l5.156-8.461
			c0.129-0.222,0.029-0.402-0.23-0.402h-4.66c-0.262,0-0.584,0.18-0.719,0.402l-5.151,8.461c-0.13,0.223-0.252,0.403-0.269,0.403
			c-0.013,0-0.235,0-0.495,0h-6.124c-0.26,0-0.361-0.18-0.222-0.403l5.134-8.461c0.134-0.222,0.034-0.402-0.222-0.402h-4.552
			c-0.26,0-0.583,0.18-0.717,0.402l-5.172,8.461c-0.138,0.223-0.457,0.403-0.721,0.403h-6.116c-0.26,0-0.365-0.18-0.23-0.403
			l5.768-9.488c0.134-0.227,0.084-0.542-0.113-0.713l-1.065-0.923c-0.197-0.172-0.138-0.311,0.118-0.311h28.228
			c0.256,0,0.619,0,0.812,0c0.186,0,0.551,0.004,0.811,0.004c0,0,1.92,0.029,2.555,1.405
			C165.975,17.28,165.522,18.019,165.522,18.019L165.522,18.019z"/>
</g>
</svg>
