<?xml version="1.0" encoding="utf-8"?>
<!-- Generator: Adobe Illustrator 16.0.0, SVG Export Plug-In . SVG Version: 6.00 Build 0)  -->
<!DOCTYPE svg PUBLIC "-//W3C//DTD SVG 1.1//EN" "http://www.w3.org/Graphics/SVG/1.1/DTD/svg11.dtd">
<svg version="1.1" id="Layer_1" xmlns="http://www.w3.org/2000/svg" xmlns:xlink="http://www.w3.org/1999/xlink" x="0px" y="0px"
	 width="13.25px" height="13.25px" viewBox="0 0 13.25 13.25" enable-background="new 0 0 13.25 13.25" xml:space="preserve">
<g fill="#ffffff">
	<path id="SVGID_1_" d="M13.171,12.157c0,0.272-0.101,0.512-0.298,0.713c-0.205,0.201-0.44,0.298-0.713,0.298
			c-0.285,0-0.524-0.097-0.713-0.298l-2.714-2.71c-0.948,0.654-1.997,0.981-3.158,0.981c-0.756,0-1.477-0.147-2.165-0.437
			c-0.688-0.293-1.284-0.692-1.782-1.191c-0.5-0.495-0.894-1.091-1.188-1.779C0.146,7.047,0,6.326,0,5.571s0.146-1.477,0.44-2.165
			c0.294-0.692,0.688-1.284,1.188-1.783C2.126,1.128,2.723,0.729,3.41,0.436C4.099,0.143,4.819,0,5.575,0
			C6.33,0,7.052,0.143,7.739,0.436s1.283,0.692,1.778,1.188c0.499,0.499,0.894,1.091,1.188,1.783c0.294,0.688,0.44,1.41,0.44,2.165
			c0,1.157-0.327,2.21-0.981,3.158l2.714,2.714C13.075,11.636,13.171,11.875,13.171,12.157L13.171,12.157z M8.079,8.075
			c0.691-0.696,1.04-1.526,1.04-2.504s-0.349-1.812-1.04-2.504C7.387,2.37,6.552,2.026,5.575,2.026
			c-0.978,0-1.812,0.344-2.505,1.041C2.374,3.759,2.03,4.593,2.03,5.571s0.344,1.808,1.04,2.504
			c0.692,0.696,1.527,1.041,2.505,1.041C6.552,9.115,7.387,8.771,8.079,8.075L8.079,8.075z"/>
</g>
</svg>
