<?xml version="1.0" encoding="iso-8859-1"?>
<!-- Generator: Adobe Illustrator 16.0.0, SVG Export Plug-In . SVG Version: 6.00 Build 0)  -->
<!DOCTYPE svg PUBLIC "-//W3C//DTD SVG 1.1//EN" "http://www.w3.org/Graphics/SVG/1.1/DTD/svg11.dtd">
<svg version="1.1" id="Layer_1" xmlns="http://www.w3.org/2000/svg" xmlns:xlink="http://www.w3.org/1999/xlink" x="0px" y="0px"
	 width="91.397px" height="99.5px" viewBox="0 0 91.397 99.5" style="enable-background:new 0 0 91.397 99.5;" xml:space="preserve"
	>
<g>
	<defs>
		<rect id="SVGID_1_" width="91.398" height="99.5"/>
	</defs>
	<clipPath id="SVGID_2_">
		<use xlink:href="#SVGID_1_"  style="overflow:visible;"/>
	</clipPath>
	<path style="clip-path:url(#SVGID_2_);fill:none;stroke:#FFFFFF;stroke-width:3;stroke-miterlimit:10;" d="M50.155,88.391
		l8.143,0.001l0.938-4.369c1.766-0.377,3.476-0.901,5.122-1.553l2.969,3.287l8.771-5.063l-1.521-4.709
		c1.193-1.119,2.301-2.325,3.313-3.611l4.709,1.521l5.065-8.77l-4.123-3.726c0.402-1.383,0.721-2.8,0.934-4.252l5.42-1.161
		l0.003-10.127l-6.009-1.286c-0.307-1.253-0.688-2.478-1.138-3.668l4.509-4.073l-5.063-8.77l-6.235,2.013
		c-0.803-0.847-1.648-1.651-2.535-2.407l1.973-6.11l-8.77-5.065l-4.457,4.936c-1.086-0.342-2.197-0.629-3.328-0.856l-1.354-6.311
		h-7.335"/>
	<path style="clip-path:url(#SVGID_2_);fill:none;stroke:#FFFFFF;stroke-width:3;stroke-miterlimit:10;" d="M50.155,35.497
		c0.745-0.1,1.5-0.169,2.272-0.169c9.396,0,17.012,7.616,17.012,17.012s-7.616,17.012-17.012,17.012
		c-0.772,0-1.527-0.069-2.272-0.169"/>
	<path style="clip-path:url(#SVGID_2_);fill:none;stroke:#FFFFFF;stroke-width:3;stroke-linejoin:round;" d="M50.516,94.938
		c0,1.69-1.371,3.062-3.063,3.062H4.564C2.873,98,1.5,96.629,1.5,94.938V4.565C1.5,2.873,2.873,1.5,4.564,1.5h42.888
		c1.692,0,3.063,1.373,3.063,3.065V94.938z"/>
	<path style="clip-path:url(#SVGID_2_);fill:none;stroke:#FFFFFF;stroke-miterlimit:10;" d="M43.551,81.214H8.465V17.521h35.086
		V81.214z M46.551,14.521H5.465v69.693h41.086V14.521z"/>
	
		<line style="clip-path:url(#SVGID_2_);fill:none;stroke:#FFFFFF;stroke-width:3;stroke-linejoin:round;" x1="17.82" y1="8.344" x2="34.195" y2="8.344"/>
	
		<line style="clip-path:url(#SVGID_2_);fill:none;stroke:#FFFFFF;stroke-width:3;stroke-linejoin:round;" x1="24.508" y1="90.012" x2="27.508" y2="90.012"/>
	
		<circle style="clip-path:url(#SVGID_2_);fill:none;stroke:#FFFFFF;stroke-width:3;stroke-linejoin:round;" cx="26.009" cy="41.276" r="12.667"/>
	
		<line style="clip-path:url(#SVGID_2_);fill:none;stroke:#FFFFFF;stroke-width:3;" x1="26.008" y1="35.979" x2="26.008" y2="46.574"/>
	
		<line style="clip-path:url(#SVGID_2_);fill:none;stroke:#FFFFFF;stroke-width:3;" x1="31.307" y1="41.275" x2="20.71" y2="41.275"/>
	
		<line style="clip-path:url(#SVGID_2_);fill:none;stroke:#FFFFFF;stroke-width:3;" x1="10.062" y1="77.474" x2="15.729" y2="77.474"/>
	
		<line style="clip-path:url(#SVGID_2_);fill:none;stroke:#FFFFFF;stroke-width:3;" x1="18.729" y1="77.474" x2="24.395" y2="77.474"/>
	
		<line style="clip-path:url(#SVGID_2_);fill:none;stroke:#FFFFFF;stroke-width:3;" x1="27.395" y1="77.474" x2="33.062" y2="77.474"/>
	
		<line style="clip-path:url(#SVGID_2_);fill:none;stroke:#FFFFFF;stroke-width:3;" x1="36.061" y1="77.474" x2="41.729" y2="77.474"/>
</g>
</svg>
