<?xml version="1.0" encoding="iso-8859-1"?>
<!-- Generator: Adobe Illustrator 16.0.0, SVG Export Plug-In . SVG Version: 6.00 Build 0)  -->
<!DOCTYPE svg PUBLIC "-//W3C//DTD SVG 1.1//EN" "http://www.w3.org/Graphics/SVG/1.1/DTD/svg11.dtd">
<svg version="1.1" id="Layer_1" xmlns="http://www.w3.org/2000/svg" xmlns:xlink="http://www.w3.org/1999/xlink" x="0px" y="0px"
	 width="96.631px" height="96.629px" viewBox="0 0 96.631 96.629" style="enable-background:new 0 0 96.631 96.629;"
	 xml:space="preserve">
<g>
	<defs>
		<rect id="SVGID_1_" width="96.631" height="96.629"/>
	</defs>
	<clipPath id="SVGID_2_">
		<use xlink:href="#SVGID_1_"  style="overflow:visible;"/>
	</clipPath>
	<path style="clip-path:url(#SVGID_2_);fill:none;stroke:#484F59;stroke-width:3;stroke-miterlimit:10;" d="M95.129,54.199
		l0.002-12.792l-7.587-1.624c-0.39-1.583-0.87-3.128-1.438-4.634l5.694-5.143l-6.395-11.077l-7.876,2.545
		c-1.013-1.072-2.082-2.088-3.204-3.043l2.493-7.715L65.742,4.318l-5.629,6.232c-1.372-0.432-2.775-0.793-4.204-1.08L54.201,1.5
		H41.41l-1.707,7.97c-1.517,0.303-3.002,0.697-4.454,1.165l-5.245-5.803l-11.075,6.393l2.334,7.224
		c-1.306,1.115-2.548,2.304-3.705,3.572l-6.842-2.21L4.321,30.89l5.062,4.572c-0.668,1.817-1.208,3.697-1.615,5.626l-6.265,1.343
		L1.5,55.221L7.467,56.5c0.368,2.163,0.904,4.267,1.598,6.3L4.83,66.626l6.397,11.077l5.306-1.715
		c1.493,1.769,3.134,3.408,4.904,4.901l-1.624,5.025l11.075,6.394l3.621-4.006c2.197,0.754,4.475,1.335,6.825,1.706l1.097,5.118
		l12.791,0.002l1.183-5.517c2.23-0.479,4.391-1.139,6.471-1.965l3.75,4.153l11.077-6.394l-1.92-5.95
		c1.505-1.412,2.904-2.936,4.184-4.561l5.948,1.923l6.399-11.077l-5.209-4.706c0.507-1.745,0.909-3.536,1.181-5.369L95.129,54.199z"
		/>
	<path style="clip-path:url(#SVGID_2_);fill:none;stroke:#484F59;stroke-width:3;stroke-miterlimit:10;" d="M48.316,74.146
		c-14.266,0-25.831-11.562-25.831-25.829c0-14.268,11.565-25.835,25.831-25.835c14.269,0,25.832,11.567,25.832,25.835
		C74.148,62.583,62.585,74.146,48.316,74.146z"/>
	<path style="clip-path:url(#SVGID_2_);fill:#484F59;" d="M52.971,30.425l-4.191,13.762h11.199L43.662,66.205l4.191-13.76H36.654
		L52.971,30.425z M60.9,14.686l-10.34,13.953l-16.317,22.02l-3.547,4.787h5.957h7.149l-3.011,9.887l-5.06,16.613l10.34-13.954
		l16.317-22.017l3.547-4.787h-5.957H52.83l3.01-9.888L60.9,14.686z"/>
</g>
</svg>
