<?xml version="1.0" encoding="iso-8859-1"?>
<!-- Generator: Adobe Illustrator 16.0.0, SVG Export Plug-In . SVG Version: 6.00 Build 0)  -->
<!DOCTYPE svg PUBLIC "-//W3C//DTD SVG 1.1//EN" "http://www.w3.org/Graphics/SVG/1.1/DTD/svg11.dtd">
<svg version="1.1" id="Layer_1" xmlns="http://www.w3.org/2000/svg" xmlns:xlink="http://www.w3.org/1999/xlink" x="0px" y="0px"
	 width="22.536px" height="22.651px" viewBox="0 0 22.536 22.651" style="enable-background:new 0 0 22.536 22.651;"
	 xml:space="preserve">
<g>
	<defs>
		<rect id="SVGID_1_" y="0" width="22.536" height="22.652"/>
	</defs>
	<clipPath id="SVGID_2_">
		<use xlink:href="#SVGID_1_"  style="overflow:visible;"/>
	</clipPath>
	<path fill="#252525" style="clip-path:url(#SVGID_2_);" d="M14.074,16.924c4.666,0,8.462-3.796,8.462-8.462S18.74,0,14.074,0
		C9.408,0,5.612,3.796,5.612,8.462S9.408,16.924,14.074,16.924 M6.458,8.462c0-4.199,3.417-7.616,7.616-7.616
		s7.615,3.417,7.615,7.616c0,4.199-3.416,7.616-7.615,7.616S6.458,12.661,6.458,8.462"/>
	<path fill="#252525" style="clip-path:url(#SVGID_2_);" d="M19.804,6.955c-0.683-2.6-3.039-4.416-5.729-4.416c-1.04,0-2.064,0.274-2.961,0.791
		c-0.135,0.079-0.211,0.221-0.211,0.367c0,0.072,0.018,0.145,0.057,0.212c0.117,0.202,0.376,0.271,0.578,0.154
		c0.768-0.443,1.645-0.678,2.537-0.678c2.307,0,4.325,1.556,4.911,3.785c0.06,0.226,0.291,0.361,0.517,0.301
		C19.728,7.413,19.863,7.18,19.804,6.955"/>
	<path fill="#252525" style="clip-path:url(#SVGID_2_);" d="M3.161,22.185l4.857-4.857c0.478-0.478,0.478-1.316,0-1.795L7.12,14.635
		c-0.495-0.495-1.3-0.495-1.795,0l-4.856,4.856C0.175,19.784,0,20.235,0,20.696c0,0.229,0.044,0.449,0.129,0.637l0.032,0.072
		l1.086,1.086l0.072,0.032C1.901,22.783,2.71,22.635,3.161,22.185 M1.727,21.774l-0.849-0.849c-0.08-0.261,0.007-0.654,0.189-0.836
		l4.856-4.857c0.165-0.165,0.434-0.165,0.599,0l0.898,0.898c0.079,0.078,0.123,0.186,0.123,0.299c0,0.114-0.044,0.22-0.123,0.299
		l-4.857,4.857C2.373,21.775,1.993,21.857,1.727,21.774"/>
</g>
</svg>
