<?xml version="1.0" encoding="iso-8859-1"?>
<!-- Generator: Adobe Illustrator 16.0.0, SVG Export Plug-In . SVG Version: 6.00 Build 0)  -->
<!DOCTYPE svg PUBLIC "-//W3C//DTD SVG 1.1//EN" "http://www.w3.org/Graphics/SVG/1.1/DTD/svg11.dtd">
<svg version="1.1" id="Layer_1" xmlns="http://www.w3.org/2000/svg" xmlns:xlink="http://www.w3.org/1999/xlink" x="0px" y="0px"
	 width="152.697px" height="36.591px" viewBox="0 0 152.697 36.591" style="enable-background:new 0 0 152.697 36.591;"
	 xml:space="preserve">
<g>
	<defs>
		<rect id="SVGID_1_" y="0" width="152.697" height="36.591"/>
	</defs>
	<clipPath id="SVGID_2_">
		<use xlink:href="#SVGID_1_"  style="overflow:visible;"/>
	</clipPath>
	<path style="clip-path:url(#SVGID_2_);fill:#6d6d6d;" d="M0,27.832c0-4.467,1.938-7.267,6.879-8.014
		c2.814-0.432,5.901-0.545,9.061-0.675c0-3.547-1.551-5.328-5.443-5.328c-3.058,0-6.275,0.316-8.889,0.647l-0.445-3.993
		c2.757-0.459,6.103-0.933,9.852-0.933c5.629,0,10.267,1.536,10.267,8.056v11.273c0,1.681-0.071,3.145-0.215,4.697
		C18.209,35.169,14.403,35.8,9.636,35.8C2.713,35.8,0,33.087,0,27.832 M15.94,22.705c-2.255,0.086-4.868,0.129-6.95,0.617
		c-2.657,0.618-3.605,1.436-3.605,4.423c0,3.202,1.781,3.979,5.055,3.979c1.666,0,3.733-0.13,5.342-0.876
		c0.115-1.034,0.158-2.283,0.158-3.433V22.705z"/>
	<path style="clip-path:url(#SVGID_2_);fill:#6d6d6d;" d="M27.633,0h5.472v28.592c0,2.354,0.531,3.978,1.866,5.744l-4.753,2.255
		c-1.68-1.91-2.585-4.207-2.585-7.755V0z"/>
	<path style="clip-path:url(#SVGID_2_);fill:#6d6d6d;" d="M55.91,9.88h5.442v18.984c0,1.681-0.071,3.146-0.215,4.696
		c-2.901,1.422-6.678,2.24-11.503,2.24c-8.976,0-9.88-4.208-9.88-9.521V9.88h5.457v15.811c0,4.078,0.704,5.803,5.917,5.803
		c1.622,0,3.518-0.288,4.624-0.862c0.114-1.033,0.158-2.283,0.158-3.433V9.88z"/>
	<path style="clip-path:url(#SVGID_2_);fill:#6d6d6d;" d="M84.678,14.461c-1.422-0.259-2.93-0.532-4.437-0.532
		c-6.736,0-7.382,1.853-7.382,8.488c0,6.276,0.273,8.903,7.411,8.903c1.479,0,2.929-0.272,4.395-0.561l0.488,4.151
		c-2.168,0.502-4.739,0.89-7.942,0.89c-8.53,0-9.894-6.448-9.894-13.384c0-8.373,1.939-12.882,11.301-12.882
		c2.7,0,4.768,0.388,6.492,0.89L84.678,14.461z"/>
	<path style="clip-path:url(#SVGID_2_);fill:#6d6d6d;" d="M100.722,35.8c-8.373,0-11.388-3.561-11.388-13.14
		c0-9.563,3.015-13.125,11.388-13.125c8.372,0,11.389,3.719,11.389,13.125C112.11,32.082,109.094,35.8,100.722,35.8 M100.722,31.464
		c4.624,0,5.916-2.024,5.916-8.804c0-6.763-1.292-8.788-5.916-8.788s-5.888,1.738-5.888,8.788
		C94.834,29.727,96.098,31.464,100.722,31.464"/>
	<path style="clip-path:url(#SVGID_2_);fill:#6d6d6d;" d="M138.105,35.457h-5.457V19.646c0-3.834-0.919-5.788-5.055-5.788
		c-1.292,0-2.972,0.36-3.92,0.848c-0.115,1.033-0.158,2.283-0.158,3.432v17.319h-5.442V16.472c0-1.68,0.071-3.145,0.215-4.696
		c2.715-1.336,6.664-2.24,10.642-2.24c2.944,0,4.969,0.603,6.348,1.608c2.384-0.962,5.342-1.608,8.242-1.608
		c7.999,0,9.178,4.351,9.178,9.521v16.399h-5.457V19.646c0-3.834-0.919-5.788-5.056-5.788c-1.178,0-3.059,0.33-4.496,1.121
		c0.317,1.249,0.417,2.627,0.417,4.078V35.457z"/>
</g>
</svg>
