<?xml version="1.0" encoding="iso-8859-1"?>
<!-- Generator: Adobe Illustrator 16.0.0, SVG Export Plug-In . SVG Version: 6.00 Build 0)  -->
<!DOCTYPE svg PUBLIC "-//W3C//DTD SVG 1.1//EN" "http://www.w3.org/Graphics/SVG/1.1/DTD/svg11.dtd">
<svg version="1.1" id="Layer_1" xmlns="http://www.w3.org/2000/svg" xmlns:xlink="http://www.w3.org/1999/xlink" x="0px" y="0px"
	 width="313.444px" height="40.176px" viewBox="0 0 313.444 40.176" style="enable-background:new 0 0 313.444 40.176;"
	 xml:space="preserve">
<g>
	<defs>
		<rect id="SVGID_1_" width="313.444" height="40.176"/>
	</defs>
	<clipPath id="SVGID_2_">
		<use xlink:href="#SVGID_1_"  style="overflow:visible;"/>
	</clipPath>
	<path style="clip-path:url(#SVGID_2_);fill:#666666;" d="M36.64,10.942c0-1.048-0.164-2.096-0.616-3.078
		c2.602,3.385,4.153,7.621,4.153,12.224c0,0.602-0.032,1.191-0.083,1.779H18.858l1.525-7.537c0.592-2.71,1.1-5.334,2.795-7.283
		c1.777-2.03,3.301-2.114,3.809-2.114c1.609,0,2.202,0.931,2.202,1.606c0,0.424-0.17,0.931-0.847,1.948
		c-0.508,0.679-1.101,1.524-1.101,3.218c0,2.711,2.032,4.489,4.488,4.489C34.015,16.194,36.64,14.754,36.64,10.942 M36.442,23.306
		H18.604L15.442,39.63c1.492,0.353,3.046,0.546,4.647,0.546c0.689,0,1.369-0.034,2.039-0.103
		C22.132,31.604,28.332,24.588,36.442,23.306 M10.051,13.992c1.101-2.709,2.372-4.826,4.573-6.69
		c3.641-3.132,8.13-4.063,11.686-4.063c1.27,0,4.234,0.084,6.689,1.522c0.081,0.045,0.153,0.092,0.23,0.138
		C29.706,1.848,25.115,0,20.089,0C8.994,0,0,8.993,0,20.088c0,0.602,0.031,1.191,0.083,1.779h7.852
		C8.358,19.496,9.036,16.532,10.051,13.992 M0.26,23.306c0.666,4.125,2.587,7.829,5.359,10.709l2.062-10.709H0.26z"/>
	<path style="clip-path:url(#SVGID_2_);fill:#191919;" d="M72.899,16.065c-0.971-1.209-1.896-2.243-2.772-3.096
		c-0.878-0.857-1.732-1.483-2.563-1.889c-0.403-0.189-1.131-0.349-2.185-0.481c-1.057-0.13-2.283-0.196-3.682-0.196
		c-0.238,0-0.51,0.007-0.818,0.019c-0.309,0.012-0.606,0.023-0.889,0.035c-0.285,0.012-0.551,0.025-0.8,0.036
		c-0.249,0.013-0.433,0.016-0.551,0.016c-0.024,0.144-0.055,0.289-0.088,0.43c-0.037,0.142-0.067,0.307-0.09,0.498
		c-0.024,0.192-0.048,0.431-0.072,0.729c-0.024,0.297-0.047,0.659-0.071,1.085c-0.041,0.831-0.072,1.74-0.092,2.725
		c-0.022,0.985-0.031,1.916-0.031,2.795v2.279v1.104h0.639c0.38,0,0.801-0.013,1.264-0.037c0.461-0.022,0.941-0.052,1.439-0.088
		c0.498-0.035,0.914-0.089,1.246-0.161c0.853-0.19,1.528-0.438,2.026-0.748c0.497-0.308,0.889-0.674,1.174-1.104
		c0.285-0.428,0.487-0.895,0.604-1.405c0.119-0.509,0.226-1.065,0.321-1.655h0.427v11.465h-0.427
		c-0.189-0.763-0.463-1.563-0.819-2.405c-0.355-0.84-0.783-1.489-1.28-1.943c-0.45-0.4-0.93-0.703-1.439-0.905
		c-0.512-0.201-1.11-0.325-1.796-0.375c-0.356-0.023-0.665-0.04-0.926-0.052c-0.262-0.011-0.509-0.018-0.745-0.018h-0.747h-0.961
		v2.28v2.133c0,0.666,0.009,1.278,0.031,1.835c0.02,0.558,0.03,1.039,0.03,1.442c0.024,0.759,0.066,1.476,0.125,2.154
		c0.058,0.674,0.196,1.181,0.41,1.513c0.213,0.334,0.573,0.587,1.083,0.764c0.51,0.178,1.251,0.291,2.224,0.338v0.357h-11.37v-0.357
		c0.591-0.093,1.143-0.249,1.652-0.46c0.51-0.215,0.932-0.511,1.265-0.891c0.117-0.144,0.211-0.35,0.284-0.623
		c0.07-0.275,0.134-0.59,0.193-0.944c0.061-0.357,0.102-0.729,0.126-1.122c0.023-0.391,0.037-0.775,0.037-1.157
		c0-0.33,0.004-0.784,0.015-1.352c0.01-0.569,0.02-1.193,0.031-1.87c0.01-0.675,0.015-1.372,0.015-2.084v-2.063v-6.943
		c0-0.426-0.007-0.866-0.018-1.318c-0.012-0.45-0.036-0.877-0.071-1.281c-0.036-0.403-0.095-0.766-0.178-1.085
		c-0.083-0.321-0.195-0.552-0.336-0.695c-0.356-0.381-0.736-0.623-1.14-0.731c-0.403-0.106-0.923-0.208-1.563-0.302V9.907h19.796
		l2.419,5.98L72.899,16.065z"/>
	<path style="clip-path:url(#SVGID_2_);fill:#191919;" d="M101.349,27.835c-0.711,1.609-1.676,3.01-2.894,4.192
		c-1.219,1.188-2.639,2.1-4.26,2.738c-1.621,0.641-3.343,0.96-5.166,0.96c-1.799,0-3.502-0.313-5.112-0.941
		c-1.611-0.628-3.018-1.516-4.224-2.668c-1.208-1.147-2.16-2.522-2.859-4.122c-0.698-1.602-1.047-3.36-1.047-5.278
		c0-2.039,0.367-3.871,1.1-5.494c0.734-1.626,1.722-2.999,2.966-4.122c1.241-1.126,2.698-1.992,4.365-2.596
		c1.668-0.606,3.426-0.908,5.273-0.908c2.011,0,3.815,0.356,5.414,1.068c1.596,0.712,2.951,1.664,4.065,2.863
		c1.113,1.194,1.965,2.575,2.556,4.138c0.591,1.567,0.887,3.202,0.887,4.907C102.413,24.469,102.058,26.222,101.349,27.835
		 M97.456,18.22c-0.366-1.469-0.923-2.803-1.667-4.002c-0.746-1.196-1.674-2.168-2.785-2.915c-1.113-0.749-2.425-1.12-3.939-1.12
		c-1.538,0-2.869,0.371-3.992,1.12c-1.123,0.747-2.047,1.715-2.768,2.899c-0.722,1.187-1.254,2.53-1.597,4.035
		c-0.344,1.507-0.514,3.03-0.514,4.57c0,1.615,0.189,3.169,0.567,4.661c0.377,1.493,0.941,2.809,1.686,3.947
		c0.744,1.139,1.679,2.05,2.803,2.738c1.124,0.688,2.431,1.029,3.921,1.029c1.489,0,2.786-0.377,3.885-1.135
		c1.099-0.759,2.018-1.739,2.75-2.937c0.734-1.197,1.284-2.543,1.65-4.035c0.368-1.493,0.55-2.986,0.55-4.483
		C98.006,21.149,97.824,19.691,97.456,18.22"/>
	<path style="clip-path:url(#SVGID_2_);fill:#191919;" d="M126.686,35.54c-0.213-0.213-0.367-0.373-0.463-0.481
		c-0.094-0.107-0.203-0.229-0.319-0.373c-0.119-0.141-0.268-0.348-0.444-0.623c-0.178-0.271-0.458-0.68-0.836-1.224
		c-0.452-0.665-0.849-1.264-1.192-1.797c-0.343-0.533-0.693-1.062-1.05-1.583c-0.358-0.522-0.744-1.05-1.161-1.583
		c-0.417-0.535-0.912-1.133-1.483-1.794c-0.478-0.547-0.997-1.055-1.555-1.531c-0.561-0.476-1.151-0.77-1.77-0.89
		c-0.453-0.097-0.799-0.143-1.037-0.143c-0.215,0-0.489-0.011-0.822-0.037v4.021c0,1.137,0.02,2.097,0.061,2.88
		c0.023,0.76,0.047,1.412,0.072,1.956c0.023,0.546,0.154,0.994,0.391,1.351c0.189,0.309,0.557,0.624,1.102,0.944
		c0.544,0.317,1.303,0.503,2.276,0.549v0.357h-11.37v-0.357c0.592-0.094,1.162-0.234,1.707-0.427
		c0.545-0.187,0.973-0.474,1.28-0.853c0.12-0.144,0.213-0.354,0.285-0.642c0.07-0.285,0.124-0.604,0.16-0.961
		c0.035-0.354,0.064-0.736,0.089-1.14c0.023-0.403,0.036-0.794,0.036-1.176c0-0.33,0.005-0.783,0.016-1.352
		c0.009-0.569,0.02-1.193,0.031-1.87c0.009-0.676,0.015-1.372,0.015-2.084v-2.063v-6.942c0-0.427-0.006-0.86-0.019-1.301
		c-0.011-0.437-0.035-0.851-0.071-1.245c-0.035-0.391-0.095-0.747-0.177-1.067c-0.083-0.321-0.195-0.554-0.337-0.695
		c-0.356-0.377-0.754-0.634-1.192-0.766c-0.438-0.13-0.978-0.244-1.618-0.338V9.907h1.458h2.741h3.064h2.489
		c1.589,0,3.003,0.048,4.236,0.139c1.234,0.097,2.359,0.418,3.38,0.963c1.042,0.544,1.886,1.285,2.525,2.222
		c0.64,0.936,0.962,2.115,0.962,3.537c0,0.876-0.161,1.666-0.479,2.367c-0.322,0.698-0.749,1.312-1.281,1.848
		c-0.535,0.533-1.157,0.989-1.869,1.368c-0.712,0.38-1.459,0.7-2.241,0.96v0.106c0.404,0.211,0.793,0.521,1.172,0.923
		c0.381,0.403,0.748,0.855,1.105,1.354c0.616,0.899,1.286,1.871,2.008,2.913c0.723,1.046,1.369,1.969,1.939,2.774
		c0.876,1.233,1.729,2.133,2.56,2.703c0.83,0.568,1.802,0.936,2.918,1.099v0.357H126.686z M123.159,13.382
		c-0.593-0.923-1.46-1.657-2.599-2.203c-0.57-0.26-1.17-0.45-1.799-0.569c-0.628-0.121-1.287-0.178-1.975-0.178
		c-0.498,0-0.902,0.011-1.21,0.035c-0.309,0.022-0.547,0.049-0.712,0.07c-0.022,0.144-0.043,0.268-0.063,0.375
		c-0.021,0.107-0.037,0.243-0.047,0.408c-0.01,0.167-0.021,0.398-0.031,0.695c-0.01,0.297-0.025,0.717-0.046,1.261
		c-0.042,0.829-0.072,1.767-0.094,2.809c-0.02,1.045-0.029,2.054-0.029,3.024v2.562v1.348c0.975,0,1.885-0.04,2.731-0.123
		c0.844-0.083,1.66-0.254,2.445-0.516c0.761-0.236,1.416-0.553,1.963-0.96c0.546-0.403,0.994-0.856,1.34-1.367
		c0.345-0.509,0.6-1.062,0.766-1.656c0.167-0.593,0.251-1.207,0.251-1.849C124.05,15.363,123.752,14.308,123.159,13.382"/>
	<path style="clip-path:url(#SVGID_2_);fill:#666666;" d="M240.027,35.54c-0.215-0.213-0.368-0.373-0.464-0.481
		c-0.096-0.107-0.203-0.229-0.32-0.373c-0.119-0.141-0.267-0.348-0.444-0.623c-0.178-0.271-0.457-0.68-0.836-1.224
		c-0.452-0.665-0.848-1.264-1.19-1.797c-0.344-0.533-0.695-1.062-1.051-1.583c-0.358-0.522-0.745-1.05-1.16-1.583
		c-0.417-0.535-0.914-1.133-1.485-1.794c-0.475-0.547-0.996-1.055-1.554-1.531c-0.562-0.476-1.152-0.77-1.771-0.89
		c-0.454-0.097-0.799-0.143-1.037-0.143c-0.215,0-0.488-0.011-0.821-0.037v4.021c0,1.137,0.021,2.097,0.062,2.88
		c0.024,0.76,0.046,1.412,0.071,1.956c0.021,0.546,0.153,0.994,0.39,1.351c0.191,0.309,0.559,0.624,1.104,0.944
		c0.543,0.317,1.302,0.503,2.274,0.549v0.357h-11.369v-0.357c0.592-0.094,1.161-0.234,1.706-0.427
		c0.546-0.187,0.975-0.474,1.28-0.853c0.119-0.144,0.214-0.354,0.286-0.642c0.07-0.285,0.123-0.604,0.16-0.961
		c0.035-0.354,0.062-0.736,0.089-1.14c0.021-0.403,0.035-0.794,0.035-1.176c0-0.33,0.006-0.783,0.016-1.352
		c0.009-0.569,0.021-1.193,0.031-1.87c0.01-0.676,0.016-1.372,0.016-2.084v-2.063v-6.942c0-0.427-0.006-0.86-0.019-1.301
		c-0.014-0.437-0.035-0.851-0.071-1.245c-0.037-0.391-0.096-0.747-0.178-1.067c-0.082-0.321-0.195-0.554-0.338-0.695
		c-0.355-0.377-0.752-0.634-1.191-0.766c-0.438-0.13-0.979-0.244-1.618-0.338V9.907h1.458h2.741h3.064h2.489
		c1.589,0,3.003,0.048,4.235,0.139c1.234,0.097,2.36,0.418,3.38,0.963c1.042,0.544,1.886,1.285,2.527,2.222
		c0.639,0.936,0.961,2.115,0.961,3.537c0,0.876-0.162,1.666-0.479,2.367c-0.321,0.698-0.749,1.312-1.282,1.848
		c-0.533,0.533-1.157,0.989-1.867,1.368c-0.712,0.38-1.46,0.7-2.241,0.96v0.106c0.404,0.211,0.793,0.521,1.172,0.923
		c0.38,0.403,0.747,0.855,1.104,1.354c0.614,0.899,1.285,1.871,2.008,2.913c0.723,1.046,1.37,1.969,1.938,2.774
		c0.878,1.233,1.729,2.133,2.561,2.703c0.83,0.568,1.802,0.936,2.917,1.099v0.357H240.027z M236.499,13.382
		c-0.593-0.923-1.461-1.657-2.599-2.203c-0.57-0.26-1.17-0.45-1.799-0.569c-0.629-0.121-1.288-0.178-1.976-0.178
		c-0.498,0-0.904,0.011-1.212,0.035c-0.307,0.022-0.545,0.049-0.71,0.07c-0.022,0.144-0.045,0.268-0.064,0.375
		c-0.021,0.107-0.037,0.243-0.047,0.408c-0.01,0.167-0.021,0.398-0.029,0.695c-0.012,0.297-0.026,0.717-0.046,1.261
		c-0.043,0.829-0.073,1.767-0.097,2.809c-0.019,1.045-0.027,2.054-0.027,3.024v2.562v1.348c0.975,0,1.884-0.04,2.73-0.123
		c0.844-0.083,1.659-0.254,2.446-0.516c0.761-0.236,1.415-0.553,1.962-0.96c0.547-0.403,0.994-0.856,1.34-1.367
		c0.346-0.509,0.6-1.062,0.766-1.656c0.167-0.593,0.252-1.207,0.252-1.849C237.39,15.363,237.092,14.308,236.499,13.382"/>
	<path style="clip-path:url(#SVGID_2_);fill:#191919;" d="M160.345,16.625c-0.19-0.428-0.416-0.871-0.676-1.336
		c-0.262-0.458-0.529-0.893-0.8-1.295c-0.275-0.405-0.543-0.777-0.801-1.122c-0.262-0.342-0.484-0.598-0.676-0.764
		c-0.498-0.473-1.039-0.788-1.619-0.942c-0.581-0.154-1.321-0.243-2.222-0.267c-0.452,0-0.842-0.011-1.174-0.032
		c-0.332-0.02-0.664-0.03-0.995-0.03h-1.033h-1.315c0,0.594-0.011,1.399-0.031,2.422c-0.022,1.019-0.031,2.086-0.031,3.201v3.309
		v2.707v7.9c0,0.689,0.017,1.349,0.054,1.977c0.034,0.631,0.146,1.075,0.336,1.335c0.355,0.524,0.86,0.881,1.511,1.068
		c0.653,0.191,1.239,0.333,1.762,0.426v0.356h-11.522v-0.356c0.617-0.071,1.209-0.188,1.778-0.355
		c0.57-0.167,1.127-0.557,1.673-1.174c0.118-0.119,0.207-0.314,0.266-0.588c0.058-0.27,0.106-0.581,0.143-0.926
		c0.034-0.341,0.058-0.717,0.07-1.122c0.011-0.401,0.019-0.794,0.019-1.173c0-0.332,0.005-0.771,0.014-1.317
		c0.01-0.546,0.022-1.149,0.031-1.812c0.011-0.666,0.016-1.354,0.016-2.066v-2.029V10.837h-1.316h-1.03
		c-0.309,0-0.634,0.01-0.978,0.03c-0.345,0.021-0.742,0.032-1.192,0.032c-0.902,0.024-1.643,0.13-2.223,0.321
		c-0.58,0.19-1.12,0.521-1.618,0.996c-0.19,0.165-0.409,0.414-0.658,0.747c-0.249,0.331-0.51,0.693-0.781,1.085
		c-0.274,0.39-0.536,0.812-0.784,1.261c-0.25,0.45-0.445,0.888-0.586,1.316l-0.321-0.108l1.067-6.736
		c0.545,0.119,1.049,0.214,1.512,0.284c0.462,0.071,1.131,0.121,2.009,0.143c0.902,0.025,1.708,0.041,2.42,0.054
		c0.71,0.011,1.398,0.019,2.063,0.019h2.025h2.383h2.345c0.712,0,1.399-0.008,2.063-0.019c0.664-0.013,1.352-0.023,2.063-0.035
		c0.711-0.011,1.517-0.019,2.418-0.019c0.782-0.022,1.428-0.089,1.939-0.195c0.509-0.107,1.037-0.246,1.583-0.418l1.138,6.922
		L160.345,16.625z"/>
	<path style="clip-path:url(#SVGID_2_);fill:#191919;" d="M184.967,35.54h-21.755v-0.357c0.593-0.093,1.142-0.249,1.653-0.46
		c0.511-0.215,0.933-0.511,1.264-0.891c0.119-0.144,0.214-0.35,0.286-0.623c0.069-0.275,0.134-0.59,0.195-0.944
		c0.057-0.357,0.099-0.729,0.122-1.122c0.026-0.391,0.035-0.775,0.035-1.157c0-0.33,0.008-0.784,0.017-1.352
		c0.01-0.569,0.021-1.193,0.031-1.87c0.01-0.675,0.017-1.372,0.017-2.084v-2.063v-6.943c0-0.426-0.007-0.866-0.019-1.318
		c-0.011-0.45-0.035-0.877-0.07-1.281c-0.037-0.403-0.096-0.766-0.179-1.085c-0.082-0.321-0.195-0.552-0.336-0.695
		c-0.358-0.381-0.735-0.623-1.142-0.731c-0.4-0.106-0.923-0.208-1.562-0.302V9.907h19.611l2.417,5.873l-0.354,0.18
		c-1.921-2.398-3.724-4.012-5.407-4.843c-0.403-0.19-1.15-0.356-2.242-0.499c-1.088-0.141-2.417-0.214-3.98-0.214
		c-0.499,0-1.016,0.019-1.549,0.054c-0.532,0.036-0.92,0.079-1.153,0.126c-0.052,0.38-0.096,1.163-0.132,2.349
		c-0.036,1.187-0.056,2.565-0.056,4.131v2.277c0,0.617,0.009,1.122,0.031,1.513c0.019,0.395,0.03,0.695,0.03,0.909v0.392h0.737
		c0.355,0,0.765-0.013,1.229-0.037c0.459-0.022,0.923-0.052,1.387-0.088c0.46-0.035,0.847-0.089,1.155-0.161
		c0.712-0.168,1.302-0.393,1.778-0.677c0.474-0.285,0.859-0.628,1.154-1.032c0.298-0.405,0.534-0.873,0.714-1.407
		c0.178-0.533,0.336-1.129,0.479-1.796h0.428v11.214h-0.428c-0.191-0.761-0.483-1.543-0.871-2.35
		c-0.392-0.807-0.801-1.413-1.228-1.815c-0.382-0.331-0.837-0.606-1.369-0.819c-0.533-0.214-1.156-0.344-1.868-0.394
		c-0.355-0.023-0.652-0.04-0.888-0.052c-0.238-0.011-0.474-0.018-0.712-0.018h-0.714h-0.923c-0.082,0.332-0.123,0.819-0.123,1.458
		v1.997v1.066v1.209c0,0.38,0.009,0.744,0.031,1.086c0.019,0.346,0.03,0.638,0.03,0.874c0.023,0.759,0.064,1.476,0.126,2.154
		c0.057,0.674,0.195,1.181,0.409,1.513c0.212,0.334,0.722,0.57,1.528,0.712c0.807,0.141,1.684,0.212,2.631,0.212
		c0.403,0,0.919-0.012,1.549-0.034c0.627-0.023,1.286-0.083,1.973-0.178c0.757-0.096,1.458-0.278,2.099-0.553
		c0.642-0.272,1.256-0.657,1.85-1.155c0.593-0.5,1.168-1.111,1.726-1.835c0.555-0.723,1.129-1.595,1.722-2.616l0.393,0.105
		L184.967,35.54z"/>
	<path style="clip-path:url(#SVGID_2_);fill:#666666;" d="M202.201,23.004v6.941c0,1.313,0.073,2.29,0.223,2.928
		c0.148,0.638,0.422,1.164,0.821,1.576c0.35,0.361,0.751,0.628,1.208,0.802s1.061,0.28,1.809,0.319v0.444h-12.354V35.57
		c0.747-0.039,1.351-0.146,1.809-0.319c0.457-0.174,0.859-0.44,1.207-0.802c0.413-0.412,0.689-0.935,0.832-1.566
		c0.142-0.632,0.212-1.61,0.212-2.938V15.697c0-1.108-0.048-1.962-0.144-2.561c-0.098-0.6-0.261-1.086-0.494-1.46
		c-0.335-0.515-0.76-0.899-1.275-1.15s-1.187-0.403-2.011-0.454h-0.136V9.627h11.657c2.036,0,3.538,0.104,4.504,0.309
		c0.967,0.207,1.85,0.619,2.649,1.238c1.83,1.392,2.745,3.247,2.745,5.567c0,2.359-0.929,4.086-2.783,5.181
		c-0.968,0.567-2.141,0.908-3.519,1.025c-0.438,0.038-1.496,0.057-3.171,0.057H202.201z M202.201,22.386h1.895
		c1.276,0,2.258-0.094,2.948-0.28c0.689-0.187,1.306-0.531,1.846-1.034c1.263-1.147,1.896-2.674,1.896-4.581
		c0-1.057-0.184-2.026-0.552-2.91c-0.368-0.883-0.892-1.601-1.577-2.155c-0.785-0.657-1.719-1.044-2.801-1.16
		c-0.298-0.025-0.973-0.039-2.03-0.039h-1.624V22.386z"/>
	<path style="clip-path:url(#SVGID_2_);fill:#666666;" d="M249.113,22.995c0-2.167,0.465-4.176,1.392-6.027
		c0.929-1.85,2.282-3.465,4.06-4.845c1.328-1.019,2.758-1.803,4.292-2.351c1.532-0.548,3.08-0.822,4.64-0.822
		c1.984,0,3.904,0.435,5.761,1.306c1.855,0.871,3.479,2.099,4.871,3.685c2.268,2.579,3.403,5.514,3.403,8.802
		c0,1.651-0.299,3.244-0.89,4.778c-0.593,1.535-1.458,2.935-2.59,4.198c-1.394,1.573-3.039,2.792-4.939,3.655
		c-1.901,0.864-3.889,1.298-5.964,1.298c-2.049,0-4.01-0.42-5.878-1.259c-1.869-0.838-3.479-2.024-4.831-3.559
		c-1.07-1.199-1.892-2.564-2.465-4.092C249.4,26.235,249.113,24.646,249.113,22.995 M253.791,23.285c0,3.74,1.018,6.894,3.055,9.459
		c0.915,1.149,1.884,1.984,2.909,2.506c1.023,0.522,2.208,0.783,3.548,0.783c1.353,0,2.542-0.258,3.567-0.772
		c1.024-0.517,2.002-1.354,2.928-2.517c2.036-2.579,3.055-5.758,3.055-9.537c0-2.075-0.279-4.04-0.841-5.89
		c-0.561-1.851-1.351-3.422-2.368-4.711c-0.826-1.057-1.743-1.828-2.755-2.312s-2.208-0.726-3.586-0.726
		c-1.366,0-2.549,0.239-3.548,0.717c-0.998,0.477-1.923,1.25-2.773,2.321c-1.018,1.277-1.805,2.844-2.359,4.701
		C254.068,19.165,253.791,21.156,253.791,23.285"/>
	<path style="clip-path:url(#SVGID_2_);fill:#666666;" d="M313.443,10.072c-0.733,0.039-1.324,0.139-1.768,0.3
		c-0.445,0.161-0.855,0.428-1.229,0.802c-0.283,0.271-0.496,0.57-0.638,0.899c-0.142,0.328-0.239,0.744-0.29,1.246
		c-0.09,0.671-0.135,1.464-0.135,2.379v14.247c0,1.327,0.076,2.313,0.231,2.957c0.154,0.646,0.432,1.16,0.831,1.548
		c0.709,0.683,1.707,1.057,2.996,1.12v0.445h-12.352v-0.445c0.747-0.037,1.349-0.144,1.806-0.318
		c0.459-0.174,0.868-0.441,1.229-0.802c0.398-0.412,0.674-0.938,0.82-1.575c0.149-0.64,0.225-1.615,0.225-2.93V12.663l-9.958,23.352
		h-0.406l-9.897-23.005v16.935c0,1.327,0.075,2.308,0.223,2.938c0.148,0.631,0.422,1.154,0.821,1.566
		c0.362,0.374,0.771,0.644,1.229,0.812c0.458,0.168,1.054,0.271,1.789,0.309v0.445h-8.913v-0.445
		c0.735-0.037,1.331-0.141,1.788-0.309c0.458-0.168,0.867-0.438,1.228-0.812c0.399-0.412,0.675-0.938,0.821-1.575
		c0.149-0.64,0.222-1.615,0.222-2.93V15.698c0-0.593-0.019-1.154-0.057-1.682c-0.063-0.954-0.212-1.65-0.444-2.088
		c-0.323-0.605-0.764-1.054-1.323-1.344c-0.561-0.29-1.307-0.461-2.234-0.512V9.627h8.391l8.37,20.666l8.681-20.666h7.944V10.072z"
		/>
</g>
</svg>
