<?xml version="1.0" encoding="iso-8859-1"?>
<!-- Generator: Adobe Illustrator 16.0.0, SVG Export Plug-In . SVG Version: 6.00 Build 0)  -->
<!DOCTYPE svg PUBLIC "-//W3C//DTD SVG 1.1//EN" "http://www.w3.org/Graphics/SVG/1.1/DTD/svg11.dtd">
<svg version="1.1" id="Layer_1" xmlns="http://www.w3.org/2000/svg" xmlns:xlink="http://www.w3.org/1999/xlink" x="0px" y="0px"
	 width="168.01px" height="36.147px" viewBox="0 0 168.01 36.147" style="enable-background:new 0 0 168.01 36.147;"
	 xml:space="preserve">
<g>
	<defs>
		<rect id="SVGID_1_" width="168.01" height="36.147"/>
	</defs>
	<clipPath id="SVGID_2_">
		<use xlink:href="#SVGID_1_"  style="overflow:visible;"/>
	</clipPath>
	<path style="clip-path:url(#SVGID_2_);fill:#C5073C;" d="M32.788,20.968H16.739l-2.847,14.688c1.343,0.317,2.742,0.49,4.184,0.49
		c0.618,0,1.23-0.029,1.834-0.095C19.912,28.436,25.49,22.123,32.788,20.968"/>
	<path style="clip-path:url(#SVGID_2_);fill:#C5073C;" d="M28.547,14.572c-2.21,0-4.037-1.601-4.037-4.04
		c0-1.524,0.533-2.285,0.987-2.894c0.611-0.915,0.764-1.37,0.764-1.751c0-0.611-0.533-1.448-1.982-1.448
		c-0.457,0-1.829,0.073-3.424,1.903c-1.526,1.751-1.985,4.115-2.518,6.552l-1.37,6.781h19.106c0.045-0.528,0.074-1.062,0.074-1.602
		c0-4.14-1.397-7.953-3.737-10.999c0.407,0.885,0.554,1.829,0.554,2.774C32.964,13.275,30.602,14.572,28.547,14.572"/>
	<path style="clip-path:url(#SVGID_2_);fill:#C5073C;" d="M0.235,20.968c0.597,3.713,2.329,7.043,4.821,9.636l1.856-9.636H0.235z"/>
	<path style="clip-path:url(#SVGID_2_);fill:#C5073C;" d="M9.046,12.588c0.987-2.435,2.132-4.341,4.11-6.017
		c3.276-2.818,7.315-3.654,10.514-3.654c1.143,0,3.809,0.073,6.021,1.368c0.069,0.04,0.135,0.085,0.207,0.125
		C26.727,1.668,22.596,0,18.076,0C8.093,0,0,8.09,0,18.073c0,0.54,0.028,1.073,0.076,1.603h7.063
		C7.522,17.541,8.131,14.877,9.046,12.588"/>
	<path style="clip-path:url(#SVGID_2_);" d="M65.586,14.456c-0.873-1.088-1.706-2.018-2.496-2.787
		c-0.789-0.767-1.558-1.336-2.305-1.699c-0.359-0.172-1.015-0.312-1.967-0.431c-0.947-0.117-2.052-0.177-3.308-0.177
		c-0.215,0-0.46,0.006-0.738,0.016c-0.279,0.011-0.544,0.021-0.801,0.033c-0.255,0.009-0.498,0.022-0.719,0.033
		c-0.227,0.011-0.391,0.014-0.495,0.014c-0.022,0.129-0.05,0.257-0.078,0.386c-0.036,0.126-0.062,0.277-0.083,0.449
		c-0.022,0.171-0.043,0.388-0.065,0.654c-0.021,0.268-0.043,0.595-0.061,0.978c-0.041,0.749-0.065,1.564-0.086,2.45
		c-0.02,0.887-0.028,1.727-0.028,2.514v2.049v0.993h0.578c0.339,0,0.717-0.01,1.133-0.029c0.417-0.021,0.85-0.049,1.297-0.082
		c0.448-0.031,0.821-0.079,1.12-0.145c0.766-0.17,1.375-0.395,1.823-0.672c0.449-0.275,0.799-0.608,1.055-0.993
		c0.257-0.385,0.439-0.806,0.545-1.267c0.105-0.458,0.202-0.953,0.288-1.489h0.386v10.313h-0.386
		c-0.17-0.681-0.416-1.402-0.735-2.161c-0.323-0.757-0.704-1.339-1.153-1.746c-0.405-0.362-0.835-0.634-1.297-0.816
		c-0.456-0.179-0.994-0.292-1.614-0.335c-0.32-0.021-0.595-0.037-0.831-0.048s-0.459-0.017-0.673-0.017h-0.671h-0.865v2.051v1.922
		c0,0.597,0.008,1.146,0.028,1.651c0.021,0.5,0.03,0.932,0.03,1.292c0.02,0.687,0.058,1.334,0.111,1.939
		c0.051,0.608,0.175,1.064,0.368,1.361c0.192,0.297,0.516,0.528,0.975,0.688s1.125,0.262,2,0.304v0.325H45.64v-0.325
		c0.533-0.085,1.028-0.225,1.484-0.415c0.462-0.192,0.84-0.458,1.138-0.798c0.109-0.131,0.192-0.317,0.257-0.562
		c0.063-0.247,0.121-0.529,0.172-0.848c0.056-0.324,0.094-0.658,0.115-1.011s0.034-0.698,0.034-1.041
		c0-0.301,0.004-0.704,0.012-1.218c0.008-0.509,0.018-1.071,0.028-1.682c0.01-0.61,0.015-1.232,0.015-1.873v-1.857v-6.248
		c0-0.382-0.005-0.778-0.018-1.185c-0.009-0.404-0.03-0.791-0.063-1.153c-0.032-0.363-0.086-0.688-0.158-0.976
		c-0.076-0.286-0.175-0.495-0.306-0.626c-0.32-0.34-0.659-0.559-1.024-0.656c-0.363-0.095-0.832-0.186-1.405-0.272v-0.32h17.81
		l2.175,5.381L65.586,14.456z"/>
	<path style="clip-path:url(#SVGID_2_);" d="M91.181,25.042c-0.638,1.451-1.509,2.709-2.605,3.776
		c-1.097,1.063-2.374,1.886-3.829,2.459c-1.458,0.581-3.009,0.866-4.648,0.866c-1.62,0-3.149-0.283-4.601-0.847
		c-1.448-0.566-2.716-1.364-3.798-2.402c-1.087-1.032-1.946-2.267-2.574-3.706c-0.628-1.442-0.942-3.023-0.942-4.749
		c0-1.835,0.329-3.483,0.992-4.945c0.659-1.46,1.549-2.697,2.664-3.709c1.118-1.012,2.429-1.791,3.93-2.336
		c1.501-0.543,3.083-0.814,4.743-0.814c1.81,0,3.435,0.318,4.871,0.961c1.435,0.638,2.655,1.497,3.656,2.571
		c1.004,1.08,1.771,2.322,2.303,3.728c0.53,1.408,0.795,2.879,0.795,4.412C92.137,22.015,91.817,23.591,91.181,25.042
		 M87.679,16.394c-0.331-1.324-0.83-2.524-1.501-3.602c-0.668-1.073-1.506-1.95-2.507-2.622c-0.999-0.671-2.181-1.008-3.542-1.008
		c-1.385,0-2.581,0.337-3.592,1.008c-1.01,0.672-1.84,1.543-2.488,2.61c-0.651,1.065-1.128,2.275-1.439,3.628
		c-0.309,1.356-0.461,2.726-0.461,4.11c0,1.454,0.169,2.851,0.509,4.197c0.342,1.341,0.849,2.524,1.517,3.549
		c0.671,1.025,1.511,1.844,2.522,2.464c1.01,0.619,2.186,0.925,3.527,0.925c1.342,0,2.505-0.34,3.497-1.022
		c0.987-0.681,1.812-1.561,2.472-2.638c0.663-1.077,1.155-2.289,1.486-3.634c0.331-1.343,0.492-2.684,0.492-4.031
		C88.171,19.027,88.01,17.716,87.679,16.394"/>
	<path style="clip-path:url(#SVGID_2_);" d="M113.976,31.979c-0.193-0.197-0.331-0.34-0.417-0.435
		c-0.085-0.097-0.181-0.21-0.287-0.337c-0.107-0.127-0.238-0.315-0.4-0.558c-0.156-0.246-0.411-0.616-0.754-1.106
		c-0.404-0.595-0.764-1.135-1.072-1.615c-0.307-0.478-0.621-0.956-0.942-1.423c-0.324-0.471-0.673-0.947-1.044-1.427
		c-0.373-0.478-0.82-1.016-1.337-1.615c-0.428-0.489-0.896-0.947-1.401-1.375c-0.502-0.426-1.029-0.692-1.589-0.799
		c-0.409-0.084-0.721-0.13-0.93-0.13c-0.195,0-0.442-0.011-0.742-0.032v3.617c0,1.022,0.019,1.887,0.056,2.589
		c0.021,0.687,0.038,1.273,0.065,1.762c0.02,0.491,0.138,0.896,0.353,1.216c0.168,0.276,0.499,0.56,0.989,0.848
		c0.49,0.289,1.175,0.453,2.046,0.495v0.325H96.342v-0.325c0.53-0.085,1.045-0.21,1.534-0.383c0.488-0.17,0.873-0.428,1.155-0.771
		c0.105-0.123,0.189-0.315,0.256-0.573c0.062-0.255,0.109-0.544,0.14-0.866c0.034-0.318,0.062-0.66,0.081-1.024
		c0.021-0.362,0.031-0.714,0.031-1.057c0-0.301,0.005-0.704,0.019-1.218c0.008-0.509,0.015-1.071,0.024-1.682
		c0.012-0.61,0.017-1.232,0.017-1.873v-1.857v-6.248c0-0.382-0.007-0.774-0.017-1.167c-0.012-0.396-0.033-0.77-0.064-1.12
		c-0.033-0.356-0.088-0.675-0.159-0.96c-0.076-0.291-0.179-0.498-0.305-0.626c-0.321-0.344-0.676-0.571-1.07-0.69
		c-0.395-0.117-0.88-0.219-1.456-0.305v-0.32h1.313h2.462h2.757h2.238c1.432,0,2.702,0.042,3.813,0.129
		c1.11,0.087,2.121,0.373,3.039,0.862c0.94,0.491,1.696,1.159,2.27,1.998c0.58,0.844,0.868,1.905,0.868,3.186
		c0,0.787-0.143,1.496-0.433,2.125c-0.288,0.629-0.673,1.185-1.151,1.664c-0.48,0.479-1.042,0.891-1.682,1.232
		c-0.64,0.341-1.311,0.63-2.013,0.861v0.098c0.361,0.19,0.711,0.467,1.054,0.832c0.34,0.36,0.671,0.767,0.992,1.213
		c0.558,0.813,1.158,1.686,1.808,2.626c0.652,0.938,1.232,1.77,1.741,2.493c0.792,1.108,1.559,1.919,2.305,2.429
		c0.747,0.513,1.623,0.847,2.627,0.992v0.325H113.976z M110.802,12.043c-0.532-0.835-1.312-1.494-2.341-1.984
		c-0.509-0.235-1.049-0.409-1.614-0.514c-0.569-0.105-1.161-0.159-1.774-0.159c-0.45,0-0.818,0.012-1.095,0.033
		s-0.487,0.041-0.64,0.063c-0.016,0.127-0.038,0.242-0.055,0.337c-0.02,0.096-0.036,0.221-0.041,0.366
		c-0.012,0.152-0.021,0.362-0.03,0.626c-0.008,0.265-0.02,0.645-0.041,1.134c-0.038,0.746-0.066,1.589-0.083,2.527
		c-0.021,0.942-0.028,1.848-0.028,2.719v2.304v1.216c0.878,0,1.696-0.036,2.457-0.109c0.759-0.075,1.494-0.229,2.198-0.466
		c0.688-0.213,1.275-0.5,1.768-0.861c0.492-0.364,0.894-0.775,1.205-1.232c0.312-0.459,0.54-0.955,0.692-1.489
		c0.146-0.533,0.222-1.09,0.222-1.664C111.602,13.822,111.337,12.876,110.802,12.043"/>
	<path style="clip-path:url(#SVGID_2_);" d="M144.256,14.958c-0.171-0.382-0.373-0.783-0.605-1.197
		c-0.236-0.416-0.479-0.805-0.722-1.168c-0.247-0.363-0.485-0.701-0.723-1.011c-0.231-0.307-0.436-0.537-0.604-0.686
		c-0.449-0.427-0.935-0.71-1.456-0.847c-0.523-0.139-1.191-0.217-2-0.242c-0.407,0-0.759-0.009-1.057-0.028
		c-0.3-0.016-0.597-0.027-0.899-0.027h-0.925h-1.185c0,0.533-0.012,1.26-0.028,2.178c-0.021,0.917-0.026,1.878-0.026,2.881v2.978
		v2.435v7.108c0,0.622,0.017,1.211,0.048,1.775c0.033,0.57,0.133,0.969,0.304,1.202c0.319,0.472,0.775,0.792,1.361,0.962
		c0.582,0.173,1.11,0.298,1.584,0.383v0.324h-10.366v-0.324c0.557-0.063,1.085-0.169,1.601-0.319
		c0.509-0.148,1.01-0.499,1.506-1.056c0.1-0.106,0.186-0.282,0.235-0.53c0.055-0.241,0.095-0.521,0.131-0.833
		c0.031-0.307,0.05-0.645,0.064-1.007c0.009-0.362,0.017-0.714,0.017-1.061c0-0.297,0.002-0.689,0.012-1.178
		c0.01-0.494,0.02-1.039,0.028-1.636c0.008-0.599,0.015-1.218,0.015-1.858v-1.824V9.751h-1.183h-0.93
		c-0.276,0-0.571,0.011-0.878,0.027c-0.313,0.019-0.671,0.028-1.075,0.028c-0.812,0.025-1.478,0.12-1.998,0.289
		c-0.523,0.174-1.009,0.469-1.456,0.897c-0.171,0.147-0.368,0.373-0.592,0.673c-0.224,0.296-0.459,0.623-0.702,0.976
		c-0.247,0.352-0.482,0.731-0.706,1.132c-0.224,0.407-0.399,0.802-0.525,1.184l-0.293-0.095l0.961-6.059
		c0.49,0.105,0.946,0.193,1.36,0.255c0.417,0.064,1.02,0.107,1.806,0.128c0.813,0.02,1.539,0.038,2.179,0.047
		c0.64,0.013,1.259,0.018,1.855,0.018h1.824h2.142h2.109c0.643,0,1.261-0.005,1.855-0.018c0.597-0.009,1.218-0.02,1.86-0.03
		c0.635-0.011,1.36-0.017,2.174-0.017c0.704-0.021,1.284-0.081,1.739-0.176c0.464-0.097,0.937-0.221,1.425-0.376l1.027,6.228
		L144.256,14.958z"/>
	<path style="clip-path:url(#SVGID_2_);" d="M166.406,31.979h-19.569v-0.326c0.533-0.084,1.027-0.223,1.486-0.415
		c0.457-0.19,0.838-0.458,1.138-0.798c0.104-0.13,0.19-0.316,0.258-0.561c0.063-0.248,0.12-0.529,0.17-0.849
		c0.058-0.325,0.093-0.659,0.114-1.011c0.026-0.352,0.033-0.698,0.033-1.041c0-0.301,0.005-0.704,0.017-1.218
		c0.005-0.509,0.017-1.071,0.026-1.682c0.007-0.61,0.016-1.232,0.016-1.873V20.35v-6.249c0-0.382-0.009-0.778-0.021-1.184
		c-0.01-0.405-0.028-0.792-0.063-1.153c-0.031-0.363-0.081-0.689-0.157-0.976c-0.076-0.286-0.178-0.496-0.305-0.626
		c-0.316-0.34-0.661-0.559-1.025-0.657c-0.361-0.095-0.83-0.185-1.406-0.271V8.913h17.645l2.173,5.286l-0.318,0.159
		c-1.729-2.155-3.35-3.609-4.865-4.356c-0.363-0.171-1.031-0.321-2.017-0.448c-0.978-0.13-2.172-0.193-3.58-0.193
		c-0.452,0-0.913,0.017-1.392,0.049c-0.48,0.033-0.83,0.072-1.042,0.114c-0.043,0.341-0.081,1.046-0.114,2.113
		c-0.038,1.068-0.052,2.307-0.052,3.714v2.05c0,0.555,0.009,1.012,0.03,1.363c0.017,0.354,0.026,0.622,0.026,0.814v0.353h0.661
		c0.321,0,0.688-0.01,1.106-0.03c0.414-0.02,0.832-0.048,1.246-0.082c0.417-0.03,0.762-0.078,1.04-0.144
		c0.64-0.147,1.175-0.351,1.599-0.607c0.428-0.256,0.772-0.569,1.041-0.93c0.265-0.363,0.483-0.785,0.638-1.264
		c0.162-0.48,0.308-1.02,0.434-1.62h0.386v10.091h-0.386c-0.174-0.683-0.434-1.388-0.785-2.112
		c-0.353-0.726-0.719-1.272-1.102-1.634c-0.343-0.298-0.754-0.545-1.232-0.737c-0.48-0.191-1.042-0.31-1.682-0.353
		c-0.318-0.021-0.585-0.037-0.797-0.048c-0.216-0.011-0.428-0.017-0.64-0.017h-0.64h-0.83c-0.079,0.297-0.114,0.736-0.114,1.313
		v1.793v0.959v1.091c0,0.339,0.009,0.667,0.03,0.978c0.017,0.31,0.026,0.569,0.026,0.782c0.02,0.687,0.058,1.333,0.109,1.94
		c0.055,0.607,0.179,1.062,0.371,1.36c0.19,0.297,0.645,0.513,1.373,0.64c0.728,0.129,1.515,0.191,2.369,0.191
		c0.361,0,0.827-0.009,1.392-0.029c0.565-0.02,1.155-0.076,1.776-0.162c0.681-0.084,1.311-0.248,1.887-0.494
		c0.575-0.245,1.132-0.593,1.667-1.041c0.53-0.45,1.047-0.999,1.551-1.648c0.5-0.653,1.016-1.439,1.552-2.356l0.353,0.094
		L166.406,31.979z"/>
</g>
</svg>
